<?xml version="1.0" encoding="utf-8"?>
<!-- Generator: Adobe Illustrator 16.0.4, SVG Export Plug-In . SVG Version: 6.00 Build 0)  -->
<!DOCTYPE svg PUBLIC "-//W3C//DTD SVG 1.1//EN" "http://www.w3.org/Graphics/SVG/1.1/DTD/svg11.dtd">
<svg version="1.1" id="Layer_1" xmlns="http://www.w3.org/2000/svg" xmlns:xlink="http://www.w3.org/1999/xlink" x="0px" y="0px"
	 width="650px" height="650px" viewBox="0 0 650 650" enable-background="new 0 0 650 650" xml:space="preserve">
<path fill-rule="evenodd" clip-rule="evenodd" fill="#231F20" d="M648.457,325.56c0.193,177.364-144.461,321.829-322.579,322.149
	C147.32,648.031,2.155,503.783,2,325.875C1.847,147.654,146.305,3.173,324.824,3C503.666,2.827,648.26,146.94,648.457,325.56z"/>
<path fill-rule="evenodd" clip-rule="evenodd" fill="#060606" d="M557.381,596.725c-1.922,2.906-2.041,5.607-2.76,8.102
	c-0.354,1.223-0.643,2.182-2.146,2.25c-1.584,0.076-1.859-0.936-2.16-2.152c-0.66-2.662-1.436-5.293-2.77-7.828
	c0,2.641,0.02,5.281-0.01,7.922c-0.012,0.982,0.004,2.01-1.463,2.059c-1.502,0.049-1.523-0.988-1.531-1.979
	c-0.029-3.824-0.037-7.65,0-11.479c0.01-1.059-0.432-2.529,1.506-2.412c1.547,0.098,3.469-0.66,4.082,1.691
	c0.609,2.332,1.209,4.668,1.877,7.256c2.049-1.814,1.953-4.146,2.393-6.133c0.5-2.277,1.541-2.879,3.744-2.889
	c2.768-0.014,2.25,1.773,2.256,3.352c0.023,3.494,0.014,6.988-0.004,10.48c-0.006,1.045-0.174,2.043-1.539,2.074
	c-1.459,0.035-1.447-1.082-1.463-2.053C557.354,602.492,557.381,599.996,557.381,596.725z"/>
<path fill-rule="evenodd" clip-rule="evenodd" fill="#0C0C0C" d="M536.199,591.188c0.83-0.004,1.697-0.16,2.482,0.033
	c1.277,0.314,3.363-1.084,3.736,1.057c0.436,2.514-1.824,1.66-3.109,1.805c-2.086,0.236-1.537,1.799-1.566,3.008
	c-0.061,2.652,0,5.311-0.037,7.963c-0.018,0.99-0.074,2.08-1.52,2.006c-1.336-0.07-1.51-1.053-1.52-2.1
	c-0.018-1.824,0.062-3.652-0.031-5.473c-0.127-2.492,1.334-6.07-3.588-5.572c-0.287,0.029-0.898-0.92-0.971-1.465
	c-0.146-1.148,0.814-1.232,1.646-1.252C533.213,591.168,534.707,591.188,536.199,591.188z"/>
<path fill-rule="evenodd" clip-rule="evenodd" fill="#FDF100" d="M634.426,325.356c-0.127,170.292-138.271,308.089-309.079,308.306
	C154.683,633.879,15.758,495.277,16.032,325.067C16.309,154.575,154.813,16.89,325.878,17.057
	C496.164,17.222,634.555,155.5,634.426,325.356z"/>
<path fill-rule="evenodd" clip-rule="evenodd" fill="#231F20" d="M619.832,325.185c0.805,161.311-131.318,293.961-294.08,294.233
	C162.612,619.693,30.68,487.082,30.466,325.743C30.254,164.171,162.092,31.16,325.452,31.269
	C488.322,31.376,620.469,163.948,619.832,325.185z"/>
<path fill-rule="evenodd" clip-rule="evenodd" fill="#FDF100" d="M325.464,514.406C220.667,514.6,136.094,430.404,135.78,325.575
	c-0.312-104.459,84.147-188.952,189.223-189.295c104.628-0.341,189.603,84.254,189.679,188.837
	C514.76,429.82,430.4,514.215,325.464,514.406z"/>
<path fill-rule="evenodd" clip-rule="evenodd" fill="#FEFEFE" d="M365.457,530.201c-6.008,22.104-12.209,44.156-17.867,66.35
	c-1.262,4.949-3.191,6.707-8.232,6.736c-9.377,0.059-9.32,0.34-11.299-8.832c-1.924-8.92-3.982-17.812-6.305-28.172
	c-3.061,11.289-5.999,21.174-8.348,31.199c-1.065,4.555-2.535,6.205-7.601,5.291c-8.833-1.59-8.957-1.17-10.997-10.311
	c-4.629-20.742-9.205-41.496-13.804-62.242c-0.567-2.074,0.146-2.857,2.253-2.242c12.495,2.184,12.43,2.199,15.068,14.533
	c1.902,8.889,4.005,17.736,6.016,26.602c0.572,0.873,1.14,0.861,1.705-0.006c2.611-9.424,5.411-18.801,7.726-28.295
	c0.791-3.246,2.065-4.258,5.335-4.229c10.907,0.104,10.891-0.014,13.159,10.475c1.916,8.865,3.869,17.721,6.576,26.504
	c3.336-12.217,6.924-24.371,9.879-36.678c1.143-4.756,2.959-7.377,8.105-7.057c1.441,0.088,2.926-0.529,4.393-0.824
	C362.797,528.82,364.699,527.477,365.457,530.201z"/>
<path fill-rule="evenodd" clip-rule="evenodd" fill="#FEFEFE" d="M381.264,85.191c-4.615,6.114-9.43,12.093-13.762,18.403
	c-1.951,2.842-3.977,2.439-6.768,2.202c-3.113-0.264-3.721-2.071-4.369-4.379c-2.111-7.513-4.279-15.011-7.133-22.547
	c-1.988,11.095-3.975,22.19-5.965,33.285c-0.324,1.803-0.664,3.603-0.98,5.408c-0.148,0.848-0.328,1.75-1.42,1.677
	c-3.824-0.258-7.684-0.352-11.451-0.976c-2.246-0.373-1.076-2.477-0.85-3.748c3.105-17.55,6.297-35.082,9.461-52.62
	c0.682-3.769,1.342-7.543,2.006-11.316c0.145-0.821,0.045-2.233,0.434-2.379c4.564-1.722,9.125,0.289,13.703,0.195
	c2.176-0.046,2.711,1.183,3.184,3.01c2.627,10.136,5.383,20.235,8.299,31.112c6.133-8.645,12.07-16.645,17.561-24.939
	c2.066-3.122,3.969-4.037,7.641-3.097c10.768,2.757,10.734,2.589,8.76,13.681c-3.24,18.206-6.416,36.421-9.52,54.649
	c-0.602,3.551-1.143,5.5-5.838,4.126c-9.029-2.643-9.064-2.228-7.336-11.696c1.613-8.846,3.025-17.729,4.527-26.596
	C381.779,87.473,382.262,86.292,381.264,85.191z"/>
<path fill-rule="evenodd" clip-rule="evenodd" fill="#FEFEFE" d="M464.215,123.838c5.723,9.356,0.893,16.389-3.758,23.438
	c-3.484,5.284-8.211,8.104-14.744,7.414c-3.053-0.323-5.826-1.387-8.412-2.92c-8.299-4.921-16.514-9.99-24.859-14.828
	c-2.238-1.298-2.564-2.301-1.184-4.562c11.273-18.458,22.463-36.967,33.561-55.532c1.42-2.377,2.525-2.829,4.953-1.304
	c7.746,4.869,15.75,9.337,23.439,14.29c12.609,8.122,11.863,25.001-1.256,32.41C469.688,123.525,467.213,123.642,464.215,123.838z"
	/>
<path fill-rule="evenodd" clip-rule="evenodd" fill="#FEFEFE" d="M524.482,516.299c-0.117,3.555-2.322,7.486-5.65,10.627
	c-5.33,5.031-10.707,10.076-16.516,14.523c-9.455,7.234-21.994,4.254-26.227-6.758c-1.484-3.865,4.705-5.398,7.023-8.322
	c0.857-1.084,2.006-2.463,3.639-0.613c2.426,2.744,5.09,6.488,9.119,4.102c5.395-3.195,10.854-7.016,13.17-13.182
	c1.547-4.119-6.07-10.498-10.309-9.057c-1.408,0.479-2.77,1.158-4.057,1.91c-4.17,2.428-8.277,4.963-12.441,7.398
	c-12.867,7.525-16.307,6.984-25.936-4.006c-11.029-12.59-10.629-18.842,1.984-30.041c3.863-3.432,7.623-7.014,11.738-10.119
	c9.381-7.08,19.492-4.973,25.584,5.072c0.084,0.141,0.312,0.271,0.299,0.387c-0.555,4.725-5.475,5.561-7.809,8.723
	c-1.164,1.578-2.17,1.201-3.607-0.096c-5.117-4.627-6.307-4.568-11.391-0.244c-1.65,1.404-3.314,2.799-4.873,4.303
	c-6.043,5.83-5.959,7.932,0.664,14.82c2.195,2.281,4.363,0.711,6.324-0.426c5.9-3.424,11.67-7.074,17.598-10.449
	c10.064-5.73,14-5.041,21.656,3.512c2.225,2.484,4.506,4.928,6.586,7.525C523.443,508.877,524.5,512.023,524.482,516.299z"/>
<path fill-rule="evenodd" clip-rule="evenodd" fill="#FEFEFE" d="M590.836,239.186c0.09,10.377-6.396,17.427-14.83,18.539
	c-0.906,0.119-1.803,0.182-2.146-0.685c-1.408-3.551-2.865-7.1-3.965-10.752c-0.58-1.924,1.639-1.829,2.654-2.257
	c4.41-1.861,5.553-4.954,3.918-9.266c-1.295-3.417-2.619-6.826-3.994-10.212c-1.938-4.769-5.535-3.774-9.209-2.622
	c-3.629,1.137-6.398,2.629-5.43,7.348c1.574,7.658,3.285,15.316,3.812,23.141c0.574,8.474-1.609,11.882-9.342,14.994
	c-3.701,1.487-7.383,3.061-11.184,4.239c-7.484,2.32-13.74,0.137-17.416-6.761c-4.145-7.768-7.357-16.05-9.215-24.668
	c-1.908-8.854,1.32-14.342,9.58-17.914c1.678-0.725,3.4-1.339,5.102-2.005c0.465-0.183,1.088-0.66,1.367-0.507
	c4.053,2.238,3.426,6.977,5.434,10.322c1.197,1.995-0.133,2.475-1.604,3.189c-7.748,3.758-7.969,4.38-4.951,12.625
	c0.629,1.716,1.236,3.441,1.945,5.125c2.574,6.106,4.279,7.193,9.055,5.854c6.492-1.822,7.811-3.782,6.83-10.475
	c-0.986-6.75-2.355-13.458-3.033-20.238c-0.9-8.98,1.408-12.315,9.744-15.544c3.408-1.32,6.771-2.778,10.238-3.926
	c6.26-2.072,11.871-0.725,15.521,4.657C585.869,220.442,588.639,230.91,590.836,239.186z"/>
<path fill-rule="evenodd" clip-rule="evenodd" fill="#FEFEFE" d="M156.678,546.609c-0.45-0.188-0.628-0.219-0.753-0.316
	c-11.391-8.879-11.383-8.877-7.451-22.879c1.258-4.48,2.428-8.99,3.712-13.465c0.376-1.311,0.678-2.305-0.424-3.609
	c-3.409-4.047-4.267-4.139-7.884-0.166c-4.267,4.682-8.643,9.271-12.794,14.057c-1.714,1.98-2.679,2.047-4.617,0.111
	c-7.547-7.535-7.666-7.484-0.576-15.248c12.706-13.91,25.525-27.723,38.136-41.719c2.33-2.588,3.641-2.777,6.115-0.16
	c6.297,6.662,12.976,12.963,19.409,19.498c8.426,8.564,8.581,16.09,0.582,24.891c-2.464,2.709-4.928,5.445-7.622,7.92
	c-4.228,3.883-9.252,5.469-14.756,3.316c-2.74-1.072-3.297-0.334-3.926,2.199c-2.083,8.385-4.449,16.697-6.718,25.035
	C157.072,546.221,156.907,546.334,156.678,546.609z"/>
<path fill-rule="evenodd" clip-rule="evenodd" fill="#FEFEFE" d="M177.588,172.689c-0.096,0.594-0.109,1.804-0.489,2.885
	c-4.121,11.709-11.792,20.75-21.98,27.469c-4.801,3.168-10.088,1.6-14.394-1.892c-11.118-9.025-22.216-18.084-33.087-27.404
	c-5.629-4.826-6.743-11.146-3.067-17.583c4.394-7.691,10.026-14.584,16.921-20.163c7.238-5.854,13.535-5.497,20.749,0.431
	c9.651,7.928,19.237,15.939,28.898,23.855C174.924,163.387,177.532,167.045,177.588,172.689z"/>
<path fill-rule="evenodd" clip-rule="evenodd" fill="#FEFEFE" d="M502.139,204.856c-5.127,0.049-8.943-2.343-12.051-5.709
	c-4.518-4.9-8.986-9.891-12.992-15.207c-6.363-8.443-5.354-15.957,2.646-22.796c12.68-10.84,25.443-21.579,38.057-32.492
	c2.064-1.788,3.174-1.899,5.201,0.108c7.58,7.501,7.678,7.432-0.521,14.441c-10.016,8.565-20.076,17.076-30.082,25.651
	c-5.895,5.051-6.055,7.039-1.26,12.793c8.961,10.749,9.148,10.774,19.945,1.599c10.42-8.859,20.873-17.681,31.184-26.669
	c2.439-2.126,3.627-2.211,5.643,0.647c5.764,8.184,5.912,8.061-1.719,14.547c-11.184,9.509-22.346,19.038-33.525,28.554
	C509.555,202.974,506.193,205.047,502.139,204.856z"/>
<path fill-rule="evenodd" clip-rule="evenodd" fill="#FEFEFE" d="M269.905,125.587c-9.32,0.012-14.702-3.658-16.457-11.214
	c-3.992-17.173-7.543-34.446-11.496-51.628c-0.64-2.773,0.449-3.371,2.565-4.024c10.402-3.216,10.332-3.231,12.637,7.397
	c2.819,13.005,5.688,26,8.67,38.968c1.682,7.307,3.325,8.257,10.43,6.735c13.815-2.959,13.871-2.972,10.959-16.562
	c-2.792-13.012-5.621-26.015-8.637-38.975c-0.85-3.656-1.015-5.628,3.815-6.068c9.062-0.823,9-1.165,10.924,7.555
	c3.119,14.13,6.261,28.256,9.429,42.376c2.663,11.864-1.324,18.506-13.214,21.375C282.587,123.198,275.667,125.086,269.905,125.587z
	"/>
<path fill-rule="evenodd" clip-rule="evenodd" fill="#FEFEFE" d="M259.328,526.953c-0.375,7.764-0.355,7.711-6.896,5.504
	c-6.943-2.342-13.707-5.115-20.284-8.318c-2.487-1.211-3.799-1.457-5.175,1.691c-4.821,11.033-4.985,10.984,6.062,15.717
	c3.51,1.504,7.021,3.059,10.651,4.221c2.299,0.736,2.171,1.676,1.465,3.576c-3.41,9.168-3.375,9.238-12.508,5.57
	c-4.162-1.672-8.302-3.43-12.304-5.441c-2.378-1.195-3.393-0.592-4.267,1.709c-1.709,4.494-5.919,9.641-4.807,13.164
	c1.153,3.648,7.981,4.457,12.393,6.34c4.731,2.016,9.582,3.779,14.451,5.441c2.04,0.693,2.813,1.553,1.692,3.543
	c-0.163,0.291-0.342,0.576-0.47,0.881c-3.647,8.877-3.647,8.879-12.585,5.438c-10.713-4.121-21.14-8.871-31.38-14.061
	c-2.366-1.199-2.993-2.205-1.817-4.881c8.771-19.922,17.397-39.906,25.924-59.936c1.175-2.756,2.12-2.861,4.613-1.43
	c9.386,5.383,19.169,10.004,29.433,13.443C257.967,520.615,261.33,522.211,259.328,526.953z"/>
<path fill-rule="evenodd" clip-rule="evenodd" fill="#FEFEFE" d="M72.061,439.322c0.207-5.322,2.381-9.379,6.695-11.887
	c12.505-7.271,25.015-14.547,37.736-21.42c6.866-3.713,13.618-1.855,18.44,4.766c4.698,6.455,8.688,13.436,11.918,20.725
	c4.335,9.789-0.02,18.889-10.176,22.342c-0.157,0.053-0.335,0.232-0.45,0.195c-4.481-1.502-4.41-6.432-7.018-9.361
	c-1.281-1.439-0.625-2.363,0.854-3.477c5.282-3.975,5.456-5.285,2.195-11.168c-7.36-13.283-7.361-13.283-20.514-5.771
	c-6.931,3.963-13.902,7.855-20.769,11.924c-5.432,3.217-5.933,5.43-2.882,11.025c0.875,1.605,1.835,3.162,2.748,4.75
	c4.3,7.477,4.72,7.623,12.851,4.377c0.862-0.346,1.786-1.277,2.547,0.008c1.949,3.287,3.839,6.607,5.71,9.939
	c0.704,1.256-0.382,1.686-1.158,2.293c-10.583,8.301-20.322,6.602-27.293-4.877c-2.847-4.689-5.508-9.492-8.222-14.264
	C73.444,446.219,72.355,442.754,72.061,439.322z"/>
<path fill-rule="evenodd" clip-rule="evenodd" fill="#FEFEFE" d="M136.057,235.667c-2.6,10.292-5.367,20.597-11.24,29.594
	c-3.46,5.298-9.084,7-15.007,4.946c-13.807-4.791-27.542-9.814-41.141-15.166c-7.013-2.76-9.974-8.938-8.276-16.257
	c1.919-8.271,4.899-16.262,8.709-23.817c4.578-9.082,14.925-11.496,23.488-6.042c0.138,0.088,0.397,0.113,0.432,0.222
	c1.442,4.398-2.084,7.568-2.826,11.428c-0.412,2.154-1.511,1.82-3.241,1.419c-6.2-1.437-7.516-0.637-9.812,5.192
	c-5.677,14.409-5.677,14.407,8.844,19.77c7.479,2.763,14.919,5.638,22.445,8.266c5.74,2.004,7.829,0.938,10.055-4.594
	c0.804-2.003,1.549-4.031,2.296-6.058c2.642-7.168,2.208-8.369-4.865-11.875c-1.628-0.806-2.529-1.523-1.589-3.345
	c0.077-0.148,0.148-0.3,0.233-0.443c1.89-3.229,1.427-9.855,5.054-9.51c5.979,0.57,12.407,3.115,15.158,9.85
	C135.592,231.249,136.104,233.375,136.057,235.667z"/>
<path fill-rule="evenodd" clip-rule="evenodd" fill="#FEFEFE" d="M575.461,444.705c-0.227,1.084-0.316,3.176-1.107,4.953
	c-3.66,8.221-7.902,16.178-13.449,23.258c-4.791,6.119-11.48,7.377-18.338,3.588c-12.229-6.754-24.352-13.709-36.354-20.861
	c-6.932-4.131-9.014-10.477-5.914-18.107c3.258-8.025,7.615-15.582,12.912-22.412c6.105-7.877,16.629-8.16,23.879-1.309
	c0.721,0.68,1.123,1.141,0.633,2.008c-1.883,3.326-3.652,6.729-5.748,9.918c-1.064,1.625-2.359,0.045-3.402-0.506
	c-3.992-2.107-7.018-1.176-9.225,2.709c-1.643,2.893-3.299,5.779-4.969,8.654c-2.277,3.92-1.389,7.068,2.447,9.291
	c9.639,5.592,19.322,11.111,29.002,16.633c3.973,2.268,6.975,1.127,9.172-2.725c1.402-2.455,2.9-4.855,4.283-7.324
	c3.186-5.697,2.844-7.645-2.66-11.029c-2.328-1.432-3.16-2.584-1.217-4.797c2.371-2.705,2.451-8.441,6.533-8.264
	C568.574,428.67,575.443,437.455,575.461,444.705z"/>
<path fill-rule="evenodd" clip-rule="evenodd" fill="#FEFEFE" d="M201.578,158.942c-1.553-0.064-1.781-1.24-2.241-2.026
	c-11.065-18.946-22.062-37.933-33.171-56.853c-1.213-2.063-0.834-2.964,1.037-4.309c9.372-6.733,9.325-6.797,15.059,3.097
	c7.251,12.513,14.648,24.944,21.659,37.591c1.939,3.492,3.187,4.323,6.854,1.958c5.846-3.769,12.227-6.702,18.299-10.133
	c2.07-1.168,3.002-0.863,4.198,1.269c4.59,8.167,4.697,8.135-3.325,12.289c-8.872,4.596-17.317,9.898-25.617,15.442
	C203.376,157.902,202.373,158.46,201.578,158.942z"/>
<path fill-rule="evenodd" clip-rule="evenodd" fill="#827E7F" d="M365.457,530.201c-0.986-1.916-2.916-0.479-4.238-1.197
	C365.279,527.562,365.566,527.643,365.457,530.201z"/>
<path fill-rule="evenodd" clip-rule="evenodd" fill="#706E6F" d="M381.264,85.191c0.066-0.68,0.553-1.418,0.932-0.531
	c0.555,1.3,0.26,2.796-0.748,3.986C381.385,87.494,381.326,86.342,381.264,85.191z"/>
<path fill-rule="evenodd" clip-rule="evenodd" fill="#686868" d="M306.046,569.107c0.278,1.213,0.101,2.568-1.275,2.465
	c-0.868-0.066-0.636-1.541-0.43-2.459C304.91,569.111,305.479,569.109,306.046,569.107z"/>
<path fill-rule="evenodd" clip-rule="evenodd" fill="#8C8A8B" d="M283.257,527.979c-1.341,0.154-2.146,0.848-2.253,2.242
	c-0.64-0.799-1.285-1.758-0.412-2.605C281.427,526.807,282.421,527.412,283.257,527.979z"/>
<path fill-rule="evenodd" clip-rule="evenodd" fill="#231F20" d="M325.11,500.107c-96.682,0.027-175.202-78.447-175.124-175.022
	c0.078-96.466,78.657-174.535,175.649-174.511c96.615,0.023,174.876,78.48,174.845,175.28
	C500.447,421.918,421.781,500.08,325.11,500.107z"/>
<path fill-rule="evenodd" clip-rule="evenodd" fill="#242021" d="M442.992,140.427c-3.744-2.226-8.756-5.095-13.633-8.172
	c-1.439-0.907-0.033-2.062,0.449-2.979c7.389-14.084,7.516-14.072,20.795-5.402c3.607,2.354,4.523,5.025,2.119,8.715
	c-1.264,1.943-2.375,3.984-3.633,5.931C448.021,140.177,446.52,141.077,442.992,140.427z"/>
<path fill-rule="evenodd" clip-rule="evenodd" fill="#242021" d="M468.135,103.825c-1.283,3.351-2.814,6.961-5.924,9.273
	c-2.518,1.873-5.041,0.128-7.299-1.366c-0.137-0.091-0.303-0.135-0.445-0.219c-11.506-6.807-11.496-6.8-3.287-17.631
	c0.713-0.944,1.188-2.164,2.666-1.252c4.232,2.607,8.463,5.217,12.648,7.895C467.521,101.178,467.863,102.358,468.135,103.825z"/>
<path fill-rule="evenodd" clip-rule="evenodd" fill="#242021" d="M181.293,495.18c-1.621,3.812-4.865,7.195-8.68,9.732
	c-2.976,1.979-5.213-0.842-7.227-2.754c-3.1-2.943-8.582-5.322-8.677-8.896c-0.078-3.033,5.077-6.039,7.517-9.352
	c2.506-3.408,4.547-4.064,7.526-0.512c2.119,2.523,4.831,4.545,7.236,6.836C180.195,491.383,181.323,492.625,181.293,495.18z"/>
<path fill-rule="evenodd" clip-rule="evenodd" fill="#231F20" d="M162.947,174.597c0.063,3.911-7.306,13.752-10.713,14.786
	c-1.984,0.602-3.728-0.168-5.121-1.3c-9.171-7.446-18.306-14.938-27.34-22.544c-3.04-2.559-3.121-5.674-0.628-8.802
	c0.105-0.13,0.207-0.262,0.303-0.396c8.993-12.445,9.499-12.522,21.347-2.812c6.049,4.957,12.045,9.979,18.095,14.937
	C161.008,170.203,162.753,172.12,162.947,174.597z"/>
<path fill-rule="evenodd" clip-rule="evenodd" fill="#FDF100" d="M252.161,410.979c-10.818,10.861-21.663,21.699-32.429,32.615
	c-1.535,1.555-2.637,1.559-4.107,0.045c-2.787-2.869-5.58-5.748-8.543-8.432c-2.572-2.332-2.278-3.963,0.176-6.379
	c17.354-17.096,34.554-34.344,51.8-51.545c6.604-6.59,13.2-13.188,20.029-20.014c-5.186-2.66-10.158-4.984-14.889-7.725
	c-2.823-1.635-3.934,0.336-5.401,1.797c-16.186,16.137-32.386,32.264-48.518,48.457c-5.753,5.773-11.34,11.713-16.867,17.436
	c-0.903-0.588-1.069-0.646-1.154-0.76c-11.229-14.887-11.178-14.836,1.899-27.773c15.774-15.609,31.403-31.361,47.218-46.926
	c2.484-2.443,3.097-3.83-0.559-5.469c-4.49-2.016-8.377-7.668-12.717-6.729c-4.001,0.865-7.078,6.172-10.478,9.607
	c-14.187,14.33-28.341,28.691-42.874,43.414c-3.263-6.703-4.517-13.037-6.424-19.152c-0.74-2.371,1.092-3.305,2.312-4.525
	c13.44-13.457,26.794-27.008,40.471-40.22c3.354-3.242,4.702-6.41,4.019-10.91c-0.825-5.417-1.26-10.892-1.925-16.903
	c-16.007,16.182-31.622,31.966-47.238,47.751c-0.561-0.285-1.125-0.572-1.687-0.857c0-8.346-0.135-16.696,0.14-25.033
	c0.044-1.303,1.854-2.641,3.012-3.8c13.678-13.692,27.354-27.386,41.123-40.984c1.929-1.903,2.836-3.78,2.644-6.532
	c-0.476-6.733-0.675-13.488-1.03-21.24c-13.012,12.958-25.279,25.175-37.546,37.393c12.925-51.335,60.132-94.631,105.621-105.768
	c-10.532,10.631-20.752,21.113-31.191,31.375c-2.503,2.461-6.417,1.226-9.573,2.298c-2.65,0.9-5.507,1.169-8.238,1.852
	c-9.987,2.494-9.923,2.515-9.814,12.477c0.311,28.525,2.107,56.962,4.658,85.366c0.515,5.737,2.31,9.872,7.639,13.211
	c14.254,8.932,28.628,17.58,43.694,25.08c2.127,1.061,3.806,1.104,5.961,0.031c16.116-8.016,31.608-17.072,46.533-27.131
	c2.924-1.969,4.639-4.223,4.328-7.758c-0.289-3.263,1.096-5.567,3.395-7.854c31.117-30.94,62.178-61.933,93.131-93.036
	c2.52-2.533,4.094-3.115,6.598-0.255c3.068,3.504,8.535,6.424,9.109,10.185c0.611,3.998-5.447,6.769-8.596,10.051
	c-5.295,5.524-10.912,10.739-16.395,16.084c-1.877,0.298-2.625,1.861-3.578,3.192c-0.088,0.933-0.354,1.804-0.834,2.61
	c-0.93,1.604-2.27,2.859-3.562,4.152c-23.396,23.405-46.797,46.805-70.203,70.203c-1.291,1.291-2.539,2.641-4.164,3.537
	c-1.004,0.484-1.766,1.221-2.244,2.246c-0.83,1.482-2.025,2.65-3.205,3.83c-23.944,23.953-47.89,47.902-71.845,71.846
	c-1.179,1.18-2.343,2.379-3.783,3.25C254.786,409.473,253.34,410.002,252.161,410.979z"/>
<path fill-rule="evenodd" clip-rule="evenodd" fill="#FDF100" d="M335.102,415.967c0.059,22.342,0.107,44.684,0.189,67.027
	c0.008,1.816-0.039,3.127-2.51,3.223c-27.415,1.076-53.571-3.855-78.203-16.178c-0.251-0.125-0.368-0.518-0.549-0.785
	c-0.797-16.086-0.097-32.186-0.458-48.275c-0.087-3.85,1.177-5.219,4.905-4.391c-1.001-0.264-1.987-0.078-2.958-0.178
	c-0.907-0.094-1.665-0.463-1.696-1.441c-0.029-0.924,0.676-1.457,1.477-1.799c1.743-0.746,3.599-0.605,5.422-0.596
	c16.329,0.068,32.654-0.207,48.981-0.146c1.833,0.006,3.911,0.541,5.453-0.229C322.852,408.357,328.689,413.531,335.102,415.967z"/>
<path fill-rule="evenodd" clip-rule="evenodd" fill="#FDF100" d="M467.461,249.704c8.861,14.997,13.881,31.36,16.893,48.377
	c1.385,7.831,2.604,15.729,1.955,23.751c-1.75,1.683-3.988,1.535-6.135,1.54c-17.018,0.046-34.035,0.075-51.055-0.005
	c-6.918-0.032-7.236-0.455-7.238-7.394c-0.004-15.851-0.018-31.701,0.027-47.551c0.004-1.442-0.477-2.955-0.059-3.665
	c0,12.691,0,26.069,0,39.447c0,4.671,0.059,9.344-0.033,14.014c-0.031,1.489,0.773,3.655-1.857,3.859
	c-2.445,0.188-4.205-0.828-4.748-3.412c-0.277-1.317-0.25-2.655-0.25-3.988c-0.016-17.52,0.057-35.038-0.059-52.556
	c-0.025-4.021,1.635-7.823,1.025-11.905c-0.264-1.758,1.299-1.904,2.771-1.917c14.008-0.119,28.02-0.008,42.027-0.063
	C463.098,248.227,465.121,249.665,467.461,249.704z"/>
<path fill-rule="evenodd" clip-rule="evenodd" fill="#FDF001" d="M467.461,249.704c-1.5,1.488-2.969,4.633-4.635,0.158
	c-0.803-2.154-2.572-1.061-3.816-1.07c-13.951-0.096-27.904-0.06-41.676-0.06c-1.055,1.904,0.746,2.743,0.498,4.432
	c-3.143,21.368-0.697,42.889-1.494,64.332c-0.086,2.31,0.799,3.321,3.096,3.488c3.287,0.239,1.854-2.24,1.859-3.432
	c0.1-18.82,0.07-37.641,0.07-57.277c1.447,2.035,0.975,3.575,0.979,4.968c0.037,17.009,0.162,34.02-0.072,51.026
	c-0.061,4.304,0.965,5.733,5.51,5.674c19.508-0.257,39.02-0.109,58.529-0.11c0.406,6.632,0.406,6.636-5.875,6.636
	c-19.844,0-39.686,0.066-59.527-0.068c-3.418-0.023-4.965,0.426-4.928,4.506c0.215,24.01,0.174,48.021,0.029,72.031
	c-0.021,3.488,0.914,4.523,4.445,4.475c13.807-0.199,27.615-0.082,42.502-0.082c-12.299,20.227-27.879,35.984-47.502,49.5
	c0-14.396-0.002-27.66,0.004-40.926c0-8.02,0.006-8.02-8.133-8.02c-21.844,0.002-43.688,0.182-65.529-0.129
	c-4.973-0.07-7.512,0.826-6.693,6.211c-3.576-0.256-7.639,1.293-9.844-3.514c-0.541-1.184-3.502-1.062-4.653-0.197
	c-3.168,2.383-6.644,1.664-10.033,1.676c-16.809,0.066-33.618,0.012-50.427,0.057c-1.764,0.004-3.633-0.514-5.716,0.824
	c2.326,2.146,5.169,0.479,7.398,1.42c0.355,0.227,0.301,0.553-0.191,0.594c-7.503,0.611-7.504,0.604-7.504,8.051
	c0,11.984-0.022,23.967,0.024,35.949c0.006,1.912-0.473,3.883,1.321,5.568c2.17,2.035-2.578,1.057-1.449,2.859
	c-1.162-4.562-0.443-9.201-0.484-13.801c-0.117-13.254,0.006-26.512-0.111-39.764c-0.015-1.557,1.219-3.725-1.274-4.711
	c-0.01-2.008,1.687-2.307,2.994-2.996c7.445-1.096,14.937-0.574,22.407-0.607c16.486-0.072,32.973-0.02,49.46-0.027
	c2.328-0.002,4.666,0.125,6.951-0.416c2.367-0.857,1.834-2.934,1.838-4.656c0.045-19.93,0.025-39.861,0.045-59.793
	c0.002-2.215-0.627-4.248-1.182-6.328c-0.066-0.643,0.014-1.266,0.221-1.875c0.361-0.756,0.777-1.494,1.369-2.082
	c2.055-2.031,3.475-1.826,3.816,1.25c0.443,3.979,0.777,7.961,0.771,11.979c-0.035,18.354-0.049,36.707,0,55.061
	c0.016,6.449,0.43,6.859,6.779,6.869c19.855,0.035,39.709,0.043,59.564-0.004c6.135-0.016,6.545-0.426,6.557-6.543
	c0.043-21.359,0.045-42.715,0-64.072c-0.014-5.789-0.482-6.268-6.314-6.283c-19.688-0.062-39.377-0.043-59.064-0.01
	c-4.168,0.01-8.316-0.174-12.467-0.512c-0.627-0.193-1.166-0.529-1.617-1.004c-0.018-1.383,0.664-2.061,2.045-2.039
	c3.781-0.678,7.6-0.654,11.424-0.652c19.818,0.014,39.637,0.031,59.459-0.006c6.164-0.012,6.516-0.359,6.525-6.487
	c0.039-19.985,0.029-39.973,0.004-59.958c-0.008-3.662,0.039-7.308,0.66-10.926c0.32-0.71,0.639-1.42,0.959-2.13
	c0.396-0.399,0.77-0.399,1.119,0.06c1.182,1.832,3.016,0.885,4.504,0.895c13.898,0.087,27.799,0.008,41.699,0.106
	C464.379,247.801,466.906,246.54,467.461,249.704z"/>
<path fill-rule="evenodd" clip-rule="evenodd" fill="#FEFEFE" d="M294.267,260.253c5.372-1.476,10.495-1.625,15.641-0.624
	c6.282,1.222,10.096,5.252,10.269,11.686c0.246,9.164,0.263,18.346,0.001,27.51c-0.196,6.819-4.826,11.34-11.778,11.929
	c-3.477,0.294-7.001,0.216-10.499,0.133c-9.319-0.221-14.159-4.44-14.288-13.679c-0.292-20.84-0.237-41.688-0.034-62.531
	c0.075-7.946,3.665-11.581,11.458-12.432c4.969-0.542,9.993-0.637,14.944,0.368c5.298,1.075,8.66,4.528,9.09,9.851
	c0.334,4.144,0.102,8.332,0.155,12.5c0.046,3.912-2.969,2.43-4.681,2.351c-1.869-0.087-5.111,1.79-5.212-2.389
	c-0.062-2.5-0.081-5.003-0.062-7.503c0.04-4.805-2.75-6.321-7.067-6.347c-5.505-0.034-7.728,1.365-7.875,6.049
	C294.094,244.765,294.267,252.417,294.267,260.253z"/>
<path fill-rule="evenodd" clip-rule="evenodd" fill="#FEFEFE" d="M273.222,267.178c0.005,10.341,0.065,20.686-0.014,31.027
	c-0.06,8.188-4.088,12.375-12.183,12.657c-4.162,0.145-8.355,0.211-12.502-0.104c-6.34-0.481-10.076-4.211-10.666-10.483
	c-0.31-3.311,0.059-6.692-0.326-9.988c-0.451-3.856,1.042-4.514,4.676-4.712c4.637-0.251,5.892,1.385,5.247,5.563
	c-0.176,1.14-0.071,2.333,0,3.497c0.361,5.913,1.802,7.257,7.684,7.241c5.835-0.017,7.246-1.283,7.427-7.431
	c0.179-6.167,0-12.343,0.095-18.514c0.034-2.322-0.26-3.018-3.045-2.502c-3.711,0.688-7.653,0.566-11.45,0.245
	c-6.464-0.544-10.608-4.271-11.262-10.708c-1.01-9.955-0.782-19.971-0.065-29.958c0.072-0.985,0.302-1.992,0.647-2.918
	c2.654-7.136,11.572-9.862,24.718-7.595c7.236,1.248,10.893,5.469,10.981,13.157C273.305,246.158,273.213,256.668,273.222,267.178z"
	/>
<path fill-rule="evenodd" clip-rule="evenodd" fill="#FDF100" d="M416.594,192.446c-27.055,27.217-53.922,54.244-81.23,81.715
	c0.438-9.026,0.832-17.713,1.295-26.397c0.086-1.642,1.467-2.546,2.516-3.593c19.574-19.554,39.199-39.057,58.674-58.71
	c2.201-2.221,3.779-2.426,6.26-0.775C408.373,187.523,412.807,190.109,416.594,192.446z"/>
<path fill-rule="evenodd" clip-rule="evenodd" fill="#FDF100" d="M381.361,174.497c-14.465,14.605-28.943,29.226-43.432,43.855
	c-2.674-2.332,2.195-7.393-2.951-9c-3.443-1.076-6.926-2.028-12.218-3.568c4.798-4.274,8.99-7.758,12.892-11.539
	c7.412-7.181,14.889-14.321,21.869-21.907c3.092-3.359,6.004-4.067,9.979-2.581C372.271,171.542,377.412,172.311,381.361,174.497z"
	/>
<path fill-rule="evenodd" clip-rule="evenodd" fill="#FDF100" d="M338.221,165.72c-5.283,5.231-10.572,10.457-15.845,15.697
	c-5.437,5.397-11.111,10.58-16.2,16.287c-3.543,3.976-7.343,5.539-12.598,4.903c-5.767-0.698-11.613-0.749-17.476-1.085
	c-0.594-1.237,0.648-1.667,1.254-2.275c10.696-10.732,21.437-21.42,32.135-32.151c1.457-1.461,2.879-2.532,5.146-2.497
	c7.64,0.119,15.28,0.046,22.921,0.046C337.781,165.003,338,165.361,338.221,165.72z"/>
<path fill-rule="evenodd" clip-rule="evenodd" fill="#FDF100" d="M416.484,246.789c-0.373-0.02-0.746-0.04-1.119-0.06
	c1.354-1.002,1.109-4.246,4.113-2.933C418.48,244.794,417.482,245.791,416.484,246.789z"/>
<path fill-rule="evenodd" clip-rule="evenodd" fill="#231F20" d="M335.41,334.832c0,0.348,0,0.697,0,1.045
	c0.713,2.076,0.84,4.219,0.838,6.395c-0.01,20.455,0.002,40.908-0.02,61.361c-0.002,1.803,0.301,3.688-0.891,5.303
	c-15.456,0.098-30.912,0.227-46.369,0.281c-9.817,0.035-19.635,0.008-29.45-0.113c-1.462-0.018-3.378,1.008-4.364-1.121
	c15.017-14.881,30.078-29.723,45.042-44.658c11.427-11.404,22.733-22.928,34.091-34.396c0.293-0.078,0.59-0.088,0.887-0.031
	C336.949,330.807,336.234,332.816,335.41,334.832z"/>
<path fill-rule="evenodd" clip-rule="evenodd" fill="#231F20" d="M414.406,248.859c1.977,1.101,1,2.977,1.006,4.455
	c0.07,23.349-0.043,46.699,0.145,70.046c0.029,3.783-0.992,4.671-4.697,4.642c-23.348-0.178-46.697-0.068-70.047-0.135
	c-1.486-0.006-3.35,0.957-4.479-0.979c20.443-20.306,40.902-40.593,61.32-60.927C403.307,260.331,408.826,254.564,414.406,248.859z"
	/>
<path fill-rule="evenodd" clip-rule="evenodd" fill="#FDF100" d="M335.41,334.832c-0.076-1.979-0.154-3.957-0.234-5.936
	c25.17-0.018,50.34,0.041,75.506-0.131c3.82-0.027,4.77,1.223,4.746,4.877c-0.146,23.5-0.145,47.004-0.002,70.502
	c0.021,3.645-0.904,4.918-4.734,4.891c-22.334-0.166-44.67-0.15-67.004-0.012c-3.561,0.021-4.521-1.176-4.5-4.604
	c0.127-20.668-0.051-41.338,0.168-62.002c0.039-3.619-2.238-7.08-0.172-10.859C336.889,331.869,337.117,334.4,335.41,334.832z"/>
<path fill-rule="evenodd" clip-rule="evenodd" fill="#FDF100" d="M335.338,408.936c0.025-24.352,0.049-48.705,0.072-73.059
	c1.852,1.805,1.852,4.109,1.85,6.465c-0.023,20.562,0.016,41.125-0.062,61.686C337.189,405.762,338.35,408.223,335.338,408.936z"/>
<path fill-rule="evenodd" clip-rule="evenodd" fill="#FDF100" d="M269.806,412.949c-4.145,0.006-8.288,0.045-12.43-0.018
	c-1.207-0.02-3.035,0.385-2.862-1.682c0.132-1.578,1.711-1.268,2.807-1.271c8.784-0.029,17.568-0.045,26.352,0.02
	c0.949,0.006,2.671-0.746,2.617,1.166c-0.035,1.318-1.263,1.787-2.561,1.783C279.087,412.936,274.445,412.943,269.806,412.949z"/>
<path fill-rule="evenodd" clip-rule="evenodd" fill="#FDF100" d="M425.039,327.236c-1.611,0.76-2.701,0.805-3.752,0.219
	c-0.064-0.035,0.133-0.945,0.408-1.104C423.023,325.576,423.678,326.783,425.039,327.236z"/>
<path fill-rule="evenodd" clip-rule="evenodd" fill="#242021" d="M294.224,285.015c0-2.332,0.023-4.666-0.005-6.997
	c-0.105-8.832,4.48-8.953,11.198-8.088c2.364,0.306,3.683,2.168,3.905,4.578c0.645,6.98,0.665,13.973,0.023,20.949
	c-0.396,4.293-3.458,5.21-7.128,5.288c-3.868,0.083-7.21-0.829-7.706-5.254c-0.387-3.451-0.079-6.981-0.079-10.476
	C294.362,285.015,294.292,285.015,294.224,285.015z"/>
<path fill-rule="evenodd" clip-rule="evenodd" fill="#242021" d="M247.154,247.316c0-2.166,0.049-4.333-0.006-6.496
	c-0.239-9.058,5.246-9.001,11.737-7.883c2.362,0.408,3.276,2.621,3.454,4.965c0.5,6.652,0.5,13.306,0.022,19.959
	c-0.326,4.546-3.368,5.691-7.261,5.763c-4.11,0.073-7.397-1.166-7.777-5.824c-0.282-3.474-0.055-6.989-0.055-10.484
	C247.23,247.316,247.193,247.316,247.154,247.316z"/>
</svg>
