<?xml version="1.0" encoding="UTF-8" standalone="no"?>
<!-- Created with Inkscape (http://www.inkscape.org/) -->

<svg
   xmlns:dc="http://purl.org/dc/elements/1.1/"
   xmlns:cc="http://creativecommons.org/ns#"
   xmlns:rdf="http://www.w3.org/1999/02/22-rdf-syntax-ns#"
   xmlns:svg="http://www.w3.org/2000/svg"
   xmlns="http://www.w3.org/2000/svg"
   xmlns:sodipodi="http://sodipodi.sourceforge.net/DTD/sodipodi-0.dtd"
   xmlns:inkscape="http://www.inkscape.org/namespaces/inkscape"
   width="200"
   height="200"
   id="svg2"
   version="1.1"
   inkscape:version="0.48.2 r9819"
   sodipodi:docname="nyfc.svg">
  <defs
     id="defs4" />
  <sodipodi:namedview
     id="base"
     pagecolor="#ffffff"
     bordercolor="#666666"
     borderopacity="1.0"
     inkscape:pageopacity="0.0"
     inkscape:pageshadow="2"
     inkscape:zoom="0.18760427"
     inkscape:cx="1922.8466"
     inkscape:cy="-497.97192"
     inkscape:document-units="px"
     inkscape:current-layer="layer1"
     showgrid="false"
     inkscape:window-width="1920"
     inkscape:window-height="1028"
     inkscape:window-x="-8"
     inkscape:window-y="-8"
     inkscape:window-maximized="1"
     fit-margin-left="0.5"
     fit-margin-bottom="0.5"
     fit-margin-top="0.5"
     fit-margin-right="0.5">
    <inkscape:grid
       type="xygrid"
       id="grid2996"
       empspacing="5"
       visible="true"
       enabled="true"
       snapvisiblegridlinesonly="true" />
  </sodipodi:namedview>
  <metadata
     id="metadata7">
    <rdf:RDF>
      <cc:Work
         rdf:about="">
        <dc:format>image/svg+xml</dc:format>
        <dc:type
           rdf:resource="http://purl.org/dc/dcmitype/StillImage" />
        <dc:title />
      </cc:Work>
    </rdf:RDF>
  </metadata>
  <g
     inkscape:label="Layer 1"
     inkscape:groupmode="layer"
     id="layer1"
     transform="translate(291.5,-803.86128)">
    <g
       id="g3937"
       transform="matrix(0.19939898,0,0,0.19939898,-232.9749,803.29207)">
      <path
         transform="matrix(1.425713,0,0,1.425713,-5.8574068,-97.805517)"
         d="m 500,422.36218 c 0,193.29967 -156.70034,350 -350,350 -193.299662,0 -350,-156.70033 -350,-350 0,-193.29966 156.700338,-349.999997 350,-349.999997 193.29966,0 350,156.700337 350,349.999997 z"
         sodipodi:ry="350"
         sodipodi:rx="350"
         sodipodi:cy="422.36218"
         sodipodi:cx="150"
         id="path2998"
         style="fill:#28295c;fill-opacity:1;fill-rule:evenodd;stroke:none"
         sodipodi:type="arc" />
      <path
         inkscape:connector-curvature="0"
         id="path3002"
         d="m 207.99954,177.65259 c -180.364568,0 -326.72089,146.35631 -326.72089,326.72089 0,180.36458 146.356322,326.69226 326.72089,326.69226 180.36458,0 326.7209,-146.32768 326.7209,-326.69226 0,-180.36458 -146.35632,-326.72089 -326.7209,-326.72089 z m 0,11.9979 c 173.87929,0 314.69436,140.8437 314.69436,314.72299 0,173.87929 -140.81507,314.69436 -314.69436,314.69436 -173.879287,0 -314.69435,-140.81507 -314.69435,-314.69436 0,-173.87929 140.815063,-314.72299 314.69435,-314.72299 z"
         style="font-size:medium;font-style:normal;font-variant:normal;font-weight:normal;font-stretch:normal;text-indent:0;text-align:start;text-decoration:none;line-height:normal;letter-spacing:normal;word-spacing:normal;text-transform:none;direction:ltr;block-progression:tb;writing-mode:lr-tb;text-anchor:start;baseline-shift:baseline;color:#000000;fill:#ffffff;fill-opacity:1;stroke:none;stroke-width:13.09604073;marker:none;visibility:visible;display:inline;overflow:visible;enable-background:accumulate;font-family:Sans;-inkscape-font-specification:Sans" />
      <path
         inkscape:connector-curvature="0"
         id="path3772"
         d="m 207.99955,26.271481 c -263.985568,0 -478.10759,214.122019 -478.10759,478.107589 0,263.98557 214.122022,478.06535 478.10759,478.06535 263.98556,0 478.10758,-214.07978 478.10758,-478.06535 0,-263.98557 -214.12202,-478.107589 -478.10758,-478.107589 z m 0,10.177893 c 258.47308,0 467.88746,209.456616 467.88746,467.929696 0,258.47308 -209.41438,467.88746 -467.88746,467.88746 -258.473078,0 -467.88747,-209.41438 -467.88747,-467.88746 0,-258.47308 209.414392,-467.929696 467.88747,-467.929696 z"
         style="font-size:medium;font-style:normal;font-variant:normal;font-weight:normal;font-stretch:normal;text-indent:0;text-align:start;text-decoration:none;line-height:normal;letter-spacing:normal;word-spacing:normal;text-transform:none;direction:ltr;block-progression:tb;writing-mode:lr-tb;text-anchor:start;baseline-shift:baseline;color:#000000;fill:#e76b31;fill-opacity:1;stroke:none;stroke-width:7.54760838;marker:none;visibility:visible;display:inline;overflow:visible;enable-background:accumulate;font-family:Sans;-inkscape-font-specification:Sans" />
      <path
         id="path3774"
         d="m 208,56.9375 c -246.533711,0 -447.46875,200.9038 -447.46875,447.4375 0,246.53371 200.935039,447.40625 447.46875,447.40625 246.5337,0 447.46875,-200.87254 447.46875,-447.40625 C 655.46875,257.8413 454.5337,56.9375 208,56.9375 z m 0,98.53125 c 193.45806,0 348.5,155.44819 348.5,348.90625 0,193.45806 -155.04194,348.03125 -348.5,348.03125 -193.458066,0 -348.5,-154.57319 -348.5,-348.03125 0,-193.45806 155.041934,-348.90625 348.5,-348.90625 z m -396.5625,323.625 25.5625,18.625 -9.90625,30.625 -31.9375,0 -10,-30.75 26.28125,-18.5 z m 793.53125,0 25.5625,18.625 -9.875,30.625 -31.9375,0 -10,-30.75 26.25,-18.5 z"
         style="font-size:medium;font-style:normal;font-variant:normal;font-weight:normal;font-stretch:normal;text-indent:0;text-align:start;text-decoration:none;line-height:normal;letter-spacing:normal;word-spacing:normal;text-transform:none;direction:ltr;block-progression:tb;writing-mode:lr-tb;text-anchor:start;baseline-shift:baseline;color:#000000;fill:#78a5db;fill-opacity:1;stroke:none;stroke-width:0.1;marker:none;visibility:visible;display:inline;overflow:visible;enable-background:accumulate;font-family:Sans;-inkscape-font-specification:Sans"
         inkscape:connector-curvature="0" />
      <path
         sodipodi:nodetypes="cccccccccccccc"
         inkscape:connector-curvature="0"
         id="path3776"
         d="m 37.196429,297.36218 -22.196429,0 0,-29 77,0 0,29 -13,0 127.48149,122.70764 84.0005,-81.03317 c 8.72985,4.19021 17.32196,9.62009 25.88516,15.31012 l -94.8912,90.40866 5e-5,46.75349 -28.476,-28.15359 0,-16.99315 z"
         style="fill:#ffffff;stroke:none" />
      <path
         sodipodi:nodetypes="ccccccccc"
         inkscape:connector-curvature="0"
         id="path3778"
         d="m 334,297.36218 -14,0 0,-30 77,0 0,30 -22,0 -27.14286,26.51786 c -8.21428,-6.98675 -16.42857,-11.26437 -24.64285,-16.25 z"
         style="fill:#ffffff;stroke:none" />
      <path
         sodipodi:nodetypes="cccccccccc"
         inkscape:connector-curvature="0"
         id="path3780"
         d="m 102.5,310.30861 22.67857,21.25 c 0,0 34.49455,-19.28572 83.21429,-19.28572 85.98023,0 154.49928,56.40339 182.67857,131.33929 l 30.53571,0 0,-86.33928 -28.57142,0 0,24.91071 c -34.93663,-53.76539 -102.65542,-98.75 -184.46429,-98.75 -62.68066,0 -106.07143,26.875 -106.07143,26.875 z"
         style="fill:#ffffff;stroke:none" />
      <path
         sodipodi:nodetypes="ccccccccccccccccccccc"
         inkscape:connector-curvature="0"
         id="path3782"
         d="m 140,591.36218 0,27 -71,0 0,-27 21.4,0 0,-155 -20.4,0 0,-27 55,0 176,167 0,-140 -21,0 0,-27 71,0 0,27 -22,0 0,182 -23.28571,0 L 119,441.87741 l 0,149.48477 z"
         style="fill:#ffffff;stroke:none" />
      <path
         sodipodi:nodetypes="ccccccc"
         inkscape:connector-curvature="0"
         id="path3784"
         d="m 184.47911,697.3567 0,28.97875 C 72.086298,715.77565 -13.973214,618.46341 -13.973214,505.79968 c 0,-74.40806 33.483006,-130.30923 79.419643,-170.9375 l 21.276151,20.55103 c -43.808199,36.24429 -71.811866,89.82199 -71.811866,150.5204 0,97.45353 74.687338,179.6919 169.568396,191.42309 z"
         style="fill:#ffffff;stroke:none" />
      <path
         sodipodi:nodetypes="ccccc"
         inkscape:connector-curvature="0"
         id="path3786"
         d="m 229.49403,726.39858 0,-29.04188 c 75.97011,-8.24698 142.92526,-62.86106 163.20277,-134.98164 l 30.24144,0 c -22.056,86.16686 -99.26368,154.32423 -193.44421,164.02352 z"
         style="fill:#ffffff;stroke:none" />
      <path
         sodipodi:nodetypes="ccccccccc"
         inkscape:connector-curvature="0"
         id="path3788"
         d="m 244,781.36218 -73,0 0,-29 21,0 0,-231 29.476,27 0,204 22.524,0 z"
         style="fill:#ffffff;stroke:none" />
      <path
         d="m -39.733442,228.61745 -38.706554,-37.84764 -8.218646,8.40516 23.831749,23.30291 -41.564257,-5.16797 -7.67744,7.85166 38.706555,37.84764 8.216984,-8.40346 -24.606284,-24.06026 42.936102,5.31446 z"
         id="path3819"
         inkscape:connector-curvature="0"
         style="font-size:40px;font-style:normal;font-variant:normal;font-weight:bold;font-stretch:normal;line-height:125%;letter-spacing:0px;word-spacing:0px;fill:#28295c;fill-opacity:1;stroke:none;font-family:Gotham;-inkscape-font-specification:Gotham Bold" />
      <path
         d="m 1.6409324,196.23117 -6.5263947,-8.34548 -23.1494517,18.10352 -7.003262,-8.95526 20.102384,-15.72062 -6.526397,-8.34547 -20.102383,15.72062 -6.764829,-8.65037 22.844553,-17.86507 -6.527849,-8.34734 -32.164186,25.15329 33.348731,42.64391 z"
         id="path3821"
         inkscape:connector-curvature="0"
         style="font-size:40px;font-style:normal;font-variant:normal;font-weight:bold;font-stretch:normal;line-height:125%;letter-spacing:0px;word-spacing:0px;fill:#28295c;fill-opacity:1;stroke:none;font-family:Gotham;-inkscape-font-specification:Gotham Bold" />
      <path
         d="m 51.8234,107.83063 -11.068313,5.70424 6.825713,37.72064 -27.656451,-27.15778 -9.073256,4.67603 6.069442,38.28299 -26.7596248,-27.4474 -11.3431472,5.84587 41.407562,39.99715 9.211723,-4.74739 -5.365506,-37.08194 27.086786,25.88754 9.211725,-4.74741 z"
         id="path3823"
         inkscape:connector-curvature="0"
         style="font-size:40px;font-style:normal;font-variant:normal;font-weight:bold;font-stretch:normal;line-height:125%;letter-spacing:0px;word-spacing:0px;fill:#28295c;fill-opacity:1;stroke:none;font-family:Gotham;-inkscape-font-specification:Gotham Bold" />
      <path
         d="m 139.43784,85.173528 -13.20564,2.967943 -8.0604,24.085229 -17.36759,-18.37032 -13.580955,3.052299 27.488075,27.430931 4.68039,20.82504 11.61912,-2.61137 -4.73112,-21.05069 z"
         id="path3825"
         inkscape:connector-curvature="0"
         style="font-size:40px;font-style:normal;font-variant:normal;font-weight:bold;font-stretch:normal;line-height:125%;letter-spacing:0px;word-spacing:0px;fill:#28295c;fill-opacity:1;stroke:none;font-family:Gotham;-inkscape-font-specification:Gotham Bold" />
      <path
         d="m 196.17882,88.064634 -0.10968,-0.10725 c -2.76518,-2.703732 -5.85067,-4.729402 -9.25647,-6.077031 -3.40585,-1.34748 -6.89464,-1.982861 -10.46638,-1.906154 -3.57177,0.07687 -7.10868,0.855054 -10.61074,2.334558 -3.50205,1.479647 -6.71277,3.712255 -9.63219,6.697851 -2.91936,2.985698 -5.08817,6.254703 -6.50643,9.807027 -1.41821,3.552425 -2.10708,7.133055 -2.06661,10.741895 0.0405,3.60892 0.76351,7.11 2.16896,10.50327 1.4055,3.39333 3.49026,6.44132 6.25426,9.14399 l 0.11137,0.1089 c 2.76405,2.70271 5.84898,4.72783 9.25479,6.07538 3.40584,1.34756 6.89463,1.98294 10.46639,1.90614 3.57175,-0.0768 7.10839,-0.85468 10.60991,-2.33371 3.50148,-1.47899 6.71249,-3.71189 9.633,-6.69868 2.91937,-2.98562 5.08818,-6.25463 6.50644,-9.80703 1.4182,-3.55235 2.10707,-7.13297 2.06661,-10.74189 -0.0405,-3.60884 -0.76323,-7.10965 -2.16811,-10.502458 -1.40495,-3.392688 -3.48999,-6.440956 -6.25512,-9.144809 z m -8.59401,9.011846 c 1.65818,1.621442 2.93629,3.42957 3.83432,5.42439 0.89799,1.99491 1.40408,4.04008 1.5183,6.13547 0.11416,2.0955 -0.21834,4.16842 -0.99752,6.21879 -0.77921,2.05043 -1.99764,3.92328 -3.65533,5.61858 -1.69401,1.73246 -3.55741,2.99283 -5.59021,3.78108 -2.03283,0.78832 -4.11585,1.16718 -6.24908,1.13657 -2.13323,-0.0306 -4.21638,-0.48089 -6.24944,-1.35099 -2.03305,-0.87003 -3.87925,-2.11631 -5.53857,-3.73884 l -0.10969,-0.10725 c -1.65931,-1.62246 -2.93769,-3.43143 -3.83516,-5.42689 -0.89746,-1.99539 -1.40356,-4.04054 -1.51831,-6.13547 -0.11473,-2.09484 0.2087,-4.15849 0.97028,-6.19094 0.7616,-2.03234 1.9894,-3.914769 3.68339,-5.647261 1.6577,-1.695259 3.51203,-2.946344 5.56299,-3.753255 2.05097,-0.806797 4.14306,-1.194925 6.27629,-1.164396 2.13324,0.03064 4.21639,0.481518 6.24947,1.352637 2.03307,0.871236 3.8787,2.117526 5.5369,3.738875 z"
         id="path3827"
         inkscape:connector-curvature="0"
         style="font-size:40px;font-style:normal;font-variant:normal;font-weight:bold;font-stretch:normal;line-height:125%;letter-spacing:0px;word-spacing:0px;fill:#28295c;fill-opacity:1;stroke:none;font-family:Gotham;-inkscape-font-specification:Gotham Bold" />
      <path
         d="m 262.29031,137.07089 -11.94783,-20.14705 c 3.52951,-1.06294 6.45097,-2.90156 8.76441,-5.51583 2.31333,-2.61423 3.61152,-6.1085 3.89455,-10.48283 l 0.01,-0.15309 c 0.36274,-5.608368 -1.1423,-10.09754 -4.51511,-13.467536 -3.37291,-3.369908 -8.2749,-5.262896 -14.70601,-5.678981 l -24.69376,-1.597424 -3.4947,54.022471 11.88411,0.76878 1.11827,-17.28682 9.33818,0.60409 10.45729,18.03563 z M 250.92198,100.7634 c -0.14986,2.31593 -1.05437,4.11789 -2.71353,5.40588 -1.65926,1.28804 -3.95453,1.83725 -6.88588,1.64758 l -12.03953,-0.77883 1.00356,-15.513381 11.80636,0.763742 c 2.93292,0.189772 5.1809,0.981235 6.74395,2.37439 1.56299,1.393235 2.26131,3.37574 2.09497,5.947529 z"
         id="path3829"
         inkscape:connector-curvature="0"
         style="font-size:40px;font-style:normal;font-variant:normal;font-weight:bold;font-stretch:normal;line-height:125%;letter-spacing:0px;word-spacing:0px;fill:#28295c;fill-opacity:1;stroke:none;font-family:Gotham;-inkscape-font-specification:Gotham Bold" />
      <path
         d="m 317.09664,149.68487 -15.73776,-35.42371 26.49767,-17.641131 -14.04227,-3.119873 -26.57262,18.337664 5.13257,-23.101164 -11.62547,-2.582915 -11.74136,52.846769 11.62546,2.58292 3.58926,-16.15491 7.52372,-4.98413 11.38457,26.1375 z"
         id="path3831"
         inkscape:connector-curvature="0"
         style="font-size:40px;font-style:normal;font-variant:normal;font-weight:bold;font-stretch:normal;line-height:125%;letter-spacing:0px;word-spacing:0px;fill:#28295c;fill-opacity:1;stroke:none;font-family:Gotham;-inkscape-font-specification:Gotham Bold" />
      <path
         d="m 390.94687,171.40777 -3.7751,-10.08927 c -2.73168,0.92026 -5.3059,1.45926 -7.72261,1.61714 -2.4168,0.15785 -5.03597,-0.39707 -7.85754,-1.66469 -2.11551,-0.95041 -3.87026,-2.23338 -5.26432,-3.84891 -1.39409,-1.61551 -2.39745,-3.40867 -3.01005,-5.37947 -0.61267,-1.9708 -0.84919,-4.05505 -0.70958,-6.25281 0.13957,-2.19771 0.6849,-4.35503 1.636,-6.47196 l 0.0629,-0.13993 c 0.95103,-2.11689 2.19659,-3.94582 3.73669,-5.48679 1.54006,-1.54092 3.26206,-2.73147 5.16607,-3.57166 1.90393,-0.84013 3.91707,-1.26385 6.03938,-1.27117 2.12225,-0.007 4.21816,0.454 6.28775,1.38375 2.4929,1.12003 4.5168,2.62265 6.07175,4.50791 1.55484,1.88531 2.90567,4.13167 4.05252,6.73916 l 10.49407,-4.86619 c -0.62134,-1.63484 -1.37902,-3.21846 -2.27309,-4.75084 -0.89419,-1.53233 -1.96937,-2.97656 -3.22551,-4.33269 -1.25627,-1.35605 -2.75215,-2.64992 -4.48766,-3.8816 -1.73563,-1.23163 -3.75588,-2.36521 -6.06073,-3.40077 -3.80907,-1.71123 -7.59017,-2.60444 -11.34332,-2.67964 -3.75325,-0.0751 -7.28154,0.54412 -10.58491,1.85772 -3.30345,1.31366 -6.28188,3.22566 -8.9353,5.73596 -2.65349,2.51036 -4.77235,5.52865 -6.35656,9.05491 l -0.0639,0.14208 c -1.58428,3.52628 -2.439,7.12675 -2.56423,10.80137 -0.12526,3.67464 0.42862,7.15935 1.66163,10.45413 1.23293,3.29479 3.10549,6.29773 5.61751,9.00886 2.512,2.71114 5.57851,4.8801 9.19953,6.50692 2.39962,1.07807 4.65332,1.85039 6.7611,2.31697 2.10772,0.46656 4.1471,0.67645 6.11813,0.62967 1.97096,-0.0468 3.88125,-0.305 5.73089,-0.77457 1.84957,-0.4696 3.71572,-1.10081 5.59846,-1.89359 z"
         id="path3833"
         inkscape:connector-curvature="0"
         style="font-size:40px;font-style:normal;font-variant:normal;font-weight:bold;font-stretch:normal;line-height:125%;letter-spacing:0px;word-spacing:0px;fill:#28295c;fill-opacity:1;stroke:none;font-family:Gotham;-inkscape-font-specification:Gotham Bold" />
      <path
         d="m 404.07642,191.02135 28.12702,-46.25487 -10.17535,-6.18751 -28.12702,46.25487 z"
         id="path3835"
         inkscape:connector-curvature="0"
         style="font-size:40px;font-style:normal;font-variant:normal;font-weight:bold;font-stretch:normal;line-height:125%;letter-spacing:0px;word-spacing:0px;fill:#28295c;fill-opacity:1;stroke:none;font-family:Gotham;-inkscape-font-specification:Gotham Bold" />
      <path
         d="m 473.54749,187.61653 6.59703,-8.77901 -35.85938,-26.94675 -6.59704,8.779 13.16945,9.89627 -25.92451,34.49905 9.52049,7.15423 25.9245,-34.49906 z"
         id="path3837"
         inkscape:connector-curvature="0"
         style="font-size:40px;font-style:normal;font-variant:normal;font-weight:bold;font-stretch:normal;line-height:125%;letter-spacing:0px;word-spacing:0px;fill:#28295c;fill-opacity:1;stroke:none;font-family:Gotham;-inkscape-font-specification:Gotham Bold" />
      <path
         d="m 525.50863,222.5416 -9.58884,-9.55257 -24.65033,6.11791 6.18662,-24.51179 -9.86136,-9.82406 -8.40413,37.91333 -15.06424,15.12143 8.43684,8.40492 15.22747,-15.28527 z"
         id="path3839"
         inkscape:connector-curvature="0"
         style="font-size:40px;font-style:normal;font-variant:normal;font-weight:bold;font-stretch:normal;line-height:125%;letter-spacing:0px;word-spacing:0px;fill:#28295c;fill-opacity:1;stroke:none;font-family:Gotham;-inkscape-font-specification:Gotham Bold" />
      <path
         sodipodi:nodetypes="ccccccccccc"
         d="m -47.824033,774.1096 -24.149105,-26.78935 -36.187902,34.82774 3.46032,3.89354 15.766933,-15.17431 18.365353,20.4435 3.723231,-3.58329 -18.365354,-20.4435 12.924025,-12.43826 20.688785,22.8958 z"
         style="font-size:40px;font-style:normal;font-variant:normal;font-weight:normal;font-stretch:normal;line-height:125%;letter-spacing:0px;word-spacing:0px;fill:#28295c;fill-opacity:1;stroke:#28295c;stroke-width:3.99599242;stroke-opacity:1;font-family:Gotham;-inkscape-font-specification:Gotham"
         inkscape:connector-curvature="0"
         id="path3961" />
      <path
         sodipodi:nodetypes="ccccccccc"
         d="m 81.67556,858.86489 16.67939,6.19704 1.70072,-4.95368 -37.451887,-13.95041 -1.700724,4.95369 15.854889,5.84369 -14.608315,42.54948 4.917612,1.90967 z"
         style="font-size:40px;font-style:normal;font-variant:normal;font-weight:normal;font-stretch:normal;line-height:125%;letter-spacing:0px;word-spacing:0px;fill:#28295c;fill-opacity:1;stroke:#28295c;stroke-width:3.99599242;stroke-opacity:1;font-family:Gotham;-inkscape-font-specification:Gotham"
         id="path3878"
         inkscape:connector-curvature="0" />
      <path
         sodipodi:nodetypes="cccssccccccccscccccccscccccsssccscccs"
         d="m 134.32686,868.10709 -22.23915,-5.12377 -10.25194,49.1674 23.0706,5.33189 c 2.44119,0.56418 4.71122,0.85895 6.84198,0.75175 2.13072,-0.10721 4.02973,-0.55583 5.69707,-1.34588 1.66726,-0.79005 3.06048,-1.93174 4.17965,-3.42509 1.11909,-1.49335 1.89826,-3.29319 2.3375,-5.39952 0.35154,-1.68621 0.40835,-3.24887 0.17041,-4.68797 -0.23802,-1.43908 -0.68581,-2.73372 -1.34337,-3.88392 -0.65766,-1.15018 -1.50187,-2.21138 -2.53265,-3.1836 -1.03087,-0.9722 -2.16333,-1.83453 -3.39738,-2.58699 0.98307,-0.19746 1.95626,-0.50832 2.91961,-0.93255 0.96325,-0.42421 1.88339,-1.01898 2.7604,-1.78434 0.87694,-0.76531 1.64503,-1.706 2.30424,-2.82208 0.65914,-1.11603 1.1596,-2.49358 1.50141,-4.13266 0.39058,-1.87339 0.40334,-3.65644 0.0382,-5.34917 -0.36518,-1.69266 -1.07747,-3.22567 -2.13689,-4.59902 -1.0595,-1.37327 -2.42336,-2.57694 -4.09156,-3.611 -1.66829,-1.03399 -3.61101,-1.82848 -5.82817,-2.38348 z m -5.40098,21.70695 -16.41899,-3.667 3.52949,-16.92715 16.8035,3.76324 c 3.19694,0.80023 5.49698,2.13974 6.90014,4.01853 1.40306,1.87886 1.84599,4.05864 1.32877,6.53934 -0.6055,2.90374 -2.02405,4.86456 -4.25565,5.88246 -2.23169,1.01794 -4.84241,1.07061 -7.88726,0.39058 z m -2.85262,22.71241 -18.20875,-4.11497 3.61709,-17.34727 17.31485,3.89123 c 3.94431,0.88641 6.73105,2.46063 8.42804,4.43705 1.69693,1.97644 2.26219,4.32292 1.69582,7.03943 -0.58584,2.8094 -2.02054,4.74099 -4.30411,5.79477 -2.28365,1.05378 -5.11256,1.07498 -8.54294,0.29976 z"
         style="font-size:40px;font-style:normal;font-variant:normal;font-weight:normal;font-stretch:normal;line-height:125%;letter-spacing:0px;word-spacing:0px;fill:#28295c;fill-opacity:1;stroke:#28295c;stroke-width:3.99599242;stroke-opacity:1;font-family:Gotham;-inkscape-font-specification:Gotham"
         id="path3880"
         inkscape:connector-curvature="0" />
      <path
         sodipodi:nodetypes="ccccccccccccc"
         d="m 188.63779,873.90918 -4.8657,-0.36024 -25.6188,50.08204 5.32518,0.39427 7.24421,-13.11132 27.29962,1.43827 4.9354,13.66456 5.59004,0.41388 z m 7.52019,33.19989 -23.22246,-1.13641 12.9785,-25.65286 z"
         style="font-size:40px;font-style:normal;font-variant:normal;font-weight:normal;font-stretch:normal;line-height:125%;letter-spacing:0px;word-spacing:0px;fill:#28295c;fill-opacity:1;stroke:#28295c;stroke-width:3.99599242;stroke-opacity:1;font-family:Gotham;-inkscape-font-specification:Gotham"
         id="path3882"
         inkscape:connector-curvature="0" />
      <path
         sodipodi:nodetypes="ccccccc"
         d="m 280.65571,919.23449 33.33421,-6.16553 -1.08149,-5.12463 -28.19882,5.29302 -9.28947,-44.0178 -5.13539,0.8725 z"
         style="font-size:40px;font-style:normal;font-variant:normal;font-weight:normal;font-stretch:normal;line-height:125%;letter-spacing:0px;word-spacing:0px;fill:#28295c;fill-opacity:1;stroke:#28295c;stroke-width:3.99599242;stroke-opacity:1;font-family:Gotham;-inkscape-font-specification:Gotham"
         id="path3886"
         inkscape:connector-curvature="0" />
      <path
         sodipodi:nodetypes="ccscsssccssccccc"
         d="m 457.72428,779.7992 -4.0402,3.28471 19.05662,22.99279 c 3.50986,4.23483 4.37329,7.35444 4.37329,11.51653 0,4.24737 -2.89604,7.74405 -6.12576,10.52601 -3.44489,2.9673 -5.9277,4.43388 -11.11737,4.43388 -3.90548,0 -8.41901,-2.89574 -12.02449,-6.98742 l -18.73593,-22.80666 -4.04021,3.28471 18.97334,23.07608 c 2.24816,2.73429 4.76955,4.71537 7.28783,6.17851 2.51828,1.46317 5.35535,2.66601 8.40581,2.66601 5.74494,0 9.42666,-1.50164 14.36077,-5.41533 4.6431,-3.52127 8.78583,-9.27755 8.78583,-15.49302 0.0547,-6.03699 -3.33109,-11.60208 -6.72123,-15.5038 z"
         style="font-size:40px;font-style:normal;font-variant:normal;font-weight:normal;font-stretch:normal;line-height:125%;letter-spacing:0px;word-spacing:0px;fill:#28295c;fill-opacity:1;stroke:#28295c;stroke-width:3.99599242;stroke-opacity:1;font-family:Gotham;-inkscape-font-specification:Gotham"
         id="path3892"
         inkscape:connector-curvature="0" />
      <path
         inkscape:connector-curvature="0"
         id="path3912"
         style="font-size:40px;font-style:normal;font-variant:normal;font-weight:normal;font-stretch:normal;line-height:125%;letter-spacing:0px;word-spacing:0px;fill:#28295c;fill-opacity:1;stroke:#28295c;stroke-width:3.99599242;stroke-opacity:1;font-family:Gotham;-inkscape-font-specification:Gotham"
         d="m 227.92435,924.68913 33.86854,-1.45087 -0.35537,-5.22544 -28.66164,1.30393 -3.05252,-44.88366 -5.2069,0.14693 z"
         sodipodi:nodetypes="ccccccc" />
      <path
         sodipodi:nodetypes="ccccccc"
         d="m 414.30875,872.27509 29.08503,-17.41391 -2.80236,-4.42474 -24.57726,14.80364 -24.07075,-38.00605 -4.50776,2.61026 z"
         style="font-size:40px;font-style:normal;font-variant:normal;font-weight:normal;font-stretch:normal;line-height:125%;letter-spacing:0px;word-spacing:0px;fill:#28295c;fill-opacity:1;stroke:#28295c;stroke-width:3.99599242;stroke-opacity:1;font-family:Gotham;-inkscape-font-specification:Gotham"
         id="path3914"
         inkscape:connector-curvature="0" />
      <path
         transform="matrix(1.0638298,0,0,1.0638298,2.5060772,-52.3862)"
         d="m -13.427561,817.02649 c 0,12.22963 -9.914071,22.1437 -22.143698,22.1437 -12.229626,0 -22.143697,-9.91407 -22.143697,-22.1437 0,-12.22963 9.914071,-22.1437 22.143697,-22.1437 12.229627,0 22.143698,9.91407 22.143698,22.1437 z"
         sodipodi:ry="22.143698"
         sodipodi:rx="22.143698"
         sodipodi:cy="817.02649"
         sodipodi:cx="-35.571259"
         id="path3916"
         style="fill:none;stroke:#28295c;stroke-width:9.01495934;stroke-linecap:square;stroke-linejoin:round;stroke-miterlimit:4;stroke-opacity:1;stroke-dasharray:none;stroke-dashoffset:0"
         sodipodi:type="arc" />
      <path
         sodipodi:type="arc"
         style="fill:none;stroke:#28295c;stroke-width:9.01495934;stroke-linecap:square;stroke-linejoin:round;stroke-miterlimit:4;stroke-opacity:1;stroke-dasharray:none;stroke-dashoffset:0"
         id="path3918"
         sodipodi:cx="-35.571259"
         sodipodi:cy="817.02649"
         sodipodi:rx="22.143698"
         sodipodi:ry="22.143698"
         d="m -13.427561,817.02649 c 0,12.22963 -9.914071,22.1437 -22.143698,22.1437 -12.229626,0 -22.143697,-9.91407 -22.143697,-22.1437 0,-12.22963 9.914071,-22.1437 22.143697,-22.1437 12.229627,0 22.143698,9.91407 22.143698,22.1437 z"
         transform="matrix(1.0638298,0,0,1.0638298,59.04318,-15.401512)" />
      <path
         inkscape:connector-curvature="0"
         id="path3920"
         style="font-size:40px;font-style:normal;font-variant:normal;font-weight:normal;font-stretch:normal;line-height:125%;letter-spacing:0px;word-spacing:0px;fill:#28295c;fill-opacity:1;stroke:#28295c;stroke-width:3.99599242;stroke-opacity:1;font-family:Gotham;-inkscape-font-specification:Gotham"
         d="m 484.18095,752.32214 -15.61548,16.643 37.33642,33.59357 16.2136,-17.2569 c 1.71562,-1.82603 3.11229,-3.63965 4.0915,-5.53511 0.97918,-1.89544 1.54674,-3.76235 1.70267,-5.6008 0.15588,-1.83838 -0.12999,-3.6168 -0.85765,-5.33528 -0.7277,-1.7184 -1.89128,-3.2972 -3.49075,-4.73639 -1.28049,-1.15205 -2.60246,-1.98723 -3.96591,-2.50552 -1.36348,-0.5182 -2.70764,-0.78245 -4.0325,-0.79274 -1.32489,-0.0102 -2.66671,0.1856 -4.02549,0.58739 -1.35881,0.40189 -2.67376,0.94685 -3.94486,1.63487 0.32387,-0.94896 0.54476,-1.94643 0.66271,-2.99242 0.11793,-1.04589 0.0668,-2.14033 -0.15354,-3.2833 -0.22029,-1.14289 -0.64692,-2.27993 -1.27989,-3.41109 -0.63297,-1.13108 -1.57179,-2.25658 -2.81644,-3.37651 -1.42262,-1.27996 -2.95723,-2.18793 -4.60387,-2.72387 -1.6466,-0.53586 -3.32984,-0.69142 -5.0497,-0.46666 -1.71984,0.22488 -3.44621,0.79812 -5.17908,1.71971 -1.73285,0.9217 -3.39677,2.20106 -4.99176,3.83808 z m 16.0436,15.58734 -11.42867,12.34567 -12.85403,-11.56545 11.70527,-12.62958 c 2.2998,-2.36045 4.6145,-3.67446 6.94412,-3.94205 2.32962,-0.26747 4.43634,0.44624 6.32013,2.14115 2.205,1.98401 3.18608,4.19638 2.94323,6.63712 -0.24286,2.44083 -1.51064,4.72367 -3.63005,7.01314 z m 18.19451,13.89068 -12.71616,13.66714 -13.17306,-11.85249 12.07312,-13.00714 c 2.75024,-2.96302 5.51262,-4.5796 8.07443,-5.05202 2.56178,-0.47237 4.87411,0.21948 6.93698,2.07548 2.13336,1.91956 3.08105,4.13119 2.84306,6.63489 -0.23802,2.50377 -1.64276,4.95935 -4.03837,7.53414 z"
         sodipodi:nodetypes="cccssccccccccscccccccscccccsssccscccs" />
      <path
         sodipodi:nodetypes="csssccsssc"
         inkscape:connector-curvature="0"
         id="path3922"
         d="m 388.07543,871.36076 c -3.33148,7.75094 -7.91743,13.5862 -18.33356,13.5862 -10.41613,0 -18.75,-8.33387 -18.75,-18.75 0,-10.41613 8.33387,-18.75 18.75,-18.75 2.89975,0 5.63812,0.64588 8.08023,1.80277 l 3.08763,-9.10807 c -3.43108,-1.48099 -7.20766,-2.30241 -11.16786,-2.30241 -15.60435,0 -28.35771,12.75336 -28.35771,28.35771 0,15.60435 12.75336,28.35771 28.35771,28.35771 12.82424,0 23.72287,-8.61382 27.19926,-20.34484"
         style="font-size:medium;font-style:normal;font-variant:normal;font-weight:normal;font-stretch:normal;text-indent:0;text-align:start;text-decoration:none;line-height:normal;letter-spacing:normal;word-spacing:normal;text-transform:none;direction:ltr;block-progression:tb;writing-mode:lr-tb;text-anchor:start;baseline-shift:baseline;color:#000000;fill:#28295c;fill-opacity:1;stroke:none;stroke-width:9.02400017;marker:none;visibility:visible;display:inline;overflow:visible;enable-background:accumulate;font-family:Sans;-inkscape-font-specification:Sans" />
    </g>
  </g>
</svg>
