<?xml version="1.0" encoding="UTF-8" standalone="no"?>
<!-- Generator: Adobe Illustrator 15.0.0, SVG Export Plug-In . SVG Version: 6.00 Build 0)  -->

<svg
   xmlns:dc="http://purl.org/dc/elements/1.1/"
   xmlns:cc="http://creativecommons.org/ns#"
   xmlns:rdf="http://www.w3.org/1999/02/22-rdf-syntax-ns#"
   xmlns:svg="http://www.w3.org/2000/svg"
   xmlns="http://www.w3.org/2000/svg"
   xmlns:sodipodi="http://sodipodi.sourceforge.net/DTD/sodipodi-0.dtd"
   xmlns:inkscape="http://www.inkscape.org/namespaces/inkscape"
   version="1.1"
   id="Layer_1"
   x="0px"
   y="0px"
   width="296.42999"
   height="337.5459"
   viewBox="0 0 296.42999 337.5459"
   enable-background="new 0 0 500 569.352"
   xml:space="preserve"
   inkscape:version="0.48.2 r9819"
   sodipodi:docname="Orlando_City_2014.svg"><metadata
     id="metadata39"><rdf:RDF><cc:Work
         rdf:about=""><dc:format>image/svg+xml</dc:format><dc:type
           rdf:resource="http://purl.org/dc/dcmitype/StillImage" /></cc:Work></rdf:RDF></metadata><defs
     id="defs37" /><sodipodi:namedview
     pagecolor="#ffffff"
     bordercolor="#666666"
     borderopacity="1"
     objecttolerance="10"
     gridtolerance="10"
     guidetolerance="10"
     inkscape:pageopacity="0"
     inkscape:pageshadow="2"
     inkscape:window-width="706"
     inkscape:window-height="480"
     id="namedview35"
     showgrid="false"
     fit-margin-top="0"
     fit-margin-left="0"
     fit-margin-right="0"
     fit-margin-bottom="0"
     inkscape:zoom="0.41450632"
     inkscape:cx="148.21433"
     inkscape:cy="168.77295"
     inkscape:window-x="0"
     inkscape:window-y="0"
     inkscape:window-maximized="0"
     inkscape:current-layer="Layer_1" /><path
     d="M 148.2146,337.5459 C 98.457069,317.18176 60.616019,288.19921 35.734279,251.39211 15.754909,221.83686 4.0222187,187.1765 0.85989873,148.37205 -4.2404723,85.77377 14.916609,32.24802 17.218089,26.0971 23.060719,23.30058 74.015239,0 148.2146,0 c 74.19937,0 125.15388,23.30058 130.99592,26.0971 2.30149,6.15092 21.45916,59.67667 16.35997,122.27436 -3.16291,38.80445 -14.8956,73.4654 -34.87498,103.02006 -24.88291,36.80769 -62.72397,65.79024 -112.48091,86.15438"
     id="path3"
     inkscape:connector-curvature="0"
     style="fill:#633492" /><path
     d="M 148.2146,329.73082 C 101.14924,309.98503 65.327469,282.27773 41.715649,247.34762 22.439399,218.83462 11.115189,185.33745 8.0554387,147.78512 3.5354787,92.31301 18.556769,44.14078 22.986609,31.39193 35.223829,25.96252 82.253619,7.21985 148.2146,7.21985 c 65.95921,0 112.99018,18.74267 125.22859,24.17208 4.42984,12.74826 19.44995,60.92049 14.93117,116.39319 -3.05975,37.55233 -14.38456,71.0495 -33.65961,99.5625 -23.61302,34.93011 -59.43538,62.63741 -106.50015,82.3832"
     id="path5"
     inkscape:connector-curvature="0"
     style="fill:#ffffff" /><path
     d="M 148.2146,321.88669 C 103.84439,302.78001 70.036559,276.35269 47.696419,243.3055 29.125079,215.83357 18.209349,183.4984 15.250979,147.19878 11.156689,96.94384 23.475129,52.92282 28.797829,36.74901 44.446359,30.1736 88.210669,14.4391 148.2146,14.4391 c 60.00334,0 103.76765,15.73391 119.41737,22.30932 5.3227,16.1738 17.64055,60.19542 13.54744,110.44977 -2.95896,36.30021 -13.87469,68.63538 -32.44662,96.10672 -22.34073,33.04837 -56.14916,59.47569 -100.51819,78.58178"
     id="path7"
     inkscape:connector-curvature="0"
     style="fill:#633492" /><path
     d="m 85.257049,237.01348 c -1.07782,-1.05351 -2.35129,-1.89004 -3.78482,-2.48883 -1.43887,-0.60115 -3.00165,-0.9047 -4.64328,-0.9047 -1.64222,0 -3.20381,0.30355 -4.64387,0.9047 -1.43294,0.59879 -2.7064,1.43532 -3.78363,2.48883 -1.07841,1.05292 -1.93569,2.29733 -2.54693,3.69707 -0.61479,1.40508 -0.92664,2.93229 -0.92664,4.53835 0,1.60605 0.31185,3.13207 0.92664,4.53715 0.61124,1.39915 1.46793,2.64297 2.54693,3.69826 1.07723,1.05233 2.3501,1.89004 3.78363,2.48823 1.43828,0.60116 3.00106,0.9053 4.64387,0.9053 1.64282,0 3.20559,-0.30414 4.64328,-0.9053 1.43353,-0.59819 2.707,-1.4359 3.78482,-2.48823 1.07722,-1.05233 1.93331,-2.29674 2.54692,-3.69826 0.61539,-1.40626 0.92664,-2.93288 0.92664,-4.53715 0,-1.60428 -0.31066,-3.1309 -0.92664,-4.53835 -0.61479,-1.40152 -1.47088,-2.64652 -2.54692,-3.69707 m -0.43635,8.23542 c 0,1.11754 -0.2075,2.17401 -0.61539,3.13682 -0.40788,0.96399 -0.98177,1.8094 -1.70328,2.51135 -0.72388,0.7061 -1.58412,1.27109 -2.55701,1.67839 -1.93094,0.81221 -4.30297,0.81221 -6.23273,0 -0.97348,-0.40789 -1.83312,-0.97289 -2.5576,-1.67898 -0.72092,-0.70136 -1.29362,-1.54618 -1.70151,-2.51076 -0.40788,-0.96222 -0.61539,-2.0181 -0.61539,-3.13682 0,-1.11932 0.20691,-2.1758 0.61539,-3.13742 0.40789,-0.9628 0.98,-1.80881 1.7027,-2.51195 0.72506,-0.70491 1.58412,-1.2699 2.557,-1.6772 0.96577,-0.4061 2.01572,-0.61242 3.11666,-0.61242 1.10035,0 2.14971,0.20632 3.11667,0.61242 0.97051,0.40671 1.83016,0.97052 2.55641,1.6772 0.72151,0.70314 1.2954,1.54855 1.70329,2.51077 0.40729,0.96458 0.61479,2.01987 0.61479,3.1386 z"
     id="path9"
     inkscape:connector-curvature="0"
     style="fill:#ffffff" /><polyline
     points="226.427,426.896 206.899,426.896 206.899,394.491 200.305,394.491 200.305,432.851   223.221,432.851 226.427,426.896 "
     id="polyline11"
     transform="matrix(0.59285976,0,0,0.59285976,-3.4126988e-4,0)"
     style="fill:#ffffff" /><polyline
     points="278.66,409.409 304.023,433.963 304.023,395.877 296.761,395.877 296.761,417.799 272.463,393.243   272.463,419.627 278.66,431.332 278.66,409.409 "
     id="polyline13"
     transform="matrix(0.59285976,0,0,0.59285976,-3.4126988e-4,0)"
     style="fill:#ffffff" /><path
     d="m 200.71056,237.14035 c -1.04581,-1.01023 -2.29734,-1.81474 -3.72316,-2.39219 -1.42464,-0.57744 -2.97972,-0.86972 -4.62016,-0.86972 h -7.70421 v 22.7421 h 7.70421 c 1.64044,0 3.19611,-0.29347 4.62016,-0.87032 1.42523,-0.57804 2.67735,-1.38255 3.72316,-2.39219 1.04462,-1.01082 1.87936,-2.22263 2.48289,-3.6034 0.60413,-1.38314 0.91064,-2.90027 0.91064,-4.50514 0,-1.60606 -0.30651,-3.12141 -0.91064,-4.50574 -0.60353,-1.38136 -1.43827,-2.59316 -2.48289,-3.6034 m -12.13703,0.2662 h 3.40776 c 1.12584,0 2.19773,0.20216 3.18721,0.60116 0.99245,0.40018 1.87403,0.95806 2.61985,1.65822 0.74108,0.69543 1.33394,1.53373 1.76317,2.49179 0.42567,0.95273 0.64206,1.99261 0.64206,3.09058 0,1.11873 -0.2158,2.16275 -0.64088,3.10422 -0.42804,0.94857 -1.02209,1.78095 -1.76435,2.47874 -0.74582,0.69898 -1.62799,1.25627 -2.61985,1.65764 -0.98829,0.39781 -2.06018,0.59997 -3.18721,0.59997 h -3.40776 v -15.68232 z"
     id="path15"
     inkscape:connector-curvature="0"
     style="fill:#ffffff" /><path
     d="m 230.5735,240.71055 c -0.61421,-1.40152 -1.47148,-2.64652 -2.54574,-3.69707 -1.07842,-1.05351 -2.35129,-1.89004 -3.78541,-2.48883 -1.43947,-0.60115 -3.00165,-0.9047 -4.64328,-0.9047 -1.64282,0 -3.20441,0.30355 -4.64387,0.9047 -1.43354,0.59879 -2.70641,1.43532 -3.78423,2.48883 -1.07781,1.05292 -1.9345,2.29733 -2.54692,3.69707 -0.6148,1.40508 -0.92664,2.93229 -0.92664,4.53835 0,1.60605 0.31244,3.13207 0.92664,4.53715 0.61183,1.39915 1.46851,2.64297 2.54692,3.69826 1.07782,1.05233 2.35069,1.89004 3.78364,2.48823 1.43887,0.60116 3.00046,0.9053 4.64387,0.9053 1.64281,0 3.20618,-0.30414 4.64327,-0.9053 1.43413,-0.59819 2.707,-1.4359 3.78541,-2.48823 1.07604,-1.05233 1.93273,-2.29674 2.54693,-3.69826 0.6142,-1.40626 0.92605,-2.93288 0.92605,-4.53715 5.9e-4,-1.60428 -0.31126,-3.1309 -0.92664,-4.53835 m -2.98327,4.53835 c 0,1.11754 -0.20632,2.17401 -0.6148,3.13682 -0.40848,0.96399 -0.98118,1.8094 -1.70388,2.51135 -0.72507,0.7061 -1.58353,1.27109 -2.55582,1.67839 -1.93272,0.81221 -4.30416,0.81221 -6.23451,0 -0.97407,-0.40789 -1.83312,-0.97289 -2.55701,-1.67898 -0.72091,-0.70136 -1.29421,-1.54618 -1.70269,-2.51076 -0.40789,-0.96222 -0.61539,-2.0181 -0.61539,-3.13682 0,-1.11932 0.2075,-2.1758 0.61539,-3.13742 0.40789,-0.9628 0.98118,-1.80881 1.70329,-2.51195 0.72388,-0.70491 1.58412,-1.2699 2.55641,-1.6772 0.96695,-0.4061 2.01632,-0.61242 3.11726,-0.61242 1.10094,0 2.14971,0.20632 3.11725,0.61242 0.97051,0.40671 1.83016,0.97052 2.55582,1.6772 0.7227,0.70314 1.29481,1.54855 1.70388,2.51077 0.40848,0.96458 0.6148,2.01987 0.6148,3.1386 z"
     id="path17"
     inkscape:connector-curvature="0"
     style="fill:#ffffff" /><rect
     x="137.43404"
     y="263.40225"
     width="3.90991"
     height="22.742693"
     id="rect19"
     style="fill:#ffffff" /><path
     d="m 182.00465,263.40226 -6.07682,8.66346 -6.07681,-8.66346 h -4.62016 c 0.12628,0.25849 8.74172,12.75538 8.74172,12.75538 v 9.98731 h 3.90991 v -9.98731 l 8.82057,-12.75538 h -4.69841"
     id="path21"
     inkscape:connector-curvature="0"
     style="fill:#ffffff" /><polyline
     points="272.328,444.291 246.69,444.291 246.69,450.244 257.337,450.244 257.337,482.652 263.93,482.652   263.93,450.244 276.267,450.244 272.328,444.291 "
     id="polyline23"
     transform="matrix(0.59285976,0,0,0.59285976,-3.4126988e-4,0)"
     style="fill:#ffffff" /><polyline
     points="251.867,391.861 232.355,432.851 239.623,432.851 251.867,406.793 255.828,415.187   251.867,415.187 249.106,421.142 258.648,421.142 264.111,432.851 271.378,432.851 251.867,391.861 "
     id="polyline25"
     transform="matrix(0.59285976,0,0,0.59285976,-3.4126988e-4,0)"
     style="fill:#ffffff" /><path
     d="m 131.7829,279.43615 c -0.29761,0.45236 -0.63732,0.86973 -1.02327,1.24501 -0.72448,0.70491 -1.58413,1.2699 -2.55642,1.67779 -1.93153,0.81163 -4.30297,0.81163 -6.23332,0 -0.97348,-0.40848 -1.83372,-0.97407 -2.55701,-1.67838 -0.72151,-0.70136 -1.2948,-1.54618 -1.70269,-2.51077 -0.40789,-0.9628 -0.6148,-2.01868 -0.6148,-3.13741 0,-1.11813 0.20691,-2.17461 0.6148,-3.13741 0.40789,-0.96162 0.98118,-1.80763 1.70269,-2.51136 0.72507,-0.70491 1.58472,-1.26931 2.55701,-1.67779 0.96636,-0.40611 2.01513,-0.61124 3.11666,-0.61124 1.10094,0 2.1503,0.20513 3.11726,0.61124 0.9711,0.40789 1.82956,0.9717 2.55582,1.67779 0.38535,0.37469 0.72506,0.79384 1.02327,1.24619 v -5.22783 c -0.64029,-0.4233 -1.32563,-0.7891 -2.05248,-1.09324 -1.43946,-0.60116 -3.00165,-0.90529 -4.64328,-0.90529 -1.64163,0 -3.20381,0.30413 -4.64327,0.90529 -1.43413,0.59938 -2.707,1.43591 -3.78482,2.48883 -1.07782,1.05292 -1.9351,2.29733 -2.54693,3.69648 -0.61479,1.40567 -0.92664,2.93228 -0.92664,4.53834 0,1.60547 0.31244,3.13326 0.92664,4.53834 0.61183,1.39856 1.46852,2.64297 2.54693,3.69708 1.07723,1.05351 2.35069,1.89003 3.78363,2.48882 1.43769,0.60175 3.00106,0.9053 4.64387,0.9053 1.64282,0 3.205,-0.30355 4.64328,-0.9053 0.72684,-0.30295 1.41219,-0.66993 2.05248,-1.09323 v -5.22725"
     id="path27"
     inkscape:connector-curvature="0"
     style="fill:#ffffff" /><path
     d="m 107.00374,247.93514 c 2.42657,-1.37128 3.61466,-3.71308 3.61466,-6.36494 0,-4.24903 -2.76925,-7.69236 -7.92061,-7.69236 -0.1322,0 -8.252601,0 -8.252601,0 v 22.74211 h 3.90872 v -18.9567 h 3.399461 c 0.13339,0 0.61183,0 0.72507,0 2.15741,0 3.90635,1.74894 3.90635,3.90695 0,2.15682 -1.74894,3.90695 -3.90635,3.90695 -0.1079,0 -0.58516,0 -0.72507,0 h -2.272431 l 9.217781,11.1428 h 5.26104 l -6.95602,-8.68481"
     id="path29"
     inkscape:connector-curvature="0"
     style="fill:#ffffff" /><path
     d="m 148.2146,162.22422 c 0,0 -17.918,0.7221 -20.48508,6.54102 -0.47073,1.06656 0,8.68658 0,8.68658 0,0 1.50942,0.31896 2.69514,-0.50452 0,0 -0.18853,3.37278 2.26472,5.0731 2.45207,1.69973 6.30685,4.09014 6.38807,4.09014 0.0806,0 2.34476,-1.69973 3.63838,-1.80585 1.29362,-0.10612 4.09725,4.78082 5.49877,6.16218 1.40093,-1.38136 4.20397,-6.2683 5.49759,-6.16218 1.2954,0.10671 3.55894,1.80585 3.63957,1.80585 0.0812,0 3.9354,-2.39041 6.38747,-4.09014 2.45385,-1.70032 2.26472,-5.0731 2.26472,-5.0731 1.18572,0.82348 2.69514,0.50452 2.69514,0.50452 0,0 0.47133,-7.62002 0,-8.68658 -2.56649,-5.81892 -20.48449,-6.54102 -20.48449,-6.54102"
     id="path31"
     inkscape:connector-curvature="0"
     style="fill:#fde192" /><path
     d="m 221.93612,131.23248 c 25.13548,-1.35765 24.30725,-16.13587 24.30725,-16.13587 -14.72545,6.44972 -19.68769,-4.54071 -25.71351,-5.76556 20.77025,-7.13744 17.68738,-22.78656 17.68738,-22.78656 -8.08009,10.44322 -20.28174,1.19105 -26.22101,2.09161 16.71154,-11.10664 10.28612,-26.78719 10.28612,-26.78719 -3.13326,11.76531 -23.69364,8.2781 -23.69364,8.2781 11.37579,-16.7886 1.24323,-28.19937 1.24323,-28.19937 0.85075,12.38662 -20.74416,15.5845 -20.74416,15.5845 5.60252,-21.94292 -6.95959,-27.47905 -6.95959,-27.47905 2.48705,10.43611 -12.04098,18.69465 -12.04098,18.69465 L 148.2146,25.5736 136.3414,48.72774 c 0,0 -14.52744,-8.25913 -12.04157,-18.69465 0,0 -12.56092,5.53613 -6.95781,27.47905 0,0 -21.596101,-3.19788 -20.744751,-15.5845 0,0 -10.13316,11.41136 1.24263,28.19937 0,0 -20.55919,3.48661 -23.69305,-8.2781 0,0 -6.42541,15.68055 10.28612,26.78719 -5.93868,-0.90056 -18.14151,8.35161 -26.221,-2.09161 0,0 -3.08346,15.64912 17.68738,22.78656 -6.02642,1.22485 -10.98747,12.21528 -25.71352,5.76556 0,0 -0.82763,14.77822 24.30725,16.13587 -9.00554,5.29186 -7.07222,15.68707 -23.58633,13.92924 0,0 5.41459,13.54981 27.67766,7.70955 -6.83152,7.18368 -3.29156,16.50106 -18.6822,19.40845 0,0 10.03712,12.23129 29.32463,-0.27568 -3.60044,6.72836 1.45665,16.88168 -12.06411,23.597 0,0 13.98853,8.15716 28.698561,-9.30078 -0.65333,10.52563 5.78454,18.43497 -4.47846,27.45652 0,0 15.45882,4.21167 24.52246,-17.44372 1.59776,9.12293 10.36734,12.86625 3.38997,27.27689 0,0 11.55425,0.88988 18.91934,-17.98796 7.3651,18.87784 18.91934,17.98796 18.91934,17.98796 -6.97736,-14.41124 1.79222,-18.15396 3.38998,-27.27689 9.06364,21.65539 24.52245,17.44372 24.52245,17.44372 -10.26358,-9.02155 -3.82631,-16.93089 -4.47787,-27.45652 14.71004,17.45794 28.69797,9.30078 28.69797,9.30078 -13.52076,-6.71592 -8.46248,-16.86923 -12.0641,-23.597 19.2881,12.50697 29.32403,0.27568 29.32403,0.27568 -15.38945,-2.9068 -11.84949,-12.22477 -18.68101,-19.40845 22.26248,5.84085 27.67706,-7.70955 27.67706,-7.70955 -16.5141,1.75783 -14.58138,-8.63738 -23.58633,-13.92924 M 114.35994,70.18808 c 10.02763,0 9.16443,-7.75639 8.08601,-9.56283 0,0 8.35636,0.37172 15.36396,5.52605 0,0 8.35696,-9.56283 10.40469,-17.21369 2.04893,7.65086 10.4041,17.21369 10.4041,17.21369 7.0076,-5.15373 15.36337,-5.52605 15.36337,-5.52605 -1.07782,1.80704 -1.94043,9.56283 8.0872,9.56283 10.02644,0 12.12813,3.29393 12.12813,3.29393 -2.90976,-0.58338 -7.00642,-1.16853 -17.84271,2.49772 -10.8357,3.66565 -8.46307,-5.79165 -8.46307,-5.79165 -15.36515,1.11576 -19.67702,9.69326 -19.67702,9.69326 0,0 -4.31187,-8.5775 -19.67642,-9.69326 0,0 2.37144,9.4567 -8.46367,5.79165 -10.8351,-3.66625 -14.93295,-3.0811 -17.84389,-2.49772 0,-6e-4 2.10228,-3.29393 12.12932,-3.29393 z m 40.26941,71.91982 c -4.20516,2.55107 -6.41475,6.177 -6.41475,6.177 0,0 -2.21077,-3.62534 -6.41474,-6.17641 0,0 0.48496,-2.98801 -0.56677,-3.18662 -1.05055,-0.19861 -4.12453,-0.0794 -4.12453,-0.0794 0,0 -4.89168,-1.9926 -5.74066,-5.97721 0,0 2.66787,0.75708 6.22621,-0.35808 3.55775,-1.11636 5.01263,0.15947 6.14499,0.63732 1.13237,0.47844 2.31868,0.63792 4.47491,0.63792 2.15623,0 3.34254,-0.16008 4.47491,-0.63792 1.13117,-0.47785 2.58724,-1.75368 6.14439,-0.63732 3.55894,1.11516 6.22622,0.35808 6.22622,0.35808 -0.84957,3.98461 -5.74126,5.97721 -5.74126,5.97721 0,0 -3.07279,-0.11916 -4.12274,0.0794 -1.05174,0.19801 -0.56618,3.18603 -0.56618,3.18603 z m -22.91166,-31.33027 c -5.22843,-0.10672 -18.54406,-1.06241 -19.02902,-11.26315 v -0.2656 c 0,0 7.37636,-1.16675 10.18889,0 5.12112,2.1254 9.54089,11.84771 17.8433,4.56858 0,0 -5.55214,12.27338 -9.00317,18.3828 0,0 5.22961,-11.31651 0,-11.42263 z m 32.99205,0 c -5.22843,0.10612 0,11.42263 0,11.42263 -3.44926,-6.10942 -9.00258,-18.3828 -9.00258,-18.3828 8.30182,7.27913 12.72278,-2.44259 17.84449,-4.56858 2.81193,-1.16675 10.18889,0 10.18889,0 v 0.2656 c -0.48674,10.20074 -13.80118,11.15584 -19.0308,11.26315 z m 39.56924,32.24801 c -15.04085,-2.94829 -21.02518,3.90517 -21.02518,3.90517 9.78515,1.35409 13.97608,12.8698 13.97608,12.8698 -7.16946,-4.38301 -15.10785,-3.38582 -15.10785,-3.38582 9.70393,24.42463 -22.60159,30.0823 -33.90802,43.51057 -11.30761,-13.42827 -43.61136,-19.08594 -33.90802,-43.51057 0,0 -7.93839,-0.9966 -15.107851,3.38582 0,0 4.191521,-11.51511 13.975491,-12.8698 0,0 -5.98374,-6.85346 -21.024001,-3.90517 0,0 7.84413,-9.24387 17.628101,-7.49137 0,0 -5.01382,-8.6854 -19.487901,-9.56224 0,0 2.34476,-3.10777 10.916921,-3.74509 0,0 -6.522641,-7.41194 -3.558341,-21.01273 0,0 -5.06717,-3.98283 -3.23405,-15.8839 0,0 1.91197,9.65057 5.983731,8.44766 2.82972,-0.83653 1.53551,-4.36997 -0.687121,-4.10378 0,0 0.646211,-2.62933 4.810461,-4.34329 4.16484,-1.71336 5.2563,-1.87225 5.09385,-5.17981 0,0 2.95185,-1.23493 4.00299,1.5942 1.05173,2.82853 -1.81889,4.18381 -3.27496,4.46186 -1.45487,0.27983 -3.47712,0.87684 -4.36641,2.55107 0,0 3.07279,1.03573 0.64622,3.7451 -2.42539,2.70878 -11.239441,23.03023 9.46145,37.13555 0,0 -0.48496,6.5345 6.87302,12.67119 0,0 -3.15342,-0.29287 -3.70597,-0.16007 -0.55195,0.1328 -0.74107,6.08333 0,6.29617 0.74108,0.21224 12.27754,0 12.27754,0 0,0 -11.61768,3.50677 -12.07181,3.91762 -0.45413,0.41085 0.13161,3.51981 0.50867,3.57257 0.37706,0.0528 9.78397,-2.78881 14.63652,-3.10718 0,0 -10.99755,5.01915 -12.85794,6.53391 0,0 1.77858,3.90517 4.20456,5.25985 0,0 15.90346,-5.73829 22.26426,-10.9181 6.36079,5.17981 22.26425,10.9181 22.26425,10.9181 2.42539,-1.35468 4.20456,-5.25985 4.20456,-5.25985 -1.86098,-1.51416 -12.85735,-6.53391 -12.85735,-6.53391 4.85197,0.31837 14.25887,3.15994 14.63653,3.10718 0.37706,-0.0528 0.9628,-3.16172 0.50808,-3.57257 -0.45473,-0.41085 -12.07122,-3.91762 -12.07122,-3.91762 0,0 11.53586,0.21224 12.27694,0 0.74107,-0.21284 0.55314,-6.16337 0,-6.29617 -0.55314,-0.1328 -3.70597,0.16007 -3.70597,0.16007 7.35799,-6.13669 6.87303,-12.67119 6.87303,-12.67119 20.70088,-14.10532 11.88624,-34.42677 9.46085,-37.13555 -2.42539,-2.70996 0.64681,-3.7451 0.64681,-3.7451 -0.88929,-1.67423 -2.91094,-2.27124 -4.36641,-2.55107 -1.45606,-0.27805 -4.3261,-1.63333 -3.27496,-4.46186 1.05174,-2.82972 4.0024,-1.5942 4.0024,-1.5942 -0.16126,3.30756 0.9302,3.46704 5.09444,5.17981 4.16484,1.71396 4.81165,4.34329 4.81165,4.34329 -2.22381,-0.26619 -3.51743,3.26725 -0.68771,4.10378 4.07116,1.2035 5.98373,-8.44766 5.98373,-8.44766 1.83312,11.90166 -3.23405,15.8839 -3.23405,15.8839 2.96489,13.60079 -3.55834,21.01273 -3.55834,21.01273 8.57156,0.63732 10.91691,3.74509 10.91691,3.74509 -14.47467,0.87684 -19.48789,9.56224 -19.48789,9.56224 9.78574,-1.75309 17.62928,7.49137 17.62928,7.49137 z"
     id="path33"
     inkscape:connector-curvature="0"
     style="fill:#fde192" /></svg>