<?xml version="1.0" encoding="utf-8"?>
<!-- Generator: Adobe Illustrator 15.0.0, SVG Export Plug-In . SVG Version: 6.00 Build 0)  -->
<!DOCTYPE svg PUBLIC "-//W3C//DTD SVG 1.1//EN" "http://www.w3.org/Graphics/SVG/1.1/DTD/svg11.dtd">
<svg version="1.1" id="Layer_1" xmlns="http://www.w3.org/2000/svg" xmlns:xlink="http://www.w3.org/1999/xlink" x="0px" y="0px"
	 width="500px" height="500px" viewBox="0 0 500 500" enable-background="new 0 0 500 500" xml:space="preserve">
<path fill="#B38708" d="M250.002,0C112.155,0,0,112.151,0,249.997C0,387.847,112.155,500,250.002,500
	C387.848,500,500,387.847,500,249.997C500,112.151,387.848,0,250.002,0"/>
<path fill="#002D55" d="M250.002,9.709C117.507,9.709,9.709,117.506,9.709,250.001c0,132.501,107.797,240.289,240.292,240.289
	c132.503,0,240.289-107.788,240.289-240.289C490.291,117.506,382.505,9.709,250.002,9.709"/>
<path fill="#FFFFFF" d="M250.002,421.267c-94.438,0-171.269-76.833-171.269-171.27c0-94.436,76.83-171.263,171.269-171.263
	c94.434,0,171.265,76.827,171.265,171.263C421.267,344.434,344.436,421.267,250.002,421.267 M250.002,85.506
	c-90.702,0-164.493,73.791-164.493,164.49c0,90.7,73.791,164.493,164.493,164.493c90.704,0,164.497-73.792,164.497-164.493
	C414.499,159.297,340.706,85.506,250.002,85.506z"/>
<path fill="#B38708" d="M249.998,85.433c-90.742,0-164.565,73.825-164.565,164.566c0,90.742,73.823,164.569,164.565,164.569
	c90.744,0,164.57-73.827,164.57-164.569C414.567,159.257,340.741,85.433,249.998,85.433"/>
<path fill="#5191CD" d="M134.537,222.797c-0.867-8.564-1.323-17.27-1.323-26.088c0-19.401,2.172-38.229,6.201-56.24l0.402,0.128
	l-0.402-0.693l-3.398,4.656c-4.167,18.864-8.123,42.294-8.123,62.704c0,5.728,0.188,11.403,0.533,17.029
	C130.44,223.763,132.5,223.305,134.537,222.797z"/>
<path fill="#5191CD" d="M305.007,144.973V94.899c-17.21-6.122-35.725-9.467-55.009-9.467c-19.283,0-37.796,3.345-55.005,9.466
	v50.075c20.536-3.625,39.3-12.977,55.007-26.521C265.707,131.996,284.471,141.349,305.007,144.973z"/>
<path fill="#5191CD" d="M366.786,196.708c0,8.819-0.456,17.524-1.323,26.088c2.038,0.508,4.097,0.966,6.11,1.496
	c0.345-5.626,0.533-11.301,0.533-17.029c0-20.41-3.956-43.84-8.123-62.704l-3.398-4.656l-0.402,0.693l0.402-0.128
	C364.614,158.479,366.786,177.307,366.786,196.708z"/>
<path fill="#5191CD" d="M397.649,177.378h-2.151c8.209,19.114,12.791,40.157,12.791,62.289c0,68.016-42.98,125.984-103.246,148.24
	v-4.634c34.224-37.04,57.692-86.291,64.695-141.444l-6.795-1.761C350.583,312.617,308.039,373.313,250,405.425
	c-58.039-32.112-100.583-92.808-112.943-165.357l-6.795,1.761c7.002,55.153,30.471,104.404,64.695,141.444v4.634
	c-60.266-22.256-103.246-80.224-103.246-148.24c0-22.131,4.582-43.175,12.791-62.289h-2.151
	c-10.823,21.917-16.918,46.568-16.918,72.621c0,90.742,73.823,164.569,164.565,164.569c0,0,0.001,0,0.002,0s0.002,0,0.002,0
	c90.743,0,164.565-73.827,164.565-164.569C414.567,223.946,408.472,199.294,397.649,177.378z"/>
<path fill="#002D55" d="M250,208.976c39.631,0,79.037,4.788,115.463,13.826c0.867-8.564,1.323-17.275,1.323-26.094
	c0-19.401-2.172-38.229-6.201-56.24c-11.513,4.014-23.745,6.184-36.43,6.184c-28.017,0-53.682-10.546-74.156-28.201
	c-20.474,17.655-46.139,28.201-74.156,28.201c-12.685,0-24.917-2.17-36.43-6.184c-4.029,18.01-6.201,36.838-6.201,56.24
	c0,8.819,0.456,17.529,1.323,26.094C170.963,213.764,210.369,208.976,250,208.976z"/>
<path fill="#002D55" d="M384.294,236.219c-41.363-12.343-87.795-18.928-134.294-18.928s-92.931,6.584-134.294,18.928
	c0,0-3.042,0.973-6.606,2.197l7.842,7.11c6.54-1.973,13.206-3.783,19.976-5.458C149.273,312.589,191.996,373.264,250,405.386
	c58.004-32.122,100.728-92.797,113.083-165.318c6.77,1.674,13.436,3.484,19.976,5.458l7.842-7.11
	C387.336,237.192,384.294,236.219,384.294,236.219z"/>
<path fill="#B38708" d="M50.61,208.601c0.567-1.068,0.921-1.972,1.078-2.715c0.307-1.501,0.047-2.631-0.798-3.399
	c-0.833-0.771-2.498-1.4-4.991-1.916c-3.336-0.69-5.736-0.761-7.189-0.223c-1.063,0.362-1.793,1.466-2.174,3.343
	c-0.338,1.609-0.299,2.807,0.114,3.577c0.215,0.467,0.542,0.811,0.97,1.033c0.434,0.22,1.175,0.441,2.199,0.654l17.329,3.571
	c0.842,0.17,1.527,0.302,2.036,0.387c0.52,0.086,0.953,0.138,1.286,0.148c0.358,0.014,0.64,0,0.877-0.049
	c0.231-0.046,0.494-0.134,0.749-0.275c0.597-0.291,1.053-0.725,1.374-1.293c0.334-0.555,0.66-1.522,0.965-2.868l3.693,0.76
	l-4.159,20.194l-3.689-0.759c0.184-1.302,0.221-2.281,0.066-2.949c-0.15-0.656-0.527-1.22-1.117-1.684
	c-0.198-0.161-0.379-0.289-0.553-0.405c-0.164-0.108-0.395-0.201-0.71-0.286c-0.313-0.088-0.685-0.183-1.145-0.294
	c-0.446-0.113-1.047-0.241-1.785-0.405l-16.896-3.467c-0.807-0.168-1.466-0.292-2.014-0.385c-0.527-0.097-0.972-0.138-1.308-0.159
	c-0.343-0.015-0.637,0.021-0.881,0.083c-0.239,0.064-0.496,0.137-0.737,0.242c-0.605,0.3-1.042,0.696-1.33,1.197
	c-0.308,0.487-0.603,1.319-0.918,2.479l-3.696-0.759l2.493-12.057c0.316-1.549,0.578-2.922,0.79-4.134
	c0.209-1.228,0.418-2.501,0.618-3.833c0.114-0.779,0.243-1.52,0.37-2.221c0.125-0.695,0.232-1.291,0.344-1.77
	c0.78-3.773,2.352-6.286,4.761-7.54c2.389-1.248,5.922-1.39,10.579-0.431c4.434,0.915,7.512,2.508,9.191,4.769
	c1.715,2.258,2.159,5.335,1.35,9.227c-0.604,2.938-1.742,5.236-3.431,6.922L50.61,208.601"/>
<path fill="#B38708" d="M90.895,143.93c-0.653,1.092-1.197,1.851-1.627,2.259c-0.419,0.416-0.957,0.688-1.612,0.804
	c-0.286,0.07-0.55,0.089-0.802,0.07c-0.239-0.029-0.526-0.092-0.852-0.196c-0.321-0.103-0.715-0.268-1.197-0.495
	c-0.476-0.226-1.091-0.536-1.857-0.936l-15.302-7.953c-0.66-0.351-1.205-0.638-1.606-0.874c-0.407-0.229-0.742-0.426-1.024-0.59
	c-0.267-0.159-0.474-0.319-0.618-0.47c-0.118-0.153-0.264-0.336-0.412-0.546c-0.471-0.615-0.676-1.276-0.624-1.963
	c0.063-0.683,0.393-1.657,0.961-2.926l-3.341-1.731l-7.129,13.712l12.589,6.354l-5.137,9.872l-12.564-6.412l-6.965,13.411
	l3.336,1.746c0.612-1.042,1.15-1.762,1.58-2.175c0.416-0.412,0.964-0.677,1.607-0.799c0.273-0.032,0.533-0.043,0.778-0.043
	c0.255,0,0.545,0.059,0.865,0.168c0.333,0.102,0.74,0.277,1.229,0.516c0.482,0.23,1.103,0.528,1.839,0.914l15.298,7.959
	c0.674,0.344,1.2,0.635,1.604,0.862c0.407,0.233,0.75,0.426,1.02,0.6c0.281,0.158,0.471,0.321,0.609,0.474
	c0.14,0.153,0.273,0.328,0.416,0.535c0.479,0.619,0.696,1.272,0.642,1.941c-0.062,0.667-0.363,1.625-0.914,2.851l3.338,1.733
	l7.056-13.552L66.9,161.214l5.129-9.867l15.207,7.787l6.993-13.464L90.895,143.93"/>
<path fill="#B38708" d="M85.066,114.074c-0.633-0.534-1.167-0.973-1.582-1.317c-0.421-0.336-0.777-0.602-1.073-0.785
	c-0.274-0.163-0.56-0.292-0.792-0.358c-0.249-0.062-0.498-0.103-0.769-0.14c-0.666-0.034-1.262,0.103-1.76,0.402
	c-0.513,0.308-1.185,0.881-2.024,1.74l-2.859-2.461l13.298-15.336l2.84,2.472c-0.826,1.063-1.34,1.917-1.545,2.557
	c-0.21,0.637-0.148,1.325,0.163,2.042c0.091,0.231,0.184,0.434,0.278,0.612c0.104,0.191,0.254,0.389,0.498,0.609
	c0.213,0.222,0.503,0.493,0.844,0.812c0.338,0.321,0.795,0.728,1.362,1.222l13.038,11.293c0.641,0.573,1.177,1.011,1.593,1.337
	c0.403,0.342,0.749,0.59,1.041,0.77c0.292,0.167,0.558,0.303,0.777,0.389c0.238,0.067,0.49,0.106,0.778,0.117
	c0.681,0.038,1.265-0.102,1.776-0.409c0.511-0.294,1.191-0.882,2.038-1.736l2.828,2.473l-13.273,15.313l-2.851-2.465
	c0.823-1.062,1.341-1.913,1.554-2.55c0.193-0.638,0.15-1.323-0.176-2.043c-0.082-0.234-0.194-0.437-0.27-0.616
	c-0.102-0.181-0.255-0.384-0.489-0.604c-0.224-0.224-0.509-0.495-0.846-0.819c-0.356-0.316-0.805-0.719-1.365-1.212L85.066,114.074"
	/>
<path fill="#B38708" d="M150.531,91.622l-25.524,19.349l-2.269-3c1.023-0.881,1.704-1.609,2.039-2.186
	c0.341-0.587,0.417-1.259,0.261-2.027c-0.042-0.257-0.099-0.469-0.157-0.668c-0.032-0.192-0.159-0.419-0.342-0.69
	c-0.178-0.255-0.398-0.578-0.661-0.966c-0.278-0.388-0.632-0.879-1.083-1.481l-10.423-13.731c-0.501-0.658-0.923-1.2-1.257-1.624
	c-0.354-0.423-0.636-0.744-0.9-0.981c-0.236-0.235-0.479-0.413-0.706-0.525c-0.221-0.116-0.462-0.209-0.719-0.294
	c-0.645-0.169-1.259-0.161-1.813,0.036c-0.563,0.184-1.337,0.613-2.341,1.274l-2.269-3.004l16.189-12.29l2.281,3.002
	c-1.027,0.872-1.713,1.605-2.056,2.202c-0.356,0.59-0.444,1.285-0.278,2.051c0.044,0.247,0.088,0.469,0.151,0.664
	c0.041,0.187,0.167,0.423,0.335,0.684c0.179,0.268,0.398,0.591,0.672,0.973c0.273,0.383,0.627,0.873,1.074,1.468L131.44,93.97
	c0.39,0.504,0.701,0.9,0.927,1.182c0.25,0.294,0.463,0.523,0.636,0.697c0.17,0.167,0.336,0.288,0.479,0.344
	c0.131,0.062,0.294,0.087,0.491,0.087c0.226,0.002,0.437-0.016,0.644-0.067c0.201-0.063,0.426-0.146,0.676-0.271
	c0.254-0.122,0.571-0.317,0.925-0.555c0.355-0.25,0.799-0.577,1.329-0.979l0.585-0.437c0.631-0.493,1.138-0.886,1.536-1.203
	c0.39-0.312,0.702-0.613,0.944-0.89c0.238-0.269,0.398-0.541,0.534-0.789c0.118-0.255,0.185-0.54,0.225-0.854
	c0.162-0.779,0.099-1.568-0.188-2.39c-0.296-0.813-0.856-1.822-1.668-3.038l3.72-2.822L150.531,91.622"/>
<path fill="#B38708" d="M168.862,40.82c0.282,0.379,0.507,0.711,0.714,1.014c0.2,0.305,0.417,0.586,0.629,0.865
	c0.213,0.278,0.439,0.558,0.686,0.838c0.231,0.296,0.535,0.631,0.896,1.004L187.959,62.8c0.891,0.978,1.659,1.77,2.302,2.367
	c0.651,0.608,1.272,1.052,1.85,1.341c0.593,0.281,1.18,0.438,1.768,0.454c0.605,0.019,1.282-0.067,2.054-0.266l1.421,3.483
	l-17.768,7.296l-1.436-3.485c1.293-0.605,2.112-1.165,2.463-1.674c0.367-0.514,0.393-1.121,0.118-1.806
	c-0.188-0.456-0.851-1.396-2.011-2.818l-0.644-0.842l-8.878,3.651l0.058,1.063c0,0.69,0.054,1.309,0.155,1.854
	c0.101,0.544,0.239,1.014,0.387,1.386c0.331,0.802,0.779,1.238,1.371,1.33c0.575,0.084,1.587-0.092,3.024-0.518l1.444,3.483
	l-14.304,5.863l-1.429-3.481c0.615-0.459,1.123-0.901,1.497-1.315c0.375-0.41,0.659-0.904,0.817-1.46
	c0.18-0.555,0.278-1.248,0.328-2.049c0.034-0.8,0.034-1.837,0-3.128l-1.145-24.24c-0.042-1.401-0.125-2.5-0.243-3.308
	c-0.101-0.809-0.206-1.434-0.303-1.873L168.862,40.82 M171.59,58.284l-0.374-0.454c-0.102-0.161-0.222-0.311-0.368-0.46
	l-0.711-0.853c-0.302-0.413-0.587-0.76-0.86-1.051l-0.768-0.954c-0.141-0.19-0.286-0.363-0.429-0.562
	c-0.127-0.185-0.279-0.371-0.434-0.541l0.264,4.804l0.323,6.553l6.449-2.647L171.59,58.284z"/>
<path fill="#B38708" d="M209.529,39.602c-0.099-0.822-0.184-1.5-0.259-2.041c-0.084-0.534-0.178-0.966-0.273-1.296
	c-0.095-0.334-0.212-0.596-0.347-0.803c-0.136-0.208-0.292-0.42-0.465-0.621c-0.468-0.482-1.004-0.773-1.567-0.899
	c-0.585-0.119-1.474-0.144-2.678-0.083l-0.44-3.738l10.824-1.26c2.241-0.263,4.147-0.5,5.725-0.7
	c1.573-0.197,2.873-0.381,3.86-0.529c0.889-0.152,1.747-0.276,2.583-0.393c0.835-0.111,1.465-0.201,1.876-0.247
	c3.084-0.358,5.641-0.193,7.702,0.487c2.039,0.689,3.708,1.935,5,3.749c1.059,1.538,1.96,3.431,2.719,5.707
	c0.747,2.274,1.283,4.748,1.598,7.423c0.712,6.145-0.054,10.923-2.292,14.349c-2.235,3.433-5.954,5.45-11.115,6.048
	c-0.408,0.054-0.899,0.104-1.451,0.167c-0.556,0.073-1.218,0.126-1.96,0.177c-1.397,0.084-2.671,0.187-3.864,0.309
	c-1.198,0.116-2.394,0.248-3.574,0.388l-13.286,1.545l-0.446-3.733c1.335-0.235,2.296-0.514,2.876-0.847
	c0.58-0.329,0.997-0.873,1.25-1.62c0.083-0.234,0.159-0.445,0.217-0.645c0.049-0.191,0.06-0.449,0.049-0.773
	c-0.023-0.311-0.049-0.707-0.08-1.177c-0.039-0.465-0.104-1.071-0.19-1.813L209.529,39.602 M221.841,55.531
	c0.078,0.631,0.144,1.139,0.213,1.503c0.07,0.364,0.125,0.669,0.213,0.905c0.094,0.238,0.18,0.42,0.292,0.566
	c0.109,0.13,0.259,0.279,0.481,0.449c0.423,0.369,0.927,0.58,1.491,0.642c0.574,0.069,1.394,0.044,2.478-0.085
	c1.672-0.196,3.041-0.578,4.103-1.163c1.067-0.574,1.873-1.417,2.422-2.542c0.544-1.115,0.877-2.555,0.97-4.303
	c0.108-1.735,0-3.879-0.306-6.407c-0.268-2.414-0.654-4.43-1.142-6.029c-0.487-1.607-1.121-2.87-1.91-3.798
	c-0.798-0.927-1.771-1.537-2.933-1.831c-1.168-0.296-2.575-0.357-4.213-0.164c-1.04,0.116-1.86,0.254-2.463,0.398
	c-0.613,0.15-1.057,0.38-1.363,0.698c-0.298,0.317-0.467,0.745-0.514,1.249c-0.028,0.505,0,1.2,0.105,2.045L221.841,55.531z"/>
<path fill="#B38708" d="M296.632,42.348l-4.565-0.683c0.074-1.165,0.022-2.149-0.128-2.949c-0.137-0.795-0.416-1.457-0.856-1.967
	c-0.447-0.529-1.035-0.926-1.805-1.207c-0.782-0.289-1.777-0.534-2.995-0.707l-0.729-0.12c-0.914-0.139-1.677-0.206-2.237-0.215
	c-0.571-0.016-1.009,0.076-1.313,0.246c-0.315,0.184-0.537,0.496-0.687,0.933c-0.134,0.429-0.265,1.014-0.37,1.756l-0.938,6.276
	l7.948,1.193c0.803,0.124,1.469,0.195,1.977,0.216c0.511,0.021,1.063,0,1.631-0.069l-0.984,6.552
	c-0.511-0.147-1.015-0.279-1.499-0.392c-0.502-0.106-1.287-0.247-2.369-0.404l-7.602-1.152l-1.005,6.672
	c-0.136,0.883-0.201,1.571-0.201,2.072c0,0.5,0.135,0.881,0.394,1.164c0.257,0.285,0.697,0.502,1.33,0.656
	c0.623,0.152,1.483,0.307,2.591,0.475l1.391,0.203c1.186,0.22,2.168,0.298,2.98,0.261c0.797-0.061,1.469-0.272,1.989-0.671
	c0.531-0.397,0.985-0.984,1.354-1.786c0.374-0.802,0.704-1.857,1.022-3.168l4.615,0.693l-1.799,11.945l-32.226-4.851l0.558-3.723
	c1.347,0.126,2.329,0.104,2.99-0.057c0.656-0.173,1.198-0.578,1.635-1.235c0.148-0.202,0.26-0.394,0.375-0.568
	c0.097-0.17,0.18-0.417,0.245-0.728c0.066-0.311,0.144-0.692,0.23-1.154c0.082-0.458,0.192-1.064,0.313-1.802l2.553-17.055
	c0.126-0.818,0.216-1.501,0.286-2.04c0.053-0.538,0.084-0.985,0.076-1.318c0-0.341-0.043-0.63-0.127-0.869
	c-0.066-0.248-0.168-0.484-0.279-0.73c-0.329-0.576-0.764-0.994-1.29-1.269c-0.536-0.278-1.379-0.526-2.555-0.784l0.555-3.721
	l24.228,3.636c0.965,0.145,1.762,0.259,2.384,0.33c0.642,0.085,1.215,0.127,1.71,0.154c0.525,0.013,0.998,0.004,1.437-0.021
	c0.447-0.023,0.972-0.086,1.6-0.179L296.632,42.348"/>
<path fill="#B38708" d="M336.386,84.084l-29.587-12.253l1.441-3.479c1.273,0.447,2.252,0.672,2.907,0.66
	c0.685-0.005,1.317-0.277,1.896-0.796c0.184-0.165,0.353-0.324,0.499-0.459c0.131-0.154,0.279-0.365,0.417-0.654
	c0.132-0.286,0.31-0.64,0.509-1.066c0.197-0.421,0.429-0.988,0.721-1.681l6.609-15.933c0.325-0.755,0.566-1.396,0.766-1.91
	c0.182-0.5,0.317-0.925,0.39-1.263c0.078-0.331,0.102-0.616,0.097-0.872c-0.019-0.25-0.047-0.509-0.111-0.766
	c-0.18-0.647-0.493-1.159-0.944-1.552c-0.435-0.384-1.21-0.841-2.281-1.375l1.44-3.478L339.944,45l-1.45,3.482
	c-1.265-0.447-2.249-0.674-2.935-0.679c-0.695,0-1.33,0.268-1.905,0.796c-0.194,0.157-0.356,0.312-0.503,0.459
	c-0.14,0.138-0.279,0.36-0.412,0.649c-0.153,0.282-0.308,0.637-0.509,1.063c-0.201,0.435-0.437,0.984-0.733,1.68l-6.766,16.35
	c-0.255,0.594-0.433,1.061-0.563,1.415c-0.127,0.35-0.22,0.648-0.28,0.886c-0.052,0.247-0.073,0.426-0.052,0.585
	c0.021,0.147,0.07,0.299,0.166,0.471c0.113,0.198,0.244,0.381,0.386,0.518c0.145,0.147,0.343,0.285,0.578,0.449
	c0.235,0.169,0.541,0.341,0.939,0.518c0.389,0.182,0.908,0.398,1.519,0.659l0.675,0.281c0.724,0.311,1.326,0.542,1.812,0.724
	c0.459,0.167,0.888,0.294,1.242,0.358c0.353,0.07,0.669,0.087,0.955,0.063c0.271-0.034,0.55-0.098,0.846-0.225
	c0.761-0.25,1.413-0.712,1.972-1.376c0.55-0.659,1.146-1.645,1.791-2.981l4.295,1.79L336.386,84.084"/>
<path fill="#B38708" d="M367.894,84.759c0.731,0.977,5.407,3.834,6.008,4.283c1.227,0.912,2.369,1.162,3.413,0.729
	c1.052-0.433,2.341-1.67,3.864-3.712c2.04-2.729,3.118-4.859,3.25-6.408c0.129-1.121-0.561-2.242-2.095-3.396
	c-1.321-0.986-2.422-1.454-3.303-1.403c-0.511-0.014-0.953,0.132-1.342,0.432c-0.382,0.291-0.891,0.864-1.51,1.7l-10.601,14.181
	c-0.518,0.69-0.924,1.256-1.223,1.69c-0.287,0.42-0.518,0.792-0.676,1.098c-0.161,0.302-0.27,0.564-0.336,0.81
	c-0.059,0.235-0.074,0.498-0.062,0.787c0.019,0.674,0.201,1.272,0.576,1.804c0.386,0.542,1.104,1.237,2.2,2.093l-2.253,3.011
	l-16.527-12.34l2.26-3.018c1.093,0.737,1.967,1.167,2.636,1.309c0.659,0.148,1.333,0.047,2.009-0.289
	c0.226-0.115,0.413-0.214,0.597-0.324c0.166-0.104,0.354-0.284,0.562-0.522c0.2-0.25,0.458-0.555,0.75-0.91
	c0.294-0.367,0.671-0.852,1.128-1.457l10.324-13.817c0.491-0.657,0.889-1.215,1.197-1.652c0.306-0.453,0.545-0.822,0.708-1.126
	c0.149-0.306,0.244-0.58,0.303-0.828c0.035-0.25,0.054-0.509,0.086-0.785c-0.033-0.661-0.195-1.227-0.512-1.702
	c-0.332-0.475-0.948-1.11-1.859-1.878l2.253-3.019l9.858,7.368c1.255,0.936,2.394,1.768,3.413,2.481
	c1.001,0.708,2.073,1.434,3.2,2.176c0.654,0.444,1.267,0.866,1.853,1.279c0.58,0.419,1.061,0.768,1.454,1.057
	c3.089,2.301,4.691,4.816,4.807,7.515c0.11,2.705-1.261,5.959-4.103,9.772c-2.724,3.634-5.463,5.73-8.229,6.305
	c-2.771,0.573-5.749-0.33-8.93-2.705c-2.383-1.791-5.855-4.978-6.66-7.217L367.894,84.759"/>
<path fill="#B38708" d="M430.907,118.13l-11.232,8.564l-6.78-8.83l11.218-8.546l-9.333-12.126l-2.988,2.298
	c0.678,0.998,1.108,1.78,1.306,2.333c0.197,0.565,0.211,1.165,0.043,1.804c-0.083,0.262-0.181,0.505-0.284,0.736
	c-0.117,0.223-0.286,0.457-0.514,0.708c-0.238,0.252-0.557,0.548-0.978,0.889c-0.42,0.35-0.969,0.77-1.619,1.279l-13.669,10.515
	c-0.585,0.454-1.089,0.826-1.471,1.09c-0.379,0.271-0.706,0.501-0.96,0.675c-0.265,0.179-0.5,0.297-0.692,0.354
	c-0.201,0.06-0.414,0.11-0.657,0.146c-0.771,0.181-1.447,0.094-2.026-0.233c-0.588-0.338-1.326-1.013-2.2-2.036l-2.992,2.298
	l9.259,12.032l13.565-10.379l6.787,8.815l-13.563,10.378l9.346,12.165l2.985-2.31c-0.718-1.053-1.172-1.861-1.38-2.424
	c-0.191-0.556-0.198-1.155-0.029-1.811c0.056-0.277,0.147-0.524,0.279-0.734c0.109-0.214,0.291-0.444,0.53-0.7
	c0.22-0.245,0.547-0.53,0.953-0.877c0.404-0.33,0.938-0.756,1.622-1.288l13.679-10.516c0.597-0.455,1.082-0.82,1.464-1.088
	c0.384-0.28,0.712-0.5,0.971-0.684c0.261-0.177,0.488-0.289,0.688-0.352c0.189-0.051,0.404-0.101,0.648-0.148
	c0.784-0.171,1.471-0.084,2.06,0.262c0.595,0.354,1.338,1.047,2.253,2.095l2.974-2.29L430.907,118.13"/>
<path fill="#B38708" d="M442.993,158.081c0.751-0.331,1.373-0.624,1.866-0.862c0.493-0.242,0.872-0.453,1.159-0.645
	c0.289-0.189,0.512-0.385,0.66-0.569c0.162-0.197,0.312-0.407,0.46-0.634c0.306-0.592,0.44-1.182,0.379-1.772
	c-0.061-0.59-0.302-1.45-0.717-2.569l3.434-1.542l8.271,18.52l-3.421,1.538c-0.63-1.195-1.187-2.026-1.666-2.479
	c-0.499-0.468-1.13-0.706-1.923-0.725c-0.256-0.003-0.485-0.009-0.682-0.003c-0.205,0.014-0.456,0.069-0.755,0.182
	c-0.296,0.11-0.666,0.262-1.094,0.43c-0.441,0.177-1,0.412-1.683,0.727l-15.753,7.041c-0.778,0.351-1.408,0.639-1.882,0.865
	c-0.462,0.237-0.844,0.442-1.128,0.636c-0.291,0.185-0.519,0.373-0.667,0.546c-0.182,0.176-0.324,0.394-0.454,0.651
	c-0.316,0.595-0.434,1.197-0.374,1.777c0.057,0.588,0.294,1.447,0.705,2.574l-3.434,1.531l-8.273-18.518l3.435-1.532
	c0.616,1.203,1.174,2.032,1.666,2.484c0.497,0.459,1.132,0.696,1.93,0.711c0.232,0.021,0.472,0.021,0.667,0.005
	c0.211-0.009,0.45-0.063,0.755-0.173c0.295-0.115,0.668-0.269,1.088-0.436c0.44-0.171,1.001-0.412,1.691-0.721L442.993,158.081"/>
<path fill="#B38708" d="M470.588,209.089c-0.413,0.197-0.79,0.374-1.118,0.524c-0.344,0.14-0.667,0.289-0.974,0.448
	c-0.31,0.159-0.629,0.334-0.956,0.518c-0.325,0.176-0.714,0.413-1.153,0.682l-20.955,12.493c-1.124,0.684-2.046,1.29-2.758,1.82
	c-0.721,0.526-1.27,1.053-1.654,1.567c-0.404,0.527-0.653,1.075-0.792,1.651c-0.118,0.581-0.168,1.264-0.118,2.056l-3.684,0.762
	l-3.841-18.833l3.68-0.749c0.359,1.384,0.764,2.292,1.19,2.741c0.438,0.449,1.023,0.6,1.753,0.444c0.481-0.1,1.53-0.582,3.141-1.445
	l0.939-0.479l-1.924-9.416l-1.047-0.129c-0.685-0.131-1.297-0.197-1.846-0.197c-0.562,0-1.035,0.041-1.443,0.122
	c-0.852,0.178-1.359,0.536-1.549,1.09c-0.199,0.553-0.222,1.582-0.074,3.084l-3.689,0.756l-3.083-15.142l3.686-0.753
	c0.342,0.694,0.673,1.267,1.018,1.714c0.337,0.453,0.755,0.804,1.277,1.085c0.516,0.28,1.166,0.505,1.938,0.696
	c0.792,0.183,1.828,0.374,3.083,0.572l24.033,3.415c1.392,0.205,2.485,0.341,3.29,0.384c0.81,0.039,1.457,0.058,1.904,0.039
	L470.588,209.089 M452.92,208.507c0.174-0.107,0.344-0.198,0.52-0.269c0.181-0.075,0.356-0.162,0.517-0.279l0.98-0.548
	c0.457-0.2,0.86-0.419,1.196-0.649l1.081-0.563c0.203-0.111,0.404-0.224,0.629-0.317c0.201-0.114,0.413-0.21,0.615-0.338
	l-4.775-0.622l-6.503-0.914l1.407,6.828L452.92,208.507z"/>
<polyline fill="#B38708" points="62.417,271.625 51.152,276.829 52.637,289.164 44.197,280.053 32.935,285.276 38.98,274.432 
	30.541,265.336 42.714,267.734 48.76,256.896 50.241,269.223 62.417,271.625 "/>
<polyline fill="#B38708" points="73.003,316.134 63.318,323.888 67.729,335.509 57.338,328.693 47.663,336.477 50.934,324.492 
	40.547,317.703 52.944,317.094 56.202,305.115 60.603,316.733 73.003,316.134 "/>
<polyline fill="#B38708" points="93.965,356.786 86.443,366.64 93.516,376.862 81.794,372.748 74.276,382.622 74.564,370.209 
	62.845,366.11 74.731,362.545 75.022,350.128 82.092,360.344 93.965,356.786 "/>
<polyline fill="#B38708" points="124.11,391.204 119.169,402.579 128.49,410.799 116.137,409.625 111.205,421.019 108.49,408.906 
	96.137,407.743 106.826,401.428 104.113,389.303 113.422,397.522 124.11,391.204 "/>
<polyline fill="#B38708" points="161.63,417.373 159.588,429.595 170.604,435.33 158.325,437.168 156.276,449.409 150.741,438.293 
	138.466,440.136 147.311,431.439 141.769,420.325 152.783,426.067 161.63,417.373 "/>
<polyline fill="#B38708" points="204.351,433.736 205.301,446.095 217.375,449.006 205.896,453.752 206.859,466.126 
	198.814,456.675 187.348,461.416 193.834,450.84 185.785,441.385 197.863,444.304 204.351,433.736 "/>
<polygon fill="#B38708" points="250,439.357 253.835,451.161 266.251,451.161 256.206,458.455 260.045,470.256 250,462.962 
	239.956,470.256 243.791,458.455 233.749,451.161 246.162,451.161 "/>
<polyline fill="#B38708" points="437.583,271.625 448.848,276.829 447.363,289.164 455.803,280.053 467.065,285.276 461.02,274.432 
	469.459,265.336 457.286,267.734 451.24,256.896 449.759,269.223 437.583,271.625 "/>
<polyline fill="#B38708" points="426.997,316.134 436.682,323.888 432.271,335.509 442.662,328.693 452.337,336.477 
	449.066,324.492 459.453,317.703 447.056,317.094 443.798,305.115 439.397,316.733 426.997,316.134 "/>
<polyline fill="#B38708" points="406.035,356.786 413.557,366.64 406.484,376.862 418.206,372.748 425.724,382.622 425.436,370.209 
	437.155,366.11 425.269,362.545 424.978,350.128 417.908,360.344 406.035,356.786 "/>
<polyline fill="#B38708" points="375.89,391.204 380.831,402.579 371.51,410.799 383.863,409.625 388.795,421.019 391.51,408.906 
	403.863,407.743 393.174,401.428 395.887,389.303 386.578,397.522 375.89,391.204 "/>
<polyline fill="#B38708" points="338.37,417.373 340.412,429.595 329.396,435.33 341.675,437.168 343.724,449.409 349.259,438.293 
	361.534,440.136 352.689,431.439 358.231,420.325 347.217,426.067 338.37,417.373 "/>
<polyline fill="#B38708" points="295.649,433.736 294.699,446.095 282.625,449.006 294.104,453.752 293.141,466.126 
	301.186,456.675 312.652,461.416 306.166,450.84 314.215,441.385 302.137,444.304 295.649,433.736 "/>
<path fill="#B38708" d="M179.955,197.026l-6.959,1.003v-39.358l-7.452,1.075v41.057c0,2.275,1.446,3.746,3.684,3.746
	c0.265,0,0.542-0.021,0.823-0.066l13.009-1.879c2.556-0.364,4.339-2.332,4.339-4.799V156.59l-7.443,1.079V197.026z"/>
<polygon fill="#B38708" points="220.113,175.807 209.759,154.429 205.515,154.704 205.515,200.082 212.565,199.627 212.565,178.29 
	222.81,198.951 227.178,198.662 227.178,153.283 220.113,153.741 "/>
<polygon fill="#B38708" points="245.622,152.844 245.656,198.222 253.264,198.188 253.139,152.82 "/>
<path fill="#B38708" d="M290.39,154.149l-14.087-0.814c-2.054,0-4.262,1.518-4.262,3.97v37c0,2.711,2.568,4.3,4.417,4.411
	l13.858,0.809l0.222,0.003c2.066,0,4.271-1.517,4.271-3.976v-36.982C294.81,155.869,292.247,154.269,290.39,154.149z
	 M287.305,193.339l-7.757-0.457V159.54l7.757,0.451V193.339z"/>
<polygon fill="#B38708" points="327.461,158.19 327.461,180.146 317.244,156.782 312.985,156.204 312.985,201.587 319.981,202.552 
	319.981,181.357 330.069,203.937 334.456,204.549 334.456,159.159 "/>
<path fill="#B38708" d="M176.075,256.78c0.81,0.326,1.682,0.65,2.63,0.925c2.879,0.86,6.527,1.39,11.029,0.838l1.731-0.198
	l-1.378,1.214c-1.214,1.072-4.798,3.361-8.394,4.784c6.231-0.802,17.501-5.821,24.163-9.772c-0.658-0.354-1.359-0.854-1.917-1.329
	C194.228,257.03,183.613,257.655,176.075,256.78"/>
<path fill="#B38708" d="M202.103,321.992c-1.639,2.783-2.474,5.646-2.492,8.524c-0.039,4.726,2.107,9.387,6.187,13.49
	c8.485,8.536,24.402,13.838,41.545,13.838c26.42,0,47.982-12.264,48.074-27.335c0.012-2.881-0.792-5.741-2.391-8.524
	c-6.5,11.128-24.956,18.798-45.573,18.798C226.845,340.783,208.479,333.114,202.103,321.992"/>
<path fill="#B38708" d="M302.162,322.785c0.654,0.079,1.946,0.217,3.682,0.217c4.603,0,11.277-0.886,18.082-4.884
	c-4.876,0.09-14.956-0.54-25.634-5.244C299.717,315.33,301.404,318.865,302.162,322.785"/>
<path fill="#B38708" d="M247.643,242.385l0.354,0.014c12.502,0,23.562,6.956,23.708,15.511c0.061,3.684-1.812,7.528-5.279,10.362
	c-2.83,2.189-6.883,3.744-10.583,5.138c-0.007,0-8.651,3.104-15.81,5.623c-0.37,0.107-33.965,10.753-33.965,31.127
	c-0.03,3.998,1.757,7.918,5.142,11.329c7.387,7.436,21.76,11.893,37.247,11.501c23.468-0.602,42.637-11.86,42.705-25.091
	c0.05-8.43-8.284-14.98-21.089-18.42c-3.049,1.176-6.505,2.27-10.167,3.42c-3.556,1.118-7.592,2.399-11.821,3.925
	c-9.621,3.485-11.494,6.486-11.757,7.966c-0.173,0.945,0.224,1.652,0.525,2.042c3.671-2.139,9.031-3.705,14.814-4.313
	c1.646-0.171,3.295-0.259,4.883-0.259c8.868,0,14.836,2.479,14.852,6.524c0,1.136-0.487,2.221-1.484,3.218
	c-3.076,3.099-10.771,5.093-19.595,5.093c-7.439,0-14.381-2.352-18.157-6.129c-1.929-1.95-2.942-4.196-2.94-6.492
	c0-8.254,11.963-12.32,19.878-15.018c0.964-0.343,1.877-0.647,2.679-0.935c6.948-2.516,15.344-5.612,15.344-5.612
	c13.394-4.314,20.489-15.895,18.725-27.077c-2.075-13.194-15.066-22.417-31.588-22.417c-1.604,0-3.247,0.095-4.883,0.27
	c-0.009,0.007-1.509,0.279-3.306,0.279c-1.882,0-3.372-0.296-4.439-0.878c-2.393-1.309-4.809-1.486-4.834-1.488
	c-19.29,4.266-30.42,12.44-32.513,14.084c0.643,1.707,3.673,7.803,13.255,6.413c3.585-0.512,6.437-0.595,8.953-0.659
	c5.694-0.157,8.836-0.243,13.119-5.195C242.713,242.664,246.54,242.385,247.643,242.385"/>
<path fill="#002D55" d="M228.736,241.627c1.601-0.996,2.568-4.907,2.568-4.907c-6.625,1.66-13.632,5.235-13.632,5.235
	S227.149,242.629,228.736,241.627"/>
<path fill="#B38708" d="M439.442,446.573h-3.568v9.761h-3.355v-9.761h-3.558v-2.7h10.481V446.573 M457.234,456.333h-3.341v-9.743
	h-0.363l-3.063,6.815h-2.334l-3.107-6.934h-0.446v9.862h-3.168v-12.461h5.428l2.511,6.091l2.622-6.091h5.261V456.333z"/>
</svg>
