<?xml version="1.0" encoding="UTF-8" standalone="no"?>
<!-- Created with Inkscape (http://www.inkscape.org/) -->

<svg
   xmlns:dc="http://purl.org/dc/elements/1.1/"
   xmlns:cc="http://creativecommons.org/ns#"
   xmlns:rdf="http://www.w3.org/1999/02/22-rdf-syntax-ns#"
   xmlns:svg="http://www.w3.org/2000/svg"
   xmlns="http://www.w3.org/2000/svg"
   xmlns:sodipodi="http://sodipodi.sourceforge.net/DTD/sodipodi-0.dtd"
   xmlns:inkscape="http://www.inkscape.org/namespaces/inkscape"
   id="svg2"
   version="1.1"
   inkscape:version="0.48.5 r10040"
   width="401.29999"
   height="418.35501"
   xml:space="preserve"
   sodipodi:docname="Timbers_MLS_Identity_System.pdf"><metadata
     id="metadata8"><rdf:RDF><cc:Work
         rdf:about=""><dc:format>image/svg+xml</dc:format><dc:type
           rdf:resource="http://purl.org/dc/dcmitype/StillImage" /><dc:title></dc:title></cc:Work></rdf:RDF></metadata><defs
     id="defs6"><clipPath
       clipPathUnits="userSpaceOnUse"
       id="clipPath16"><path
         d="m 0,1224 792,0 L 792,0 0,0 0,1224 z"
         id="path18"
         inkscape:connector-curvature="0" /></clipPath><clipPath
       clipPathUnits="userSpaceOnUse"
       id="clipPath60"><path
         d="m 0,1224 792,0 L 792,0 0,0 0,1224 z"
         id="path62"
         inkscape:connector-curvature="0" /></clipPath></defs><sodipodi:namedview
     pagecolor="#ffffff"
     bordercolor="#666666"
     borderopacity="1"
     objecttolerance="10"
     gridtolerance="10"
     guidetolerance="10"
     inkscape:pageopacity="0"
     inkscape:pageshadow="2"
     inkscape:window-width="1366"
     inkscape:window-height="705"
     id="namedview4"
     showgrid="false"
     fit-margin-top="2"
     fit-margin-left="2"
     fit-margin-right="2"
     fit-margin-bottom="2"
     inkscape:zoom="1.2501358"
     inkscape:cx="200.64996"
     inkscape:cy="209.17746"
     inkscape:window-x="-8"
     inkscape:window-y="-8"
     inkscape:window-maximized="1"
     inkscape:current-layer="g10" /><g
     id="g10"
     inkscape:groupmode="layer"
     inkscape:label="Timbers_MLS_Identity_System"
     transform="matrix(1.25,0,0,-1.25,-294.17538,981.78538)"><g
       id="g318"
       transform="matrix(2,0,0,2,510.7843,499.7691)"><path
         d="m 0,0 -1.264,0 0,0.912 3.602,0 0,-0.912 -1.275,0 0,-3.072 L 0,-3.072 0,0 z"
         style="fill:#123d10;fill-opacity:1;fill-rule:nonzero;stroke:none"
         id="path320"
         inkscape:connector-curvature="0" /></g><g
       id="g322"
       transform="matrix(2,0,0,2,519.6533,493.6247)"><path
         d="m 0,0 -0.749,2.381 0,-2.381 -0.935,0 0,3.984 1.328,0 0.804,-2.546 0.805,2.546 1.328,0 0,-3.984 -1.01,0 0,2.381 L 0.819,0 0,0 z"
         style="fill:#123d10;fill-opacity:1;fill-rule:nonzero;stroke:none"
         id="path324"
         inkscape:connector-curvature="0" /></g><g
       id="g326"
       transform="matrix(2,0,0,2,554.7803,624.8883)"><path
         d="m 0,0 c 0,22.916 -9.697,43.561 -25.217,58.065 -1.387,5.435 -3.139,8.819 -3.319,9.152 l -1.962,3.674 -3.94,-1.32 c -1.417,-0.468 -2.847,-0.911 -4.278,-1.337 -11.917,7.129 -25.853,11.236 -40.751,11.236 -14.944,0 -28.92,-4.132 -40.856,-11.307 -2.587,0.777 -4.021,1.316 -4.074,1.335 l -4.27,1.638 -1.95,-4.132 c -1.449,-3.072 -2.507,-6.124 -3.262,-9.101 C -149.291,43.406 -158.916,22.83 -158.92,0 c 0.009,-38.551 27.445,-70.671 63.857,-77.925 -0.187,-1.796 -0.305,-3.065 -0.323,-3.655 0.088,-0.076 1.757,-1.355 3.039,-2.011 2.566,-1.31 6.66,-2.681 12.741,-2.681 l 0.415,0 c 9.686,0.013 14.378,3.456 15.777,4.697 -0.022,0.579 -0.155,1.84 -0.394,3.663 C -27.415,-70.636 0,-38.528 0,0"
         style="fill:#123d10;fill-opacity:1;fill-rule:nonzero;stroke:none"
         id="path328"
         inkscape:connector-curvature="0" /></g><g
       id="g330"
       transform="matrix(2,0,0,2,454.2921,755.5601)"><path
         d="M 0,0 C 0.006,0.002 0.011,0.002 0.017,0.002 1.243,0.255 2.459,0.528 3.673,0.81 3.807,0.841 3.938,0.874 4.065,0.904 4.305,0.958 4.547,1.011 4.786,1.071 4.781,1.075 4.774,1.075 4.77,1.078 8.36,1.951 11.918,2.957 15.419,4.113 12.176,3.788 6.679,3.232 1.395,2.695 -7.951,6.91 -18.314,9.256 -29.223,9.256 c -10.923,0 -21.29,-2.353 -30.638,-6.571 -5.329,0.539 -10.889,1.098 -14.16,1.428 0.712,-0.262 4.544,-1.628 10.717,-3.085 l 0.015,0 c 0.071,-0.021 0.145,-0.035 0.214,-0.051 0.376,-0.088 0.76,-0.18 1.153,-0.268 0.119,-0.026 0.244,-0.054 0.369,-0.082 0.371,-0.079 0.747,-0.167 1.136,-0.247 0.104,-0.023 0.209,-0.047 0.318,-0.066 0.492,-0.107 0.994,-0.209 1.506,-0.314 l 0.003,0 c 0.046,-0.009 0.093,-0.019 0.14,-0.027 8.924,3.999 18.814,6.223 29.227,6.223 10.399,0 20.276,-2.215 29.187,-6.205 C -0.023,-0.004 -0.012,0 0,0 m -41.499,-49.16 -50.537,-50.413 c -2.373,4.347 -4.309,8.968 -5.747,13.808 l 49.269,48.854 c -1.824,-0.306 -3.543,-0.648 -5.165,-1.011 l -44.988,-44.612 c -1.361,5.508 -2.082,11.27 -2.082,17.198 0,15.351 4.845,29.555 13.072,41.202 0.795,1.121 1.613,2.218 2.466,3.295 l 0,0.074 c -0.017,1.581 0.04,3.219 0.179,4.899 0,0 -0.004,0 -0.004,-0.004 0.447,5.46 1.781,11.36 4.584,17.359 -2.306,-3.654 -6.637,-11.597 -7.76,-21.191 -9.771,-12.614 -15.586,-28.445 -15.586,-45.634 0,-34.813 23.849,-64.05 56.094,-72.274 0.677,-2.384 1.568,-5.135 2.679,-7.73 0.181,2.017 0.575,5.488 1.102,9.989 -0.699,0.142 -1.39,0.301 -2.081,0.469 -0.167,0.043 -0.337,0.082 -0.499,0.122 -0.674,0.167 -1.343,0.341 -2.007,0.527 -11.453,3.199 -21.741,9.181 -30.103,17.166 l 37.274,37.593 c 0.022,1.438 0.042,2.842 0.06,4.198 l -39.4,-39.731 c -3.227,3.338 -6.129,6.995 -8.66,10.912 l 48.143,48.03 c -0.058,2.484 -0.166,4.799 -0.303,6.905 m 71.238,29.511 C 28.536,-9.444 23.71,-1.119 21.563,2.157 l 0.145,-0.276 c 0.261,-0.489 3.837,-7.383 4.784,-17.676 0.071,-0.754 0.124,-1.521 0.162,-2.306 0.006,-0.043 0.006,-0.084 0.01,-0.128 0.037,-0.813 0.059,-1.648 0.059,-2.501 l 0,-0.039 c 0.864,-1.08 1.69,-2.19 2.495,-3.314 8.247,-11.659 13.105,-25.884 13.105,-41.253 0,-5.971 -0.734,-11.77 -2.116,-17.31 l -45.606,44.89 c -1.621,0.347 -3.332,0.675 -5.15,0.971 L 39.329,-85.87 c -1.415,-4.715 -3.295,-9.223 -5.599,-13.473 l -50.267,50.269 c -0.137,-2.106 -0.249,-4.427 -0.301,-6.912 l 47.891,-47.893 c -2.443,-3.811 -5.238,-7.38 -8.338,-10.647 l -39.481,39.467 c 0.022,-1.348 0.037,-2.745 0.061,-4.18 l 37.371,-37.365 c -8.452,-8.223 -18.926,-14.373 -30.606,-17.629 -0.664,-0.186 -1.329,-0.36 -2.003,-0.527 -0.164,-0.04 -0.328,-0.081 -0.496,-0.122 -0.686,-0.168 -1.372,-0.324 -2.066,-0.469 0.001,-0.046 0.005,-0.091 0.011,-0.138 0.075,-0.929 0.156,-1.84 0.239,-2.72 0.01,-0.069 0.021,-0.136 0.027,-0.2 0.414,-2.872 0.717,-5.152 0.892,-6.683 1.065,2.524 1.914,5.171 2.569,7.48 32.273,8.209 56.145,37.452 56.145,72.276 0,17.213 -5.838,33.063 -15.639,45.687"
         style="fill:#e3ea17;fill-opacity:1;fill-rule:nonzero;stroke:none"
         id="path332"
         inkscape:connector-curvature="0" /></g><g
       id="g334"
       transform="matrix(2,0,0,2,416.7803,468.2927)"><path
         d="m 0,0 c -2.642,21.959 -3.162,70.366 -3.162,84.067 0,11.869 1.465,21.708 1.852,24.126 -2.888,0.233 -5.929,0.368 -9.139,0.368 -3.16,0 -6.16,-0.131 -9.011,-0.352 0.439,-2.742 1.849,-12.551 1.849,-24.142 0,-13.701 -0.522,-62.108 -3.166,-84.067 l -0.004,-0.002 0.004,0 c -0.004,-0.004 -0.004,-0.006 -0.004,-0.012 0,0 2.521,-2.609 10.371,-2.609 l 0.025,0 0.023,0 c 7.848,0 10.366,2.609 10.366,2.609 0,0.006 0,0.008 -0.004,0.012 l 0.004,0 L 0,0 z m 36.068,143.318 c -50.113,-16.722 -93.432,0 -93.432,0 -9.809,-20.772 -0.029,-40.714 -0.029,-40.714 0,0 15.596,10.684 46.886,10.684 31.298,0 46.575,-10.677 46.575,-10.677 9.985,21.971 0,40.707 0,40.707"
         style="fill:#ffffff;fill-opacity:1;fill-rule:nonzero;stroke:none"
         id="path336"
         inkscape:connector-curvature="0" /></g></g></svg>