<?xml version="1.0" encoding="UTF-8" standalone="no"?>
<!-- Created with Inkscape (http://www.inkscape.org/) -->

<svg
   xmlns:dc="http://purl.org/dc/elements/1.1/"
   xmlns:cc="http://creativecommons.org/ns#"
   xmlns:rdf="http://www.w3.org/1999/02/22-rdf-syntax-ns#"
   xmlns:svg="http://www.w3.org/2000/svg"
   xmlns="http://www.w3.org/2000/svg"
   xmlns:sodipodi="http://sodipodi.sourceforge.net/DTD/sodipodi-0.dtd"
   xmlns:inkscape="http://www.inkscape.org/namespaces/inkscape"
   width="67.801544mm"
   height="92.311111mm"
   viewBox="0 0 240.24169 327.08661"
   id="svg2"
   version="1.1"
   inkscape:version="0.91 r13725"
   sodipodi:docname="Real_Salt_Lake_2010.svg">
  <defs
     id="defs4" />
  <sodipodi:namedview
     id="base"
     pagecolor="#ffffff"
     bordercolor="#666666"
     borderopacity="1.0"
     inkscape:pageopacity="0.0"
     inkscape:pageshadow="2"
     inkscape:zoom="0.35"
     inkscape:cx="254.98875"
     inkscape:cy="703.37445"
     inkscape:document-units="px"
     inkscape:current-layer="layer1"
     showgrid="false"
     fit-margin-top="1"
     fit-margin-left="0.4"
     fit-margin-right="0.4"
     fit-margin-bottom="1"
     inkscape:window-width="1366"
     inkscape:window-height="705"
     inkscape:window-x="-8"
     inkscape:window-y="-8"
     inkscape:window-maximized="1" />
  <metadata
     id="metadata7">
    <rdf:RDF>
      <cc:Work
         rdf:about="">
        <dc:format>image/svg+xml</dc:format>
        <dc:type
           rdf:resource="http://purl.org/dc/dcmitype/StillImage" />
        <dc:title></dc:title>
      </cc:Work>
    </rdf:RDF>
  </metadata>
  <g
     inkscape:label="Layer 1"
     inkscape:groupmode="layer"
     id="layer1"
     transform="translate(-120.01125,-908.65004)">
    <g
       id="g3338"
       transform="matrix(0.47481409,0,0,0.47481409,121.42857,912.19398)">
      <title
         id="title3340">Layer 1</title>
      <path
         d="M 0,-0.001343 0,257.14465 c 0,288.60199 249.987,416.802 249.987,416.802 0,0 250.013,-128.20098 250.013,-416.803 l 0,-257.144993 -500,0"
         id="svg_1"
         inkscape:connector-curvature="0"
         style="fill:#f1cb00" />
      <path
         d="m 9.454,9.45665 0,247.688 c 0,258.52002 207.791,386.96399 240.53199,405.64502 32.76901,-18.68103 240.55902,-147.125 240.55902,-405.64502 l 0,-247.688 -481.09101,0 m 462.171,247.687 c 0,233.48098 -171.948,353.31301 -221.638,383.32199 C 200.30299,610.45764 28.361001,490.62463 28.361001,257.14365 l 0,-228.772999 443.263999,0 0,228.772999 z"
         id="svg_2"
         inkscape:connector-curvature="0"
         style="fill:#b30838" />
      <path
         d="m 38.814999,37.817657 0,219.326023 c 0,221.44799 158.377001,338.47296 212.170991,372.16101 C 304.79199,595.6167 463.177,478.59265 463.177,257.14368 l 0,-219.326023 -424.362,0"
         id="svg_3"
         inkscape:connector-curvature="0"
         style="fill:#013a81" />
      <path
         d="m 305.638,468.86365 c -0.177,-11.57898 -3.88699,-22.31903 -10.10599,-31.15601 l -22.48001,0.27899 -6.681,-21.47296 c -5.17999,-1.59405 -10.688,-2.453 -16.383,-2.453 -5.69801,0 -11.19801,0.85895 -16.359,2.453 l -6.7,21.47296 -22.47501,-0.27899 c -6.20999,8.83698 -9.92799,19.578 -10.10399,31.15601 l 18.34,12.979 -7.22301,21.28699 c 6.63901,8.83001 15.836,15.61902 26.496,19.268 l 18.02601,-13.435 18.03999,13.435 c 10.647,-3.64898 19.836,-10.43799 26.48801,-19.268 l -7.20099,-21.28699 18.32199,-12.979"
         id="svg_4"
         inkscape:connector-curvature="0"
         style="fill:#ffffff" />
      <path
         d="m 352.93201,169.43567 c 25.71499,24.15298 43.58001,56.608 49.35699,93.10602 -4.66598,-37.80802 -21.91699,-71.66901 -47.37698,-97.31702 l -1.98001,4.211"
         id="svg_5"
         inkscape:connector-curvature="0"
         style="fill:#f1cb00" />
      <path
         d="M 187.35001,441.52564 C 124.844,418.92865 80.130997,358.88367 80.130997,288.34265 c 0,-52.16699 24.463003,-98.55301 62.455003,-128.35202 l -5.147,-11.06 c -40.887997,30.52301 -67.389996,79.38501 -67.389996,134.47303 0,74.91101 49.024996,138.29898 116.597996,159.681 0.21399,-0.52301 0.45999,-1.04603 0.70301,-1.55902"
         id="svg_6"
         inkscape:connector-curvature="0"
         style="fill:#f1cb00" />
      <path
         d="m 299.30301,287.02566 c -11.12201,-9.983 -23.383,-15.82299 -36.79099,-17.54599 0,0 60.00898,-4.58401 60.00898,-39.44702 0,-16.76498 -20.982,-39.444 -86.30098,-39.444 l -76.75602,0 c 0,0 10.21302,5.70502 10.21302,10.573 l 0,74.34702 c 9.5,4.66 22.45999,8.94601 35.35899,14.173 l 0,-14.418 21.064,0 c 11.18499,-0.026 17.578,2.52399 23.39601,7.41199 l 61.227,57.00201 c 8.573,7.331 25.56598,16.262 40.36399,16.262 18.98998,0 26.58401,-6.349 26.58401,-6.349 0,0 -12.26202,-0.76502 -21.56503,-8.74301 l -56.80298,-53.822 m -68.75401,-21.02401 -25.51101,0 0,-65.76898 25.51101,0 c 32.10499,0 53.52101,11 53.52101,32.884 0,17.76199 -22.24201,32.88498 -53.52101,32.88498 z"
         id="svg_7"
         inkscape:connector-curvature="0"
         style="fill:#f1cb00" />
      <path
         d="m 169.67799,314.85065 0,24.73401 c 0,5.68197 -9.14801,10.509 -9.14801,10.509 l 54.17102,0 c 0,0 -9.664,-4.828 -9.664,-10.509 l 0,-8.38401 c -8.354,-5.935 -21.66099,-10.81 -35.35901,-16.35"
         id="svg_8"
         inkscape:connector-curvature="0"
         style="fill:#f1cb00" />
      <path
         d="m 132.095,111.17465 c 4.034,9.57001 5.77,12.914 5.77,12.914 l -3.268,11.935 12.66099,5.569 7.85401,16.92099 c 0,0 36.92599,-16.67099 94.87601,-16.67099 57.94198,0 94.88998,16.67099 94.88998,16.67099 l 7.853,-16.92099 12.65402,-5.569 -3.25501,-11.935 c 0,0 1.70999,-3.34399 5.75199,-12.914 4.04001,-9.57399 23.66101,-19.895994 23.66101,-19.895994 -16.569,-17.042999 -30.289,17.042004 -47.80499,0.488007 -6.02201,9.012997 6.625,19.875987 6.625,19.875987 0,0 -3.77802,9.46001 -14.81,11.31301 -13.306,2.24499 -27.19602,1.41 -29.87302,-23.085008 0,0 -9.02698,24.758998 -29.85998,19.346998 -13.57001,-3.53299 -18.99601,-14.358 -20.90902,-19.827986 13.50301,-1.643005 23.791,-9.888 23.791,-19.802002 l -19.66598,0 C 258.27499,69.453659 249.989,61.125656 249.989,61.125656 c 0,0 -8.288,8.328003 -9.047,18.462006 l -19.655,0 c 0,9.914001 10.28099,18.158997 23.791,19.802002 -1.912,5.469986 -7.338,16.294996 -20.91501,19.827986 C 203.315,124.62965 194.298,99.870652 194.298,99.870652 191.62601,124.36566 177.73599,125.20065 164.42999,122.95566 153.416,121.10266 149.618,111.64265 149.618,111.64265 c 0,0 12.656,-10.86299 6.621,-19.875987 -17.497,16.553997 -31.238,-17.532013 -47.813,-0.488007 -0.001,0 19.641,10.322004 23.669,19.895994"
         id="svg_9"
         inkscape:connector-curvature="0"
         style="fill:#f1cb00" />
      <path
         d="m 344.048,180.09164 c 0.44901,-0.949 0.693,-1.91198 0.693,-2.89599 0,-13.28501 -42.44101,-24.047 -94.75399,-24.047 -52.308,0 -94.74,10.76199 -94.74,24.047 0,0.98401 0.229,1.94699 0.67,2.89599 20.177,-10.67401 54.75,-17.72601 94.07,-17.72601 39.31899,3e-5 73.907,7.05203 94.06099,17.72601"
         id="svg_10"
         inkscape:connector-curvature="0"
         style="fill:#f1cb00" />
      <path
         d="m 205.146,455.14764 18.106,-14.21197 -16.358,-0.219 c -5.25901,7.81397 -8.448,17.11201 -8.801,27.13599 l 13.347,9.44599 -6.294,-22.15101"
         id="svg_11"
         inkscape:connector-curvature="0"
         style="fill:#f1cb00" />
      <path
         d="m 264.255,419.76965 c -4.53701,-1.28802 -9.317,-1.987 -14.26799,-1.987 -4.944,0 -9.72599,0.69898 -14.24099,1.987 l -4.88503,15.62403 19.125,-12.82202 19.12403,12.82202 -4.85502,-15.62403"
         id="svg_12"
         inkscape:connector-curvature="0"
         style="fill:#f1cb00" />
      <path
         d="m 276.73199,440.93567 18.10801,14.21197 -6.301,22.15101 13.353,-9.44599 c -0.353,-10.02399 -3.538,-19.32202 -8.788,-27.13599 l -16.372,0.219"
         id="svg_13"
         inkscape:connector-curvature="0"
         style="fill:#f1cb00" />
      <path
         d="m 214.355,486.24365 -5.24801,15.49701 c 5.91302,7.55798 13.875,13.42596 23.058,16.784 l 13.12801,-9.79401 -23.02899,-0.85296 -7.90901,-21.63404"
         id="svg_14"
         inkscape:connector-curvature="0"
         style="fill:#f1cb00" />
      <path
         d="m 277.69501,507.87866 -23.00299,0.85303 13.12899,9.79401 c 9.18399,-3.35804 17.146,-9.22706 23.07099,-16.78406 l -5.262,-15.49695 -7.93499,21.63397"
         id="svg_15"
         inkscape:connector-curvature="0"
         style="fill:#f1cb00" />
      <path
         d="m 420.89899,286.90265 c 0,72.87698 -42.91599,135.66797 -104.724,164.35998 0.94299,3.43903 1.65399,6.96503 2.06201,10.59302 65.64499,-27.97003 111.694,-93.29101 111.694,-169.41299 0,-57.32501 -26.12402,-108.51999 -67.064,-142.25302 l -2.74502,1.20102 c 37.29202,33.15499 60.77701,81.57 60.77701,135.51199"
         id="svg_16"
         inkscape:connector-curvature="0"
         style="fill:#b30838" />
      <path
         d="m 181.519,464.36566 c 0.162,-2.07397 0.40699,-4.12201 0.74501,-6.14599 C 139.661,443.59869 104.234,413.40765 82.736999,374.38666 c 20.406001,41.125 55.711001,73.474 98.782001,89.979"
         id="svg_17"
         inkscape:connector-curvature="0"
         style="fill:#b30838" />
      <path
         d="m 255.65601,239.79065 0,16.371 c 14.337,-5.10602 22.583,-14.30301 22.583,-23.04401 0,-1.17898 -0.11499,-2.29998 -0.242,-3.371 l -30.81702,0 c 0,-9.7e-4 8.47602,2.14301 8.47602,10.04401"
         id="svg_18"
         inkscape:connector-curvature="0"
         style="fill:#b30838" />
      <path
         d="m 255.65601,296.37765 0,75.37702 c 0,7.89499 -8.476,10.05899 -8.476,10.05899 l 100.13801,0 c 40.14698,0 26.35398,-23.55301 26.35398,-23.55301 0,0 -7.83899,13.70401 -31.60398,13.70401 l -56.586,0 0,-47.815 -29.82601,-27.772"
         id="svg_19"
         inkscape:connector-curvature="0"
         style="fill:#b30838" />
      <path
         d="m 225.436,260.93466 c 0,0 10.335,-5.11899 10.335,-14.505 0,-9.10199 -11.366,-14.04398 -24.90099,-16.508 l 0,11.40701 c 9.40599,4.29499 13.96899,11.28498 14.56599,19.60599"
         id="svg_20"
         inkscape:connector-curvature="0"
         style="fill:#b30838" />
      <path
         d="m 121.752,358.21967 c 0,13.43499 25.59399,25.57199 61.62401,25.57199 45.21399,0 64.06,-23.444 64.06,-45.59998 0,-47.479 -98.36701,-46.509 -98.36701,-77.75702 0,-8.14599 6.189,-14.81198 14.763,-18.97 l 0,-11.216 c -20.224,4.72 -39.565,16.45199 -39.565,37.12201 0,44 95.31599,42.54998 95.31599,77.17599 0,17.82401 -12.44198,29.974 -36.20698,29.974 -26.95001,0 -49.79801,-14.02298 -44.14401,-35 0.001,0 -17.48,4.077 -17.48,18.69901"
         id="svg_21"
         inkscape:connector-curvature="0"
         style="fill:#b30838" />
      <path
         d="m 194.823,474.94568 c 0,0 -1.754,11.54199 6.63499,22.01098 l 2.07401,-6.38696 c 0,-6e-5 -7.527,-6.82507 -8.709,-15.62402"
         id="svg_22"
         inkscape:connector-curvature="0"
         style="fill:#b30838" />
      <path
         d="m 237.914,523.80566 c 0,0 10.433,5.23102 22.98499,0.48999 l -5.45299,-3.94598 c 0,0 -8.79801,5.05096 -17.532,3.45599"
         id="svg_23"
         inkscape:connector-curvature="0"
         style="fill:#b30838" />
      <path
         d="m 299.832,480.16663 c 0,0 2.07401,9.95599 -2.13599,17.75299 0,0 8.198,-8.31397 7.57499,-21.71198 l -5.439,3.95899"
         id="svg_24"
         inkscape:connector-curvature="0"
         style="fill:#b30838" />
      <path
         d="m 273.24701,419.16064 2.07501,6.39399 c 0,0 10.112,1.091 16.22199,7.50799 0,-9.7e-4 -5.35801,-10.36395 -18.297,-13.90198"
         id="svg_25"
         inkscape:connector-curvature="0"
         style="fill:#b30838" />
      <path
         d="m 227.974,418.87463 c 0,0 -11.521,1.896 -18.894,13.099 l 6.728,0 c -9.9e-4,0 4.175,-9.27496 12.166,-13.099"
         id="svg_26"
         inkscape:connector-curvature="0"
         style="fill:#b30838" />
      <path
         d="m 265.271,453.65064 5.72601,-12.84601 -10.43201,9.41601 -21.13901,0 -10.43499,-9.41601 5.723,12.84601 -6.53601,20.08697 -12.18799,7.03101 13.984,-1.48401 17.10899,12.43805 2.90399,13.74102 2.91001,-13.74102 17.11,-12.43799 13.98199,1.48401 -12.17898,-7.03101 -6.539,-20.08704 m -19.875,8.60602 -11.659,15.53601 6.82401,-21.86999 21.863,0 -17.02801,6.33398 z"
         id="svg_27"
         inkscape:connector-curvature="0"
         style="fill:#b30838" />
      <path
         d="m 284.07001,233.11764 c 0,-21.884 -21.417,-32.884 -53.521,-32.884 l -25.511,0 0,65.76901 25.511,0 c 31.27899,-0.001 53.521,-15.12399 53.521,-32.88501 M 225.436,260.93466 c -0.596,-8.32199 -5.15901,-15.31198 -14.56601,-19.60602 l 0,-11.40597 c 13.53601,2.46301 24.901,7.406 24.901,16.50799 0,9.38599 -10.33499,14.504 -10.33499,14.504 z m 30.22,-4.77402 0,-16.371 c 0,-7.901 -8.47599,-10.044 -8.47599,-10.044 l 30.817,0 c 0.12701,1.07101 0.242,2.19201 0.242,3.371 0,8.74103 -8.246,17.93802 -22.58301,23.044 z"
         id="svg_28"
         inkscape:connector-curvature="0"
         style="fill:#013a81" />
      <polyline
         points="388.09600830078125,580.295654296875 394.6730041503906,580.295654296875 394.6730041503906,600.128662109375 397.0530090332031,600.128662109375 397.0530090332031,580.295654296875 403.97198486328125,580.295654296875 403.97198486328125,577.9326782226562 388.09600830078125,577.9326782226562 388.09600830078125,580.295654296875 "
         id="svg_29"
         style="fill:#013a81" />
      <polyline
         points="416.6520080566406,595.99267578125 410.95599365234375,577.9326782226562 407.1449890136719,577.9326782226562 407.1449890136719,600.128662109375 409.5119934082031,600.128662109375 409.5119934082031,581.274658203125 415.4590148925781,600.128662109375 417.8389892578125,600.128662109375 423.802001953125,581.274658203125 423.802001953125,600.128662109375 426.1669921875,600.128662109375 426.1669921875,577.9326782226562 422.35101318359375,577.9326782226562 416.6520080566406,595.99267578125 "
         id="svg_30"
         style="fill:#013a81" />
    </g>
  </g>
</svg>
