<?xml version="1.0" encoding="UTF-8" standalone="no"?>
<!-- Created with Inkscape (http://www.inkscape.org/) -->

<svg
   xmlns:dc="http://purl.org/dc/elements/1.1/"
   xmlns:cc="http://creativecommons.org/ns#"
   xmlns:rdf="http://www.w3.org/1999/02/22-rdf-syntax-ns#"
   xmlns:svg="http://www.w3.org/2000/svg"
   xmlns="http://www.w3.org/2000/svg"
   xmlns:sodipodi="http://sodipodi.sourceforge.net/DTD/sodipodi-0.dtd"
   xmlns:inkscape="http://www.inkscape.org/namespaces/inkscape"
   width="42.085464mm"
   height="48.327129mm"
   viewBox="0 0 149.12172 171.23786"
   id="svg2"
   version="1.1"
   inkscape:version="0.91 r13725"
   sodipodi:docname="Sporting Kansas City.svg">
  <defs
     id="defs4">
    <clipPath
       id="clipPath3350"
       clipPathUnits="userSpaceOnUse">
      <path
         inkscape:connector-curvature="0"
         id="path3352"
         d="M 0,0 612,0 612,792 0,792 0,0 Z" />
    </clipPath>
    <clipPath
       id="clipPath3358"
       clipPathUnits="userSpaceOnUse">
      <path
         inkscape:connector-curvature="0"
         id="path3360"
         d="m 430,841.84 198,0 0,-866 -198,0 0,866 z" />
    </clipPath>
    <clipPath
       id="clipPath3362"
       clipPathUnits="userSpaceOnUse">
      <path
         inkscape:connector-curvature="0"
         id="path3364"
         d="m 439,-23.16 180,0 0,864 -180,0 0,-864 z" />
    </clipPath>
    <clipPath
       id="clipPath3366"
       clipPathUnits="userSpaceOnUse">
      <path
         inkscape:connector-curvature="0"
         id="path3368"
         d="m 434.738,841.01 409.262,0 0,-886.6436 -409.262,0 0,886.6436 z" />
    </clipPath>
    <clipPath
       id="clipPath3370"
       clipPathUnits="userSpaceOnUse">
      <path
         inkscape:connector-curvature="0"
         id="path3372"
         d="m 374,886.366 155.939,0 0,-933.9996 -155.939,0 0,933.9996 z" />
    </clipPath>
    <clipPath
       id="clipPath3410"
       clipPathUnits="userSpaceOnUse">
      <path
         inkscape:connector-curvature="0"
         id="path3412"
         d="m 483.574,640.719 117.031,0 0,131.321 -117.031,0 0,-131.321 z" />
    </clipPath>
    <clipPath
       id="clipPath3554"
       clipPathUnits="userSpaceOnUse">
      <path
         inkscape:connector-curvature="0"
         id="path3556"
         d="M 0,0 612,0 612,792 0,792 0,0 Z" />
    </clipPath>
    <clipPath
       id="clipPath3562"
       clipPathUnits="userSpaceOnUse">
      <path
         inkscape:connector-curvature="0"
         id="path3564"
         d="m -95.68,862.28 162.328,0 0,-431.28 -162.328,0 0,431.28 z" />
    </clipPath>
    <clipPath
       id="clipPath3566"
       clipPathUnits="userSpaceOnUse">
      <path
         inkscape:connector-curvature="0"
         id="path3568"
         d="m -86.68,432 144.328,0 0,429.28 -144.328,0 0,-429.28 z" />
    </clipPath>
    <clipPath
       id="clipPath3570"
       clipPathUnits="userSpaceOnUse">
      <path
         inkscape:connector-curvature="0"
         id="path3572"
         d="m -134.957,861.753 192.605,0 0,-913.9466 -192.605,0 0,913.9466 z" />
    </clipPath>
    <clipPath
       id="clipPath3598"
       clipPathUnits="userSpaceOnUse">
      <path
         inkscape:connector-curvature="0"
         id="path3600"
         d="m 0,432 25.666,0 0,360 L 0,792 0,432 Z" />
    </clipPath>
    <clipPath
       id="clipPath3606"
       clipPathUnits="userSpaceOnUse">
      <path
         inkscape:connector-curvature="0"
         id="path3608"
         d="m -89.5225,867.03 115.1894,0 0,-936.8573 -115.1894,0 0,936.8573 z" />
    </clipPath>
    <clipPath
       id="clipPath3622"
       clipPathUnits="userSpaceOnUse">
      <path
         inkscape:connector-curvature="0"
         id="path3624"
         d="m -97.5225,858.53 115.1894,0 0,-936.8573 -115.1894,0 0,936.8573 z" />
    </clipPath>
    <clipPath
       id="clipPath3638"
       clipPathUnits="userSpaceOnUse">
      <path
         inkscape:connector-curvature="0"
         id="path3640"
         d="M 0,0 612,0 612,792 0,792 0,0 Z" />
    </clipPath>
    <clipPath
       id="clipPath3646"
       clipPathUnits="userSpaceOnUse">
      <path
         inkscape:connector-curvature="0"
         id="path3648"
         d="m -75.52,804.04 126.6617,0 0,-373.04 -126.6617,0 0,373.04 z" />
    </clipPath>
    <clipPath
       id="clipPath3650"
       clipPathUnits="userSpaceOnUse">
      <path
         inkscape:connector-curvature="0"
         id="path3652"
         d="m -66.52,432 108.661,0 0,371.04 -108.661,0 0,-371.04 z" />
    </clipPath>
    <clipPath
       id="clipPath3654"
       clipPathUnits="userSpaceOnUse">
      <path
         inkscape:connector-curvature="0"
         id="path3656"
         d="m -73.0473,803.04 115.1893,0 0,-877.33 -115.1893,0 0,877.33 z" />
    </clipPath>
  </defs>
  <sodipodi:namedview
     id="base"
     pagecolor="#ffffff"
     bordercolor="#666666"
     borderopacity="1.0"
     inkscape:pageopacity="0.0"
     inkscape:pageshadow="2"
     inkscape:zoom="2.8284271"
     inkscape:cx="76.230943"
     inkscape:cy="81.636895"
     inkscape:document-units="px"
     inkscape:current-layer="layer1"
     showgrid="false"
     fit-margin-top="1"
     fit-margin-left="0.4"
     fit-margin-right="0.4"
     fit-margin-bottom="1"
     inkscape:window-width="1366"
     inkscape:window-height="705"
     inkscape:window-x="-8"
     inkscape:window-y="-8"
     inkscape:window-maximized="1" />
  <metadata
     id="metadata7">
    <rdf:RDF>
      <cc:Work
         rdf:about="">
        <dc:format>image/svg+xml</dc:format>
        <dc:type
           rdf:resource="http://purl.org/dc/dcmitype/StillImage" />
        <dc:title></dc:title>
      </cc:Work>
    </rdf:RDF>
  </metadata>
  <g
     inkscape:label="Layer 1"
     inkscape:groupmode="layer"
     id="layer1"
     transform="translate(-1123.4073,-27.340373)">
    <g
       id="g3406"
       transform="matrix(1.25,0,0,-1.25,520.35714,995.93368)">
      <g
         id="g3408"
         clip-path="url(#clipPath3410)">
        <g
           id="g3414"
           transform="translate(593.2272,758.3854)">
          <path
             d="m 0,0 c -0.003,0.008 -0.032,0.036 -0.047,0.043 -15.001,8.665 -32.535,13.609 -51.084,13.611 l 0,10e-4 -0.018,0 -0.002,0 -0.008,0 -0.006,0 -0.003,-10e-4 c -18.539,-0.002 -35.996,-4.805 -50.995,-13.466 -0.017,-0.009 -0.069,-0.07 -0.078,-0.091 -6.157,-15.128 -11.26,-40.015 -3.43,-61.988 6.877,-19.305 18.412,-32.062 31.389,-41.572 12.975,-9.512 22.626,-14.009 22.731,-14.059 0,0 0.322,-0.145 0.402,-0.145 0.08,0 0.402,0.145 0.402,0.145 0.105,0.05 9.756,4.547 22.731,14.059 12.978,9.51 24.511,22.267 31.387,41.572 C 11.208,-39.899 6.165,-15.124 0,0"
             style="fill:#9fa1a4;fill-opacity:1;fill-rule:nonzero;stroke:none"
             id="path3416"
             inkscape:connector-curvature="0" />
        </g>
        <g
           id="g3418"
           transform="translate(540.9445,644.0406)">
          <path
             d="m 0,0 c -0.773,0.341 -19.137,8.531 -34.437,25.316 -14.287,15.673 -28.309,41.957 -13.971,78.159 l 0.312,0.783 0.702,0.466 c 0.819,0.544 20.391,13.32 48.476,13.32 28.088,0 47.658,-12.776 48.479,-13.32 l 0.699,-0.466 0.311,-0.783 C 64.909,67.273 50.889,40.989 36.602,25.316 21.3,8.531 2.939,0.341 2.165,0 L 1.082,-0.476 0,0 Z"
             style="fill:#ffffff;fill-opacity:1;fill-rule:nonzero;stroke:none"
             id="path3420"
             inkscape:connector-curvature="0" />
        </g>
        <g
           id="g3422"
           transform="translate(589.0542,746.433)">
          <path
             d="m 0,0 c -0.013,0.03 -0.066,0.111 -0.122,0.148 -1.405,0.907 -20.357,12.816 -46.906,12.816 -26.634,0 -45.625,-11.988 -46.92,-12.826 -0.046,-0.03 -0.092,-0.102 -0.104,-0.129 -26.674,-67.53 47.024,-99.941 47.024,-99.941 0,0 73.693,32.407 47.028,99.932"
             style="fill:#002b5c;fill-opacity:1;fill-rule:nonzero;stroke:none"
             id="path3424"
             inkscape:connector-curvature="0" />
        </g>
        <g
           id="g3426"
           transform="translate(564.1866,716.3168)">
          <path
             d="m 0,0 c -0.227,-0.07 -0.068,-0.306 0.047,-0.446 0.202,-0.238 1.433,-1.75 1.631,-1.947 0.17,-0.171 0.199,-0.311 0.525,-0.272 0.346,0.101 0.68,0.19 1,0.251 0.515,0.088 1.051,0.143 1.588,0.171 0.11,0.002 0.208,0.005 0.291,0.007 1.723,0.049 2.958,-0.218 2.978,-0.222 3.587,-0.6 3.919,-3.581 3.93,-3.696 l 0.003,-0.092 c 0.026,-0.683 0.077,-2.103 -1.424,-3.26 -0.065,-0.047 -0.089,-0.128 -0.068,-0.206 0.02,-0.074 0.085,-0.129 0.163,-0.136 0.577,-0.06 1.174,-0.09 1.776,-0.09 0.162,0 0.326,0.002 0.495,0.006 1.413,0.035 2.492,0.365 3.206,0.983 0.732,0.626 1.084,1.55 1.054,2.733 0,0.046 -0.01,4.315 -6.168,6.276 C 9.15,0.659 7.159,0.785 5.82,0.785 4.767,0.785 4.075,0.709 4.058,0.706 4.021,0.706 3.13,0.659 1.764,0.396 1.113,0.281 0.62,0.164 0,0"
             style="fill:#ffffff;fill-opacity:1;fill-rule:nonzero;stroke:none"
             id="path3428"
             inkscape:connector-curvature="0" />
        </g>
        <g
           id="g3430"
           transform="translate(581.8361,688.1289)">
          <path
             d="m 0,0 c -0.067,0.054 -0.16,0.06 -0.228,0.011 -1.94,-1.312 -4.25,-1.979 -6.874,-1.979 -1.554,0 -3.148,0.237 -4.736,0.699 -0.373,0.107 -0.673,0.212 -0.963,0.324 -0.476,0.178 -0.921,0.373 -1.362,0.598 -0.829,0.414 -1.639,0.925 -2.41,1.511 -0.296,0.227 -0.576,0.461 -0.844,0.694 -3.224,2.84 -4.499,6.266 -4.514,6.306 -0.879,2.19 -1.418,4.06 -1.39,6.63 0.013,0.971 0.139,1.947 0.365,2.904 0.002,0.003 0.002,0.005 0.004,0.009 0.016,0.066 0.055,0.314 0.055,0.314 0.034,0.133 -0.03,0.23 -0.111,0.321 -0.2,0.217 -3.037,3.678 -3.214,3.857 -0.151,0.149 -0.257,0.42 -0.466,0.366 -0.712,-0.96 -1.166,-1.841 -1.474,-2.505 -0.061,-0.131 -0.123,-0.266 -0.18,-0.396 -0.031,-0.072 -0.063,-0.138 -0.091,-0.205 -0.003,-0.011 -0.007,-0.022 -0.01,-0.035 -0.822,-2.007 -1.209,-4.3 -1.143,-6.816 0,-0.07 0.288,-7.117 5.449,-11.931 1.39,-1.298 2.923,-2.387 4.558,-3.239 0.316,-0.163 0.626,-0.311 0.937,-0.454 1.281,-0.586 2.626,-1.034 4,-1.328 0.407,-0.087 0.787,-0.155 1.12,-0.203 0.884,-0.136 1.752,-0.205 2.577,-0.205 0.727,0 1.14,0.053 1.14,0.053 6.367,0.23 9.191,2.921 9.859,4.475 C 0.089,-0.144 0.065,-0.056 0,0"
             style="fill:#ffffff;fill-opacity:1;fill-rule:nonzero;stroke:none"
             id="path3432"
             inkscape:connector-curvature="0" />
        </g>
        <g
           id="g3434"
           transform="translate(571.0893,690.5853)">
          <path
             d="M 0,0 0,-0.001 0,0 Z m -13.997,22.492 4.105,-5.087 c 0.005,-0.007 0.026,-0.034 0.031,-0.038 l 0.047,-0.061 c 0.191,-0.236 0.383,-0.468 0.566,-0.7 l 0.093,-0.134 c 3.128,-4.507 4.711,-8.754 4.711,-12.623 0,-0.327 -0.014,-0.653 -0.033,-0.975 L -4.497,2.62 C -4.516,2.384 -4.542,2.154 -4.571,1.922 L -4.575,1.871 C -4.588,1.769 -4.603,1.667 -4.62,1.559 -4.641,1.411 -4.666,1.261 -4.692,1.112 -4.794,0.558 -4.953,-0.019 -5.144,-0.637 c -0.05,-0.151 0.137,-0.244 0.278,-0.336 0.239,-0.162 2.033,-1.218 3.872,-1.83 0.155,-0.05 0.208,-0.05 0.254,0.051 0.38,0.894 0.682,1.767 0.914,2.652 0.009,0.026 0.013,0.047 0.015,0.074 0.526,1.909 0.788,3.875 0.788,5.851 0,3.361 -0.725,6.612 -2.153,9.657 -0.726,1.568 -1.762,3.293 -3.076,5.121 -0.195,0.277 -0.401,0.553 -0.608,0.832 -0.055,0.072 -0.111,0.146 -0.169,0.22 l -0.159,0.208 c -0.209,0.274 -0.426,0.553 -0.651,0.826 -0.113,0.152 -0.229,0.294 -0.351,0.447 -0.165,0.19 -0.324,0.381 -0.486,0.574 l -0.339,0.407 c -0.207,0.239 -0.406,0.478 -0.61,0.722 l -0.862,1.028 c -1.232,1.466 -2.464,2.936 -3.67,4.402 -3.433,4.36 -5.23,7.626 -5.34,9.708 -0.066,1.201 0.34,2.133 1.248,2.849 0.973,0.769 1.952,1.082 3.385,1.082 0.881,0 1.88,-0.489 2.542,-1.24 0.635,-0.791 0.942,-1.507 0.942,-2.187 l 0.004,-0.098 c 0.003,-0.684 0.013,-2.105 -1.516,-3.225 -0.061,-0.046 -0.091,-0.124 -0.07,-0.198 0.021,-0.076 0.082,-0.132 0.16,-0.143 0.734,-0.093 1.498,-0.14 2.272,-0.14 2.855,0 4.32,1.217 4.355,3.616 0.028,1.172 -0.371,2.891 -2.449,4.423 -1.592,1.175 -3.642,1.93 -5.487,2.023 -2.762,0.137 -5.332,-0.568 -7.682,-2.096 -2.188,-1.429 -3.343,-3.584 -3.343,-6.226 0,-2.88 1.641,-6.458 4.879,-10.643 1.424,-1.759 2.843,-3.521 4.26,-5.282"
             style="fill:#ffffff;fill-opacity:1;fill-rule:nonzero;stroke:none"
             id="path3436"
             inkscape:connector-curvature="0" />
        </g>
        <g
           id="g3438"
           transform="translate(562.5061,682.4579)">
          <path
             d="m 0,0 c -0.306,0.14 -0.384,0.132 -0.569,-0.126 -0.311,-0.41 -0.641,-0.829 -0.982,-1.241 -3.277,-3.859 -7.486,-7.151 -12.516,-9.78 -0.086,-0.045 -0.123,-0.141 -0.096,-0.231 0.026,-0.079 0.1,-0.131 0.181,-0.131 0.009,0 0.021,0.002 0.03,0.002 5.658,0.905 10.596,3.261 14.699,7.013 0.017,0.014 0.033,0.029 0.065,0.061 l 0.057,0.054 c 0.561,0.521 1.063,1.018 1.524,1.513 0.293,0.273 0.715,0.795 1.292,1.517 C 3.749,-1.27 3.689,-1.188 3.61,-1.175 1.674,-0.822 0.293,-0.13 0,0"
             style="fill:#ffffff;fill-opacity:1;fill-rule:nonzero;stroke:none"
             id="path3440"
             inkscape:connector-curvature="0" />
        </g>
        <g
           id="g3442"
           transform="translate(558.8799,705.8269)">
          <path
             d="M 0,0 C 0.002,0.003 0.002,0.007 0.004,0.009 0.002,0.005 0.002,0.003 0,0"
             style="fill:#002b5c;fill-opacity:1;fill-rule:nonzero;stroke:none"
             id="path3444"
             inkscape:connector-curvature="0" />
        </g>
        <g
           id="g3446"
           transform="translate(506.5596,748.147)">
          <path
             d="m 0,0 c -2.48,-1.095 -4.876,-2.243 -7.258,-3.587 -0.467,-0.265 -0.849,-0.727 -0.98,-1.18 -0.196,-0.68 -0.445,-1.484 -0.64,-2.165 -0.106,-0.358 -0.051,-0.498 0.327,-0.379 1.915,0.562 3.898,1.047 5.949,1.45 -0.087,-0.365 -0.222,-0.953 -0.31,-1.316 -1.676,-0.776 -3.372,-1.69 -5.005,-2.575 0.119,0.433 0.234,0.808 0.352,1.24 -0.702,-0.38 -1.422,-0.819 -2.117,-1.22 -0.188,-0.655 -0.356,-1.261 -0.544,-1.914 -0.131,-0.453 0.102,-0.557 0.597,-0.277 2.517,1.421 5.139,2.818 7.76,3.977 0.517,0.227 0.915,0.651 1.015,1.087 0.163,0.71 0.329,1.513 0.491,2.224 0.078,0.338 -0.019,0.493 -0.4,0.428 -2.059,-0.36 -4.055,-0.8 -5.98,-1.316 0.088,0.32 0.267,0.891 0.355,1.212 1.515,0.836 3.076,1.598 4.739,2.362 -0.088,-0.364 -0.173,-0.728 -0.264,-1.094 0.708,0.328 1.421,0.645 2.136,0.953 0.132,0.578 0.265,1.155 0.396,1.732 C 0.715,0.07 0.477,0.21 0,0"
             style="fill:#ffffff;fill-opacity:1;fill-rule:nonzero;stroke:none"
             id="path3448"
             inkscape:connector-curvature="0" />
        </g>
        <g
           id="g3450"
           transform="translate(518.4844,752.3682)">
          <path
             d="m 0,0 c -2.821,-0.801 -5.594,-1.699 -8.331,-2.805 -0.541,-2.549 -1.12,-5.25 -1.661,-7.8 0.742,0.3 1.489,0.59 2.239,0.869 0.406,2.06 0.848,4.296 1.253,6.355 1.631,0.608 3.272,1.141 4.933,1.643 -0.126,-0.782 -0.282,-1.721 -0.408,-2.504 -1.564,-0.471 -3.117,-0.992 -4.657,-1.557 0.504,-0.242 1.018,-0.489 1.538,-0.74 1.42,0.485 2.853,0.932 4.295,1.341 0.522,0.15 0.889,0.51 0.948,0.941 0.177,1.227 0.379,2.549 0.553,3.776 C 0.765,-0.05 0.502,0.142 0,0"
             style="fill:#ffffff;fill-opacity:1;fill-rule:nonzero;stroke:none"
             id="path3452"
             inkscape:connector-curvature="0" />
        </g>
        <g
           id="g3454"
           transform="translate(529.3193,748.5298)">
          <path
             d="m 0,0 c -2.041,-0.284 -4.062,-0.631 -6.077,-1.056 0.19,1.527 0.405,3.279 0.596,4.828 1.873,0.392 3.933,0.74 5.924,1.019 C 0.301,3.246 0.139,1.52 0,0 M 1.994,6.297 C -0.94,5.938 -3.845,5.468 -6.729,4.805 -7.245,4.687 -7.592,4.332 -7.65,3.902 -7.925,1.884 -8.213,-0.215 -8.483,-2.195 c -0.058,-0.417 0.227,-0.607 0.765,-0.484 3.002,0.683 6.044,1.215 9.101,1.587 0.538,0.066 0.898,0.367 0.934,0.783 0.152,1.965 0.309,4.001 0.467,6.004 0.034,0.428 -0.273,0.667 -0.79,0.602"
             style="fill:#ffffff;fill-opacity:1;fill-rule:nonzero;stroke:none"
             id="path3456"
             inkscape:connector-curvature="0" />
        </g>
        <g
           id="g3458"
           transform="translate(544.0546,750.639)">
          <path
             d="M 0,0 C 0.529,-0.014 0.87,0.23 0.861,0.639 0.838,1.76 0.814,2.938 0.791,4.069 0.782,4.496 0.439,4.779 -0.072,4.79 -3.047,4.857 -6.008,4.776 -8.943,4.525 c -0.095,-2.447 -0.189,-4.913 -0.284,-7.31 0.774,0.06 1.551,0.111 2.329,0.15 0.051,1.95 0.098,4.023 0.15,6.003 1.754,0.1 3.517,0.129 5.285,0.118 0.005,-0.713 0.01,-1.461 0.017,-2.167 -1.692,0.011 -3.377,-0.01 -5.057,-0.097 0.395,-0.269 4.208,-2.784 5.734,-3.778 0.956,-0.016 1.915,-0.048 2.875,-0.097 -10e-4,0.023 -10e-4,0.044 -10e-4,0.066 -1.386,0.9 -2.558,1.774 -3.894,2.614 C -1.11,0.025 -0.679,0.017 0,0"
             style="fill:#ffffff;fill-opacity:1;fill-rule:nonzero;stroke:none"
             id="path3460"
             inkscape:connector-curvature="0" />
        </g>
        <g
           id="g3462"
           transform="translate(546.79,753.9946)">
          <path
             d="M 0,0 C 1.343,-0.071 2.687,-0.18 4.032,-0.318 4.178,-2.317 4.323,-4.451 4.464,-6.396 5.233,-6.477 6,-6.569 6.767,-6.669 c -0.161,1.95 -0.326,4.084 -0.493,6.087 1.344,-0.175 2.689,-0.39 4.028,-0.632 -0.049,0.482 -0.079,0.859 -0.128,1.346 C 6.777,0.744 3.338,1.148 -0.071,1.326 -0.047,0.846 -0.027,0.478 0,0"
             style="fill:#ffffff;fill-opacity:1;fill-rule:nonzero;stroke:none"
             id="path3464"
             inkscape:connector-curvature="0" />
        </g>
        <g
           id="g3466"
           transform="translate(559.7791,746.3826)">
          <path
             d="M 0,0 C 0.782,-0.154 1.561,-0.318 2.338,-0.492 2.023,1.968 1.701,4.523 1.385,6.984 0.653,7.148 -0.083,7.304 -0.823,7.447 -0.551,4.997 -0.271,2.45 0,0"
             style="fill:#ffffff;fill-opacity:1;fill-rule:nonzero;stroke:none"
             id="path3468"
             inkscape:connector-curvature="0" />
        </g>
        <g
           id="g3470"
           transform="translate(572.7366,745.1066)">
          <path
             d="m 0,0 c -2.191,2.31 -4.395,4.775 -6.551,6.987 -0.73,0.205 -1.494,0.412 -2.232,0.6 0.391,-2.519 0.784,-5.109 1.163,-7.545 0.773,-0.188 1.54,-0.404 2.306,-0.613 C -5.59,1.097 -5.883,2.948 -6.165,4.655 -3.987,2.422 -1.719,-0.103 0.497,-2.432 1.222,-2.686 1.888,-2.949 2.661,-3.248 2.176,-0.823 1.633,1.889 1.135,4.401 0.427,4.677 -0.284,4.944 -1,5.203 -0.68,3.521 -0.312,1.643 0,0"
             style="fill:#ffffff;fill-opacity:1;fill-rule:nonzero;stroke:none"
             id="path3472"
             inkscape:connector-curvature="0" />
        </g>
        <g
           id="g3474"
           transform="translate(587.6498,736.6887)">
          <path
             d="m 0,0 c -0.336,1.245 -0.767,2.861 -0.96,3.582 -1.919,1.08 -2.627,1.47 -4.875,2.6 L -4.66,4.521 C -3.643,3.999 -3.461,3.9 -2.644,3.454 -2.458,2.842 -2.249,2.064 -2.113,1.588 -3.978,2.638 -5.295,3.271 -7.174,4.17 -7.668,6.096 -8.068,7.791 -8.464,9.408 -6.543,8.52 -5.295,7.895 -3.571,6.979 -3.478,6.591 -3.354,6.117 -3.354,6.117 l 2.005,-1.132 c 0,0 -0.282,1.019 -0.451,1.606 -0.144,0.5 -0.421,0.886 -0.909,1.151 -2.521,1.362 -4.29,2.269 -7.408,3.659 -0.483,0.217 -0.752,0.036 -0.646,-0.41 0.488,-2.09 0.997,-4.43 1.483,-6.512 0.103,-0.442 0.487,-0.788 0.999,-1.015 2.684,-1.189 4.889,-2.296 7.535,-3.773 C -0.122,-0.655 0.18,-0.657 0,0"
             style="fill:#ffffff;fill-opacity:1;fill-rule:nonzero;stroke:none"
             id="path3476"
             inkscape:connector-curvature="0" />
        </g>
        <g
           id="g3478"
           transform="translate(498.3892,755.0197)">
          <path
             d="m 0,0 c -0.573,0.293 -1.135,0.573 -1.681,0.844 -0.197,-0.657 -0.4,-1.331 -0.607,-2.024 -0.394,-0.21 -0.79,-0.424 -1.189,-0.644 0.548,1.705 1.062,3.301 1.547,4.799 0.347,0.172 0.694,0.343 1.037,0.508 C -1.059,2.928 -1.402,1.78 -1.402,1.78 l 2.491,2.675 c 0,0 0.941,0.395 1.351,0.572 C 2.437,5.017 2.611,5.099 2.611,5.088 1.742,4.141 0.346,2.652 -0.616,1.579 0.067,1.245 0.537,1 1.262,0.634 1.258,0.623 1.256,0.609 1.254,0.598 0.771,0.368 0.493,0.244 0,0"
             style="fill:#ffffff;fill-opacity:1;fill-rule:nonzero;stroke:none"
             id="path3480"
             inkscape:connector-curvature="0" />
        </g>
        <g
           id="g3482"
           transform="translate(506.7037,761.6353)">
          <path
             d="m 0,0 c -0.433,-0.718 -0.875,-1.445 -1.323,-2.179 0.596,0.235 1.19,0.466 1.782,0.687 C 0.303,-0.992 0.149,-0.495 0,0 m 0.841,-2.72 c -0.063,0.207 -0.127,0.414 -0.188,0.619 -0.84,-0.31 -1.683,-0.639 -2.529,-0.982 -0.188,-0.307 -0.376,-0.614 -0.567,-0.923 -0.375,-0.156 -0.749,-0.314 -1.125,-0.475 10e-4,0.003 0.003,0.008 0.003,0.011 1.112,1.759 2.189,3.465 3.229,5.122 C 0.025,0.791 0.387,0.928 0.746,1.06 1.082,-0.065 1.437,-1.205 1.811,-2.359 1.81,-2.363 1.809,-2.366 1.807,-2.37 1.486,-2.484 1.166,-2.6 0.841,-2.72"
             style="fill:#ffffff;fill-opacity:1;fill-rule:nonzero;stroke:none"
             id="path3484"
             inkscape:connector-curvature="0" />
        </g>
        <g
           id="g3486"
           transform="translate(517.0719,761.8544)">
          <path
             d="M 0,0 C -0.768,0.68 -1.52,1.347 -2.255,2.001 -2.428,1.087 -2.602,0.166 -2.778,-0.762 -3.142,-0.869 -3.509,-0.979 -3.877,-1.091 -3.606,0.27 -3.34,1.612 -3.075,2.939 -2.729,3.037 -2.384,3.137 -2.038,3.23 -1.309,2.605 -0.563,1.967 0.198,1.317 0.34,2.193 0.48,3.061 0.62,3.921 0.966,4.006 1.31,4.087 1.654,4.166 1.459,2.883 1.261,1.583 1.061,0.267 0.708,0.181 0.356,0.091 0,0"
             style="fill:#ffffff;fill-opacity:1;fill-rule:nonzero;stroke:none"
             id="path3488"
             inkscape:connector-curvature="0" />
        </g>
        <g
           id="g3490"
           transform="translate(527.8913,763.9766)">
          <path
             d="m 0,0 c -1.271,-0.175 -2.546,-0.378 -3.825,-0.609 -0.253,-0.047 -0.397,0.062 -0.37,0.281 0.036,0.313 0.073,0.628 0.11,0.943 0.359,0.066 0.718,0.13 1.076,0.191 -0.023,-0.209 -0.046,-0.419 -0.069,-0.628 0.827,0.142 1.652,0.274 2.474,0.391 0.017,0.179 0.034,0.357 0.051,0.536 -1.058,0.146 -2.112,0.273 -3.163,0.381 -0.208,0.016 -0.255,0.105 -0.234,0.277 0.038,0.327 0.076,0.654 0.114,0.979 0.026,0.218 0.201,0.385 0.446,0.427 1.249,0.218 2.497,0.409 3.739,0.572 C 0.589,3.772 0.725,3.658 0.708,3.449 0.683,3.166 0.658,2.884 0.634,2.6 0.28,2.555 -0.072,2.507 -0.425,2.457 -0.409,2.636 -0.392,2.814 -0.375,2.99 -1.185,2.878 -1.997,2.751 -2.809,2.616 -2.826,2.462 -2.842,2.309 -2.86,2.153 -1.814,2.036 -0.763,1.903 0.291,1.747 0.486,1.721 0.547,1.623 0.533,1.457 0.503,1.107 0.472,0.759 0.441,0.409 0.423,0.194 0.251,0.034 0,0"
             style="fill:#ffffff;fill-opacity:1;fill-rule:nonzero;stroke:none"
             id="path3492"
             inkscape:connector-curvature="0" />
        </g>
        <g
           id="g3494"
           transform="translate(536.5942,767.7408)">
          <path
             d="m 0,0 c -0.318,-0.556 -0.641,-1.112 -0.966,-1.67 0.608,0.043 1.217,0.08 1.825,0.11 C 0.57,-1.039 0.284,-0.519 0,0 m 1.561,-2.833 c -0.116,0.214 -0.232,0.428 -0.348,0.639 -0.861,-0.038 -1.719,-0.09 -2.577,-0.154 -0.135,-0.227 -0.272,-0.457 -0.409,-0.684 -0.376,-0.03 -0.75,-0.063 -1.126,-0.096 l 0,0.01 c 0.805,1.293 1.593,2.576 2.366,3.848 0.376,0.025 0.751,0.048 1.127,0.069 0.686,-1.187 1.39,-2.38 2.106,-3.581 l 0,-0.009 C 2.322,-2.802 1.94,-2.817 1.561,-2.833"
             style="fill:#ffffff;fill-opacity:1;fill-rule:nonzero;stroke:none"
             id="path3496"
             inkscape:connector-curvature="0" />
        </g>
        <g
           id="g3498"
           transform="translate(549.3453,764.7103)">
          <path
             d="M 0,0 C -1.291,0.095 -2.588,0.163 -3.89,0.201 -4.146,0.21 -4.317,0.351 -4.321,0.564 -4.33,0.872 -4.338,1.18 -4.345,1.487 -3.979,1.478 -3.613,1.464 -3.25,1.449 c 0.008,-0.206 0.015,-0.41 0.022,-0.615 0.84,-0.033 1.68,-0.078 2.516,-0.132 -0.009,0.174 -0.018,0.351 -0.027,0.528 -1.12,0.369 -2.236,0.72 -3.35,1.052 -0.219,0.06 -0.281,0.158 -0.285,0.326 -0.008,0.319 -0.017,0.635 -0.025,0.954 -0.006,0.211 0.152,0.339 0.4,0.332 1.27,-0.046 2.535,-0.118 3.793,-0.216 C 0.037,3.66 0.197,3.518 0.209,3.312 0.226,3.034 0.243,2.757 0.262,2.479 -0.096,2.506 -0.455,2.533 -0.812,2.558 -0.823,2.733 -0.831,2.907 -0.841,3.081 -1.662,3.139 -2.485,3.184 -3.311,3.219 -3.305,3.068 -3.301,2.917 -3.295,2.768 -2.187,2.43 -1.077,2.073 0.037,1.697 0.243,1.628 0.321,1.515 0.331,1.351 0.352,1.008 0.375,0.663 0.397,0.318 0.41,0.105 0.255,-0.018 0,0"
             style="fill:#ffffff;fill-opacity:1;fill-rule:nonzero;stroke:none"
             id="path3500"
             inkscape:connector-curvature="0" />
        </g>
        <g
           id="g3502"
           transform="translate(564.1968,762.481)">
          <path
             d="M 0,0 C -1.362,0.315 -2.717,0.594 -4.065,0.841 -4.312,0.886 -4.473,1.049 -4.499,1.266 -4.618,2.288 -4.737,3.312 -4.853,4.344 -4.879,4.564 -4.751,4.68 -4.51,4.638 -3.181,4.411 -1.846,4.15 -0.503,3.855 -0.256,3.802 -0.076,3.623 -0.046,3.4 0,3.045 0.045,2.692 0.093,2.338 -0.265,2.42 -0.621,2.499 -0.979,2.576 -1.009,2.808 -1.039,3.041 -1.068,3.274 -1.971,3.466 -2.87,3.643 -3.765,3.807 -3.671,3.009 -3.576,2.216 -3.482,1.424 -2.579,1.253 -1.669,1.067 -0.76,0.867 -0.79,1.11 -0.821,1.355 -0.854,1.599 -0.495,1.521 -0.137,1.44 0.222,1.358 0.27,0.993 0.319,0.628 0.365,0.264 0.395,0.043 0.251,-0.057 0,0"
             style="fill:#ffffff;fill-opacity:1;fill-rule:nonzero;stroke:none"
             id="path3504"
             inkscape:connector-curvature="0" />
        </g>
        <g
           id="g3506"
           transform="translate(569.8419,761.0573)">
          <path
             d="M 0,0 C -0.259,1.336 -0.514,2.656 -0.77,3.964 -0.423,3.864 -0.076,3.761 0.27,3.657 0.538,2.342 0.809,1.013 1.083,-0.331 0.721,-0.218 0.36,-0.107 0,0"
             style="fill:#ffffff;fill-opacity:1;fill-rule:nonzero;stroke:none"
             id="path3508"
             inkscape:connector-curvature="0" />
        </g>
        <g
           id="g3510"
           transform="translate(577.5983,761.5921)">
          <path
             d="m 0,0 c 0.275,-1.128 0.555,-2.282 0.842,-3.458 -0.367,0.16 -0.729,0.315 -1.09,0.466 -0.262,1.146 -0.52,2.269 -0.774,3.37 C -1.615,0.593 -2.199,0.796 -2.77,0.988 -2.823,1.237 -2.874,1.484 -2.924,1.73 -1.461,1.259 0.085,0.71 1.715,0.077 1.789,-0.2 1.865,-0.476 1.94,-0.756 1.277,-0.488 0.632,-0.237 0,0"
             style="fill:#ffffff;fill-opacity:1;fill-rule:nonzero;stroke:none"
             id="path3512"
             inkscape:connector-curvature="0" />
        </g>
        <g
           id="g3514"
           transform="translate(586.9073,755.866)">
          <path
             d="m 0,0 c 0.152,-0.505 0.362,-1.293 0.515,-1.8 -0.371,0.202 -0.736,0.4 -1.1,0.593 -0.144,0.496 -0.276,1.076 -0.422,1.569 C -1.975,1.631 -2.984,3.05 -3.887,4.227 -3.89,4.238 -3.891,4.25 -3.894,4.259 -3.549,4.109 -2.756,3.755 -2.402,3.595 -1.725,2.693 -1.063,1.724 -0.614,1.176 -0.197,1.626 0.32,2.3 0.32,2.3 0.32,2.3 0.941,1.974 1.345,1.766 1.349,1.753 1.353,1.742 1.356,1.728 0.907,1.145 0.455,0.567 0,0"
             style="fill:#ffffff;fill-opacity:1;fill-rule:nonzero;stroke:none"
             id="path3516"
             inkscape:connector-curvature="0" />
        </g>
        <g
           id="g3518"
           transform="translate(542.0266,700.394)">
          <path
             d="M 0,0 0,9.268 C -17.14,8.467 -32.764,2.892 -45.038,-5.911 c 1.072,-2.546 2.337,-5.051 3.782,-7.511 C -29.901,-5.793 -15.641,-0.901 0,0"
             style="fill:#91b0d5;fill-opacity:1;fill-rule:nonzero;stroke:none"
             id="path3520"
             inkscape:connector-curvature="0" />
        </g>
        <g
           id="g3522"
           transform="translate(492.2111,717.8439)">
          <path
             d="m 0,0 c 9.476,6.372 20.499,11.009 32.485,13.382 -2.582,3.063 -5.022,5.879 -7.354,8.487 C 16.712,19.608 8.817,16.215 1.643,11.882 0.596,7.538 0.05,3.781 0,0"
             style="fill:#91b0d5;fill-opacity:1;fill-rule:nonzero;stroke:none"
             id="path3524"
             inkscape:connector-curvature="0" />
        </g>
        <g
           id="g3526"
           transform="translate(529.671,725.2335)">
          <path
             d="m 0,0 c -13.818,-2.18 -26.44,-7.422 -36.942,-14.91 0.309,-2.149 0.751,-4.418 1.33,-6.897 0.181,-0.775 0.384,-1.546 0.602,-2.314 11.657,8.337 26.173,13.854 42.134,15.299 C 4.637,-5.701 2.265,-2.763 0,0"
             style="fill:#91b0d5;fill-opacity:1;fill-rule:nonzero;stroke:none"
             id="path3528"
             inkscape:connector-curvature="0" />
        </g>
        <g
           id="g3530"
           transform="translate(542.0266,659.3462)">
          <path
             d="M 0,0 C -4.036,-0.497 -7.927,-1.271 -11.625,-2.286 -6.346,-5.766 -2.026,-8.001 0,-8.991 L 0,0 Z"
             style="fill:#91b0d5;fill-opacity:1;fill-rule:nonzero;stroke:none"
             id="path3532"
             inkscape:connector-curvature="0" />
        </g>
        <g
           id="g3534"
           transform="translate(542.0266,684.017)">
          <path
             d="M 0,0 0,8.93 C -14.061,7.916 -26.925,3.622 -37.355,-2.986 c 1.594,-2.192 3.337,-4.343 5.215,-6.456 C -22.933,-4.346 -11.943,-0.986 0,0"
             style="fill:#91b0d5;fill-opacity:1;fill-rule:nonzero;stroke:none"
             id="path3536"
             inkscape:connector-curvature="0" />
        </g>
        <g
           id="g3538"
           transform="translate(542.0266,667.5921)">
          <path
             d="M 0,0 0,8.59 C -9.74,7.633 -18.789,5.081 -26.637,1.301 c 2.289,-2.166 4.605,-4.149 6.876,-5.948 C -13.722,-2.358 -7.062,-0.759 0,0"
             style="fill:#91b0d5;fill-opacity:1;fill-rule:nonzero;stroke:none"
             id="path3540"
             inkscape:connector-curvature="0" />
        </g>
        <g
           id="g3542"
           transform="translate(569.7823,649.8273)">
          <path
             d="m 0,0 0,-3.666 -0.432,0 0,3.666 -1.173,0 0,0.387 2.779,0 L 1.174,0 0,0 Z"
             style="fill:#9fa1a4;fill-opacity:1;fill-rule:nonzero;stroke:none"
             id="path3544"
             inkscape:connector-curvature="0" />
        </g>
        <g
           id="g3546"
           transform="translate(574.7535,646.1615)">
          <path
             d="m 0,0 0,3.079 -1.11,-2.441 -0.37,0 -1.127,2.441 0,-3.079 -0.432,0 0,4.052 0.432,0 L -1.286,1.179 0,4.052 0.433,4.052 0.433,0 0,0 Z"
             style="fill:#9fa1a4;fill-opacity:1;fill-rule:nonzero;stroke:none"
             id="path3548"
             inkscape:connector-curvature="0" />
        </g>
      </g>
    </g>
  </g>
</svg>
