<?xml version="1.0" encoding="utf-8"?>
<!-- Generator: Adobe Illustrator 17.1.0, SVG Export Plug-In . SVG Version: 6.00 Build 0)  -->
<!DOCTYPE svg PUBLIC "-//W3C//DTD SVG 1.1//EN" "http://www.w3.org/Graphics/SVG/1.1/DTD/svg11.dtd">
<svg version="1.1" id="Layer_33" xmlns="http://www.w3.org/2000/svg" xmlns:xlink="http://www.w3.org/1999/xlink" x="0px" y="0px"
	 viewBox="0 0 591 168" enable-background="new 0 0 591 168" xml:space="preserve">
<g>
	<path fill="#FFFFFF" d="M254.4,97.5l-3.9-4.1c-0.7-0.7-0.9-1.9-0.5-3.1l0.7-2.3l5.5,4.6l-1-7.8L253,66.2h-17
		c-7.8,0-14.2,6.2-14.2,13.8v4.5c0,3.2,1.2,6.4,3.4,8.9l5,5.3c0.7,0.7,0.9,1.9,0.5,3.1l-1.7,5.3l5.4-1.5c1-0.3,2.1-0.2,2.4,0.1
		l2.1,2.2l0,3.5h-8.8c-1.1,0-2.2-0.5-2.7-1.4l-3.3-5.9l0,0l-0.9-1.7l-2.2,3.2l0,0l-3,4.2c-0.4,0.6-1.9,1.5-3.3,1.5H210v-7.9
		c0-1,0.6-1.9,1.7-2.5l4.9-2.6l-4.9-2.7c-1.1-0.6-1.7-1.5-1.7-2.5V74.9c0-1.4,0.5-2.7,1.3-3.4l6.1-5.3l-30.9,0l0,0h-38.9l6,5.3
		c0.8,0.7,1.3,2,1.3,3.4v16.6h-4.3l-3-25.2h-21c-7.8,0-14.2,6.2-14.2,13.8v13c0,1-0.7,1.9-1.8,2.5l-1.4,0.7l-1.3-0.7
		c-1.1-0.6-1.7-1.5-1.7-2.5V74.9c0-1.4,0.5-2.7,1.3-3.4l6.1-5.3H99.9l0.1-0.1l-39.6,0.1l6.1,5.3c0.8,0.7,1.3,2,1.3,3.4V93
		c0,1-0.7,1.9-1.8,2.5l-4.9,2.7l4.9,2.6c1.1,0.6,1.7,1.5,1.7,2.5v18.1c0,1.2-0.4,2.4-1,3.1c-1.6-1.1-2.9-3-3.5-5.1L57,97.5
		c-0.3-1,0.2-2.2,1.3-3.2l4-3.6l-5.2-1.6c-1.8-0.5-3.1-1.7-3.5-3l-1.9-6.6c5.4-2.3,8.4-5.9,8.4-10c0-5.6-5.8-10.2-14.8-11.9L42,46.2
		L37.4,32l-7.8,25.7c-9,1.8-14.8,6.4-14.8,11.9c0,4.1,3,7.7,8.4,10l-1.9,6.5c-0.4,1.3-1.7,2.4-3.5,3l-5.1,1.6l4,3.6
		c1.1,1,1.6,2.2,1.3,3.2l-6.4,21.8c-0.6,2.1-2,4-3.6,5.2L0,130h60.2l0,0h53.5l-6.3-5.3c-0.8-0.7-1.2-1.9-1.2-3.3v-18.1
		c0-1,0.6-2,1.7-2.5l1.4-0.7l1.4,0.7c1.1,0.6,1.7,1.5,1.7,2.5v13c0,7.6,6.4,13.8,14.2,13.8h20.8h3.5h32.8h3.2H222l0.9-9.8l1.2,9.8
		h19.6c7.8,0,14.2-6.2,14.2-13.8l0-9.9C257.8,103.1,256.6,100,254.4,97.5z M246.3,86.5c-1.1,0.3-2.2,0.1-2.9-0.7l-0.8-0.8h4.3
		c0.8,0,1.5,0.2,2.1,0.7L246.3,86.5z M189.9,71.5c0.8,0.7,1.3,2,1.3,3.4V93c0,1-0.7,1.9-1.7,2.5l-4.9,2.7l4.8,2.6l-4.9,7.1V88.6
		l3.5,4.1l-1.3-24L189.9,71.5z M131.2,91.5V85h10.2c1.2,0,2.2,0.5,2.9,1.7l4.2,4.7H131.2z M175.8,86h-2V85h5
		C178.1,85.6,176.9,86,175.8,86z M182.6,110.2c-0.7,0.5-1.8,1.1-2.8,1.1h-6v-6.4h2c1.4,0,2.7,0.5,3.3,1.3L182.6,110.2z M34.4,124.6
		c-1-0.8-1.4-2-1.1-3.3h8.4c0.3,1.3-0.1,2.5-1.1,3.3l-3.1,2.4L34.4,124.6z M150.9,100.1c0-0.2,0.1-0.3,0.1-0.5l2.2,1.2
		c1.1,0.6,1.8,1.6,1.8,2.5v18.1c0,1.4-0.5,2.7-1.2,3.3l-2.8,2.3V100.1z M189.5,100.8c1,0.6,1.7,1.5,1.7,2.5v18.1
		c0,1.4-0.5,2.7-1.2,3.3l-2.7,2.3L189.5,100.8z"/>
	<path fill="#FFFFFF" d="M584.6,118.8c-1.1,0-2.2,0.4-3.1,0.9l1.7-19.5l-6.4,9.2c-0.4,0.6-1.9,1.5-3.3,1.5h-4.8v-7.9
		c0-1,0.6-1.9,1.7-2.5l4.9-2.6l-4.9-2.7c-1.1-0.6-1.7-1.5-1.7-2.5v-18c0-1.4,0.5-2.6,1.3-3.3l6.3-5.3h-64.4l0,0h-40.7l11.4,5.7
		c0.4,0.2,0.7,0.5,0.9,0.8L477.6,93c-0.2,0.7-1.2,1.7-3,2.3l-4.2,1.3c-0.2-0.4-0.4-0.7-0.6-1c1.8-2.8,4.3-8.6,2.3-16.3
		c-2-7.6-8.5-13.1-15.5-13.1h-28.1h-1.6l0,0h-33.4h-2.6h-14.4c-7.8,0-14.1,6.2-14.1,13.7v4.5c0,3.2,1.2,6.4,3.4,8.9l5,5.2
		c0.7,0.7,0.9,1.8,0.5,3l-1.7,5.3l5.3-1.5c1.1-0.3,2.2-0.1,2.4,0.1l2.1,2.2l0,3.4h-8.7c-1.2,0-2.2-0.6-2.7-1.5l-5.7-11.1l2-1.4
		l-3.2-1l-0.5-0.2l0,0l-2.1-0.6c-1.8-0.5-2.8-1.5-3-2.3c-2.4-8.3-5.2-17.8-6-20.6c0.2-0.2,0.5-0.4,0.8-0.5l7.5-5.7h-34.9l7,5.7
		c0.4,0.2,0.7,0.5,0.9,0.8L324.9,93c-0.2,0.7-1.2,1.7-3,2.3l-4.2,1.3c-0.2-0.4-0.4-0.7-0.6-1c1.8-2.8,4.3-8.6,2.3-16.3
		c-2-7.6-8.5-13.1-15.5-13.1h-32.8l6.3,5.3c0.8,0.6,1.2,1.9,1.2,3.3v18c0,1-0.7,1.9-1.7,2.5l-4.9,2.7l4.9,2.6
		c1.1,0.6,1.7,1.5,1.7,2.5v18c0,1.4-0.5,2.7-1.2,3.3l-6.3,5.3H302c2.5,0,4.7-0.4,6.8-1l-1.2,1l76.6,0c7.8,0,14.2-6.2,14.2-13.7
		l0-9.8c0-1.8-0.4-3.5-1.1-5.1c0.7,0.6,1.2,1.3,1.2,2.1v18c0,1.4-0.5,2.7-1.2,3.3l-6.2,5.3h36.4l0,0h1.1h26.2c2.5,0,4.7-0.4,6.7-1
		l-1.2,0.9h51.5l0,0H547l0,0l33,0c1.2,1.2,2.8,1.9,4.6,1.9c3.5,0,6.4-2.9,6.4-6.4C591,121.7,588.1,118.8,584.6,118.8z M394.2,96.6
		l-3.3-3.4c-0.7-0.7-0.9-1.9-0.5-3l0.7-2.3l5.9,7c-0.2,0.1-0.3,0.3-0.5,0.4L394.2,96.6z M389.4,85.6l-2.6,0.7
		c-1.1,0.3-2.2,0.1-2.9-0.6l-0.8-0.8h4.2C388.1,84.9,388.8,85.1,389.4,85.6z M337.5,122.5h5.4c0,0.7-0.4,1.3-1,1.6l-1.7,1.1
		l-1.7-1.1C338.2,123.9,337.5,123.4,337.5,122.5z M297.6,104.6h2.2c0.5,0,1.6,1.1,1.6,3.2c0,1.9-0.8,2.9-0.9,3h-2.8V104.6z
		 M548.1,100.6c1.1,0.6,1.7,1.5,1.7,2.5v1.2l-3.7,5.2c-0.5,0.6-1.9,1.5-3.3,1.5h-4.8v-7.9c0-1,0.6-1.9,1.7-2.5l4.2-2.2L548.1,100.6z
		 M517.5,100.6c1.1,0.6,1.7,1.5,1.7,2.5v18c0,1.1-0.3,2.2-0.9,2.9c-1-0.9-1.8-2.1-2.2-3.5l-5.2-18.2c-0.2-0.8,1-1.8,1.2-1.9l2.3-1.7
		L517.5,100.6z M491.1,124.1c-0.3-0.2-0.9-0.7-0.9-1.6h5.4c0,1-0.8,1.5-0.9,1.6l-1.7,1.1L491.1,124.1z M454,107.8
		c0,1.9-0.8,2.9-0.9,3h-2.8v-6.1h2.2C452.8,104.6,454,105.5,454,107.8z M431.3,74.7V92l-1.1-20.5C430.8,72.2,431.3,73.4,431.3,74.7z
		 M431.3,92.3v0.4c0,1-0.6,1.9-1.7,2.5l-1.7,0.9v-7.8L431.3,92.3z M429.5,100.6c0.9,0.5,1.5,1.2,1.7,2.1l-3.4,4.9v-7.9L429.5,100.6z
		 M431.3,118.8v2.3c0,0.7-0.1,1.4-0.4,2L431.3,118.8z M419.2,85.8h-2v-0.9h5C421.4,85.4,420.3,85.8,419.2,85.8z M426,109.9
		c-0.7,0.5-1.7,1-2.8,1h-6v-6.4h2c1.4,0,2.7,0.5,3.3,1.3L426,109.9z M548.6,71.4c0.8,0.6,1.3,1.9,1.3,3.3v18c0,1-0.7,1.9-1.8,2.5
		l-4.2,2.3l-4.2-2.3c-1.1-0.6-1.7-1.5-1.7-2.5v-18c0-1.4,0.5-2.6,1.2-3.3l4.7-4L548.6,71.4z M512.7,66.9l5.3,4.5
		c0.8,0.6,1.3,1.9,1.3,3.3v18c0,1-0.7,1.9-1.7,2.5l-2.2,1.2l-4.1-1.3c-1.8-0.5-2.8-1.5-3-2.2c-3.1-10.5-5.3-18.2-6-20.6
		c0.2-0.2,0.5-0.4,0.7-0.5L512.7,66.9z M473.7,100.5c0.1,0.1,1.4,1.1,1.2,1.9l-1,3.5c-0.5-2.6-1.2-4.9-2.1-6.8L473.7,100.5z
		 M397.2,71.4c0.8,0.6,1.2,1.9,1.2,3.3v18c0,0.8-0.5,1.5-1.3,2.1l-3.3-26.3L397.2,71.4z M363.5,120.5l-5.2-18.1
		c-0.2-0.8,1-1.8,1.2-1.9l1.6-1.2L363.5,120.5z M321,100.5c0.1,0,1.4,1,1.2,1.9l-1,3.4c-0.5-2.6-1.2-4.9-2.1-6.7L321,100.5z"/>
</g>
<g>
	<g>
		<path fill="#003263" d="M307.5,111.9c0.7-2.7,0.4-4.4,0.2-5.7c0-0.2-0.1-0.4-0.1-0.6c-0.2-0.7-0.5-1.4-0.8-2.1
			c-0.6-1.2-1.5-2.3-2.5-3.2c0,0-0.1-0.1-0.1-0.1c-2-1.4-4-1.7-5-1.7h-7.8v18.8h9.8c0.8,0,1.7-0.3,2.7-0.8
			C304.4,116.1,306.9,114.3,307.5,111.9z M300.4,113.7c-1.9,0-5.8,0-5.8,0v-12.2c0,0,3.3,0,5.2,0c2.3,0,4.6,2.5,4.6,6.2
			C304.4,111.4,302.2,113.7,300.4,113.7z"/>
		<path fill="#003263" d="M305.2,81.3c-0.7-1.2-2.1-2.8-4.1-2.8h-9.9v13.3h9c0.3,0,0.6,0,0.8-0.1C306.7,90.5,306.9,84.3,305.2,81.3z
			 M299.5,89.3c-1.6,0-4.9,0-4.9,0v-7.9c0,0,3.4,0,5,0c1.6,0,3,1.7,3,4.1S301,89.3,299.5,89.3z"/>
		<path fill="#003263" d="M313.3,95.5c0,0,5.7-6,3.1-15.6c-1.7-6.5-7.2-10.8-12.6-10.8h-24.5c1.4,1.2,2.3,3.2,2.3,5.6v18
			c0,2.2-1.3,4.1-3.3,5.2c2,1.1,3.3,3,3.3,5.2v18c0,2.4-0.9,4.4-2.3,5.6H302c6.8,0,12.2-2.7,14.9-9
			C322.2,105.6,313.3,95.5,313.3,95.5z M315.6,112.5c-0.8,4.9-3.1,7.8-5.7,9.5l0,0c-0.2,0.2-0.5,0.3-0.7,0.4
			c-0.2,0.1-0.4,0.2-0.6,0.3c-0.3,0.2-0.6,0.3-0.9,0.4c-0.4,0.2-0.9,0.4-1.3,0.5c-0.2,0.1-0.4,0.1-0.6,0.2c-0.7,0.2-1.3,0.3-1.9,0.4
			c0,0,0,0,0,0c-1,0.1-1.8,0.2-2.3,0.2h-2.4l-16.4,0l-0.1,0c1-1,1.4-2,1.4-3V102c0-1.8-1-3.2-2.7-4.1c1.8-1.1,2.7-2.4,2.7-4.1V74.4
			c0-1-0.4-2-1.3-3l0.1,0.1l-0.1-0.2h20.4c3.8,0,7.3,3.4,8.1,4.7c1.3,2,2.7,5.6,2.7,9.3c0,3.5-1.2,7.2-4.8,10
			c1.5,1.2,6.7,5.9,6.7,13.8C315.9,110.3,315.8,111.4,315.6,112.5z"/>
		<path fill="#BA0021" d="M299.3,124.5h2.4c0.5,0,1.4,0,2.3-0.2c-0.8,0.1-1.5,0.2-2.4,0.2H299.3z"/>
		<path fill="#BA0021" d="M309.2,95.4c3.6-2.8,4.8-6.5,4.8-10c0-3.8-1.4-7.3-2.7-9.3c-0.8-1.3-4.3-4.7-8.1-4.7h-20.4l0.1,0.2l1,0.8
			l3.5,2.8h14.1c3.1,0,7,3.5,7.9,6.5c0.9,3.1,0.4,7.6-1.5,9.8c-1.2,1.4-2.1,2.1-2.1,2.1c-1.7-0.9-4.6-1.6-5.1-1.7c0,0,0,0,0,0
			l-0.1,0c0,0,0,0,0.1,0c0.1,0,0.2-0.1,0.3-0.1c-0.3,0-0.5,0.1-0.8,0.1h-9V78.5h0l-3.7-3.4v20c0,0,12.4,0,13,0
			c3.8,0,7.1,2.4,8.9,5.3c1.8,2.8,3.8,9.5,1.6,13.9c-1.4,2.9-4,5.1-4,5.1l-3.3-2.9c0,0,0,0,0.1-0.1c-0.9,0.5-1.8,0.8-2.7,0.8h-9.8
			V98.5l-3.8-3.4v25.5h13.5c4.1,0,5.9-1.3,5.9-1.3l2.6,2.3l0.3,0.3c2.5-1.7,4.8-4.6,5.7-9.5c0.2-1.2,0.3-2.2,0.3-3.3
			C315.9,101.3,310.7,96.6,309.2,95.4z"/>
		<path fill="#BA0021" d="M304.2,100.3c0,0-0.1,0-0.1-0.1C304.2,100.3,304.2,100.3,304.2,100.3C304.3,100.4,304.2,100.4,304.2,100.3
			z"/>
		<path fill="#862633" d="M307,119.4c0,0-1.8,1.3-5.9,1.3h-13.5V95.2v-20l-3.5-2.8l-1-0.8l-0.1-0.1c0.9,1,1.3,2,1.3,3v19.4
			c0,1.8-1,3.1-2.7,4.1c1.7,1,2.7,2.3,2.7,4.1v19.4c0,1-0.3,1.9-1.4,3l0.1,0l16.4,0h2.3c0.8,0,1.6-0.1,2.4-0.2c0,0,0,0,0,0
			c0.6-0.1,1.2-0.2,1.9-0.4c0.2-0.1,0.4-0.1,0.6-0.2c0.4-0.1,0.9-0.3,1.3-0.5c0.3-0.1,0.6-0.3,0.9-0.4c0.2-0.1,0.4-0.2,0.6-0.3
			c0.2-0.1,0.5-0.2,0.7-0.4l0,0l-0.3-0.3L307,119.4z"/>
		<path fill="#862633" d="M299.1,98.5c1,0,3,0.4,5,1.7c0,0,0.1,0,0.1,0.1c0,0,0,0,0,0c1,0.9,1.8,1.9,2.5,3.2
			c0.3,0.6,0.6,1.4,0.8,2.1c0,0.2,0.1,0.4,0.1,0.6c0.2,1.2,0.5,3-0.2,5.7c-0.6,2.4-3.1,4.2-3.7,4.6c-0.1,0-0.1,0.1-0.1,0.1l3.3,2.9
			c0,0,2.6-2.2,4-5.1c2.2-4.4,0.2-11.1-1.6-13.9c-1.8-2.9-5-5.3-8.9-5.3c-0.5,0-13,0-13,0l3.8,3.4H299.1z"/>
		<path fill="#862633" d="M291.3,78.5h9.9c2,0,3.4,1.6,4.1,2.8c1.7,3,1.5,9.1-4.1,10.4c-0.1,0-0.2,0-0.3,0.1
			c0.5,0.1,3.4,0.9,5.1,1.7c0,0,0.9-0.8,2.1-2.1c1.9-2.2,2.4-6.6,1.5-9.8c-0.8-3-4.7-6.5-7.9-6.5h-14.1L291.3,78.5L291.3,78.5z"/>
		<path fill="#862633" d="M300.8,91.8C300.8,91.8,300.8,91.8,300.8,91.8C300.7,91.8,300.7,91.8,300.8,91.8L300.8,91.8z"/>
		<path fill="#003263" d="M423.2,114h-9v-12.4h5c2.4,0,4.4,0.9,5.6,2.3V86.5c-1.2,1.4-3.3,2.3-5.6,2.3h-5v-6.9h8.1
			c2.4,0,4.5,0.8,5.6,2L427,69.1h-27.9c1.4,1.2,2.3,3.2,2.3,5.6v18c0,2.2-1.3,4.1-3.3,5.2c2,1.1,3.3,3,3.3,5.2v18
			c0,2.4-0.9,4.4-2.3,5.6h28.5l1.3-15.5C428,112.5,425.6,114,423.2,114z M424.8,123.7h-21.3c0.6-0.7,0.9-1.6,0.9-2.6V102
			c0-1.8-1-3.3-2.3-4c1.3-0.8,2.3-2.3,2.3-4.1V74.7c0-1-0.3-1.9-0.9-2.5h20.6l0.5,7.7c0,0-1-1-3.3-1h-10.2v13.1h8.1
			c1,0,1.9-0.4,2.6-0.9v8.5c-0.7-0.6-1.6-0.9-2.6-0.9h-8.1V117h11.1c2.2,0,3.3-1,3.3-1L424.8,123.7z"/>
		<path fill="#BA0021" d="M411.1,117V98.5l-3.3-3.3v25.2h14.7l2.4,3.3l0.7-7.7c0,0-1.1,1-3.3,1H411.1z"/>
		<polygon fill="#BA0021" points="421.7,75.5 424.6,79.8 424.2,72.2 403.6,72.2 407.8,75.5 		"/>
		<path fill="#BA0021" d="M407.8,95.2h11.1l2.9,4.2V91c-0.7,0.6-1.6,0.9-2.6,0.9h-8.1V78.8l-3.3-3.3V95.2z"/>
		<path fill="#862633" d="M407.8,120.4V95.2V75.5l-4.2-3.3c0.6,0.7,0.9,1.6,0.9,2.5v19.1c0,1.7-1,3.3-2.3,4.1c1.3,0.8,2.3,2.3,2.3,4
			v19.1c0,1-0.3,1.9-0.9,2.6h21.3l-2.4-3.3H407.8z"/>
		<path fill="#862633" d="M407.8,95.2l3.3,3.3h8.1c1,0,1.9,0.3,2.6,0.9l-2.9-4.2H407.8z"/>
		<path fill="#862633" d="M407.8,75.5l3.3,3.3h10.2c2.2,0,3.3,1,3.3,1l-2.9-4.3H407.8z"/>
		<path fill="#003263" d="M392.7,99.3l-3.8-4c-1.5-1.6-1.9-3.9-1.2-6c-2.2,0.6-4.4,0.1-5.9-1.5l-3.3-3.4c-0.4-0.4-0.3-0.7-0.3-0.7
			v-0.6c0-0.6,0.5-1.2,1.2-1.2h8c2.4,0,4.4,1.3,5.3,3.1l-1.9-15.9h-14.3c-6.1,0-11.1,4.8-11.1,10.7v4.5c0,2.5,0.9,5,2.6,6.9l5,5.2
			c1.5,1.6,1.9,3.9,1.2,6c1.9-0.5,4.1-0.4,5.4,0.9l2.6,2.8c0.2,0.2,0.3,0.5,0.3,0.8l0,6c0,0.7-0.5,1.2-1.2,1.2h-10.6
			c-2.4,0-4.4-1.3-5.4-3.1l1.9,15.8h16.9c6.2,0,11.2-4.8,11.2-10.7l0-9.8C395.2,103.6,394.3,101.2,392.7,99.3z M390,121.2L390,121.2
			c0,0.1-0.1,0.1-0.1,0.1c-0.1,0-0.1,0.1-0.1,0.1c-0.1,0.1-0.3,0.3-0.4,0.4c0,0-0.1,0.1-0.1,0.1c-0.1,0.1-0.3,0.2-0.5,0.3
			c-0.1,0-0.1,0.1-0.2,0.1c-0.2,0.1-0.3,0.2-0.5,0.3c-0.1,0-0.1,0-0.2,0.1c-0.2,0.1-0.4,0.2-0.5,0.3c-0.1,0-0.1,0-0.2,0.1
			c-0.2,0.1-0.4,0.1-0.5,0.2c-0.1,0-0.2,0.1-0.3,0.1c-0.2,0-0.3,0.1-0.5,0.1c-0.1,0-0.3,0-0.4,0.1c-0.1,0-0.3,0-0.4,0
			c-0.3,0-0.6,0-0.8,0H370l-0.9-7.7c0.7,0.9,1.7,1,2.2,1h11c1,0,2-0.5,2.6-1.3c0.1-0.1,0.1-0.1,0.2-0.2c0-0.1,0.1-0.2,0.1-0.2
			c0.1-0.1,0.1-0.2,0.2-0.3c0-0.1,0.1-0.2,0.1-0.3c0-0.1,0.1-0.2,0.1-0.3c0-0.2,0.1-0.4,0.1-0.6l0-7.3c0-0.9-0.4-1.7-0.9-2.3
			l-3.6-3.8c-1-1-2.6-1.1-3.9-0.8c0.4-1.4,0.2-3.1-0.9-4.2l-5.9-6.1c-1.2-1.3-1.9-3-1.9-4.9v-4.5c0-0.3,0-0.5,0-0.8
			c0-0.1,0-0.1,0-0.2c0-0.2,0-0.4,0.1-0.5c0-0.1,0-0.2,0.1-0.2c0-0.2,0.1-0.3,0.1-0.5c0-0.1,0.1-0.2,0.1-0.2
			c0.1-0.1,0.1-0.3,0.2-0.5c0-0.1,0.1-0.1,0.1-0.2c0.1-0.2,0.1-0.3,0.2-0.5c0,0,0.1-0.1,0.1-0.2c0.1-0.2,0.2-0.3,0.3-0.5
			c0,0,0.1-0.1,0.1-0.2c0.1-0.2,0.2-0.3,0.4-0.5c0,0,0-0.1,0.1-0.1c0.1-0.1,0.1-0.1,0.2-0.2h0c1.5-1.6,3.6-2.6,6-2.6h11.6l0.9,7.7
			c-0.7-0.9-1.7-1-2.2-1h-8.4c-0.2,0-0.5,0-0.7,0.1c-0.1,0-0.2,0.1-0.3,0.1c-0.1,0-0.3,0.1-0.4,0.1c-0.1,0-0.2,0.1-0.3,0.1
			c-0.1,0.1-0.2,0.1-0.3,0.2c-0.1,0.1-0.2,0.1-0.2,0.2c-0.1,0.1-0.2,0.2-0.3,0.3c-0.5,0.6-0.8,1.3-0.8,2.2V84c0,0.9,0.4,1.7,1,2.3
			l4.2,4.4c1.2,1.2,3,1.6,4.5,1.3c-0.4,1.5-0.1,3.3,1.1,4.6l4.5,4.7c1.2,1.3,1.9,3,1.9,4.9l0,9.8C392.2,118,391.4,119.9,390,121.2z"
			/>
		<path fill="#BA0021" d="M377.5,75.5h8.5l3,4.3l-0.9-7.7h-11.6c-2.4,0-4.6,1-6,2.6l2.7,2.6C374.3,76.2,375.8,75.5,377.5,75.5z"/>
		<path fill="#BA0021" d="M383.2,120.4c1.6,0,3.1-0.7,4.1-1.7l-2.7-2.6c0.1-0.1,0.1-0.2,0.2-0.2c-0.6,0.8-1.5,1.3-2.6,1.3h-11
			c-0.5,0-1.6-0.2-2.2-1l3.1,4.4L383.2,120.4z"/>
		<path fill="#BA0021" d="M390.4,101.3l-4.5-4.7c-1.2-1.3-1.5-3.1-1.1-4.6c-1.5,0.3-3.3-0.1-4.5-1.3l-4.2-4.4c-0.6-0.6-1-1.4-1-2.3
			v-1.9c0-0.8,0.3-1.6,0.8-2.2c0,0-0.1,0.1-0.1,0.1l-2.6-2.7c-0.9,1-1.5,2.3-1.5,3.6v3.2c0,1.4,0.5,2.7,1.4,3.6l14.3,15
			c0.9,1,1.4,2.2,1.4,3.6l0,8.6c0,1.4-0.6,2.8-1.6,3.8l2.7,2.6c1.4-1.4,2.2-3.2,2.2-5.2l0-9.8C392.2,104.3,391.5,102.6,390.4,101.3z
			"/>
		<path fill="#862633" d="M377.5,75.5c-1.7,0-3.2,0.7-4.2,1.8l2.6,2.7c0,0,0.1-0.1,0.1-0.1c0.1-0.1,0.2-0.2,0.3-0.3
			c0.1-0.1,0.1-0.1,0.2-0.2c0.1-0.1,0.2-0.1,0.3-0.2c0.1,0,0.2-0.1,0.3-0.1c0.1-0.1,0.3-0.1,0.4-0.1c0.1,0,0.2-0.1,0.3-0.1
			c0.2,0,0.5-0.1,0.7-0.1h8.4c0.5,0,1.6,0.2,2.2,1l-3-4.3H377.5z"/>
		<path fill="#862633" d="M387.3,118.6c1-1,1.6-2.3,1.6-3.8l0-8.6c0-1.4-0.5-2.6-1.4-3.6l-14.3-15c-0.9-0.9-1.4-2.2-1.4-3.6V81
			c0-1.4,0.6-2.7,1.5-3.6l-2.7-2.6h0c-0.1,0.1-0.1,0.1-0.2,0.2c0,0,0,0.1-0.1,0.1c-0.1,0.2-0.3,0.3-0.4,0.5c0,0.1-0.1,0.1-0.1,0.2
			c-0.1,0.2-0.2,0.3-0.3,0.5c0,0.1-0.1,0.1-0.1,0.2c-0.1,0.2-0.2,0.3-0.2,0.5c0,0.1-0.1,0.1-0.1,0.2c-0.1,0.2-0.1,0.3-0.2,0.5
			c0,0.1-0.1,0.2-0.1,0.2c0,0.2-0.1,0.3-0.1,0.5c0,0.1,0,0.1-0.1,0.2c0,0.2-0.1,0.3-0.1,0.5c0,0.1,0,0.1,0,0.2c0,0.3,0,0.5,0,0.8
			v4.5c0,1.8,0.7,3.6,1.9,4.9l5.9,6.1c1.1,1.2,1.3,2.9,0.9,4.2c1.3-0.3,2.9-0.2,3.9,0.8l3.6,3.8c0.6,0.6,0.9,1.4,0.9,2.3l0,7.3
			c0,0.2,0,0.4-0.1,0.6c0,0.1-0.1,0.2-0.1,0.3c0,0.1,0,0.2-0.1,0.3c0,0.1-0.1,0.2-0.2,0.3c0,0.1-0.1,0.2-0.1,0.2
			c-0.1,0.1-0.1,0.1-0.2,0.2c-0.1,0.1-0.1,0.2-0.2,0.2L387.3,118.6z"/>
		<path fill="#862633" d="M383.2,120.4l-11.1,0l-3.1-4.4l0.9,7.7h14.2c0.3,0,0.6,0,0.8,0c0.1,0,0.3,0,0.4,0c0.1,0,0.3,0,0.4-0.1
			c0.2,0,0.3-0.1,0.5-0.1c0.1,0,0.2-0.1,0.3-0.1c0.2-0.1,0.3-0.1,0.5-0.2c0.1,0,0.1-0.1,0.2-0.1c0.2-0.1,0.4-0.2,0.5-0.3
			c0.1,0,0.1-0.1,0.2-0.1c0.2-0.1,0.3-0.2,0.5-0.3c0.1,0,0.1-0.1,0.2-0.1c0.2-0.1,0.3-0.2,0.5-0.3c0.1,0,0.1-0.1,0.1-0.1
			c0.2-0.1,0.3-0.2,0.4-0.4c0,0,0.1-0.1,0.1-0.1c0,0,0.1-0.1,0.1-0.1v0l-2.7-2.6C386.3,119.7,384.8,120.4,383.2,120.4z"/>
		<path fill="#003263" d="M573.5,114h-7.9v-10.9c0-2.2,1.3-4.1,3.3-5.2c-2-1.1-3.3-3-3.3-5.2v-18c0-2.4,0.9-4.4,2.3-5.6h-17.4
			c1.4,1.2,2.3,3.2,2.3,5.6v18c0,2.2-1.3,4.1-3.3,5.2c2,1.1,3.3,3,3.3,5.2v18c0,2.4-0.9,4.4-2.3,5.6h27.3l1.3-15.5
			C578.3,112.5,575.9,114,573.5,114z M575.3,123.7h-20.1c0.6-0.7,0.9-1.6,0.9-2.6V102c0-1.8-1-3.3-2.3-4c1.3-0.8,2.3-2.3,2.3-4.1
			V74.7c0-1-0.3-1.9-0.9-2.5h8.5c-0.6,0.7-0.9,1.6-0.9,2.5v19.1c0,1.7,1,3.3,2.3,4.1c-1.3,0.8-2.3,2.3-2.3,4V117h9.9
			c2.2,0,3.3-1,3.3-1L575.3,123.7z"/>
		<path fill="#BA0021" d="M562.7,117V102c0-1.8,1-3.3,2.3-4c-1.3-0.8-2.3-2.3-2.3-4.1V74.7c0-1,0.3-1.9,0.9-2.5h-8.5l4.2,3.3v44.9
			h13.5l2.4,3.3l0.7-7.7c0,0-1.1,1-3.3,1H562.7z"/>
		<path fill="#862633" d="M559.4,120.4V75.5l-4.2-3.3c0.6,0.7,0.9,1.6,0.9,2.5v19.1c0,1.7-1,3.3-2.3,4.1c1.3,0.8,2.3,2.3,2.3,4v19.1
			c0,1-0.3,1.9-0.9,2.6h20.1l-2.4-3.3H559.4z"/>
		<path fill="#003263" d="M542.9,114H535v-10.9c0-2.2,1.3-4.1,3.3-5.2c-2-1.1-3.3-3-3.3-5.2v-18c0-2.4,0.9-4.4,2.3-5.6H520
			c1.4,1.2,2.3,3.2,2.3,5.6v18c0,2.2-1.3,4.1-3.3,5.2c2,1.1,3.3,3,3.3,5.2v18c0,2.4-0.9,4.4-2.3,5.6h27.3l1.4-15.5
			C547.7,112.5,545.3,114,542.9,114z M544.7,123.7h-20.1c0.6-0.7,0.9-1.6,0.9-2.6V102c0-1.8-1-3.3-2.3-4c1.3-0.8,2.3-2.3,2.3-4.1
			V74.7c0-1-0.3-1.9-0.9-2.5h8.5c-0.6,0.7-0.9,1.6-0.9,2.5v19.1c0,1.7,1,3.3,2.3,4.1c-1.3,0.8-2.3,2.3-2.3,4V117h9.9
			c2.2,0,3.3-1,3.3-1L544.7,123.7z"/>
		<path fill="#BA0021" d="M532.1,117V102c0-1.8,1-3.3,2.3-4c-1.3-0.8-2.3-2.3-2.3-4.1V74.7c0-1,0.4-1.9,0.9-2.5h-8.5l4.2,3.3v44.9
			h13.5l2.3,3.3l0.7-7.7c0,0-1.1,1-3.3,1H532.1z"/>
		<path fill="#862633" d="M528.8,120.4V75.5l-4.2-3.3c0.6,0.7,0.9,1.6,0.9,2.5v19.1c0,1.7-1,3.3-2.3,4.1c1.3,0.8,2.3,2.3,2.3,4v19.1
			c0,1-0.3,1.9-0.9,2.6h20.1l-2.3-3.3H528.8z"/>
		<path fill="#003263" d="M513.3,121.4l-5.2-18.2c-0.6-2,0.5-3.9,2.3-5.1c-2.4-0.7-4.4-2.3-5-4.3c0,0-6-20.7-6.2-21.6
			c-0.2-0.9,1.2-2.4,2.5-3.1h0h-17.7c1.5,0.8,2.5,2.1,2.6,3.6l-6.1,21.1c-0.6,2-2.6,3.6-5,4.3c1.7,1.3,2.9,3.2,2.3,5.1l-5.3,18.2
			c-0.6,2.1-1.9,4-3.6,5.3h20.6h0c-1.8-1.1-2.8-3.3-2.1-5.7l0.4-1.5h10.1h0l0.4,1.5c0.7,2.4-0.3,4.6-2.1,5.7h20.6h0
			C515.2,125.4,513.9,123.5,513.3,121.4z M511.4,124.1h-9.1c0.2-1.3,0-3-0.3-4.2l-1-3.3h-14.1l-1.2,0l-1,3.7c-0.3,1-0.3,2.6-0.1,3.7
			h-0.1l0,0h-8.9c0.3-0.7,0.6-1.4,0.8-2.2l4.1-16.2c0.9-3.2,0.8-4.3-0.3-6.4c0.6-0.5,1.1-0.9,1.5-1.3c0.8-1,1.4-2,1.7-3.2l2.5-8
			l3.6-11.7c0-0.8-0.3-1.6-0.6-2.1c-0.1-0.2-0.2-0.3-0.4-0.5h0.1l-0.1-0.1c0,0,0.1,0.1,0.1,0.1h8c-0.6,0.6-0.9,1.4-1,2.3l6.2,19.6
			c0.5,1.7,1.7,3.2,3.4,4.4c-0.7,1.6-1.2,2.8-0.3,5.4l5.6,17.6C510.7,122.3,511.1,123.6,511.4,124.1L511.4,124.1z"/>
		<path fill="#003263" d="M498.7,109.5l-6.1-19.6v0l-5.1,19.6H498.7z M492.9,102l1.4,4.7h0h-2.7L492.9,102z"/>
		<polygon fill="#BA0021" points="498.7,109.5 487.5,109.5 492.6,89.9 492.6,78.2 482.8,113.2 504,113.2 498.7,109.5 		"/>
		<path fill="#BA0021" d="M488.6,72.5L488.6,72.5c0.1,0.1,0.2,0.3,0.3,0.5c-0.1-0.1-0.1-0.2-0.2-0.3L488.6,72.5z"/>
		<path fill="#BA0021" d="M482.7,113.3l-2.2,7.8l3.9,3h0.1c-0.3-1-0.2-2.7,0.1-3.7l1-3.7l1.2,0h-1.2L482.7,113.3z"/>
		<path fill="#BA0021" d="M504.9,104.2c-0.9-2.7-0.4-3.8,0.3-5.4c-1.7-1.2-2.9-2.7-3.4-4.4l-6.2-19.6c0.1-0.9,0.4-1.7,1-2.3h-8
			c0,0,0.1,0.1,0.1,0.1l3.9,5.2v-0.1l0,0.1l0,0l0,0l11.4,35.3h0l1.9,6.9l5.4,4h0.1c-0.3-0.5-0.7-1.8-0.9-2.3L504.9,104.2z"/>
		<path fill="#862633" d="M504,113.2L504,113.2l-11.3-35.3l0,0l0,0l0-0.1v0.1l-3.9-5.2c0.1,0.1,0.1,0.2,0.2,0.3
			c0.3,0.5,0.6,1.3,0.6,2.1L486,86.7l-2.5,8c-0.3,1.1-0.9,2.2-1.7,3.2c-0.4,0.4-0.9,0.8-1.5,1.3c1.1,2.1,1.1,3.3,0.3,6.4l-4.1,16.2
			c-0.2,0.8-0.5,1.5-0.8,2.2h8.9l0,0l-3.9-3l2.2-7.8l2.9,3.3h1.2h14.1l1,3.3c0.3,1.2,0.5,2.9,0.3,4.2h9.1l-5.4-4L504,113.2z
			 M482.8,113.2l9.8-35v11.7v0l6.1,19.6l0,0l5.3,3.7H482.8z"/>
		<path fill="#862633" d="M488.6,72.5C488.6,72.4,488.5,72.4,488.6,72.5L488.6,72.5l0.1,0.1C488.6,72.6,488.6,72.5,488.6,72.5z"/>
		<path fill="#003263" d="M360.6,121.4l-5.3-18.2c-0.6-2,0.5-3.9,2.3-5.1c-2.4-0.7-4.4-2.3-5-4.3c0,0-6-20.7-6.2-21.6
			c-0.2-0.9,1.2-2.4,2.5-3.1h0h-17.7c1.5,0.8,2.5,2.1,2.6,3.6l-6.1,21.1c-0.6,2-2.6,3.6-5,4.3c1.7,1.3,2.8,3.2,2.3,5.1l-5.3,18.2
			c-0.6,2.1-2,4-3.6,5.3h20.6h0c-1.8-1.1-2.8-3.3-2.1-5.7l0.4-1.5h10.1h0.1l0.4,1.5c0.7,2.4-0.4,4.6-2.1,5.7h20.6h0
			C362.6,125.4,361.2,123.5,360.6,121.4z M358.7,124.1h-9.1c0.2-1.3,0-3-0.3-4.2l-1-3.3h-14.1l-1.2,0l-1,3.7c-0.3,1-0.3,2.6-0.1,3.7
			h0l0,0h-8.9c0.3-0.7,0.6-1.4,0.8-2.2l4.1-16.2c0.9-3.2,0.8-4.3-0.2-6.4c0.6-0.5,1.1-0.9,1.5-1.3c0.9-1,1.5-2,1.8-3.2l2.5-8
			l3.6-11.7c0-0.8-0.3-1.6-0.6-2.1c-0.1-0.2-0.2-0.3-0.4-0.5h0.1l-0.1-0.1c0,0,0,0.1,0.1,0.1h8c-0.6,0.6-0.9,1.4-1,2.3l6.2,19.6
			c0.5,1.7,1.7,3.2,3.4,4.4c-0.7,1.6-1.2,2.8-0.3,5.4l5.6,17.6C358,122.3,358.5,123.6,358.7,124.1L358.7,124.1z"/>
		<path fill="#003263" d="M346,109.5l-6.1-19.6v0l-5.1,19.6H346z M340.2,102l1.4,4.7h-0.1h-2.7L340.2,102z"/>
		<polygon fill="#BA0021" points="346,109.5 334.8,109.5 339.9,89.9 339.9,78.2 330.1,113.2 351.3,113.2 346,109.5 		"/>
		<path fill="#BA0021" d="M330.1,113.3l-2.2,7.8l3.9,3h0c-0.3-1-0.2-2.7,0.1-3.7l1-3.7l1.2,0h-1.2L330.1,113.3z"/>
		<path fill="#BA0021" d="M352.3,104.2c-0.8-2.7-0.3-3.8,0.3-5.4c-1.7-1.2-2.9-2.7-3.4-4.4l-6.2-19.6c0.1-0.9,0.4-1.7,1-2.3h-8
			c0,0,0.1,0.1,0.1,0.2l3.9,5.2v-0.1l0,0.1l0,0l0,0l11.4,35.3h0l1.9,6.9l5.4,4h0c-0.3-0.5-0.7-1.8-0.9-2.3L352.3,104.2z"/>
		<path fill="#BA0021" d="M335.9,72.5L335.9,72.5c0.1,0.1,0.2,0.3,0.3,0.5c-0.1-0.1-0.1-0.2-0.2-0.3L335.9,72.5z"/>
		<path fill="#862633" d="M351.4,113.2L351.4,113.2L340,77.9l0,0l0,0l0-0.1v0.1l-3.9-5.2c0.1,0.1,0.1,0.2,0.2,0.3
			c0.3,0.5,0.6,1.3,0.6,2.1l-3.6,11.7l-2.5,8c-0.3,1.2-0.9,2.2-1.8,3.2c-0.4,0.4-0.9,0.8-1.5,1.3c1.1,2.1,1.1,3.3,0.2,6.4l-4.1,16.2
			c-0.2,0.8-0.5,1.5-0.8,2.2h8.9l0,0l-3.9-3l2.2-7.8l2.9,3.3h1.2h14.1l1,3.3c0.3,1.2,0.5,2.9,0.3,4.2h9.1l-5.4-4L351.4,113.2z
			 M330.1,113.2l9.8-35v11.7v0l6.1,19.6v0l5.3,3.7H330.1z"/>
		<path fill="#862633" d="M335.9,72.5C335.9,72.4,335.9,72.4,335.9,72.5L335.9,72.5l0.1,0.2C336,72.6,336,72.5,335.9,72.5z"/>
		<path fill="#003263" d="M179.8,114.2h-9v-12.4h5c2.4,0,4.4,0.9,5.6,2.3V86.7c-1.2,1.4-3.3,2.3-5.6,2.3h-5v-7h8.1
			c2.4,0,4.5,0.8,5.6,2l-0.8-14.8h-28c1.4,1.2,2.3,3.3,2.3,5.6V93c0,2.2-1.3,4.1-3.3,5.2c2,1.1,3.3,3,3.3,5.2v18.1
			c0,2.4-0.9,4.4-2.3,5.6h28.5l1.4-15.6C184.6,112.8,182.2,114.2,179.8,114.2z M181.4,124h-21.3c0.6-0.7,0.9-1.6,0.9-2.6v-19.2
			c0-1.8-1-3.3-2.3-4.1c1.3-0.8,2.3-2.3,2.3-4.1V74.9c0-1-0.3-1.9-0.9-2.6h20.7l0.5,7.7c0,0-1-1-3.3-1h-10.3v13.1h8.1
			c1,0,1.9-0.3,2.6-0.9v8.5c-0.7-0.6-1.6-0.9-2.6-0.9h-8.1v18.6h11.1c2.2,0,3.3-1,3.3-1L181.4,124z"/>
		<path fill="#003263" d="M106.5,98.1c-2-1.1-3.3-3-3.3-5.2V74.9c0-2.4,0.9-4.4,2.3-5.6H87.7c1.4,1.2,2.3,3.3,2.3,5.6v9l-3.1-8.7
			c-1.7-4.7,0.7-6,0.7-6h-19c1.4,1.2,2.3,3.3,2.3,5.6V93c0,2.2-1.3,4.1-3.3,5.2c2,1.1,3.3,3,3.3,5.2v18.1c0,2.4-0.9,4.4-2.3,5.6
			h18.2c-1.4-1.2-2.3-3.3-2.3-5.6v-14.9L90,122c0.8,2-1,3.9-2.3,5h17.8c-1.4-1.2-2.3-3.3-2.3-5.6v-18.1
			C103.2,101.1,104.5,99.2,106.5,98.1z M100.1,102.2v19.2c0,1,0.3,1.9,0.9,2.6h-8.6c1-1.4,0.2-3.5,0.2-3.5L81.4,88.8v32.6
			c0,1,0.3,1.9,0.9,2.6H73c0.6-0.7,0.9-1.6,0.9-2.6v-19.2c0-1.8-1-3.3-2.3-4.1c1.3-0.8,2.3-2.3,2.3-4.1V74.9c0-1-0.3-1.9-0.9-2.6
			h10.4c-0.4,1.1,0.2,2.6,0.2,2.6l9.5,26.7V74.9c0-1-0.3-1.9-0.9-2.6h8.9c-0.6,0.7-0.9,1.6-0.9,2.6v19.2c0,1.7,1,3.3,2.3,4.1
			C101.1,98.9,100.1,100.4,100.1,102.2z"/>
		<path fill="#003263" d="M134.3,100.1v14.1h-4.9c-0.7,0-1.2-0.5-1.2-1.2v-9.7c0-2.2,1.3-4.1,3.3-5.2c-2-1.1-3.3-3-3.3-5.2v-9.7
			c0-0.6,0.5-1.2,1.2-1.2h12c2.3,0,4.3,1.2,5.3,3c0,0,0.1,0.1,0.1,0.2l0-0.2l-1.9-15.7h-18.3c-6.2,0-11.2,4.8-11.2,10.8v13
			c0,2.2-1.3,4.1-3.3,5.2c2,1.1,3.3,3,3.3,5.2v12.9c0,5.9,5,10.8,11.2,10.8h21.3v-26.9c0-2.4,0.9-4.5,2.3-5.6H132
			C133.4,95.7,134.3,97.7,134.3,100.1z M145.7,97.6c-0.6,0.7-0.9,1.6-0.9,2.6V124h-18.2c-4.5,0-8.1-3.5-8.1-7.7v-14.1
			c0-1.8-1-3.3-2.3-4.1c1.3-0.8,2.3-2.3,2.3-4.1V80c0-1.5,0.5-2.9,1.2-4.1c0.3-0.5,0.7-1,1.1-1.4c1.5-1.4,3.5-2.3,5.8-2.3h15.6
			l0.9,7.7c-0.7-0.9-1.7-1-2.2-1h-12.4c-0.4,0-0.8,0.1-1.2,0.2c-0.4,0.2-0.7,0.4-1,0.6c0,0-0.1,0.1-0.1,0.1c-0.6,0.6-1,1.4-1,2.3
			v11.8c0,1.7,1,3.3,2.3,4.1c-1.3,0.8-2.3,2.3-2.3,4.1V114c0,1.8,1.5,3.3,3.3,3.3h9v-17.2c0-1-0.4-1.9-0.9-2.6H145.7z"/>
		<path fill="#003263" d="M214.9,114.2H207v-10.9c0-2.2,1.3-4.1,3.3-5.2c-2-1.1-3.3-3-3.3-5.2V74.9c0-2.4,0.9-4.4,2.3-5.6l-17.4,0
			c1.4,1.2,2.3,3.3,2.3,5.6V93c0,2.2-1.3,4.1-3.3,5.2c2,1.1,3.3,3,3.3,5.2v18.1c0,2.4-0.9,4.4-2.3,5.6h27.4l1.4-15.6
			C219.7,112.8,217.3,114.2,214.9,114.2z M216.5,124h-20.2c0.6-0.7,0.9-1.6,0.9-2.6v-19.2c0-1.8-1-3.3-2.3-4.1
			c1.3-0.8,2.3-2.3,2.3-4.1V74.9c0-1-0.3-1.9-0.9-2.6h8.5c-0.6,0.7-0.9,1.6-0.9,2.6v19.2c0,1.7,1,3.3,2.3,4.1
			c-1.3,0.8-2.3,2.3-2.3,4.1v15.1h10c2.2,0,3.3-1,3.3-1L216.5,124z"/>
		<path fill="#003263" d="M252.2,99.5l-3.8-4c-1.5-1.6-1.9-3.9-1.2-6c-2.2,0.6-4.4,0.1-5.9-1.5l-3.3-3.5c-0.4-0.4-0.3-0.7-0.3-0.7
			v-0.6c0-0.6,0.5-1.2,1.2-1.2h8c2.3,0,4.3,1.2,5.3,3c0,0,0.1,0.1,0.1,0.2l0-0.2l-1.8-15.7H236c-6.2,0-11.2,4.8-11.2,10.8v4.5
			c0,2.5,0.9,5,2.6,6.9l5,5.2c1.5,1.6,1.9,3.9,1.2,6c1.9-0.6,4.1-0.4,5.4,0.9l2.7,2.8c0.2,0.2,0.3,0.5,0.3,0.8l0,6
			c0,0.7-0.5,1.2-1.2,1.2h-10.6c-2.3,0-4.3-1.2-5.3-3c0,0-0.1-0.1-0.1-0.2l0,0.2l1.9,15.7h16.9c6.2,0,11.2-4.8,11.2-10.8l0-9.9
			C254.8,103.9,253.9,101.4,252.2,99.5z M249.5,121.5L249.5,121.5C249.5,121.6,249.5,121.6,249.5,121.5c-0.2,0.2-0.3,0.3-0.4,0.4
			c-0.1,0.1-0.2,0.2-0.3,0.3c-0.1,0.1-0.2,0.1-0.3,0.2c-0.1,0.1-0.2,0.2-0.3,0.2c-0.1,0.1-0.2,0.1-0.3,0.2c-0.1,0.1-0.2,0.2-0.4,0.2
			c-0.1,0-0.2,0.1-0.3,0.2c-0.1,0-0.3,0.1-0.4,0.2c-0.1,0.1-0.2,0.1-0.4,0.1c-0.1,0.1-0.3,0.1-0.4,0.1c-0.1,0-0.3,0.1-0.4,0.1
			c-0.1,0-0.2,0.1-0.4,0.1c-0.2,0-0.3,0.1-0.5,0.1c-0.1,0-0.2,0-0.3,0c-0.3,0-0.6,0-0.9,0h-14.2l-0.9-7.7c0.7,0.9,1.8,1,2.2,1h11
			c1,0,2-0.5,2.6-1.2c0.1-0.1,0.1-0.1,0.2-0.2c0.1-0.1,0.1-0.1,0.1-0.2c0.1-0.1,0.1-0.2,0.2-0.3c0-0.1,0.1-0.2,0.1-0.2
			c0-0.1,0.1-0.2,0.1-0.4c0-0.2,0.1-0.4,0.1-0.6l0-7.3c0-0.9-0.4-1.7-1-2.3l-3.7-3.8c-1-1-2.6-1.1-3.9-0.8c0.4-1.4,0.2-3.1-0.9-4.2
			l-5.9-6.1c-1.2-1.3-1.9-3-1.9-4.9V80c0-0.3,0-0.5,0-0.8c0-0.1,0-0.1,0-0.2c0-0.2,0.1-0.4,0.1-0.5c0-0.1,0-0.2,0.1-0.2
			c0-0.2,0.1-0.4,0.1-0.5c0-0.1,0.1-0.1,0.1-0.2c0.1-0.2,0.1-0.3,0.2-0.5c0-0.1,0.1-0.1,0.1-0.2c0.1-0.2,0.2-0.3,0.3-0.5
			c0,0,0.1-0.1,0.1-0.1c0.1-0.2,0.2-0.3,0.3-0.5c0-0.1,0.1-0.1,0.1-0.2c0.1-0.1,0.2-0.3,0.3-0.4c0-0.1,0.1-0.1,0.1-0.2
			c0-0.1,0.1-0.1,0.1-0.2l0,0c1.5-1.6,3.7-2.6,6.1-2.6h11.6l0.9,7.7c-0.7-0.9-1.7-1-2.3-1h-8.4c-0.3,0-0.5,0-0.7,0.1
			c-0.1,0-0.2,0-0.2,0.1c-0.1,0-0.3,0.1-0.4,0.1c-0.1,0-0.2,0.1-0.3,0.2c-0.1,0.1-0.2,0.1-0.3,0.2c-0.1,0.1-0.2,0.1-0.2,0.2
			c-0.1,0.1-0.2,0.2-0.3,0.2c-0.5,0.6-0.9,1.4-0.9,2.2v1.9c0,0.9,0.4,1.7,1,2.3l4.2,4.4c1.2,1.2,3,1.7,4.5,1.3
			c-0.4,1.5-0.1,3.3,1.1,4.6l4.5,4.7c1.2,1.3,1.8,3,1.8,4.9l0,9.9C251.8,118.3,250.9,120.2,249.5,121.5z"/>
		<path fill="#003263" d="M60.5,120.2l-6.4-21.8c-0.7-2.4,0.4-4.7,2.2-6.3c-2.5-0.8-4.8-2.6-5.5-5l-2.7-9.2c5.4-1.7,9.1-4.7,9.1-8.2
			c0-4.4-6-8.1-14.1-9.3l-3.9-13.3l-1.6-5L32,60.4c-8.2,1.2-14.2,4.9-14.2,9.3c0,3.4,3.6,6.5,9.1,8.2l-2.7,9.2c-0.7,2.4-3,4.2-5.5,5
			c1.8,1.6,2.9,3.9,2.2,6.3l-6.4,21.8c-0.8,2.9-2.7,5.4-4.8,6.8h22.8c-1.9-1.4-2.9-3.9-2.1-6.8l0.6-1.9h13l0.6,1.9
			c0.8,2.9-0.2,5.4-2.1,6.8h22.8C63.2,125.6,61.3,123.1,60.5,120.2z M48.3,123.5c0.2-1.3,0-3-0.3-4.3l-1.3-4.5H28.3l-1.3,4.5
			c-0.4,1.2-0.5,3-0.4,4.3h-9.6c0.3-0.7,0.6-1.5,0.9-2.3l6.2-21.3c1-3.3,0.4-4.6-0.3-6.6c1.8-1.4,3.1-3.2,3.7-5.3l6.6-22.6
			c-6,0.5-10.5,2.2-10.5,4.1c0,1.8,3.4,3.3,8.2,3.9L31,76.4c-6.3-1.1-10.7-3.7-10.7-6.7c0-3.6,6.4-6.7,14.8-7.2l2.5-8.4l2.5,8.4
			c8.4,0.5,14.8,3.5,14.8,7.2c0,3-4.4,5.7-10.7,6.7l3.4,11.7c0.6,2,1.9,3.9,3.7,5.3c-0.7,1.9-1.2,3.3-0.3,6.6l6.2,21.3
			c0.2,0.8,0.5,1.5,0.9,2.3H48.3z"/>
		<path fill="#003263" d="M30.8,106.4h13.4l-6.7-23.1L30.8,106.4z M35.5,102.8l2-6.7l2,6.7H35.5z"/>
		<path fill="#003263" d="M51.3,69.7c0-2-4.5-3.7-10.5-4.1l0.3,1.1l0.4,1.3l1.7,5.7C48,72.9,51.3,71.5,51.3,69.7z"/>
		<polygon fill="#BA0021" points="178.3,75.6 181.2,80 180.8,72.3 160.1,72.3 164.3,75.6 		"/>
		<path fill="#BA0021" d="M164.3,95.4h11.1l2.9,4.2v-8.5c-0.7,0.6-1.6,0.9-2.6,0.9h-8.1V79l-3.3-3.3V95.4z"/>
		<path fill="#BA0021" d="M167.7,117.3V98.7l-3.3-3.3v25.2H179l2.4,3.4l0.7-7.7c0,0-1.1,1-3.3,1H167.7z"/>
		<path fill="#BA0021" d="M100.1,94.1V74.9c0-1,0.3-1.9,0.9-2.6h-8.9l4.4,3.3v36l-3.5-9.9l-9.5-26.7c0,0-0.6-1.5-0.2-2.6H73l4.7,3.3
			v45l4.6,3.4c-0.6-0.7-0.9-1.6-0.9-2.6V88.8V79l15,41.7l4.6,3.4c-0.6-0.7-0.9-1.6-0.9-2.6v-19.2c0-1.8,1-3.3,2.3-4.1
			C101.1,97.3,100.1,95.8,100.1,94.1z"/>
		<path fill="#BA0021" d="M118.5,80c0-1.5,0.5-2.9,1.2-4.1C118.9,77.1,118.5,78.5,118.5,80z"/>
		<path fill="#BA0021" d="M141.1,120.6l3.7,3.4v-23.9c0-1,0.3-1.9,0.9-2.6h-9.3l4.6,3.1V120.6z"/>
		<path fill="#BA0021" d="M123.4,77.3c-1,1-1.6,2.4-1.6,3.8v34c0,3,2.6,5.5,5.7,5.5h13.6l-3.7-3.3h-9c-1.8,0-3.3-1.5-3.3-3.3v-11.8
			c0-1.8,1-3.3,2.3-4.1c-1.3-0.8-2.3-2.3-2.3-4.1V82.2c0-0.9,0.4-1.7,1-2.3l0,0L123.4,77.3z"/>
		<path fill="#BA0021" d="M127.5,75.6h12.3l3.3,4.3l-0.9-7.7h-15.6c-2.3,0-4.3,0.9-5.8,2.3l2.6,2.7
			C124.5,76.3,125.9,75.6,127.5,75.6z"/>
		<path fill="#BA0021" d="M203.9,117.3v-15.1c0-1.8,1-3.3,2.3-4.1c-1.3-0.8-2.3-2.3-2.3-4.1V74.9c0-1,0.4-1.9,0.9-2.6h-8.5l4.2,3.3
			v45h13.5l2.4,3.4l0.7-7.7c0,0-1.1,1-3.3,1H203.9z"/>
		<path fill="#BA0021" d="M236.9,75.6h8.5l3.1,4.3l-0.9-7.7H236c-2.4,0-4.6,1-6.1,2.6l2.7,2.6C233.7,76.3,235.2,75.6,236.9,75.6z"/>
		<path fill="#BA0021" d="M249.9,101.5l-4.5-4.7c-1.2-1.3-1.5-3.1-1.1-4.6c-1.5,0.3-3.3-0.1-4.5-1.3l-4.2-4.4c-0.6-0.6-1-1.4-1-2.3
			v-1.9c0-0.9,0.3-1.6,0.9-2.2c0,0-0.1,0.1-0.1,0.1l-2.6-2.7c-0.9,1-1.5,2.3-1.5,3.7v3.2c0,1.4,0.5,2.6,1.4,3.6l14.4,15
			c0.9,1,1.4,2.2,1.4,3.6l0,8.6c0,1.4-0.6,2.8-1.6,3.8l2.7,2.6c1.4-1.4,2.2-3.2,2.2-5.3l0-9.9C251.7,104.5,251.1,102.8,249.9,101.5z
			"/>
		<path fill="#BA0021" d="M242.7,120.6c1.6,0,3.1-0.7,4.1-1.7l-2.7-2.6c0.1-0.1,0.1-0.2,0.2-0.2c-0.6,0.7-1.5,1.2-2.6,1.2h-11
			c-0.5,0-1.5-0.1-2.2-1l3.1,4.4L242.7,120.6z"/>
		<path fill="#BA0021" d="M22.4,120.4l4.3,3.1c-0.2-1.3,0-3,0.4-4.3l1.3-4.5l-3-4.2L22.4,120.4z"/>
		<path fill="#BA0021" d="M50.9,99.9c-0.9-3.3-0.4-4.6,0.3-6.6c-1.8-1.4-3.1-3.2-3.7-5.3L44,76.4l0,0l-0.8-2.8l0,0l-1.7-5.7
			c-1.3-0.1-2.6-0.2-4-0.2v1l12.2,41.9l2.6,8.8l5.7,4.1c-0.3-0.7-0.6-1.5-0.9-2.3L50.9,99.9z"/>
		<polygon fill="#BA0021" points="49.7,110.6 44.2,106.4 30.8,106.4 37.5,83.4 37.5,68.7 25.3,110.6 		"/>
		<path fill="#BA0021" d="M40,62.5l-2.5-8.4v8.3C38.3,62.5,39.2,62.5,40,62.5z"/>
		<path fill="#862633" d="M127.5,75.6c-1.6,0-3,0.6-4.1,1.6l2.7,2.7l0,0c0,0,0.1-0.1,0.1-0.1c0.3-0.3,0.6-0.5,1-0.6
			c0.4-0.1,0.8-0.2,1.2-0.2h12.4c0.5,0,1.6,0.2,2.2,1l-3.3-4.3H127.5z"/>
		<path fill="#862633" d="M127.5,120.6c-3.2,0-5.7-2.5-5.7-5.5v-34c0-1.5,0.6-2.8,1.6-3.8l-2.6-2.7c-0.4,0.4-0.8,0.9-1.1,1.4
			c-0.8,1.2-1.2,2.6-1.2,4.1v14.1c0,1.7-1,3.3-2.3,4.1c1.3,0.8,2.3,2.3,2.3,4.1v14.1c0,4.2,3.6,7.7,8.1,7.7h18.2l-3.7-3.4H127.5z"/>
		<path fill="#862633" d="M137.4,117.3l3.7,3.3v-20l-4.6-3.1c0.6,0.7,0.9,1.6,0.9,2.6V117.3z"/>
		<path fill="#862633" d="M164.3,120.6V95.4V75.6l-4.2-3.3c0.6,0.7,0.9,1.6,0.9,2.6v19.2c0,1.7-1,3.3-2.3,4.1
			c1.3,0.8,2.3,2.3,2.3,4.1v19.2c0,1-0.3,1.9-0.9,2.6h21.3l-2.4-3.4H164.3z"/>
		<path fill="#862633" d="M200.6,120.6v-45l-4.2-3.3c0.6,0.7,0.9,1.6,0.9,2.6v19.2c0,1.7-1,3.3-2.3,4.1c1.3,0.8,2.3,2.3,2.3,4.1
			v19.2c0,1-0.3,1.9-0.9,2.6h20.2l-2.4-3.4H200.6z"/>
		<path fill="#862633" d="M164.3,95.4l3.3,3.3h8.1c1,0,1.9,0.3,2.6,0.9l-2.9-4.2H164.3z"/>
		<path fill="#862633" d="M164.3,75.6l3.3,3.3H178c2.3,0,3.3,1,3.3,1l-3-4.3H164.3z"/>
		<path fill="#862633" d="M77.7,75.6L73,72.3c0.6,0.7,0.9,1.6,0.9,2.6v19.2c0,1.7-1,3.3-2.3,4.1c1.3,0.8,2.3,2.3,2.3,4.1v19.2
			c0,1-0.3,1.9-0.9,2.6h9.3l-4.6-3.4V75.6z"/>
		<path fill="#862633" d="M96.6,75.6l-4.4-3.3c0.6,0.7,0.9,1.6,0.9,2.6v26.8l3.5,9.9V75.6z"/>
		<path fill="#862633" d="M81.4,79v9.8l11.3,31.7c0,0,0.8,2.1-0.2,3.5h8.6l-4.6-3.4L81.4,79z"/>
		<path fill="#862633" d="M236.9,75.6c-1.7,0-3.2,0.7-4.3,1.8l2.6,2.7c0,0,0.1-0.1,0.1-0.1c0.1-0.1,0.2-0.2,0.3-0.2
			c0.1-0.1,0.2-0.1,0.2-0.2c0.1-0.1,0.2-0.1,0.3-0.2c0.1,0,0.2-0.1,0.3-0.2c0.1,0,0.3-0.1,0.4-0.1c0.1,0,0.2-0.1,0.2-0.1
			c0.2-0.1,0.5-0.1,0.7-0.1h8.4c0.5,0,1.6,0.2,2.3,1l-3.1-4.3H236.9z"/>
		<path fill="#862633" d="M246.8,118.9c1-1,1.6-2.3,1.6-3.8l0-8.6c0-1.4-0.5-2.6-1.4-3.6l-14.4-15c-0.9-1-1.4-2.2-1.4-3.6v-3.2
			c0-1.4,0.5-2.7,1.5-3.7l-2.7-2.6l0,0c0,0.1-0.1,0.1-0.1,0.2c0,0-0.1,0.1-0.1,0.2c-0.1,0.1-0.2,0.3-0.3,0.4c0,0.1-0.1,0.1-0.1,0.2
			c-0.1,0.1-0.2,0.3-0.3,0.5c0,0.1-0.1,0.1-0.1,0.1c-0.1,0.2-0.2,0.3-0.3,0.5c0,0.1-0.1,0.1-0.1,0.2c-0.1,0.2-0.1,0.3-0.2,0.5
			c0,0.1,0,0.1-0.1,0.2c-0.1,0.2-0.1,0.3-0.1,0.5c0,0.1,0,0.1-0.1,0.2c0,0.2-0.1,0.4-0.1,0.5c0,0.1,0,0.1,0,0.2c0,0.3,0,0.5,0,0.8
			v4.5c0,1.9,0.7,3.6,1.9,4.9l5.9,6.1c1.1,1.2,1.3,2.9,0.9,4.2c1.3-0.3,2.9-0.2,3.9,0.8l3.7,3.8c0.6,0.6,1,1.4,1,2.3l0,7.3
			c0,0.2,0,0.4-0.1,0.6c0,0.1-0.1,0.2-0.1,0.4c0,0.1,0,0.2-0.1,0.2c0,0.1-0.1,0.2-0.2,0.3c0,0.1-0.1,0.1-0.1,0.2
			c-0.1,0.1-0.1,0.2-0.2,0.2c-0.1,0.1-0.1,0.2-0.2,0.2L246.8,118.9z"/>
		<path fill="#862633" d="M242.7,120.6l-11.1,0l-3.1-4.4l0.9,7.7h14.2c0.3,0,0.6,0,0.9,0c0.1,0,0.2,0,0.3,0c0.2,0,0.3,0,0.5-0.1
			c0.1,0,0.2-0.1,0.4-0.1c0.1,0,0.3,0,0.4-0.1c0.1,0,0.3-0.1,0.4-0.1c0.1-0.1,0.2-0.1,0.4-0.1c0.1,0,0.3-0.1,0.4-0.2
			c0.1-0.1,0.2-0.1,0.3-0.2c0.1-0.1,0.3-0.2,0.4-0.2c0.1,0,0.2-0.1,0.3-0.2c0.1-0.1,0.2-0.2,0.3-0.2c0.1-0.1,0.2-0.1,0.3-0.2
			c0.1-0.1,0.2-0.2,0.3-0.3c0.1-0.1,0.2-0.2,0.3-0.3c0,0,0.1,0,0.1-0.1h0l-2.7-2.6C245.8,120,244.3,120.6,242.7,120.6z"/>
		<path fill="#862633" d="M49.7,110.6H25.3l12.2-41.9v-1c1.4,0,2.8,0.1,4,0.2l-0.4-1.3l-0.3-1.1c-0.1,0-0.1,0-0.2,0
			c-0.4,0-0.7,0-1.1-0.1c-0.2,0-0.3,0-0.5,0c-0.5,0-1,0-1.5,0c0,0,0,0,0,0c-1.1,0-2.3,0-3.3,0.1l-6.6,22.6c-0.6,2-1.9,3.9-3.7,5.3
			c0.7,1.9,1.2,3.3,0.3,6.6l-6.2,21.3c-0.2,0.8-0.5,1.5-0.9,2.3h9.6l-4.3-3.1l2.9-9.8l3,4.2h18.3l1.3,4.5c0.4,1.2,0.6,3,0.3,4.3h9.6
			l-5.7-4.1L49.7,110.6z"/>
		<polygon fill="#862633" points="44.2,106.4 49.7,110.6 37.5,68.7 37.5,83.4 		"/>
		<path fill="#862633" d="M37.5,62.5v-8.3L35,62.5C35.9,62.5,36.7,62.5,37.5,62.5L37.5,62.5z"/>
		<path fill="#C4CED4" d="M37.5,65.4c0.5,0,1,0,1.5,0c0.2,0,0.3,0,0.5,0c0.4,0,0.8,0,1.1,0.1c0.1,0,0.1,0,0.2,0
			c6,0.5,10.5,2.2,10.5,4.1c0,1.8-3.3,3.3-8.1,3.9l0,0l0.8,2.8l0,0c6.3-1.1,10.7-3.7,10.7-6.7c0-3.6-6.4-6.7-14.8-7.2
			c-0.8-0.1-1.6-0.1-2.5-0.1l0,0c-0.8,0-1.6,0-2.5,0.1C26.7,63,20.2,66,20.2,69.7c0,3.1,4.4,5.7,10.7,6.7l0.8-2.8
			c-4.8-0.7-8.2-2.2-8.2-3.9c0-2,4.5-3.7,10.5-4.1C35.2,65.5,36.4,65.4,37.5,65.4C37.5,65.4,37.5,65.4,37.5,65.4z"/>
		<path fill="#003263" d="M460.2,111.9c0.7-2.7,0.4-4.4,0.2-5.7c0-0.2-0.1-0.4-0.1-0.6c-0.2-0.7-0.5-1.4-0.8-2.1
			c-0.6-1.2-1.5-2.3-2.5-3.2c0,0-0.1-0.1-0.1-0.1c-2-1.4-4-1.7-5-1.7H444v18.8h9.8c0.8,0,1.8-0.3,2.7-0.8
			C457,116.1,459.5,114.3,460.2,111.9z M453.1,113.7c-1.9,0-5.8,0-5.8,0v-12.2c0,0,3.3,0,5.2,0c2.3,0,4.6,2.5,4.6,6.2
			C457,111.4,454.9,113.7,453.1,113.7z"/>
		<path fill="#003263" d="M457.9,81.3c-0.7-1.2-2.1-2.8-4.1-2.8H444v13.3h9c0.3,0,0.6,0,0.8-0.1C459.4,90.5,459.6,84.3,457.9,81.3z
			 M452.1,89.3c-1.6,0-4.9,0-4.9,0v-7.9c0,0,3.4,0,5,0c1.6,0,3,1.7,3,4.1S453.6,89.3,452.1,89.3z"/>
		<path fill="#003263" d="M465.9,95.5c0,0,5.7-6,3.1-15.6c-1.7-6.5-7.2-10.8-12.6-10.8H432c1.4,1.2,2.3,3.2,2.3,5.6v18
			c0,2.2-1.3,4.1-3.3,5.2c2,1.1,3.3,3,3.3,5.2v18c0,2.4-0.9,4.4-2.3,5.6h22.6c6.8,0,12.2-2.7,14.9-9
			C474.9,105.6,465.9,95.5,465.9,95.5z M468.3,112.5c-0.8,4.9-3.1,7.8-5.7,9.5l0,0c-0.2,0.2-0.5,0.3-0.7,0.4
			c-0.2,0.1-0.4,0.2-0.6,0.3c-0.3,0.2-0.6,0.3-0.9,0.4c-0.4,0.2-0.9,0.4-1.3,0.5c-0.2,0.1-0.4,0.1-0.6,0.2c-0.7,0.2-1.3,0.3-1.9,0.4
			h0c-1,0.1-1.8,0.2-2.3,0.2h-2.4l-16.4,0l-0.1,0c1-1,1.4-2,1.4-3V102c0-1.8-1-3.2-2.7-4.1c1.7-1.1,2.7-2.4,2.7-4.1V74.4
			c0-1-0.4-2-1.3-3l0.1,0.1l-0.1-0.2h20.4c3.8,0,7.2,3.4,8.1,4.7c1.3,2,2.7,5.6,2.7,9.3c0,3.5-1.2,7.2-4.8,10
			c1.5,1.2,6.7,5.9,6.7,13.8C468.6,110.3,468.5,111.4,468.3,112.5z"/>
		<path fill="#BA0021" d="M461.9,95.4c3.6-2.8,4.8-6.5,4.8-10c0-3.8-1.4-7.3-2.7-9.3c-0.8-1.3-4.3-4.7-8.1-4.7h-20.4l0.1,0.2l1,0.8
			l3.5,2.8h14.1c3.1,0,7.1,3.5,7.9,6.5c0.9,3.1,0.4,7.6-1.5,9.8c-1.2,1.4-2.1,2.1-2.1,2.1c-1.7-0.9-4.6-1.6-5.1-1.7c0,0,0,0,0,0
			l-0.1,0c0,0,0,0,0.1,0c0.1,0,0.2-0.1,0.3-0.1c-0.3,0-0.6,0.1-0.8,0.1h-9V78.5h0l-3.7-3.4v20c0,0,12.4,0,13,0
			c3.8,0,7.1,2.4,8.9,5.3c1.8,2.8,3.8,9.5,1.6,13.9c-1.4,2.9-4,5.1-4,5.1l-3.3-2.9c0,0,0,0,0.1-0.1c-0.9,0.5-1.8,0.8-2.7,0.8H444
			V98.5l-3.8-3.4v25.5h13.5c4.1,0,5.9-1.3,5.9-1.3l2.6,2.3l0.3,0.3c2.5-1.7,4.8-4.6,5.7-9.5c0.2-1.2,0.3-2.2,0.3-3.3
			C468.6,101.3,463.4,96.6,461.9,95.4z"/>
		<path fill="#BA0021" d="M451.9,124.5h2.4c0.6,0,1.4,0,2.3-0.2c-0.8,0.1-1.5,0.2-2.4,0.2H451.9z"/>
		<path fill="#BA0021" d="M456.9,100.3c0,0-0.1,0-0.1-0.1C456.8,100.3,456.9,100.3,456.9,100.3C456.9,100.4,456.9,100.4,456.9,100.3
			z"/>
		<path fill="#862633" d="M459.7,119.4c0,0-1.8,1.3-5.9,1.3h-13.5V95.2v-20l-3.5-2.8l-1-0.8l-0.1-0.1c0.9,1,1.3,2,1.3,3v19.4
			c0,1.8-1,3.1-2.7,4.1c1.7,1,2.7,2.3,2.7,4.1v19.4c0,1-0.4,1.9-1.4,3l0.1,0l16.4,0h2.3c0.8,0,1.6-0.1,2.4-0.2h0
			c0.6-0.1,1.2-0.2,1.9-0.4c0.2-0.1,0.4-0.1,0.6-0.2c0.4-0.1,0.9-0.3,1.3-0.5c0.3-0.1,0.6-0.3,0.9-0.4c0.2-0.1,0.4-0.2,0.6-0.3
			c0.2-0.1,0.5-0.2,0.7-0.4l0,0l-0.3-0.3L459.7,119.4z"/>
		<path fill="#862633" d="M451.8,98.5c1,0,3,0.4,5,1.7c0,0,0.1,0,0.1,0.1c0,0,0,0,0,0c1,0.9,1.8,1.9,2.5,3.2
			c0.3,0.6,0.6,1.4,0.8,2.1c0.1,0.2,0.1,0.4,0.1,0.6c0.2,1.2,0.6,3-0.2,5.7c-0.6,2.4-3.1,4.2-3.7,4.6c-0.1,0-0.1,0.1-0.1,0.1
			l3.3,2.9c0,0,2.6-2.2,4-5.1c2.2-4.4,0.2-11.1-1.6-13.9c-1.8-2.9-5.1-5.3-8.9-5.3c-0.5,0-13,0-13,0l3.8,3.4H451.8z"/>
		<path fill="#862633" d="M444,78.5h9.9c2,0,3.4,1.6,4.1,2.8c1.7,3,1.5,9.1-4.1,10.4c-0.1,0-0.2,0-0.3,0.1c0.5,0.1,3.4,0.9,5.1,1.7
			c0,0,0.9-0.8,2.1-2.1c1.9-2.2,2.4-6.6,1.5-9.8c-0.8-3-4.8-6.5-7.9-6.5h-14.1L444,78.5L444,78.5z"/>
		<path fill="#862633" d="M453.4,91.8C453.4,91.8,453.4,91.8,453.4,91.8C453.4,91.8,453.3,91.8,453.4,91.8L453.4,91.8z"/>
	</g>
	<g>
		<g>
			<path fill="#003263" d="M586.3,124.5c0-1-0.6-1.1-1.4-1.1h-1.7v3.6h0.7v-1.4h0.6l0.8,1.4h0.8l-0.9-1.4
				C585.9,125.5,586.3,125.2,586.3,124.5z M584.9,124.9h-1v-0.9h0.8c0.4,0,0.8,0,0.8,0.4C585.5,124.8,585.3,124.9,584.9,124.9z"/>
			<path fill="#003263" d="M584.6,121.8c-1.9,0-3.4,1.5-3.4,3.4c0,1.9,1.5,3.4,3.4,3.4s3.4-1.5,3.4-3.4
				C588,123.3,586.5,121.8,584.6,121.8z M584.6,127.9c-1.5,0-2.7-1.2-2.7-2.7c0-1.5,1.2-2.7,2.7-2.7c1.5,0,2.7,1.1,2.7,2.7
				C587.2,126.8,586.1,127.9,584.6,127.9z"/>
		</g>
	</g>
</g>
</svg>
