<?xml version="1.0" encoding="utf-8"?>
<!-- Generator: Adobe Illustrator 18.0.0, SVG Export Plug-In . SVG Version: 6.00 Build 0)  -->
<!DOCTYPE svg PUBLIC "-//W3C//DTD SVG 1.1//EN" "http://www.w3.org/Graphics/SVG/1.1/DTD/svg11.dtd">
<svg version="1.1" id="OAK" xmlns="http://www.w3.org/2000/svg" xmlns:xlink="http://www.w3.org/1999/xlink" x="0px" y="0px"
	 viewBox="0 0 145.8 168" enable-background="new 0 0 145.8 168" xml:space="preserve">
<g>
	<path fill="#003831" d="M118.2,111.3c-15.1,16.5-19.9,10-22.5,2.2L71,39.6c-2.3-6.8-6.5-12.6-13.6-14.9c-10.9-2.8-22.8,2.3-26.8,20
		c4-5.6,11.2-10.5,17.8-6.5c5.7,3.4,5.8,7.2,3.5,14l0,0l-1.7,5.1c-6.9-7.2-21.5-5.8-23.2,10.6c4.5-4.1,20.9-3.7,16,10.7c0,0,0,0,0,0
		l-14.6,43.1C16,121.8,3.8,128,0,143.3c3.4-5.4,28.5-16.2,51.2,0.3L65.5,126c-1-1-8.8-2.6-14.7,3.1c-3.1-2.6-7.1-4.7-11.4-5.9
		l7.6-22.2h27.8l9.8,29.5c3.9,11.7,12.8,18.3,18.5,9.5c0,0,15.5-23.3,17.4-26C122.3,111.3,118.6,110.8,118.2,111.3 M50.9,89.2
		l10-29.6l9.9,29.6H50.9z"/>
	<polygon fill="#003831" points="117.8,138.2 116.5,141.7 116.5,141.7 115.3,138.2 113.3,138.2 113.3,143.6 114.4,143.6 
		114.4,139.3 114.5,139.3 116,143.6 117.1,143.6 118.6,139.3 118.6,139.3 118.6,143.6 119.7,143.6 119.7,138.2 	"/>
	<polygon fill="#003831" points="108,139.2 109.6,139.2 109.6,143.6 110.7,143.6 110.7,139.2 112.4,139.2 112.4,138.2 108,138.2 	
		"/>
	<polygon fill="#003831" points="92.2,66.8 94.7,66.8 100.7,58.9 100.7,50.6 91.9,50.6 91.9,59.6 94.8,59.6 	"/>
	<path fill="#003831" d="M132.9,71.1c-7.1-1.4-13.1-2.8-11.3-8c1.5-4.4,12.1-4,15.7,1.6l5.5-5.7c-6.4-8.9-22.1-10.1-28.5-1.1
		c-8.7,12.3,1.2,18.9,12.5,21.8c4.6,1.2,10.5,3.8,7.6,8.3c-2.5,3.8-12,2-19.2-4.5l-4.9,6.6c4.4,5.1,21.5,15.7,32.2,2.8
		C151.5,82,140.1,72.5,132.9,71.1"/>
</g>
</svg>
