<?xml version="1.0" encoding="utf-8"?>
<!-- Generator: Adobe Illustrator 17.1.0, SVG Export Plug-In . SVG Version: 6.00 Build 0)  -->
<!DOCTYPE svg PUBLIC "-//W3C//DTD SVG 1.1//EN" "http://www.w3.org/Graphics/SVG/1.1/DTD/svg11.dtd">
<svg version="1.1" id="TOR" xmlns="http://www.w3.org/2000/svg" xmlns:xlink="http://www.w3.org/1999/xlink" x="0px" y="0px"
	 viewBox="0 0 145 168" enable-background="new 0 0 145 168" xml:space="preserve">
<g>
	<path fill="#FFFFFF" d="M130.4,40.3c-11.1-14.8-27.3-24.6-45.5-27.8c-9.7-1.7-19.4-1.4-28.9,0.8c-9.9,2.3-19,6.6-27.1,12.7
		C13.4,37.8,3.4,54.8,0.7,74C-2,93.1,3,112.2,14.6,127.7c11.1,14.8,27.3,24.6,45.5,27.8h0c9.7,1.7,19.4,1.4,28.9-0.8
		c9.8-2.3,19-6.6,27.1-12.7c15.5-11.7,25.4-28.6,28.1-47.8C147,74.9,142,55.8,130.4,40.3z M143.3,93.9
		c-2.6,18.9-12.5,35.7-27.7,47.2c-8,6.1-17,10.3-26.7,12.6c-9.4,2.2-19,2.5-28.5,0.8h0c-17.9-3.1-33.9-12.8-44.9-27.4
		C3.9,111.8-0.9,93,1.7,74.1C4.4,55.2,14.2,38.5,29.4,27c8-6.1,17-10.3,26.7-12.6c9.4-2.2,19-2.5,28.5-0.8
		c18,3.1,33.9,12.8,44.9,27.4C141.1,56.2,145.9,75,143.3,93.9z"/>
	<path fill="#FFFFFF" d="M94,38.6c1.6,1.2,4,0.8,5.2-0.8c1.2-1.6,0.8-4-0.8-5.2c-1.6-1.2-4-0.8-5.2,0.8C92.1,35,92.4,37.4,94,38.6z"
		/>
	<path fill="#FFFFFF" d="M27.1,54.8c1.6,1.2,4,0.8,5.2-0.8c1.2-1.6,0.8-4-0.8-5.2c-1.6-1.2-4-0.8-5.2,0.8
		C25.1,51.2,25.5,53.6,27.1,54.8z"/>
	<path fill="#FFFFFF" d="M51.5,36.4c1.6,1.2,4,0.8,5.2-0.8c1.2-1.6,0.8-4-0.8-5.2c-1.6-1.2-4-0.8-5.2,0.8
		C49.5,32.9,49.9,35.2,51.5,36.4z"/>
	<path fill="#FFFFFF" d="M27.4,106.9c0.7-0.3,0.8-1.1,0.4-1.9l-0.5-1l-2,1l0.5,1C26,106.6,26.6,107.3,27.4,106.9z"/>
	<polygon fill="#FFFFFF" points="97.2,130.7 97.3,132.9 98.9,132.1 	"/>
	<path fill="#FFFFFF" d="M124.4,44.8c-1.1-1.4-2.2-2.8-3.4-4.1c0,0,0-0.1-0.1-0.1c-9.7-10.9-22.8-18.2-37.4-20.7
		c-17.9-3.1-35.8,1.2-50.3,12.2C19.5,42.6,10.5,57.8,8.1,75c-2.4,17.2,2,34.3,12.5,48.2c10,13.2,24.5,22.1,40.8,24.9l0,0
		c17.9,3.1,35.8-1.2,50.3-12.2c13.9-10.5,22.8-25.7,25.2-42.9C139.3,75.8,134.9,58.7,124.4,44.8z M109.9,40.8c0,0-0.1,3-1.1,5.4
		c2.7-1.5,5.4-2.3,8.2-2.8c-2.9,3.4-5.1,6.3-6.5,10.2c2.6-1.8,4.2-2.5,6.6-2.6c-2.4,2.2-3.2,7.1-4.3,11.7l-3.2-5.3l-1.4-2.2
		l-1.4,2.2l-4,6.5l-2.7-1.1l-2.4-1l0.3,2.6c0,0.1,0.6,6.6,0.9,9.1c-1.4-1.4-4.1-3.9-4.1-4L93,68l-0.9,2.2l-0.8,2L86,71.4l-2-0.3
		l0.1,1.4c-3.7-0.2-6.1-0.7-9.8-1.6c-3-0.7-7.4-2.5-11.5-3.7c2.4-0.3,5.3-0.4,8.8-0.1c0,0-14.9-4.8-21.8-0.1
		c-0.9,0.5-1.6,1.2-1.9,1.9c-0.9,1.9-0.2,3.7-0.2,3.7c-2.8,0-5.2-3.1-5-6.4c2.1-3.2,5.1-6.4,11-8.3C62.7,55,97.4,55.2,109.9,40.8z
		 M42.4,58.4c-0.3,0.2-0.6,0.5-0.9,0.7c-0.1-0.1-0.1-0.2-0.2-0.3c-0.1-0.1-0.1-0.2-0.2-0.2c-0.3,0.4-0.7,0.8-1,1.2
		c0,0.1,0.1,0.1,0.1,0.2c0,0,0,0.1,0.1,0.1c-0.2,0.2-0.4,0.4-0.6,0.5c-0.1,0.1-0.1,0.1-0.2,0.2c0,0,0,0,0-0.1c0,0,0,0,0,0
		c-1.8,2.6-3.3,5.3-4.4,8.1c-0.9,0.2-1.8,0.3-2.7,0.5c1.9-5.2,4.9-10.2,8.9-14.5c14-14.9,36.2-17.6,53.1-7.5c-1,0.4-1.9,0.7-2.9,1
		c-2.1-1.1-4.2-2-6.4-2.7c-0.1,0-0.1,0-0.2-0.1c0,0-0.1,0-0.1,0C76.7,42.9,68,43,60,45.6v0l0,0c-0.2,0.9-0.8,2.3-1.1,2.8v0
		c0.4,0.3,0.7,0.7,0.8,1.2c0.1,0.3,0.2,0.7,0.3,1.1c0,0.4,0,0.8-0.1,1.2c0,0-0.1,0-0.1,0c-0.4,0-0.9,0-1.3,0.1c0-0.2,0.1-0.5,0-0.9
		c0,0,0,0,0,0c0,0,0,0,0-0.1c-0.1-0.8-0.4-1.7-1.2-2.5c0.1-0.1,0.1-0.1,0.2-0.2c0.4-0.5,0.8-1.4,1.1-2.3c-0.2,0.1-0.4,0.2-0.7,0.3
		c-0.7,0.3-1.4,0.5-2,0.9c-0.2,0.6-0.4,1.2-0.6,1.6c0,0,0,0.1,0,0.1c0,0,0,0.1,0,0.1c0.8,1,1.1,2.2,1,3.3c-0.5,0.1-1,0.2-1.5,0.3
		l0,0l0-0.1c0.2-0.7,0.1-1.7-1.1-3.1c0.3-0.3,0.5-0.8,0.7-1.5l0,0c-0.8,0.4-1.6,0.8-2.4,1.3c0,0.1,0,0.1-0.1,0.2
		c-0.1,0.2-0.1,0.4-0.2,0.6l0,0h0c0.1,0.1,0.2,0.2,0.3,0.3c0.3,0.4,0.6,0.9,0.8,1.4c0.2,0.5,0.3,0.9,0.3,1.4c-0.5,0.1-1,0.3-1.4,0.5
		c0-0.7-0.2-1.8-1.4-2.9c0.1-0.1,0.1-0.2,0.2-0.3c-0.3,0.2-0.6,0.4-0.9,0.6c-0.3,0.2-0.6,0.4-0.8,0.6v0c0.7,0.6,1.1,1.4,1.3,2.2
		c0,0.1,0.1,0.3,0.1,0.4c0,0,0,0-0.1,0c-0.4,0.2-0.8,0.3-1.2,0.5c0,0,0,0-0.1,0c0,0,0-0.1,0-0.2c0-0.3-0.1-0.6-0.3-0.9
		c-0.1-0.3-0.3-0.6-0.6-0.9c-0.1-0.1-0.2-0.3-0.4-0.4h0c-0.4,0.4-0.9,0.7-1.3,1.1c0.1,0.1,0.2,0.2,0.3,0.3c0.2,0.2,0.3,0.4,0.5,0.7
		c0.2,0.3,0.3,0.6,0.4,0.9c-0.4,0.2-0.7,0.4-1.1,0.6c-0.1-0.5-0.4-1.1-1-1.7c-0.1,0.1-0.2,0.2-0.3,0.3c-0.4,0.3-0.7,0.7-1.1,1.1
		c0.1,0.1,0.2,0.2,0.2,0.3c0.2,0.3,0.4,0.7,0.6,1c-0.1,0-0.1,0.1-0.2,0.1c-0.3,0.2-0.5,0.3-0.8,0.5c-0.1-0.3-0.4-0.7-0.7-1.1
		c0,0,0,0,0,0c0,0,0,0,0,0c-0.2,0.2-0.4,0.5-0.6,0.7c-0.2,0.2-0.3,0.4-0.5,0.6C42.1,57.9,42.3,58.1,42.4,58.4z M80.6,49.7
		c-0.2,0.5-0.6,1-0.9,1.5c-0.7,0.1-1.4,0.3-2.1,0.4c0,0,0,0,0,0c0.2-0.1,0.3-0.3,0.5-0.5c0.5-0.5,1-1.2,1.4-1.7
		C79.8,49.4,80.2,49.5,80.6,49.7z M75.8,51.8c-0.4,0.1-0.9,0.1-1.3,0.2c-0.2-0.6-0.5-1.2-0.9-1.7c0.6-0.5,1.3-1.5,1.8-2.3
		c0.4,0.1,0.8,0.2,1.3,0.4c-0.4,0.8-1.2,1.8-1.5,2.4C75.4,51,75.6,51.4,75.8,51.8z M72.1,52.4c-0.5,0.1-1,0.1-1.5,0.2
		c-0.1-0.9-0.4-2.2-1.2-3.1c0.6-0.5,1.4-1.6,1.9-2.5c0.4,0.1,0.9,0.2,1.3,0.3c-0.4,0.8-1.2,1.9-1.6,2.4C71.7,50.4,72,51.4,72.1,52.4
		z M67.7,52.6c-0.5-0.1-0.9-0.2-1.4-0.2c0.2-0.7,0.1-1.9-0.6-3.2c-0.1-0.2-0.2-0.4-0.3-0.5c0.6-0.4,1.5-1.6,2.1-2.5
		c0.5,0.1,0.9,0.2,1.3,0.3c-0.5,0.8-1.5,2-2,2.5C67.8,49.9,68,51.4,67.7,52.6z M63.6,52c-0.5,0-1-0.1-1.4-0.1
		c0.3-0.7,0.2-2.1-0.8-3.5c0.6-0.4,1.4-1.8,1.8-2.8c0.4,0,0.9,0.1,1.3,0.1c-0.4,0.9-1.1,2.2-1.5,2.8C63.8,49.4,63.9,50.9,63.6,52z
		 M91.3,31.9c2.1-2.8,6-3.4,8.7-1.3c2.7,2,3.3,5.9,1.3,8.7c-2.1,2.8-6,3.4-8.7,1.3C89.8,38.6,89.2,34.7,91.3,31.9z M80,24.4l8.6,1.7
		L88.5,29c-0.3-0.3-0.8-0.7-1.5-0.8l-1.9-0.4l-1.7,8.2c-0.1,0.6,0,1.1,0.3,1.5l-3.6-0.7c0.4-0.2,0.7-0.6,0.8-1.3l1.7-8.2l-1.8-0.4
		c-0.7-0.1-1.1-0.1-1.8,0.1L80,24.4z M71.4,25.2c-0.1-0.5-0.1-0.9-0.4-1.2l3.2-0.2c-0.2,0.4-0.3,0.8-0.3,1.3l0.6,10.8L67,30l0.3,4.9
		v0c0.1,0.7,0.1,1,0.4,1.4l-3.3,0.2c0.4-0.4,0.4-0.9,0.4-1.4l-0.6-10.7l7.6,5.9L71.4,25.2z M48.7,29.8c2.1-2.8,6-3.4,8.7-1.3
		c2.7,2,3.3,5.9,1.3,8.7c-2.1,2.8-6,3.4-8.7,1.3C47.3,36.4,46.7,32.5,48.7,29.8z M36.4,36.2L36.4,36.2c0.6-0.4,1.3-0.7,1.4-0.8
		c0.7-0.3,1.4-0.4,2-0.3c0.4,0.1,0.8,0.2,1.2,0.4l0.1,0c0.5,0.3,1,0.7,1.3,1.2c0.3,0.4,0.5,0.8,0.6,1.2c0.1,0.2,0.3,1.1-0.2,2.4
		l-0.1,0.2L47,42c0.6,0.2,1.2,0.3,1.6,0.3l-2.7,2L39.5,42l2.5,3.4c0.4,0.5,0.7,0.8,1.2,0.8l-2.9,2.1c0.1-0.4,0-0.8-0.2-1.1l-5.7-7.9
		c-0.3-0.5-0.8-0.6-1.2-0.7L36.4,36.2z M24.3,48.1c2.1-2.8,6-3.4,8.7-1.3c2.7,2,3.3,5.9,1.3,8.7c-2.1,2.8-6,3.4-8.7,1.3
		S22.3,50.9,24.3,48.1z M18.8,57.1l2.8,0.6c-0.4,0.3-0.9,0.7-1.1,1.3l-0.7,1.8l7.7,3.2c0.5,0.2,1.1,0.2,1.5,0l-1.4,3.4
		c-0.2-0.4-0.5-0.8-1.1-1l-7.7-3.2L18,65c-0.2,0.6-0.3,1.1-0.2,1.8l-2.4-1.5L18.8,57.1z M11.8,78.6c1.5-1.7,7.3-4.4,24.3-7.2
		c1.6-2.5,2.6-3.5,4.7-4.4c0.4,3.3,2.2,7.3,6.9,7.6c0,0,0,0,0,0c4.4,0,5.3-4.6,10-4.6c4.8,0,5.6,4.7,10.1,4.7h16.4l0.2,2.7H68.1
		c-0.1,0-0.3,0-0.4,0c-4.4,0.1-5.2,4.6-9.9,4.6c-4.8,0-5.6-4.6-10-4.7h-0.5h-0.2c-2.4,0-3.7,0.8-4.4,1.7c-1.1,0-2.2,0-3.3-0.1
		c-13.8-0.5-21.7-0.2-27.3,0.1C11.7,79,11.6,78.9,11.8,78.6z M16.6,110.3l-2.7-5.6c0.7,0.7,1.5,0.8,2.5,0.3l10.9-5.2
		c0.9-0.4,1.2-1.1,1.2-1.8l2.6,5.5c1.3,2.8,0.5,5.9-2,7.1v0h0c-1.7,0.8-2.9,0.3-2.9,0.3c-0.3,1.5-1.2,2.5-2.4,3l0,0v0
		C22.3,114.6,18.7,114.8,16.6,110.3z M30.5,127.7l-1.3,0.8l-6.8-7.6c0.9,0.3,1.6,0.3,2.4-0.4c0.9-0.8,8.9-8,9-8
		c0.1-0.1,0.1-0.1,0.1-0.1c0.8-0.7,0.9-1.4,0.7-2.1l1.8,2L25.5,122L30.5,127.7L30.5,127.7L30.5,127.7z M31.1,127.3L31.1,127.3
		l-4.6-5.2l10.4-9.2l0,0l1.8,2c-0.8-0.5-2.2,0.5-2.2,0.5c0,0,0,0-0.1,0.1c0,0,0,0,0,0c-1,0.8-6.7,6-7.7,6.9c0.8,0.9,2,2.3,2,2.3
		l0.1,0.1c1.2,1.3,2.6,1.3,2.6,1.3L31.1,127.3z M51.8,127.3l-5,7.9c-1.7,2.7-4.8,3-7.8,1.1c-3.1-2-3.9-4.8-2.2-7.5c0,0,5-7.9,5-7.9
		c0.6-0.9,0.5-1.5,0.1-2.2l2.2,1.4l-5.9,9.3c-0.2,0.3-0.2,0.3-0.2,0.3c-0.7,1-0.5,2.4,0.2,3.6c0,0,0,0,0,0.1
		c0.4,0.6,0.9,1.2,1.6,1.6c2,1.3,4.5,1,5.6-0.6c0,0,0.1-0.2,0.2-0.4l5.9-9.3l2.2,1.4C53,126.2,52.4,126.5,51.8,127.3z M41,133.2
		c1,0.6,2.2,0.5,2.7-0.3c1.7-2.7,4.9-7.7,4.9-7.7c0.5-0.8,0.6-1.4,0.1-2.2l2.2,1.4l-6,9.4c-0.9,1.5-3,1.7-4.7,0.6
		c-1.7-1.1-2.4-3.1-1.5-4.5l6-9.4L47,122c-0.9,0-1.5,0.3-2,1c0,0,0,0.1-0.1,0.1c0,0-4.2,6.7-4.8,7.5C39.7,131.5,40.1,132.6,41,133.2
		z M63.8,143.3l-7.4-1.8l1.3-5.7l6.1,1.4l-0.5,2.2c0,0-0.3-1-1.6-1.3l0,0l-2.7-0.6l-0.7,2.9c0,0,3.9,0.9,3.9,0.9
		c1.4,0.3,2.1-0.1,2.7-0.4L63.8,143.3z M65.9,134.3c0,0-0.5-1-2.3-1.5l-3.4-0.8l-0.5,2.3l2.8,0.7c1.3,0.3,2-0.5,2-0.5l-0.5,2.2
		l-6.1-1.5l1.2-5l7.1,1.7L65.9,134.3z M66.1,131.1l-7.6-1.8l-3,12.7l8.1,1.9l-0.6,1.4l0,0l-10.7-2.5c1.2-0.1,1.6-1,1.8-1.6
		c0-0.1,0,0,2.8-11.8c0.2-0.9-0.1-1.6-0.7-2.1l10,2.4L66.1,131.1z M43.3,115.2c-7.5-7-11.8-16-13.1-25.4c0.8,0.2,1.6,0.4,2.4,0.5
		c0.6,3.8,1.7,7.6,3.4,11.1c0,0,0.1-0.1,0.1-0.1c0,0,0-0.1,0.1-0.1c0.2,0.3,0.5,0.6,0.8,0.9c-0.1,0.2-0.2,0.3-0.3,0.5
		c0.1,0.2,0.2,0.4,0.3,0.6c0.1,0.2,0.2,0.4,0.3,0.6c0-0.1,0-0.1,0.1-0.2c0.1-0.3,0.2-0.5,0.4-0.8c0.3,0.3,0.6,0.6,0.9,0.8
		c-0.1,0.2-0.2,0.5-0.3,0.8c-0.1,0.2-0.1,0.4-0.2,0.6c0.3,0.5,0.6,1,0.9,1.4c0.1-0.7,0.3-1.3,0.6-1.9c0.3,0.3,0.6,0.5,0.9,0.8
		c-0.1,0.1-0.1,0.3-0.2,0.4c-0.2,0.6-0.4,1.4-0.4,2.1c0.2,0.2,0.3,0.4,0.5,0.6c0.3,0.4,0.7,0.9,1.1,1.3c0,0,0,0,0,0c0,0,0,0,0,0v0
		c-0.1-0.3-0.2-0.6-0.3-0.9c-0.1-0.9,0.1-1.8,0.6-2.5c0.1,0.1,0.2,0.2,0.3,0.2c0.2,0.2,0.5,0.3,0.7,0.5c-0.1,0.1-0.1,0.3-0.2,0.5
		c-0.3,0.8-0.4,2,0,3.1c0,0-0.1,0-0.1,0c-0.1,0-0.1,0-0.2,0.1c0,0-0.1,0-0.1,0.1c0.3,0.3,0.5,0.6,0.8,0.8c0.3,0.3,0.5,0.6,0.8,0.8
		c0.1-0.1,0.1-0.3,0.2-0.4c0,0,0-0.1,0-0.1c0.1-0.1,0.1-0.2,0.2-0.3c-0.7-1.2-0.6-2.6,0-3.7c0.4,0.2,0.7,0.4,1.1,0.6
		c-0.1,0.2-0.1,0.4-0.2,0.6c-0.1,0.7-0.2,1.6,0.1,2.4c0.1,0.2,0.2,0.5,0.3,0.7c0,0-0.1,0-0.1,0c0,0,0,0-0.1,0c0,0,0,0,0,0
		c0,0,0,0,0,0c0,0,0,0,0,0c-0.1,0.2-0.3,0.5-0.4,0.8c0,0,0,0,0,0c0,0,0,0,0,0c0.1,0.1,0.2,0.1,0.2,0.2c0.4,0.4,0.8,0.7,1.2,1.1
		c0.1,0.1,0.3,0.2,0.4,0.3c0.1-0.6,0.3-1.1,0.7-1.7c-0.6-1.1-0.8-2.7-0.4-3.8c0.3,0.1,0.6,0.3,0.9,0.4c0.1,0,0.2,0.1,0.3,0.1
		c-0.2,0.9-0.3,2.6,0.5,3.9c-0.1,0-0.2,0-0.2,0.1c-0.3,0.2-0.5,1-0.7,1.9c5.2,4,11.1,6.6,17.2,7.7c0.4,0.9,0.8,1.7,1.2,2.5
		C57.9,125,49.9,121.3,43.3,115.2z M52.6,115.4c-0.5-0.1-0.7,1-0.9,2.7c-0.4-0.1-0.8-0.2-1.2-0.4c0.1-1.3,0.2-2.1,0.7-2.7
		c-1.1-0.8-1.1-2.7-0.8-4c0.4,0.2,0.9,0.3,1.3,0.4C51.5,112.4,51.5,114.6,52.6,115.4z M56.6,116.1c-0.5,0-0.6,1.3-0.6,2.8
		c-0.4,0-0.9-0.1-1.3-0.2c-0.1-1.2,0-2.1,0.3-2.8c-0.2-0.1-0.3-0.2-0.4-0.3c-0.9-0.9-1-2.5-0.9-3.6c0.5,0.1,0.9,0.2,1.4,0.3
		C55,113.2,55.3,115.2,56.6,116.1z M60.8,119.2c-0.4,0-0.9,0-1.3,0c-0.2-1.1-0.2-2.1,0-3c-1.3-0.6-1.8-2.4-1.8-3.7
		c0.5,0,0.9,0.1,1.4,0.1c0.1,1,0.5,2.8,1.9,3.6C60.6,116.3,60.6,117.9,60.8,119.2z M46.8,93.2C43,90.5,40.5,89,35.1,88
		c-11.2-2.1-20.3-5.6-23-7.6c-0.6-0.5-0.5-0.7,0.1-0.7c0.6,0,1.2,0,1.9,0c9.8,0.3,18.5,1.2,26.5,2.4c-0.6,3.6,3.8,6.1,8.3,8
		c15.8,6.5,24.5,18.3,28.3,27.4c3.7-6.5,9.3-12.4,12.2-16l-5.6,0c1.3-3.5,4-8.1,6.8-12.4l5.1,4.4l-1.3,1.6l-2.4,2.9l3.8-0.3l7.9-0.6
		c-1.2,0.9-16.6,13.3-29.9,39C66.7,115.7,55.3,99.1,46.8,93.2z M106.3,104.1c-0.2-0.5-0.3-1.1-0.4-1.7c0.4,0,0.8-0.1,1.2-0.1
		c0,0.5,0.1,1.2,0.5,1.9c0.8-1.3,1.4-2.6,2-4c0.5-1.1,0.9-2.2,1.3-3.3l2.4,0.2c-1.9,5.8-5,11.3-9.5,16c-5.7,6.1-12.8,10.2-20.4,12.1
		c0.6-1,1.3-2,1.9-3c6.2-2,12-5.6,16.8-10.7c1.9-2,3.5-4.1,4.9-6.3C106.6,104.9,106.4,104.5,106.3,104.1z M103.5,118.7
		c0,0,0.2,0.4,0.8,0.7l3.8,1.5l-1.4-3.8c-0.3-0.8-0.5-0.9-0.7-1c-0.2-0.1-0.6-0.1-1.2,0.2l2.5-2.4l3.2,9.5l-9.4-3.5l0.1-0.1l2.4-2.3
		C103.5,117.9,103.2,118.3,103.5,118.7z M82.9,130.9c-0.2-0.9-1-1.5-1.5-1.6l2.6-0.6c0,0,2.7,11,2.7,11c0.4,1.8-0.9,3.2-2.5,3.6
		c-0.4,0.1-1.7,0.4-2.9-0.4c0,0-0.9-0.6-1.3-1.1l1.1-1.8c0,0,0.5,1.4,1.4,1.8c0,0,0.7,0.3,1.5,0c0.8-0.2,1.5-1,1.3-1.8L82.9,130.9z
		 M97.1,106.9c0.3-0.3,0.5-0.5,0.7-0.8c0.3,0.2,0.6,0.4,1,0.5c-0.3,0.7-0.8,1.9-1.1,3c-0.5,0.1-0.9,0.3-1.4,0.4
		c0.3-1.1,0.6-2.1,0.9-2.9C97.3,107,97.2,106.9,97.1,106.9z M99.6,104.3c0.4-0.4,0.8-0.8,1.1-1.1c0.1,0.7,0.5,1.9,1.7,2.7
		c-0.3,0.7-0.8,1.8-1.2,2.9c-0.5,0.1-1,0.2-1.4,0.3c0.2-0.7,0.6-1.6,0.9-2.3c0.1-0.2,0.2-0.4,0.3-0.6
		C100.3,105.6,99.8,105,99.6,104.3z M104.2,108.2c-0.4,0.1-0.8,0.1-1.2,0.2c0.3-0.9,0.8-2,1.3-2.8c-0.6-1-1-1.7-1.2-2.9
		c0.4-0.1,0.8-0.1,1.1-0.1c0.1,0.7,0.4,1.8,1.3,2.9C105.1,106.2,104.6,107.2,104.2,108.2z M87.7,143.6c-0.8,0.8-1.9,1.4-3.1,1.7
		c0,0-3.3,1.1-6-1.5l0.9-1.5c0.5,0.5,0.7,0.7,1.2,1c1,0.7,2.4,0.8,3.6,0.5c1.2-0.3,2.2-1,2.7-1.9c0.8-1.3,0.3-2.8,0.3-2.8l-2.7-10.7
		l2.6-0.6c0,0-0.9,1-0.6,2.1l2.3,9.1c0,0.1,0.1,0.6,0.1,0.6C89.1,141.1,88.7,142.5,87.7,143.6z M106.1,136.2l-2.7,1.4
		c0.7-0.9,0-1.6-0.4-1.9l-1.6-1.2l-3.7,1.9l0.1,1.9c0.2,0.9,0.7,1.4,1.3,1.5l-2.6,1.4l-0.1,0l-0.4-5.5l5.7-3L106.1,136.2
		L106.1,136.2z M96.1,135l-0.5-7.2l5.6,4.5L96.1,135z M106.9,135.8l-12-9.5l1,15.2l-2.4,1.2c0.4-0.6,0.7-1.5,0.7-3l-0.9-16.4
		l13.1,10c0.9,0.6,1.8,1.2,2.7,1.2L106.9,135.8z M113,130.8c0.3-0.7,0.3-1.6-0.5-2.4l-2.6-2.7l-9-3.4c-0.9-0.3-1.3-0.3-2.4,0
		l1.9-1.8l10.3,3.8l4.3,4.5L113,130.8z M115.6,128.3L115.6,128.3l-4.3-4.5l-3.5-10.4l2-1.9c-0.5,1.5-0.2,2.1-0.2,2.4l3.1,9.1
		l2.8,2.9c0.6,0.5,1.3,0.7,2.2,0.4L115.6,128.3z M121,115.3l-0.6-2l0,0c0,0,1.4,0.6,2.2,0.1c0.2-0.1,0.7-0.3,1-1
		c0.4-0.8,0.2-1.7-0.3-2c-0.8-0.4-1.6,0.1-2.8,1.1l-0.1,0.1c-1.5,1.3-3.3,2.9-6.1,1.3c-0.2-0.1-0.4-0.2-0.5-0.4
		c-1.2-0.9-1.9-2.1-2-3.6c-0.1-1.1,0.2-2.2,0.9-3.4c0.9-1.5,2.6-2.8,4.2-3l0.4,0h0h0l0,0l0.5,1.5h0c-2.3-0.1-3.5,1.8-3.9,2.3
		c-0.6,1-0.8,2.2-0.5,3.1c0.3,0.9,0.8,1.6,1.7,2c1.8,1,3.1,0,4.6-1.3c0,0,0.9-0.8,1.7-1.3c0.9-0.6,1.8-0.6,2.9,0
		c1.3,0.8,1.7,2.5,0.8,4.1l0,0.1c0,0,0,0.1-0.1,0.1c-0.6,1-1.4,1.6-2.4,1.9C122.4,115.1,121.5,115.4,121,115.3L121,115.3z
		 M126.8,114.3c0,0,0,0.1-0.1,0.2c-0.4,0.7-1.9,3-5,3.1h0l-0.5-1.7h0c0.7,0,1-0.1,1.5-0.2c1.2-0.3,2.2-1.1,2.9-2.2
		c0.6-1.1,0.8-2.2,0.5-3.3c-0.2-0.8-0.7-1.4-1.5-1.9c-0.8-0.5-1.6-0.5-1.7-0.5c-1.2,0-2.1,0.7-3,1.5c-0.1,0.1-0.2,0.1-0.2,0.2
		l-0.4,0.4l-0.1,0c-1,0.9-2.1,1.9-3.6,1c-1.6-0.9-2-2.5-1-4.1c1.2-1.9,2.9-2.1,3.5-2h0l0.7,2l0,0c-1.8-0.9-2.8,0.5-2.9,0.7
		c-0.5,0.8-0.4,1.5,0.1,1.9c0.1,0.1,0.1,0.1,0.3,0.2c0.5,0.2,1,0,2.1-1.1l0.1,0c1.1-1.1,3.5-3.3,6.8-1.4c1.4,0.8,2.3,2.2,2.4,3.9
		C127.7,112,127.4,113.2,126.8,114.3z M118.5,93.4l2.3,2.8l-7.2-0.6l-2.4-0.2l-2.1-0.2l-0.7,1.3l-0.3,0.6l-1-2l-10.8,0.9l-0.8,0.1
		l2.3-2.8L83.7,81.2l1.1-0.4l1.5-0.5l-0.6-7.3l6.7,1.1l1.3-3.2c0,0,4,3.9,4.8,4.7c0,0,0,0,0.1,0.1c0.2,0.2,0.3,0.3,0.5,0.4
		c0.2,0.1,0.3,0.1,0.4,0.2c0.1,0,0.1,0,0.2,0c0.3,0,0.5-0.1,0.7-0.4c0.1-0.2,0.2-0.4,0.2-0.7c0-0.2,0-0.4,0-0.6c-0.1-1.2-1-10-1-10
		l3.9,1.6l1.6-2.6l3.1-5.1l0,0l4.7,7.7l3.9-1.6c0,0-0.6,6.1-0.9,8.8c-0.1,0.6-0.1,1-0.1,1.2c-0.1,1.1,0.2,1.6,0.7,1.7
		c0.1,0,0.1,0,0.2,0c0.4,0,0.8-0.2,1.1-0.6c0,0,0,0,0.1-0.1c0.8-0.7,4.8-4.7,4.8-4.7l1.3,3.2l6.7-1.1l-0.6,7.3l1.3,0.4l1.3,0.4
		L118.5,93.4z"/>
	<path fill="#FFFFFF" d="M22.2,106.4l-2.8,1.3l0.5,1c0.8,1.6,1.4,1.6,2,1.5c0.2,0,0.5-0.2,0.7-0.4c0.4-0.4,0.6-1.1,0-2.5L22.2,106.4
		z"/>
	<path fill="#FFFFFF" d="M39.7,40.5c1-0.8,0.9-1.6,0.9-1.7c0-0.1-0.2-0.7-0.6-0.9c-0.6-0.4-1.2-0.3-2.1,0.3l-0.8,0.6l1.7,2.4
		L39.7,40.5z"/>
	<path fill="#FFFFFF" d="M140.7,93.5c2.5-18.2-2.2-36.3-13.2-51c-10.6-14-25.9-23.4-43.2-26.4c-9.2-1.6-18.4-1.3-27.5,0.8
		c-3.1,0.7-6,1.6-9,2.8C41.8,22,36.2,25.1,31,29c-2.7,2-5.2,4.2-7.5,6.6C13.1,46.1,6.4,59.6,4.3,74.5c-0.5,3.4-0.7,6.8-0.7,10.2
		c0.1,14.7,4.9,28.9,13.9,40.8c2.6,3.5,5.6,6.7,8.8,9.6c9.6,8.7,21.5,14.5,34.4,16.8h0c8,1.4,16.1,1.4,24.1-0.1
		c1.1-0.2,2.3-0.4,3.4-0.7c9.4-2.2,18-6.3,25.8-12.1C128.7,127.9,138.2,111.7,140.7,93.5z M116.3,135.5c-1,0.8-2,1.7-3.1,2.5
		c-10.6,8-23.3,12.6-36.3,13.5c-0.7,0.1-1.5,0.1-2.2,0.1c-2.9,0.1-5.7,0-8.6-0.3c-1.7-0.2-3.5-0.4-5.2-0.7l0,0
		c-7.6-1.3-14.7-3.9-21.3-7.5c-2.2-1.2-4.3-2.5-6.3-4c-5.6-4-10.6-8.8-14.8-14.4c-3.7-4.9-6.6-10.1-8.8-15.6
		c-2.3-5.7-3.8-11.7-4.5-17.9c-0.6-5.5-0.5-11.1,0.3-16.7c1.7-12,6.5-23.2,13.8-32.5c3.6-4.5,7.7-8.6,12.5-12.2
		c9.2-6.9,19.9-11.3,31.1-12.9c0.3-0.1,0.7-0.1,1-0.1c0.8-0.1,1.6-0.2,2.4-0.3c1.9-0.2,3.8-0.3,5.7-0.3c3.5,0,6.9,0.2,10.4,0.7
		c0.6,0.1,1.2,0.2,1.7,0.3c3.5,0.6,7,1.5,10.4,2.7c12.7,4.3,23.9,12.4,32.1,23.2c7.4,9.8,11.9,21.2,13.2,33.1c0,0.1,0,0.2,0,0.3
		c0,0,0,0,0,0c0.6,5.5,0.5,11-0.3,16.6c-0.8,5.5-2.2,10.8-4.2,15.8C131.3,119.3,124.8,128.3,116.3,135.5z"/>
	<path fill="#134A8E" d="M84.7,13.6c-9.5-1.6-19.1-1.4-28.5,0.8c-9.7,2.3-18.7,6.5-26.7,12.6C14.2,38.5,4.4,55.2,1.7,74.1
		c-2.6,18.9,2.2,37.7,13.7,53c11,14.5,26.9,24.3,44.9,27.4h0c9.5,1.6,19.1,1.4,28.5-0.8c9.7-2.3,18.7-6.5,26.7-12.6
		c15.2-11.5,25.1-28.2,27.7-47.2c2.6-18.9-2.2-37.7-13.7-53C118.6,26.4,102.6,16.7,84.7,13.6z M140.7,93.5
		c-2.5,18.2-12,34.3-26.7,45.4c-7.7,5.8-16.4,9.9-25.8,12.1c-1.1,0.3-2.3,0.5-3.4,0.7c-7.9,1.4-16,1.5-24.1,0.1h0
		c-13-2.2-24.8-8.1-34.4-16.8c-3.2-2.9-6.1-6.1-8.8-9.6c-9-11.9-13.8-26.1-13.9-40.8c0-3.4,0.2-6.8,0.7-10.2
		c2.1-14.9,8.8-28.4,19.2-38.9c2.3-2.3,4.8-4.5,7.5-6.6c5.2-3.9,10.8-7.1,16.8-9.3c2.9-1.1,5.9-2,9-2.8c9-2.1,18.3-2.4,27.5-0.8
		c17.3,3,32.6,12.3,43.2,26.4C138.5,57.2,143.2,75.3,140.7,93.5z"/>
	<path fill="#134A8E" d="M135.3,109.1c2-5,3.4-10.3,4.2-15.8c0.8-5.6,0.9-11.2,0.3-16.6c0,0,0,0,0,0c0-0.1,0-0.2,0-0.3
		c-1.3-11.9-5.8-23.3-13.2-33.1c-8.2-10.9-19.4-18.9-32.1-23.2c-3.4-1.1-6.8-2-10.4-2.7c-0.6-0.1-1.1-0.2-1.7-0.3
		c-3.4-0.5-6.9-0.7-10.4-0.7c-1.9,0-3.8,0.1-5.7,0.3c-0.8,0.1-1.6,0.2-2.4,0.3c-0.3,0-0.7,0.1-1,0.1c-11.2,1.6-21.9,6-31.1,12.9
		c-4.7,3.6-8.9,7.7-12.5,12.2C12,51.5,7.2,62.6,5.5,74.6c-0.8,5.6-0.9,11.2-0.3,16.7c0.7,6.1,2.2,12.2,4.5,17.9
		c2.2,5.5,5.2,10.7,8.8,15.6c4.2,5.6,9.2,10.4,14.8,14.4c2,1.4,4.2,2.8,6.3,4c6.6,3.6,13.8,6.2,21.3,7.5l0,0
		c1.7,0.3,3.4,0.5,5.2,0.7c2.9,0.3,5.7,0.4,8.6,0.3c0.7,0,1.5-0.1,2.2-0.1c13.1-0.9,25.8-5.5,36.3-13.5c1-0.8,2.1-1.6,3.1-2.5
		C124.8,128.3,131.3,119.3,135.3,109.1z M111.7,135.9c-14.5,11-32.4,15.3-50.3,12.2l0,0c-16.3-2.8-30.8-11.7-40.8-24.9
		C10.1,109.3,5.7,92.2,8.1,75c2.4-17.2,11.4-32.4,25.2-42.9c14.5-10.9,32.4-15.3,50.3-12.2c14.5,2.5,27.6,9.8,37.4,20.7
		c0,0,0.1,0.1,0.1,0.1c1.2,1.3,2.3,2.7,3.4,4.1c10.5,13.9,14.9,31,12.5,48.2C134.5,110.2,125.5,125.4,111.7,135.9z"/>
	<path fill="#E8291C" d="M47.8,116c0.2-0.9,0.4-1.6,0.7-1.9c0.1-0.1,0.1-0.1,0.2-0.1c-0.8-1.2-0.8-3-0.5-3.9c-0.1,0-0.2-0.1-0.3-0.1
		c-0.3-0.1-0.6-0.3-0.9-0.4c-0.4,1.1-0.3,2.7,0.4,3.8c-0.4,0.6-0.6,1.1-0.7,1.7c-0.1-0.1-0.3-0.2-0.4-0.3c-0.4-0.4-0.8-0.7-1.2-1.1
		c-0.1-0.1-0.2-0.1-0.2-0.2c0,0,0,0,0,0c0,0,0,0,0,0c0.1-0.3,0.3-0.6,0.4-0.8c0,0,0,0,0,0c0,0,0,0,0,0c0,0,0,0,0,0c0,0,0,0,0.1,0
		c0,0,0.1,0,0.1,0c-0.1-0.2-0.2-0.5-0.3-0.7c-0.3-0.9-0.2-1.8-0.1-2.4c0.1-0.2,0.1-0.5,0.2-0.6c-0.4-0.2-0.7-0.4-1.1-0.6
		c-0.5,1-0.7,2.5,0,3.7c-0.1,0.1-0.1,0.2-0.2,0.3c0,0,0,0.1,0,0.1c-0.1,0.1-0.1,0.2-0.2,0.4c-0.3-0.3-0.5-0.5-0.8-0.8
		c-0.3-0.3-0.5-0.6-0.8-0.8c0,0,0.1-0.1,0.1-0.1c0.1-0.1,0.1-0.1,0.2-0.1c0,0,0.1,0,0.1,0c-0.4-1.1-0.3-2.3,0-3.1
		c0.1-0.2,0.1-0.3,0.2-0.5c-0.2-0.2-0.5-0.3-0.7-0.5c-0.1-0.1-0.2-0.2-0.3-0.2c-0.4,0.7-0.7,1.6-0.6,2.5c0,0.3,0.1,0.6,0.3,0.9v0
		c0,0,0,0,0,0c0,0,0,0,0,0c-0.4-0.4-0.7-0.9-1.1-1.3c-0.2-0.2-0.3-0.4-0.5-0.6c0-0.8,0.2-1.5,0.4-2.1c0.1-0.1,0.1-0.3,0.2-0.4
		c-0.3-0.3-0.6-0.5-0.9-0.8c-0.3,0.6-0.5,1.2-0.6,1.9c-0.3-0.5-0.6-1-0.9-1.4c0.1-0.2,0.1-0.4,0.2-0.6c0.1-0.3,0.2-0.6,0.3-0.8
		c-0.3-0.3-0.6-0.6-0.9-0.8c-0.1,0.2-0.2,0.5-0.4,0.8c0,0.1,0,0.1-0.1,0.2c-0.1-0.2-0.2-0.4-0.3-0.6c-0.1-0.2-0.2-0.4-0.3-0.6
		c0.1-0.2,0.2-0.3,0.3-0.5c-0.3-0.3-0.5-0.6-0.8-0.9c0,0,0,0.1-0.1,0.1c0,0-0.1,0.1-0.1,0.1c-1.7-3.6-2.8-7.3-3.4-11.1
		c-0.8-0.2-1.6-0.3-2.4-0.5c1.3,9.4,5.7,18.4,13.1,25.4c6.6,6.2,14.6,9.9,22.9,11.1c-0.4-0.8-0.8-1.7-1.2-2.5
		C59,122.6,53,120,47.8,116z"/>
	<path fill="#E8291C" d="M43,56.4C43,56.3,43,56.3,43,56.4C43,56.3,43,56.3,43,56.4c0.3,0.4,0.5,0.8,0.7,1.1
		c0.3-0.2,0.5-0.3,0.8-0.5c0.1,0,0.1-0.1,0.2-0.1c-0.1-0.3-0.3-0.7-0.6-1c-0.1-0.1-0.2-0.2-0.2-0.3c0.4-0.4,0.7-0.7,1.1-1.1
		c0.1-0.1,0.2-0.2,0.3-0.3c0.6,0.6,0.9,1.2,1,1.7c0.4-0.2,0.7-0.4,1.1-0.6c-0.1-0.3-0.3-0.6-0.4-0.9c-0.1-0.2-0.3-0.5-0.5-0.7
		c-0.1-0.1-0.2-0.2-0.3-0.3c0.4-0.4,0.9-0.7,1.3-1.1h0c0.1,0.1,0.3,0.3,0.4,0.4c0.3,0.3,0.4,0.6,0.6,0.9c0.2,0.3,0.3,0.6,0.3,0.9
		c0,0.1,0,0.1,0,0.2c0,0,0,0,0.1,0c0.4-0.2,0.8-0.4,1.2-0.5c0,0,0,0,0.1,0c0-0.1-0.1-0.3-0.1-0.4c-0.2-0.8-0.7-1.6-1.3-2.2v0
		c0.3-0.2,0.6-0.4,0.8-0.6c0.3-0.2,0.6-0.4,0.9-0.6c-0.1,0.1-0.1,0.2-0.2,0.3c1.2,1.1,1.5,2.2,1.4,2.9c0.5-0.2,0.9-0.3,1.4-0.5
		c0-0.5-0.1-0.9-0.3-1.4c-0.2-0.5-0.4-0.9-0.8-1.4c-0.1-0.1-0.2-0.2-0.3-0.3h0l0,0c0.1-0.1,0.1-0.3,0.2-0.6c0-0.1,0-0.1,0.1-0.2
		c0.8-0.5,1.6-0.9,2.4-1.3l0,0c-0.2,0.6-0.5,1.2-0.7,1.5c1.2,1.4,1.3,2.4,1.1,3.1l0,0.1l0,0c0.5-0.1,1-0.2,1.5-0.3
		c0.2-1.1-0.2-2.3-1-3.3c0,0,0-0.1,0-0.1c0,0,0-0.1,0-0.1c0.2-0.4,0.4-1,0.6-1.6c0.7-0.3,1.3-0.6,2-0.9c0.2-0.1,0.4-0.2,0.7-0.3
		c-0.3,0.8-0.7,1.8-1.1,2.3c-0.1,0.1-0.1,0.1-0.2,0.2c0.7,0.8,1.1,1.7,1.2,2.5c0,0,0,0,0,0.1c0,0,0,0,0,0c0,0.3,0,0.6,0,0.9
		c0.4,0,0.9-0.1,1.3-0.1c0,0,0.1,0,0.1,0c0.1-0.4,0.1-0.8,0.1-1.2c0-0.4-0.1-0.7-0.3-1.1c-0.2-0.4-0.5-0.9-0.8-1.2v0
		c0.3-0.6,0.9-1.9,1.1-2.8l0,0v0c8-2.6,16.7-2.7,24.8-0.1c0,0,0.1,0,0.1,0c0.1,0,0.1,0,0.2,0.1c2.2,0.7,4.3,1.6,6.4,2.7
		c1-0.3,2-0.6,2.9-1c-16.9-10.1-39.1-7.5-53.1,7.5c-4,4.3-7,9.2-8.9,14.5c0.9-0.2,1.8-0.3,2.7-0.5c1.1-2.8,2.6-5.5,4.4-8.1
		c0,0,0,0,0,0c0,0,0,0,0,0.1c0.1-0.1,0.1-0.1,0.2-0.2c0.2-0.2,0.4-0.4,0.6-0.5c0,0,0-0.1-0.1-0.1c0-0.1-0.1-0.1-0.1-0.2
		c0.3-0.4,0.6-0.8,1-1.2c0.1,0.1,0.1,0.2,0.2,0.2c0.1,0.1,0.1,0.2,0.2,0.3c0.3-0.2,0.6-0.5,0.9-0.7c-0.1-0.3-0.3-0.5-0.5-0.8
		c0.2-0.2,0.3-0.4,0.5-0.6C42.6,56.8,42.8,56.6,43,56.4z"/>
	<path fill="#E8291C" d="M85.2,122.4c-0.6,1-1.3,1.9-1.9,3c7.6-2,14.7-6,20.4-12.1c4.4-4.7,7.6-10.2,9.5-16l-2.4-0.2
		c-0.4,1.1-0.8,2.2-1.3,3.3c-0.6,1.3-1.3,2.7-2,4c-0.3-0.7-0.4-1.4-0.5-1.9c-0.4,0-0.8,0-1.2,0.1c0.1,0.6,0.2,1.2,0.4,1.7
		c0.2,0.4,0.3,0.8,0.6,1.2c-1.4,2.2-3,4.4-4.9,6.3C97.2,116.7,91.4,120.3,85.2,122.4z"/>
	<path fill="#E8291C" d="M53.7,112c-0.2,1.1,0,2.7,0.9,3.6c0.1,0.1,0.3,0.2,0.4,0.3c-0.3,0.7-0.4,1.6-0.3,2.8
		c0.4,0.1,0.9,0.1,1.3,0.2c0-1.5,0.1-2.8,0.6-2.8c-1.3-0.9-1.5-2.9-1.4-3.9C54.7,112.2,54.2,112.1,53.7,112z"/>
	<path fill="#E8291C" d="M50.3,111c-0.3,1.2-0.3,3.1,0.8,4c-0.4,0.7-0.6,1.4-0.7,2.7c0.4,0.1,0.8,0.3,1.2,0.4
		c0.2-1.7,0.4-2.8,0.9-2.7c-1.1-0.8-1.1-3-1-4C51.2,111.3,50.8,111.2,50.3,111z"/>
	<path fill="#E8291C" d="M97.8,109.6c0.3-1.1,0.7-2.3,1.1-3c-0.4-0.1-0.8-0.3-1-0.5c-0.2,0.3-0.5,0.5-0.7,0.8c0.1,0,0.2,0.1,0.3,0.1
		c-0.3,0.8-0.7,1.9-0.9,2.9C96.9,109.8,97.3,109.7,97.8,109.6z"/>
	<path fill="#E8291C" d="M99.8,109.1c0.5-0.1,1-0.2,1.4-0.3c0.4-1,0.9-2.2,1.2-2.9c-1.2-0.8-1.6-1.9-1.7-2.7
		c-0.4,0.3-0.7,0.7-1.1,1.1c0.3,0.7,0.7,1.3,1.4,1.8c-0.1,0.2-0.2,0.4-0.3,0.6C100.4,107.4,100,108.3,99.8,109.1z"/>
	<path fill="#E8291C" d="M103.1,102.7c0.2,1.2,0.6,1.9,1.2,2.9c-0.4,0.8-0.9,1.9-1.3,2.8c0.4-0.1,0.8-0.1,1.2-0.2
		c0.4-0.9,0.9-2,1.3-2.7c-0.9-1.1-1.2-2.2-1.3-2.9C103.8,102.6,103.5,102.6,103.1,102.7z"/>
	<path fill="#E8291C" d="M75.3,48c-0.5,0.8-1.2,1.8-1.8,2.3c0.4,0.5,0.7,1.1,0.9,1.7c0.4-0.1,0.9-0.1,1.3-0.2
		c-0.2-0.4-0.4-0.7-0.7-1c0.3-0.6,1.1-1.6,1.5-2.4C76.2,48.3,75.8,48.1,75.3,48z"/>
	<path fill="#E8291C" d="M77.5,51.4C77.5,51.5,77.5,51.5,77.5,51.4c0.7-0.1,1.4-0.2,2.1-0.3c0.3-0.5,0.7-1,0.9-1.5
		c-0.4-0.1-0.8-0.3-1.2-0.4C79,49.8,78.5,50.5,78,51C77.8,51.2,77.7,51.3,77.5,51.4z"/>
	<path fill="#E8291C" d="M71.4,47c-0.5,0.9-1.4,2-1.9,2.5c0.8,0.9,1.1,2.2,1.2,3.1c0.5-0.1,1-0.1,1.5-0.2c-0.1-1-0.4-2-1-2.6
		c0.4-0.5,1.2-1.6,1.6-2.4C72.2,47.2,71.8,47.1,71.4,47z"/>
	<path fill="#E8291C" d="M67.5,46.2c-0.6,0.9-1.5,2-2.1,2.5c0.1,0.2,0.2,0.3,0.3,0.5c0.7,1.2,0.7,2.5,0.6,3.2
		c0.5,0.1,0.9,0.2,1.4,0.2c0.3-1.1,0.1-2.6-0.7-3.6c0.4-0.5,1.5-1.6,2-2.5C68.4,46.3,68,46.3,67.5,46.2z"/>
	<path fill="#E8291C" d="M63.2,45.5c-0.5,1-1.3,2.4-1.8,2.8c1,1.4,1.1,2.9,0.8,3.5c0.5,0,1,0,1.4,0.1c0.3-1.1,0.3-2.5-0.6-3.5
		c0.4-0.5,1.1-1.9,1.5-2.8C64.1,45.6,63.6,45.6,63.2,45.5z"/>
	<path fill="#E8291C" d="M61,116.2c-1.4-0.8-1.9-2.6-1.9-3.6c-0.5,0-1,0-1.4-0.1c0,1.3,0.5,3.2,1.8,3.7c-0.2,0.9-0.2,1.8,0,3
		c0.4,0,0.9,0,1.3,0C60.6,117.9,60.6,116.3,61,116.2z"/>
	<polygon fill="#FFFFFF" points="131.9,133.7 131.9,133.7 131.3,131.9 130.3,131.9 130.3,134.6 130.9,134.6 130.9,132.5 
		130.9,132.5 131.7,134.6 132.2,134.6 133,132.5 133,132.5 133,134.6 133.6,134.6 133.6,131.9 132.6,131.9 	"/>
	<polygon fill="#FFFFFF" points="127.6,132.4 128.4,132.4 128.4,134.6 129,134.6 129,132.4 129.8,132.4 129.8,131.9 127.6,131.9 	
		"/>
	<path fill="#134A8E" d="M42.7,66.3c-0.2,3.3,2.2,6.4,5,6.4c0,0-0.7-1.9,0.2-3.7c0.4-0.7,1-1.4,1.9-1.9c6.9-4.7,21.8,0.1,21.8,0.1
		c-3.5-0.3-6.4-0.3-8.8,0.1c4.1,1.3,8.5,3,11.5,3.7c3.7,0.9,6.1,1.4,9.8,1.6L83.9,71l2,0.3l5.4,0.9l0.8-2L93,68l1.7,1.7
		c0,0,2.7,2.6,4.1,4c-0.2-2.6-0.9-9-0.9-9.1L97.7,62l2.4,1l2.7,1.1l4-6.5l1.4-2.2l1.4,2.2l3.2,5.3c1.1-4.6,1.9-9.4,4.3-11.7
		c-2.4,0.1-4,0.8-6.6,2.6c1.5-3.9,3.6-6.9,6.5-10.2c-2.8,0.4-5.5,1.2-8.2,2.8c1-2.4,1.1-5.4,1.1-5.4C97.4,55.2,62.7,55,53.7,58
		C47.8,59.9,44.8,63.1,42.7,66.3z"/>
	<path fill="#1D2D5C" d="M103.6,97.2l-7.9,0.6l-3.8,0.3l2.4-2.9l1.3-1.6l-5.1-4.4c-2.8,4.2-5.5,8.8-6.8,12.4l5.6,0
		c-2.9,3.6-8.4,9.5-12.2,16c-3.7-9.2-12.5-21-28.3-27.4c-4.6-1.9-8.9-4.4-8.3-8c-7.9-1.1-16.6-2-26.5-2.4c-0.7,0-1.4,0-1.9,0
		c-0.6,0-0.7,0.2-0.1,0.7c2.7,1.9,11.8,5.5,23,7.6c5.4,1,7.8,2.5,11.7,5.2c8.4,5.9,19.9,22.5,26.9,43
		C87,110.5,102.4,98.1,103.6,97.2z"/>
	<path fill="#1D2D5C" d="M39.2,79c1.1,0,2.3,0,3.3,0.1c0.7-0.9,2-1.7,4.4-1.7h0.2h0.5c4.5,0.1,5.3,4.7,10,4.7c4.7,0,5.6-4.5,9.9-4.6
		c0.2,0,0.3,0,0.4,0h16.4l-0.2-2.7H67.8c-4.6,0-5.4-4.7-10.1-4.7c-4.7,0-5.6,4.6-10,4.6c0,0,0,0,0,0c-4.7-0.3-6.5-4.3-6.9-7.6
		c-2.1,0.9-3.1,1.9-4.7,4.4c-16.9,2.8-22.7,5.5-24.3,7.2c-0.2,0.3-0.1,0.4,0.1,0.5C17.5,78.9,25.4,78.6,39.2,79z M55.9,72.1
		c-0.3,1.3-0.1,2.5-0.1,3.1h-1.6C54.2,74,54.9,72.8,55.9,72.1z"/>
	<path fill="#FFFFFF" d="M55.9,72.1c-1,0.7-1.7,1.9-1.7,3.1h1.6C55.7,74.6,55.5,73.5,55.9,72.1z"/>
	<path fill="#134A8E" d="M64.8,35.1c0,0.5,0,1-0.4,1.4l3.3-0.2c-0.3-0.3-0.3-0.7-0.4-1.4v0L67,30l7.5,5.9l-0.6-10.8
		c0-0.4,0-0.9,0.3-1.3L71,24c0.2,0.3,0.3,0.6,0.4,1.2l0.3,5.1l-7.6-5.9L64.8,35.1z"/>
	<path fill="#134A8E" d="M25.6,56.8c2.7,2,6.7,1.4,8.7-1.3c2.1-2.8,1.5-6.7-1.3-8.7c-2.7-2-6.7-1.4-8.7,1.3
		C22.3,50.9,22.8,54.8,25.6,56.8z M26.3,49.6c1.2-1.6,3.6-2,5.2-0.8c1.6,1.2,2,3.6,0.8,5.2c-1.2,1.6-3.6,2-5.2,0.8
		C25.5,53.6,25.1,51.2,26.3,49.6z"/>
	<path fill="#134A8E" d="M80.7,26.9l1.8,0.4l-1.7,8.2c-0.1,0.6-0.4,1-0.8,1.3l3.6,0.7c-0.3-0.4-0.4-0.9-0.3-1.5l1.7-8.2l1.9,0.4
		c0.7,0.1,1.2,0.5,1.5,0.8l0.1-2.9L80,24.4L79,27C79.6,26.7,80.1,26.7,80.7,26.9z"/>
	<path fill="#134A8E" d="M18,65l0.7-1.7l7.7,3.2c0.6,0.3,0.9,0.6,1.1,1l1.4-3.4c-0.4,0.2-1,0.2-1.5,0l-7.7-3.2l0.7-1.8
		c0.3-0.7,0.7-1.1,1.1-1.3l-2.8-0.6l-3.3,8.1l2.4,1.5C17.7,66.1,17.8,65.6,18,65z"/>
	<path fill="#134A8E" d="M34.4,39.4l5.7,7.9c0.1,0.3,0.2,0.7,0.2,1.1l2.9-2.1c-0.6,0-0.9-0.4-1.2-0.8L39.5,42l6.4,2.3l2.7-2
		c-0.4,0-1-0.1-1.6-0.3l-4.2-1.4l0.1-0.2c0.5-1.3,0.3-2.3,0.2-2.4c-0.1-0.4-0.3-0.8-0.6-1.2c-0.4-0.5-0.8-0.9-1.3-1.2l-0.1,0
		c-0.4-0.2-0.8-0.3-1.2-0.4c-0.6-0.1-1.3,0-2,0.3c-0.1,0.1-0.8,0.4-1.4,0.7l0,0l-3.3,2.4C33.6,38.7,34,38.9,34.4,39.4z M37.9,38.2
		c0.8-0.6,1.4-0.7,2.1-0.3c0.4,0.2,0.6,0.8,0.6,0.9c0,0.1,0.1,1-0.9,1.7l-0.9,0.6l-1.7-2.4L37.9,38.2z"/>
	<path fill="#134A8E" d="M50,38.5c2.7,2,6.6,1.4,8.7-1.3c2.1-2.8,1.5-6.7-1.3-8.7c-2.7-2-6.7-1.4-8.7,1.3
		C46.7,32.5,47.3,36.4,50,38.5z M50.7,31.2c1.2-1.6,3.6-2,5.2-0.8c1.6,1.2,2,3.6,0.8,5.2c-1.2,1.6-3.6,2-5.2,0.8
		C49.9,35.2,49.5,32.9,50.7,31.2z"/>
	<path fill="#134A8E" d="M92.5,40.7c2.7,2,6.7,1.4,8.7-1.3c2.1-2.8,1.5-6.7-1.3-8.7c-2.7-2-6.7-1.4-8.7,1.3
		C89.2,34.7,89.8,38.6,92.5,40.7z M93.3,33.4c1.2-1.6,3.6-2,5.2-0.8c1.6,1.2,2,3.6,0.8,5.2c-1.2,1.6-3.6,2-5.2,0.8
		C92.4,37.4,92.1,35,93.3,33.4z"/>
	<path fill="#134A8E" d="M44.9,123.1C45,123,45,123,45,123c0.5-0.7,1.1-1.1,2-1l-2.2-1.4l-6,9.4c-0.9,1.5-0.2,3.5,1.5,4.5
		c1.7,1.1,3.8,0.9,4.7-0.6l6-9.4l-2.2-1.4c0.5,0.8,0.4,1.4-0.1,2.2c0,0-3.2,5-4.9,7.7c-0.5,0.8-1.7,0.9-2.7,0.3
		c-1-0.6-1.4-1.8-0.9-2.6C40.7,129.8,44.9,123.2,44.9,123.1z"/>
	<path fill="#134A8E" d="M51.5,124.9l-5.9,9.3c-0.1,0.1-0.2,0.4-0.2,0.4c-1,1.6-3.5,1.9-5.6,0.6c-0.7-0.4-1.3-1-1.6-1.6
		c0,0,0,0,0-0.1c-0.7-1.2-0.8-2.5-0.2-3.6c0,0,0-0.1,0.2-0.3l5.9-9.3l-2.2-1.4c0.4,0.8,0.5,1.3-0.1,2.2c0,0-5,7.9-5,7.9
		c-1.7,2.7-0.9,5.5,2.2,7.5c3,1.9,6.1,1.6,7.8-1.1l5-7.9c0.5-0.8,1.2-1.1,1.9-1L51.5,124.9z"/>
	<path fill="#134A8E" d="M115.5,125.9l-2.8-2.9l-3.1-9.1c-0.1-0.3-0.3-0.9,0.2-2.4l-2,1.9l3.5,10.4l4.3,4.5l0,0l2.1-2
		C116.8,126.6,116.1,126.4,115.5,125.9z"/>
	<path fill="#134A8E" d="M101.2,119.8L101.2,119.8l9.3,3.6l-3.2-9.5l-2.5,2.4c0.6-0.3,1-0.2,1.2-0.2c0.1,0.1,0.4,0.2,0.7,1l1.4,3.8
		l-3.8-1.5c-0.6-0.3-0.8-0.7-0.8-0.7c-0.2-0.4,0-0.9,0.1-1.2L101.2,119.8z"/>
	<path fill="#134A8E" d="M100.5,120.4l-1.9,1.8c1.1-0.4,1.5-0.3,2.4,0l9,3.4l2.6,2.7c0.8,0.8,0.8,1.7,0.5,2.4l2.1-2l-4.3-4.5
		L100.5,120.4z"/>
	<path fill="#134A8E" d="M88.8,139.1l-2.3-9.1c-0.3-1.1,0.6-2.1,0.6-2.1l-2.6,0.6l2.7,10.7c0,0,0.5,1.6-0.3,2.8
		c-0.6,0.9-1.5,1.6-2.7,1.9c-1.2,0.3-2.5,0.2-3.6-0.5c-0.5-0.3-0.7-0.5-1.2-1l-0.9,1.5c2.7,2.6,6,1.5,6,1.5c1.2-0.3,2.3-0.9,3.1-1.7
		c1-1.1,1.5-2.5,1.2-4C88.9,139.6,88.8,139.2,88.8,139.1z"/>
	<path fill="#134A8E" d="M83.8,141.8c-0.8,0.2-1.5,0-1.5,0c-0.9-0.3-1.4-1.8-1.4-1.8l-1.1,1.8c0.4,0.5,1.3,1.1,1.3,1.1
		c1.2,0.8,2.5,0.5,2.9,0.4c1.6-0.4,3-1.8,2.5-3.6c0,0-2.7-11-2.7-11l-2.6,0.6c0.6,0.1,1.3,0.7,1.5,1.6l2.2,9
		C85.3,140.8,84.6,141.5,83.8,141.8z"/>
	<path fill="#FFFFFF" d="M25.2,108.6l0-0.2l0.1,0.1c1.1,0.8,2.2,1,3.2,0.5c1.7-0.8,2.3-3,1.4-5l-1.5-3.1l-11.8,5.6l1.4,3
		c1.2,2.6,3.2,3.6,5.2,2.7C24.6,111.6,25.4,110.2,25.2,108.6z M28,102l1.2,2.4c0.8,1.6,0.3,3.4-1,4c-1.3,0.6-2.8-0.1-3.6-1.8
		l-1.2-2.4L28,102z M22.8,111.7c-2.2,1.1-3.6-1-4.3-2.4l-1.1-2.4l5.3-2.5l1.1,2.4l0,0C24.4,107.9,25.3,110.5,22.8,111.7z"/>
	<path fill="#134A8E" d="M28.1,108.5c1.3-0.6,1.8-2.4,1-4L28,102l-4.6,2.2l1.2,2.4C25.4,108.3,26.8,109.1,28.1,108.5z M27.3,104.1
		l0.5,1c0.4,0.8,0.3,1.5-0.4,1.9c-0.8,0.4-1.4-0.4-1.7-0.9l-0.5-1L27.3,104.1z"/>
	<path fill="#134A8E" d="M23.9,106.8L23.9,106.8l-1.1-2.4l-5.3,2.5l1.1,2.4c0.6,1.3,2,3.4,4.3,2.4C25.3,110.5,24.4,107.9,23.9,106.8
		z M22.7,109.9c-0.2,0.2-0.5,0.3-0.7,0.4c-0.7,0.1-1.3,0.1-2-1.5l-0.5-1l2.8-1.3l0.5,1C23.3,108.7,23.1,109.5,22.7,109.9z"/>
	<path fill="#134A8E" d="M23.9,113.9L23.9,113.9c1.2-0.6,2.1-1.6,2.4-3c0,0,1.2,0.5,2.9-0.3h0v0c2.5-1.2,3.4-4.3,2-7.1L28.6,98
		c0,0.7-0.3,1.4-1.2,1.8L16.4,105c-1,0.5-1.8,0.4-2.5-0.3l2.7,5.6C18.7,114.8,22.3,114.6,23.9,113.9L23.9,113.9z M17.9,109.7l-1.4-3
		l11.8-5.6l1.5,3.1c0.9,2,0.3,4.2-1.4,5c-1,0.5-2,0.3-3.2-0.5l-0.1-0.1l0,0.2c0.2,1.6-0.6,3-2,3.7C21.1,113.3,19.2,112.3,17.9,109.7
		z"/>
	<path fill="#134A8E" d="M25.5,122l10.9-9.7l-1.8-2c0.2,0.7,0.1,1.4-0.7,2.1c0,0,0,0-0.1,0.1c0,0-8,7.1-9,8
		c-0.8,0.7-1.6,0.7-2.4,0.4l6.8,7.6l1.3-0.8v0l0,0L25.5,122z"/>
	<path fill="#134A8E" d="M30.7,124.6c0,0-1.3-1.4-2-2.3c1-0.9,6.8-6.1,7.7-6.9c0,0,0,0,0,0c0,0,0,0,0.1-0.1c0,0,1.3-1,2.2-0.5
		l-1.8-2l0,0l-10.4,9.2l4.6,5.2l0,0l2.2-1.4C33.3,126,31.9,125.9,30.7,124.6L30.7,124.6z"/>
	<path fill="#134A8E" d="M62.2,141.4c0,0-3.9-0.9-3.9-0.9l0.7-2.9l2.7,0.6l0,0c1.3,0.4,1.6,1.3,1.6,1.3l0.5-2.2l-6.1-1.4l-1.3,5.7
		l7.4,1.8l1-2.4C64.3,141.3,63.6,141.7,62.2,141.4z"/>
	<path fill="#134A8E" d="M57.9,135.2l6.1,1.5l0.5-2.2c0,0-0.7,0.8-2,0.5l-2.8-0.7l0.5-2.3l3.4,0.8c1.9,0.4,2.3,1.5,2.3,1.5l0.2-2.4
		l-7.1-1.7L57.9,135.2z"/>
	<path fill="#134A8E" d="M56.9,129.4c-2.8,11.9-2.8,11.8-2.8,11.8c-0.2,0.6-0.7,1.5-1.8,1.6l10.7,2.5l0,0l0.6-1.4l-8.1-1.9l3-12.7
		l7.6,1.8l0.1-1.5l-10-2.4C56.8,127.7,57.1,128.5,56.9,129.4z"/>
	<path fill="#134A8E" d="M95.6,127.8l0.5,7.2l5.1-2.7L95.6,127.8z M97.2,130.7l1.7,1.4l-1.5,0.8L97.2,130.7z"/>
	<path fill="#134A8E" d="M93.3,123.4l0.9,16.4c0,1.6-0.3,2.5-0.7,3l2.4-1.2l-1-15.2l12,9.5l2.3-1.2c-0.9,0-1.8-0.6-2.7-1.2
		L93.3,123.4z"/>
	<path fill="#134A8E" d="M96.2,135.7l0.4,5.5l0.1,0l2.6-1.4c-0.6-0.1-1.2-0.6-1.3-1.5l-0.1-1.9l3.7-1.9l1.6,1.2c0.4,0.3,1,1,0.4,1.9
		l2.7-1.4l0.1,0l-4.3-3.4L96.2,135.7z"/>
	<path fill="#134A8E" d="M125.2,107c-3.4-1.9-5.7,0.3-6.8,1.4l-0.1,0c-1.1,1-1.6,1.3-2.1,1.1c-0.1-0.1-0.2-0.1-0.3-0.2
		c-0.6-0.4-0.6-1.1-0.1-1.9c0.1-0.2,1.1-1.6,2.9-0.7l0,0l-0.7-2h0c-0.7,0-2.4,0.1-3.5,2c-1,1.6-0.6,3.2,1,4.1c1.5,0.8,2.6-0.2,3.6-1
		l0.1,0l0.4-0.4c0.1-0.1,0.2-0.1,0.2-0.2c0.9-0.8,1.8-1.5,3-1.5c0.1,0,0.9,0.1,1.7,0.5c0.8,0.5,1.3,1.1,1.5,1.9
		c0.3,1.1,0.1,2.2-0.5,3.3c-0.6,1.1-1.6,1.9-2.9,2.2c-0.5,0.1-0.8,0.2-1.5,0.2h0l0.5,1.7h0c3.1-0.1,4.6-2.4,5-3.1
		c0.1-0.1,0.1-0.2,0.1-0.2c0.6-1.1,0.9-2.3,0.8-3.4C127.5,109.2,126.7,107.8,125.2,107z"/>
	<path fill="#134A8E" d="M122.5,115.1c1.1-0.2,1.9-0.9,2.4-1.9c0,0,0-0.1,0.1-0.1l0-0.1c0.9-1.6,0.5-3.3-0.8-4.1
		c-1.1-0.6-2-0.6-2.9,0c-0.7,0.5-1.7,1.3-1.7,1.3c-1.5,1.3-2.8,2.3-4.6,1.3c-0.9-0.5-1.4-1.2-1.7-2c-0.3-1-0.1-2.1,0.5-3.1
		c0.3-0.6,1.6-2.4,3.9-2.3h0l-0.5-1.5l0,0h0h0l-0.4,0c-1.6,0.2-3.3,1.5-4.2,3c-0.7,1.2-0.9,2.3-0.9,3.4c0.1,1.5,0.8,2.7,2,3.6
		c0.2,0.1,0.4,0.2,0.5,0.4c2.9,1.6,4.7,0,6.1-1.3l0.1-0.1c1.2-1.1,2-1.6,2.8-1.1c0.5,0.3,0.7,1.2,0.3,2c-0.3,0.7-0.9,0.9-1,1
		c-0.8,0.4-2.2-0.1-2.2-0.1l0,0l0.6,2h0C121.5,115.4,122.4,115.1,122.5,115.1z"/>
	<path fill="#E8291C" d="M130,80.3l0.6-7.3l-6.7,1.1l-1.3-3.2c0,0-4,3.9-4.8,4.7c0,0,0,0-0.1,0.1c-0.4,0.4-0.8,0.6-1.1,0.6
		c-0.1,0-0.1,0-0.2,0c-0.5-0.1-0.8-0.6-0.7-1.7c0-0.2,0.1-0.6,0.1-1.2c0.3-2.7,0.9-8.8,0.9-8.8l-3.9,1.6l-4.7-7.7l0,0l-3.1,5.1
		l-1.6,2.6l-3.9-1.6c0,0,0.9,8.8,1,10c0,0.2,0,0.4,0,0.6c0,0.3-0.1,0.5-0.2,0.7c-0.2,0.3-0.4,0.4-0.7,0.4c-0.1,0-0.1,0-0.2,0
		c-0.1,0-0.3-0.1-0.4-0.2c-0.2-0.1-0.3-0.2-0.5-0.4c0,0,0,0-0.1-0.1c-0.8-0.7-4.8-4.7-4.8-4.7l-1.3,3.2l-6.7-1.1l0.6,7.3l-1.5,0.5
		l-1.1,0.4l14.2,12.2l-2.3,2.8l0.8-0.1l10.8-0.9l1,2l0.3-0.6l0.7-1.3l2.1,0.2l2.4,0.2l7.2,0.6l-2.3-2.8l14.2-12.2l-1.3-0.4L130,80.3
		z"/>
</g>
</svg>
