<?xml version="1.0" encoding="utf-8"?>
<!-- Generator: Adobe Illustrator 18.0.0, SVG Export Plug-In . SVG Version: 6.00 Build 0)  -->
<!DOCTYPE svg PUBLIC "-//W3C//DTD SVG 1.1//EN" "http://www.w3.org/Graphics/SVG/1.1/DTD/svg11.dtd">
<svg version="1.1" id="ATL_x5F_light" xmlns="http://www.w3.org/2000/svg" xmlns:xlink="http://www.w3.org/1999/xlink" x="0px"
	 y="0px" viewBox="0 0 328.3 168" enable-background="new 0 0 328.3 168" xml:space="preserve">
<g>
	<path fill="#FFFFFF" d="M326.2,120.5c0-0.2,0-0.4,0-0.7c0-0.9-0.1-2-0.3-3.2c-0.7-3.4-2.6-6-3.9-7.8l-1.1-1.5c0,0-0.5-1.2-0.5-1.2
		c-0.2-0.5-0.4-1.1-0.7-1.8c2.9-2.4,4.1-5.1,4.6-6.9c1-3.9-0.1-7.9-2.9-10.7c-2.8-2.8-7-4.1-11.7-3.7c-0.1-6.1-3-9.6-4.6-11.4
		c0-0.3,0-0.6,0-0.6c0-3.6-0.1-10.2-5.4-15.5c-1.1-1.2-1.3-1.5-1.8-2.7c0,0-0.5-1.3-0.7-1.6c-0.3-0.7-1.1-2.4-3.6-4.3l-6-4.5
		l-4.1,6.4c-2.3,3.5-2.5,6.9-2.7,9.1c0,0-0.1,0.9-0.1,1.3c-0.2,0.2-0.5,0.5-0.5,0.5l-1.9,2.1l-0.2,0.3c-2.8,3.4-3.2,6.4-3.2,13.4
		c0,0,0,0.3,0,0.7c-0.2,0.2-0.4,0.5-0.4,0.5c-2.3,3-2.4,6.6-2.5,9.2c0,0-0.1,2.1-0.1,2.2c-6.7,1-139.1,20.1-142.1,20.5h0l0,0
		c-8.5,1.1-12.4,7.9-11.8,13.6c1.1,9.9,8.1,12.9,14.2,12.3c3.9-0.3,100.1-14.7,134.3-19.8c-0.3,1.4-0.5,2.8-0.5,4.3
		c0,1.9,0.3,3.9,1,5.9c-0.5,1.2-1,2.6-1.2,4.2c-0.1,0.9-0.2,1.8-0.2,2.6c0,5.5,2.3,8.5,4.5,10.2c3.4,2.6,7.9,2.8,13.3,0.9
		c5.6,1,11.8,0.5,17.4-1.7c5.2,1,10.6-2.1,13.2-3.7c0,0,0.1,0,0.1-0.1c0.1,0,0.2,0,0.2,0l3.7-0.1l0.6-0.1c2.4-0.5,6.9-1.3,8.9-5.9
		c0.6-1.3,0.8-2.6,0.8-3.9C328.3,124.2,326.9,121.6,326.2,120.5z M324.7,129.9c-1.4,3-4.4,3.6-6.7,4l-0.6,0.1l-2.8,0.1
		c-1-0.1-1.3-0.1-1.5,0.1l-0.6,0.4c-2.7,1.6-7.8,4.7-12.2,3.1c-5.4,2.2-11.5,2.9-16.9,1.8c-2.7,1.1-7.7,2.7-11.4-0.2
		c-1.5-1.2-3.2-3.4-3.2-7.6c0-0.7,0-1.4,0.1-2.2c0.2-1.6,0.8-3,1.5-4.3c-1-2.1-1.3-4.2-1.3-6.2c0-3.1,0.9-5.8,1.7-8.2
		c-26.8,4-134.8,20.1-138.8,20.5c-2.9,0.2-9.9-0.2-10.9-9.5c-0.4-3.4,1.8-9.1,9.1-10.1c1.3-0.2,141.1-20.3,144.1-20.8
		c0.2-0.5,0.5-1.2,0.6-2.4l0.2-2.6c0.1-2.4,0.1-5.1,1.8-7.3l0.6-0.7c0,0,0.4-0.5,0.4-0.5c0,0,0.2-0.4,0.2-2c0-7.1,0.6-8.9,2.5-11.3
		l0.2-0.3l1.6-1.8c0.9-0.9,1.2-1.2,1.3-1.8l0.3-2c0.2-2,0.4-4.8,2.2-7.7l2.4-3.7l3.4,2.8c1.8,1.5,2.2,2.4,2.4,2.8l0.7,1.7
		c0.5,1.3,0.8,2.1,2.5,3.7c4.4,4.4,4.4,10,4.4,13.3c0,0,0.1,1.4,0.1,1.8c0.2,0.2,0.6,0.7,0.6,0.7c1.5,1.7,4,4.5,4,9.9
		c0,0.2,0,0.4,0,0.6c0.2,0.3,1,1.5,1,1.5c0.2,0.3,0.4,0.6,0.6,0.8c4.5-0.7,8.5,0.2,11,2.6c2,2,2.8,4.8,2.1,7.6
		c-0.4,1.7-1.8,4.5-5.7,6.7c1,1.5,1.5,2.8,1.9,3.9l0.7,1.6l1.3,1.9c1.2,1.7,2.8,3.8,3.4,6.5c0.2,1,0.3,1.8,0.3,2.5
		c0,0.6,0,1.1-0.1,1.5c0,0,0,0.1,0,0.1c0.1,0.1,0.2,0.3,0.2,0.3l0.2,0.4c0.8,1.4,1.7,3.3,1.7,5.3
		C325.2,128.2,325.1,129.1,324.7,129.9z"/>
	<g>
		<path fill="#FFFFFF" d="M240,73.1c2.1,0.9,4.8,1.4,7.7,1c4.5-0.6,13-3.5,13.5-15c0.6-7.7-3.2-12-3-14.9
			C254.1,47.8,248.7,62.9,240,73.1z M256.9,58.7c-0.3,7.4-4.7,9.8-8.6,10.6c2.7-4.1,5-8.5,7.1-12.3c0.4-0.8,0.8-1.5,1.3-2.3
			c0.2,0.9,0.4,1.7,0.4,2.8C257,57.9,257,58.3,256.9,58.7z"/>
		<path fill="#FFFFFF" d="M236.1,65.1c-1.2,2.5-0.4,4.8,1.6,6.5c1.7-2,3.4-4.4,5-6.9C241.6,62.9,238.3,60.5,236.1,65.1z"/>
		<path fill="#FFFFFF" d="M268.4,52.5c-1-2.6-4-10.1,0.6-16.5c1.8-2.1,1-4.4,0.7-5.1c-0.3-0.6-1.5-2.8-4.5-2.7l-0.2,0l-0.2,0
			c-9.4,0.9-14.5,11.9-20,23.5c-0.6,1.2-1.2,2.5-1.9,3.7c-0.3,0-0.5-0.1-0.8-0.2c-0.9-0.1-1.8,0-2.6,0.1c0-0.2,0-0.3-0.1-0.5
			c-0.2-0.5-0.6-1-1-1.4c0.8-0.2,1.7-0.4,1.7-0.4c2.6-0.7,3.5-3.3,3.8-4.5c0.2-0.8,0.3-1.5,0.3-2.3c0-1.7-0.5-3.4-1.4-4.8
			c-1.5-2.3-4-3.8-6.9-4.2c-5.5-0.7-11.4,3.9-13.9,10.2c-2,2.2-4.2,3.8-6.4,4.9c-0.6-4.5-3.3-7.7-7.4-8.4c-4.4-0.8-9,1.6-10.8,5.8
			c-0.1,0.2-0.1,0.4-0.2,0.5c-0.9-1.5-2.1-2.8-3.7-3.4c-11.8-4.7-20.7,9.5-28.6,22.1c-3.2,5-6.1,9.7-9,13c-0.2,0.3-0.4,0.3-0.5,0.5
			c0.1-0.8,0.3-1.8,0.9-3.1c0.1-0.1,10.8-25.6,10.8-25.6l-14.8,1.5c0,0-0.2,0.4-0.3,0.7c-1.4-0.7-2.8-1.2-4.5-1.5
			c-13.2-1.7-21.4,10.1-24.6,21.7c-0.2,0.6-1.3,2.9-2.4,4.8c-4.3,7.6-8,9.8-9.4,9.9c-0.1-0.4-0.2-0.8-0.2-1.5c0-4.1,2-12.3,4.2-17.8
			c0.3-0.9,0.5-1.8,0.5-2.5c0-1.9-1-3.1-1.5-3.6c-1.1-1.1-3.2-1.8-5.4-0.6c-2.5,1.5-5,2.4-7.4,3c0-0.4,0.1-0.8,0.1-1.1
			c0-1-0.1-2-0.4-2.8c-1.4-3.8-4.2-6.3-7.7-6.9c-3.5-0.6-7.2,0.9-9.5,3.9c-1.5,2-2.3,4.3-2.3,6.8c0,1.5,0.3,3.1,0.9,4.7
			c0.6,1.5,1.6,2.9,2.8,4.2c-1.4,2.8-2.9,5.8-4.4,8.5c-4.5,8-8.7,13.7-14.3,19.7c-0.2,0.3-0.4,0.5-0.6,0.7c0.2-0.4,0.3-0.8,0.5-1.2
			c1.2-3.6,1.8-7.2,1.8-10.8c0-7.5-2.7-14.6-7.5-20.5c7.4-5.9,11.9-14.4,11.9-23.3c0-1.8-0.2-3.5-0.6-5.3c1.1-0.4,2.2-0.7,3.4-1.1
			c4.1-1.1,3.8-4.8,3.7-5.2c-0.1-0.4-0.6-4.1-5-4c-2.2,0-4.3,0.2-6.4,0.4C63,28.6,55.4,24,43.9,24c-12.3,0.3-19.6,6.8-23.6,12.2
			c-5.5,7.4-7.2,16-6,20.7l0.6,2.4l2.5,0.9c1.5,0.5,3.2,0.1,4.4-1c3.6-3,5.8-3.8,6.4-3.8l0.5,0c-6.2,8.4-10,18.9-13.6,29.1
			c-3.8,10.7-7.4,20.7-13.2,26.1L0,112.3l0.4,2.5c0.5,2.8,0.8,8.7,0.6,14.7c0,2.1,0.9,3.8,2.5,4.6c1.6,0.8,3.4,0.7,4.9-0.5
			c9.8-7.3,16.4-27.3,22.2-44.9c2.4-7.3,4.7-14.3,6.9-19.1c-0.3,1.3-0.3,2.6,0,3.9c1.4,5.2,5.7,7.9,10.8,6.9c0,0,0.5-0.2,1-0.5
			c1.6,2.4,2.4,5.9,2.4,9.7c0,3-0.5,6.2-1.6,9.2c-1.4,3.9-5.7,12.9-16.1,12.6c-2.3-0.1-4.6-1.1-5.1-1.3c-2.7-1.6-5.1-0.4-6.2,1.3
			c-1.1,1.8-1,4.6,1.3,6.4c-0.2-0.2,0.1,0.1,0.1,0.1c2.3,2.1,7.6,6.9,18.3,6.5c8.9-0.4,17.2-6.7,21.7-16c0,0.1,0,0.2,0,0.4
			c0,1.4,0.7,2.4,1,2.8c1.2,1.5,3.6,2.6,6.7,0.7c1.7-1.1,4-2.6,6.5-4.9c4.2-3.9,8.4-9.2,13.1-16.8c0.2-0.4,2.6-4.2,4.9-9.1
			c0.5,0,1,0,1.6-0.1c-1.2,3.4-2.4,7.6-2.4,11.5c0,4.4,1.5,8.5,6.4,10.7c5.5,2.5,14.4,0.4,22.8-8.6c2,2.6,4.7,4.3,8.1,4.7
			c3.4,0.1,7-1.5,9.8-3.5c2,1.5,4.8,2.8,8.5,2.5c5.4-0.6,10.8-4.8,16.5-12.9l3.3-5.1c3.3-5.2,8.3-13.1,12.2-17.1
			c-0.3,0.8-0.6,1.6-1.2,2.7c-3.3,5.5-6.4,11.2-6.4,16.2c0,1.2,0.2,2.3,0.6,3.3c0.9,2.4,2.8,4.2,5.3,5.1c10.5,3.5,21.5-5.5,30-24
			c1.1-0.3,2.1-0.7,3.2-1.1c-1.2,2.6-2,5.1-2,7.2c0,3.7,1.5,6.6,3.5,8.6c5.2,5,14.4,4.8,21.2-0.2c2.9,1.7,6.3,2.7,10,2.7
			c7.9,0.1,14.8-3.5,19.1-9.9C270.6,68,271.3,59.9,268.4,52.5z M39.8,65.2C39.9,65.2,40,65,40,65l0.9-1.2c2.7-3.8,6-8.3,15.3-13.1
			c0,2.4-0.6,7.5-4.7,12.5l-0.1,0.1c-0.1,0.2-0.3,0.3-0.5,0.5c-3.6-1.8-7.4-1.6-10.3,0.7C40.4,64.7,40.1,65,39.8,65.2z M42.4,120
			c-9.6,0.4-13.9-4.2-15.7-5.8c-0.4-0.3-0.3-0.4,0.2-0.1c0.5,0.3,3.7,1.8,7.1,1.9c22.1,0.5,27.8-32,16.5-41.4c-0.3-0.3-2,1.2-3,1.4
			c-3.3,0.6-5.2-1.2-5.8-3.5c-0.8-3.5,2.8-7.2,7.5-4.7c0.9,0.6,0.8,0.4,1.6,1.1c0.6,0.1,2.8-1.2,4-2.8c5.4-6.7,6-14.3,5.6-17.4
			c-0.2-1.7-0.6-3.1-1.2-4.5c-15.4,6.7-19.1,13-22.8,18c-8.2,11.1-16.4,57-30.6,67.7c-0.2,0.1-0.5,0.3-0.5-0.3
			c0.3-5.9-0.1-12.3-0.7-15.7c12.6-11.7,15-40,28-56.7C40,48,49,43.2,57.5,40.9c-3.6-5-9.4-6.9-12.9-7.1
			C29.3,33.1,27.5,45.5,27.8,51c-2,0.2-5.2,1.8-8.9,4.9c-0.2,0.1-0.3,0-0.3-0.1C17,49.6,23.7,28.9,44,28.5
			c10.7,0,17.8,4.5,21.3,10.8c3.1-0.4,6-0.6,8.5-0.6c1.1,0,0.6,0.2,0,0.4c-2.7,0.8-5.2,1.7-7.5,2.5c4.2,10.3-0.2,24.1-12.6,30.8
			C73.1,89.3,60.3,119.2,42.4,120z M35.1,41.2c2-2.1,5.2-3.1,9.3-2.9c1,0,2.5,0.4,4.2,1.1c-6.3,2.8-11.8,6.9-16.4,11.9l0-0.5
			C32.1,49.7,31.9,44.5,35.1,41.2z M196.4,63.8c0.3-0.7,0.5-1.3,0.7-2c0.1,0.2,0.2,0.5,0.3,0.7c0.5,1,1.4,1.6,2.1,2.3
			c-3.3,6-6.4,9.8-8.4,11c0.7-2.5,2.5-6.4,3.7-8.8L196.4,63.8z M247.4,79.7c-4-0.1-7.7-1.5-10.2-3.7c-0.4,0.4-0.8,0.8-1.3,1.2
			c-9.8,8.4-25.9,1.8-15.8-12.6c1.7-2.2,4.6-4.4,7.4-6.5c-1.4-0.7-2.3-2.8-2.4-4.4c-2.2,2.2-10.1,8.3-16.7,9.3
			c-5.8,13.5-15.6,26.9-25.6,23.6c-6.1-2-1.1-11.2,2.9-18c5.5-9.3,0.9-14.8-5.2-8.6c-5.8,5.9-13.4,19-16.3,23.2
			c-12.3,17.4-18.8,9.6-21.5,7.2c-1.4,1.9-6.1,4.9-9.3,4.8c-4.4-0.4-6.7-3.9-7.3-8.6c-8.1,11.9-17.4,15.2-22.3,13
			c-8.8-4,0.3-19.7,0.8-24.2c0,0-0.1-0.3-0.3-0.2c-0.9,0.4-3.3,1.5-4.5,1.7c-2.2,0.4-4.2,0.3-5.9-0.1c-1.9,4.3-4.3,8.8-6,11.5
			c-4.3,6.9-8.3,12.2-12.3,15.8c-2.1,1.9-4,3.2-5.8,4.4c-0.6,0.4-1.8,0.8-0.4-0.6c5.3-5.6,9.8-11.3,15-20.5c2-3.5,4.3-8,6.1-11.9
			c-2-1.2-3.5-2.9-4.2-4.7c-3.2-8.3,7.5-13.4,10.5-5.3c0.5,1.4-0.1,4.3-1.2,7.5c4.6,0.2,10.4-1.4,14.9-4.1c0.6-0.3,0.8,0,0.5,1
			c-1.9,4.8-7.6,22.5-2.3,25.1c4,2,10-1.9,15.6-11.7c0.6-1,2.5-4.5,2.8-5.8c2.7-9.7,9.4-19.8,19.9-18.4c3.7,0.5,6.2,2.9,6.9,4.5
			l1.6-4l4.8-0.5l-7.8,18.5c-3.6,7.7,0.4,14.9,6.9,7.5c10.2-11.5,20.7-38.8,32.8-33.9c2.4,0.9,3.6,4.5,0.7,10.8
			c-3.7,7.9-9.5,17.8-3.3,19.2c5.2,1.2,12.1-9.4,16.2-17.9c-5.4-0.8-6-7.2-4.1-11.6c2-4.4,9.5-4.9,10.1,1.6c0.1,1.1-0.4,3.1-1.2,5.4
			c4.8-0.5,10.9-3.3,15.3-8.5c1.3-4.9,6-8.9,9.8-8.4c2.9,0.4,5.1,2.7,4.4,5.7c-0.3,1-0.9,1.7-0.6,0.8c0.5-2.5-2.5-6.6-7.6-2.3
			c-2,1.7-3.4,4.9-2.5,8c0.6,2.1,3.5,3.3,5.6,2.6c1.7-0.6,0.6,0.9-0.5,1.3c-2.2,0.9-7.8,4.3-10.1,8.7c-4.7,8.9,3.6,14.2,9.9,9.1
			c0.5-0.4,1.1-0.9,1.6-1.5c-2-2.7-2.7-6.1-1.2-9.7c2.6-6.2,8.8-4.9,10.7-3.3c1.4-2.4,2.7-4.9,3.8-7.3c5.3-11.2,9.7-20.3,16.5-21
			c0.6,0,0.7,0.2,0.3,0.6c-6.2,8.6-2.2,18.2-1.1,20.9C269.3,66.7,261,79.9,247.4,79.7z M233.1,52.2c0,0-0.1,0-0.2,0
			c0-0.1,0-0.1,0-0.2c0-1,0.5-2,1.2-2.5c0.2-0.2,0.4-0.3,0.6-0.4c0.1,1.3,0.7,2.3,1.1,2.7c0,0,0.3,0.3,0.4,0.4
			C235.3,51.9,234.3,51.8,233.1,52.2z M234.7,47.7c0-0.1,0-0.3,0-0.4l0.1-0.4C234.8,47.2,234.8,47.4,234.7,47.7
			C234.7,47.7,234.7,47.7,234.7,47.7z M229.7,72.5c-1,0.4-1.9,0.5-2.4,0.1c-0.3-0.3-0.5-0.7-0.5-1.2c0-0.8,0.3-1.8,0.8-2.8
			c0.4-0.8,1-1.5,1.7-2.3c-0.1,0.7-0.4,1.3-0.4,2C229,69.7,229.3,71.1,229.7,72.5z"/>
		<path fill="#FFFFFF" d="M88.5,69.8c0.7,1.2,1.8,2,3.3,2.5c1-2.4,1.7-4.3,1.7-5C93.6,61.4,85.3,64.6,88.5,69.8z"/>
		<path fill="#FFFFFF" d="M144.2,62.9c-8.9,0-17.4,22.8-9.5,26.3c5.1,2.3,9.3-3.5,13-13.1C151.2,66.9,148.1,62.9,144.2,62.9z
			 M143.6,74.5c-3.4,8.8-5.8,10.4-6.4,10.7c-0.2,0.1-0.3,0.1-0.8-0.1c-0.2-0.1-0.9-1.8-0.2-5.3c1.4-6.8,5.8-12.4,8-12.4
			c0.3,0,0.3,0.1,0.3,0.1c0.2,0.2,0.3,0.7,0.3,1.6C144.9,70.2,144.6,72,143.6,74.5z"/>
		<path fill="#FFFFFF" d="M207.1,51.3c-3.2-1.2-5.3,5.5-1.9,6.9c0.6,0.3,1.3,0.4,2.1,0.5C209.1,54.3,209.1,52.1,207.1,51.3z"/>
	</g>
	<path fill="#CD1141" d="M130,111.7C130,111.7,130,111.7,130,111.7C130,111.7,130,111.7,130,111.7L130,111.7z"/>
	<g>
		<path fill="#FFFFFF" d="M286.8,75.5c-1.6,0.8-3,2.6-3.3,4.6c-0.4,2,0.1,3.9,1.4,5.4c0.2,0.3,0.6,0.3,0.9,0.1
			c0.3-0.2,0.3-0.6,0-0.9c-1-1.2-1.4-2.7-1.1-4.3c0.3-1.6,1.4-3.1,2.7-3.7c0.3-0.2,0.4-0.5,0.3-0.9
			C287.5,75.5,287.1,75.4,286.8,75.5z"/>
		<path fill="#FFFFFF" d="M294.7,70.8c0.1-0.3,0-0.7-0.4-0.8c-0.9-0.3-1.7-1.2-2.2-2.5c-0.7-1.6-0.7-3.5-0.1-4.9
			c0.1-0.3,0-0.7-0.3-0.8c-0.3-0.1-0.7,0-0.8,0.3c-0.7,1.7-0.7,3.9,0.1,5.9c0.7,1.6,1.7,2.7,2.9,3.2
			C294.2,71.3,294.6,71.2,294.7,70.8z"/>
		<path fill="#FFFFFF" d="M279.8,120.7c-0.4-1.3,0.5-2,1.8-3l1.5-1.3c1-1.2,1.4-3,0.2-4.2c-0.2-0.2-0.6-0.2-0.9,0
			c-0.2,0.2-0.2,0.7,0,0.9c0.8,0.8,0.1,2-0.3,2.4l-1.4,1.1c-1.3,1-2.9,2.2-2.3,4.4c0.1,0.3,0.4,0.5,0.8,0.4
			C279.7,121.4,279.9,121,279.8,120.7z"/>
		<path fill="#FFFFFF" d="M314.7,121.2c-0.3-0.1-0.7,0.1-0.7,0.5c-0.2,0.8-0.5,1-0.7,1.1l-1.3,0l-1.4-0.1c-0.9,0.1-1.7,0.5-2.4,1
			l-2.2,1.7l-0.5,0.2c-0.9,0.2-1.8,0.1-2.8-0.2c-0.3-0.1-0.7,0-0.8,0.4c-0.1,0.3,0.1,0.7,0.4,0.8c1.2,0.5,2.3,0.5,3.5,0.3l1-0.4
			l2.2-1.7c0.5-0.4,1.2-0.7,1.8-0.8c0,0,1.1,0.1,1.1,0.1l1.8,0c1.2-0.4,1.4-1.6,1.5-2C315.2,121.6,315,121.3,314.7,121.2z"/>
		<path fill="#FFFFFF" d="M309.4,112c2,1.7,4.2,3.4,3.2,6.7c-0.1,0.3,0.1,0.7,0.4,0.8c0.3,0.1,0.7-0.1,0.8-0.4
			c1.2-4.2-1.6-6.4-3.7-8.1c-1.2-0.9-2.2-1.7-2.1-2.5c0-0.4-0.2-0.7-0.6-0.7c-0.3,0-0.6,0.2-0.7,0.6
			C306.7,109.8,308,110.8,309.4,112z"/>
		<path fill="#FFFFFF" d="M296.6,117.9c1.2-2.7,1.1-5.6-0.3-7.7c-0.2-0.3-0.6-0.4-0.9-0.2c-0.3,0.2-0.4,0.6-0.2,0.9
			c1.1,1.8,1.2,4.2,0.2,6.5c-0.7,1.6,0.6,2.9,1.2,3.5c0.3,0.3,0.6,0.2,0.8,0.2c0.3,0,0.3-0.3,0.4-0.5c0.1-0.3-0.3-0.6-0.3-0.6
			C296.6,119.1,296.3,118.5,296.6,117.9z"/>
		<path fill="#FFFFFF" d="M320.6,123.9c-1-1.1-1-1.7-0.9-2.8c0.1-0.8,0.1-1.7-0.1-2.9c-0.4-2-1.6-3.6-2.8-5.2l-1.5-2.3l-0.9-2.2
			c-0.5-1.4-1-2.8-2.6-4.4c-0.1-0.1-0.3-0.3-0.4-0.4l-1.4-1.7c4.4-1.3,7.4-3.5,8-6.1c0.4-1.5,0-3-1.2-4.1c-1.6-1.6-5.2-2.7-10.3-1.2
			c0,0,0,0,0-0.1c-0.4-0.9-1-1.8-1.6-2.6c-0.1-0.1-0.1-0.2-0.2-0.3c-0.4-0.5-0.8-1.3-1.2-1.8c-0.2-0.4-0.3-0.8-0.3-1.1
			c0.3-4.7-1.6-6.9-3.1-8.6c-0.6-0.7-1.2-1.3-1.3-2c-0.2-0.7-0.2-1.7-0.2-2.9c0-3.1-0.1-7.4-3.4-10.8c-2.1-2.1-2.6-3.4-3.2-4.9
			l-0.6-1.5c-0.2-0.6-1.1-1.3-1.5-1.5l-0.5-0.4l-0.4,0.6c-1.3,2.1-1.5,4.2-1.7,6l-0.3,2.6c-0.4,1.6-1.3,2.5-2.3,3.5l-1.3,1.4
			l-0.3,0.4c-1.2,1.5-1.7,2.4-1.7,9.1c0,3.1-0.5,3.7-1.4,4.8l-0.5,0.6c-0.9,1.2-1,3.1-1,5.2l-0.2,3c-0.1,0.4-0.1,0.8-0.2,1.1
			l-0.4,1.4c0,0,0,0,0,0c0,0,0,0,0,0c-0.4,1.3-0.9,2-1.5,2.5c-0.1,0-0.1,0.1-0.2,0.1c-0.4,0.1-4.3,0.6-10.6,1.5l-1.1,0.1
			c0,0,0,0,0,0c-4,0.6-8.8,1.3-14.2,2.1c0,0,0,0,0,0l-2.8,0.4c-30.4,4.4-77.2,11.1-101.3,14.6c0,0-0.1,0-0.1,0l-3.1,0.5
			c-7.6,1.1-12.2,1.8-12.2,1.8h0c-4.9,0.7-6.4,4.1-6.2,6.2c0.2,1.7,0.8,6.9,7.2,6.4c0.7-0.1,4.6-0.6,10.6-1.5c0,0,0.1,0,0.1,0
			l3.2-0.5c20.9-3,61.1-9,91.4-13.5l0.3,0l1.6-0.3c12.4-1.9,23.1-3.4,29.8-4.5c0.1,0,0.1,0,0.2,0l4.7-0.7c0,0,0,0,0,0
			c0.7-0.1,1.4-0.2,1.8-0.3c-0.2,1.5-0.6,3.2-1.2,4.9c-0.8,2.3-1.6,4.8-1.6,7.5c0,2,0.5,4,1.8,6.1c-0.1,0.1-0.2,0.4-0.2,0.4
			c-1.2,1.9-1.6,3.1-1.8,4.5c-0.1,0.6-0.1,1.2-0.1,1.8c0,2.2,0.6,3.8,1.8,4.8c1.8,1.4,4.8,1.2,8.9-0.6c5.5,1.5,12.1,0.7,17.6-1.9
			c2.9,2,7.6-0.8,10.2-2.3l0.6-0.4c1.3-0.7,2.4-0.6,3.5-0.6l1.9,0l0.7-0.1c1.8-0.3,3.6-0.7,4.2-2.1
			C322.1,127.4,321.8,125.9,320.6,123.9z M310.5,104.5C310.5,104.5,310.5,104.6,310.5,104.5c-3.9,1.3-9.4,1.5-14,0.6
			c0.1-0.1,0.3-0.2,0.4-0.3c0.2-0.1,0.3-0.3,0.5-0.4c0.5-0.4,1.1-0.9,1.5-1.3c2.4,0.5,7.4,0.2,9.8-0.7
			C309.2,103,309.8,103.8,310.5,104.5z M300.1,101.9c0.2-0.2,0.4-0.4,0.5-0.5c0.5,0.3,1,0.5,1.5,0.6
			C301.4,102,300.7,102,300.1,101.9z M316,92.6c0.6,0.6,0.9,1.3,0.9,2.1c0,0.2,0,0.5-0.1,0.8c-0.6,2.2-3.4,4.2-7.5,5.3
			c-0.4-0.5-0.7-1.2-1-1.8c-0.1-0.3-0.2-0.6-0.3-0.9c0,0,0,0,0-0.1c-0.3-0.7-0.5-1.4-0.6-1.8c-0.2-0.8-0.3-1.4-0.4-2.1
			c0-0.6,0-1.1,0-1.5c0,0,0-0.2-0.1-0.4v-0.3c0,0,0,0,0-0.1v-0.1c0-0.1,0-0.1,0-0.1C311.5,90.3,314.6,91.2,316,92.6z M306.9,98.9
			c0.1,0.4,0.3,0.7,0.5,1.1c0.1,0.3,0.3,0.6,0.4,0.9c0,0,0.1,0.1,0.1,0.1c0,0,0,0.1,0,0.1c-1.9,0.3-4.3,0.3-6.4-0.7
			c0.1-0.1,0.2-0.2,0.4-0.4c0.1-0.1,0.2-0.2,0.2-0.3c0.5-0.5,1-1.2,1.3-1.5C304.5,98.6,305.7,98.9,306.9,98.9z M306.1,96.3
			C306.1,96.3,306.1,96.3,306.1,96.3L306.1,96.3C306.1,96.3,306.1,96.3,306.1,96.3c0.1,0.5,0.2,0.9,0.4,1.3c-0.8,0-1.5-0.2-2.2-0.5
			c0.5-0.7,1.1-1.4,1.6-2.1C305.9,95.4,306,95.8,306.1,96.3z M305,90.3c0.2,0.3,0.4,0.6,0.5,1c0.1,0.2,0.1,0.4,0.1,0.5v1.3
			c0,0-0.1,0.1-0.1,0.1c-7.8,10.8-14.7,16.5-30,17.3c0.1-0.4,0.2-0.8,0.4-1.3c0.2-0.7,0.4-1.4,0.5-2.2c0,0,0,0,0,0
			c0.9,0,2.5-0.1,3.6-0.3c0,0,0.1,0,0.1-0.1c3.4-0.4,6.4-1.4,9.1-2.6c0.9-0.2,3.6-1.7,5-2.8c0,0,0,0,0,0c1-0.7,1.9-1.4,2.8-2.1
			c0,0,0.1,0,0.1-0.1l0.7-0.6l0.1-0.1C300.9,95.8,303.2,92.9,305,90.3z M295.7,98.7c-0.6,0.5-1.2,1-1.9,1.4l-1.6-0.5
			c-2.6-0.9-6-2.1-8.9-2.4c-0.1-1.2-0.4-2.2-0.8-3.1c-0.1-0.2-0.2-0.4-0.3-0.5c1.8-0.6,3.6-1.1,5.5-1.5
			C290.2,94.5,293.7,97.3,295.7,98.7z M289.3,91.8c0.7-0.1,1.3-0.2,2-0.3c0.5-0.1,1.1-0.2,1.8-0.3c1.3,1.4,3.9,3.6,5.8,4.6
			c-0.6,0.6-1.7,1.7-1.7,1.7s-0.1,0.1-0.3,0.3c0,0-0.1,0.1-0.1,0.1C295,96.7,291.8,94.2,289.3,91.8z M292.5,101
			c-1.1,0.7-2.2,1.3-3.4,1.9c0,0,0,0-0.1,0c-0.9-0.1-1.8-0.5-2.7-0.9c-1-0.4-2.1-0.8-3.3-1c0.2-0.9,0.3-1.7,0.3-2.5
			c2.8,0.4,6.1,1.5,8.5,2.3C291.9,100.8,292.2,100.9,292.5,101z M282.7,102.1c1.1,0.2,2.2,0.6,3.2,1c0.4,0.2,0.9,0.3,1.3,0.5
			c-1.9,0.7-3.8,1.3-6,1.7C281.9,104.2,282.4,103.2,282.7,102.1z M299.8,94.9c-1.4-0.8-3.7-2.5-5.2-4c0.5-0.1,1-0.2,1.5-0.2l8.3-1.4
			C303,91,301.5,93,299.8,94.9z M279.6,86.1c0-1.8,0.1-3.5,0.8-4.4l0.5-0.6c1.1-1.3,1.7-2.2,1.7-5.6c0-6.5,0.5-7.1,1.4-8.3l0.3-0.4
			l1.2-1.3c1-1,2.2-2.1,2.6-4.1l0.4-2.8c0.1-1.6,0.4-3.1,1.2-4.7c0.2,0.2,0.4,0.4,0.5,0.5c0,0,0.6,1.5,0.6,1.5
			c0.6,1.6,1.2,3.1,3.5,5.4c3,3,3,6.8,3,9.9c0,1.3,0,2.4,0.2,3.2c0.2,0.9,0.9,1.7,1.6,2.5c1.2,1.4,2.8,3.1,2.8,6.7
			c0,0.3,0,0.6,0,0.9c0,0.1,0,0.1,0,0.1l-5.8,1c1.4-3.5,0.4-7.9-1-10.8c-0.2-0.3-0.5-0.4-0.8-0.3c-0.3,0.2-0.4,0.5-0.3,0.9
			c1.5,2.9,2.4,7.2,0.6,10.4l-1,0.2c-4.9,0.7-9.9,1.5-14.2,2.9L279.6,86.1z M279.2,90.3c4.4-1.5,9.5-2.3,14.6-3.1
			c0,0,0.6-0.1,1.4-0.2c0,0,0,0,0,0c2.2-0.4,6.4-1.1,7-1.2c0,0,0.1,0.1,0.1,0.1c0.3,0.7,0.8,1.4,1.3,2.1c-1.5,0.3-7.7,1.3-7.7,1.3
			c-1.5,0.2-2.9,0.4-4.4,0.7c-2.1,0.3-3.3,0.5-3.7,0.7c-2.2,0.5-4.4,1-6.4,1.7c-0.7-0.7-1.5-1.1-2.4-1.2
			C279.1,90.9,279.2,90.7,279.2,90.3z M278.6,92.5c0.9,0.1,1.7,0.5,2.3,1.3l0,0c0.2,0.2,0.4,0.5,0.5,0.8c0.4,0.9,0.7,2.1,0.7,3.4
			c0,0,0,0.1,0,0.1c0,0.5-0.1,1-0.1,1.6c0,0.1,0,0.1,0,0.2c-0.3,1.8-1.1,3.7-2.4,5.6c-0.3,0-0.5,0.1-0.8,0.1c0,0-0.1,0-0.1,0
			c-0.7,0.1-1.4,0.1-2,0.1l0-0.7l0,0c1.2-2,2.2-4.6,2.2-6.8c0-0.8-0.1-1.6-0.4-2.3c-0.2-0.5-0.6-0.9-1-1.2
			C277.8,94.2,278.3,93.5,278.6,92.5z M263.1,97.4c-1.1,1.7-3.2,4.7-3.7,5.4c-0.6-0.6-3.2-2.9-4.6-4.2L263.1,97.4z M141.8,125
			c-5.9,0.9-9.7,1.4-10.3,1.4c-4.7,0.4-5.6-2.6-5.9-5.2c0-0.1,0-0.2,0-0.3c0-1.3,0.9-4,5.1-4.5l10-1.4c0.8,0.6,1.5,2.1,1.8,4.1
			C142.9,121.5,142.6,123.8,141.8,125z M146.7,124.3c-0.4,0.1-2.3,0.4-3.6,0.5c0.5-1.1,0.8-2.4,0.8-3.7c0-0.8-0.1-1.6-0.2-2.3
			c-0.3-1.8-0.9-3.1-1.7-4.1c1.2-0.2,3.2-0.5,3.6-0.6c0.8,0.6,1.5,2.1,1.8,4c0.1,0.7,0.2,1.4,0.2,2.1
			C147.7,122,147.3,123.5,146.7,124.3z M148.3,124.1c0.7-1.8,0.7-4.2,0.4-6c-0.3-1.7-0.8-3-1.5-4l83.4-12c0.6,2.6,1.2,5.6,1.1,9.7
			C203.5,116,168.6,121.1,148.3,124.1z M236.4,111c-0.7,0.1-2.6,0.4-3.5,0.5c0-0.2,0-0.5,0-0.7c0-3.7-0.5-6.5-1.1-9
			c0.8-0.1,2.7-0.4,3.4-0.5c0.6,2.3,1.1,4.9,1.1,8.3V111z M236.5,101.2l5.5-0.8l-4.5,6.3C237.3,104.6,236.9,102.8,236.5,101.2z
			 M238.8,110.7c-0.4,0.1-0.7,0.1-1.1,0.2c0-0.6,0-1.1,0-1.7v-0.6c0.2-0.3,5.8-8,6.1-8.4c0.3,0,0.8-0.1,1.3-0.2
			c0.1,0.7,0.6,2.7,0.7,3.2c-0.3,0.5-4.8,6.8-5.1,7.2C240.3,110.5,239.5,110.6,238.8,110.7z M242.3,110.2l3.7-5.2
			c0.2,1.4,0.2,2.9,0.2,4.6C244.9,109.8,243.6,110,242.3,110.2z M250.8,108.9c-0.7,0.1-2.5,0.4-3.4,0.5c0-0.2,0-0.4,0-0.6
			c0-2-0.2-3.8-0.4-5.4h0c0-0.3-0.1-0.7-0.2-1.2c-0.1-0.3-0.1-0.7-0.2-1c-0.1-0.5-0.2-1-0.3-1.4c0.3,0,0.7-0.1,1.2-0.2l2.2-0.3
			l0.6,2.8c0.3,1.8,0.5,3.7,0.5,6C250.8,108.3,250.8,108.6,250.8,108.9z M252.1,108.7c0-1.7-0.1-3.2-0.2-4.6l4.2,4
			C254.8,108.3,253.4,108.5,252.1,108.7z M257.6,107.9c-0.4-0.4-5.6-5.3-6-5.7c-0.2-1-0.4-2-0.6-3c0.7-0.1,1.9-0.3,2.3-0.3
			c0.4,0.4,5.9,5.4,5.9,5.4c0.1,0.1,0.3,0.2,0.5,0.2c0.2,0,0.3-0.1,0.4-0.3c0,0,4.5-6.6,4.8-7l0.8-0.1c0.4-0.1,0.9-0.1,1.3-0.2
			c0.1,0.4,0.3,1.3,0.5,1.9c0,0.2,0.1,0.4,0.1,0.6c-0.4,0.6-5.7,7.5-5.9,7.9C261.1,107.4,258.1,107.8,257.6,107.9z M263.2,107l4.5-6
			c0.2,1.5,0.3,3.2,0.3,5.3C266.6,106.5,265,106.8,263.2,107z M272.7,105.6c-1,0.1-2.1,0.3-3.5,0.5c0-0.2,0-0.4,0-0.6
			c0-2.4-0.2-4.4-0.5-6c0-0.1,0-0.1,0-0.2c-0.3-1.4-0.5-2.2-0.6-2.7c0.9-0.1,2.7-0.4,3.5-0.5c0.6,2.6,1.1,5.2,1.1,8.7
			C272.7,105.1,272.7,105.4,272.7,105.6z M275,105.3c-0.3,0-0.6,0.1-1,0.2c0.1-3.9-0.5-6.7-1.1-9.5l2.7-0.4c0,0,0.1,0,0.1,0
			c0.7,0,1.2,0.3,1.5,1C278,98.5,277,102.6,275,105.3z M320.5,127.9c-0.4,0.8-1.8,1-3.3,1.3l-0.7,0.1h-1.6c-1.2-0.1-2.6-0.2-4.2,0.7
			l-0.6,0.4c-2.2,1.4-6.9,4.2-9.1,2.3l-0.3-0.3l-0.4,0.2c-2,1-9.2,4.1-17.2,1.9l-0.2-0.1l-0.2,0.1c-3.7,1.7-6.5,2-7.9,0.9
			c-1.1-0.9-1.6-2.7-1.2-5.4c0.1-1.2,0.6-2.2,1.6-3.9l0.5-1.4l-0.2-0.1c-2.9-4.5-1.5-8.7-0.2-12.8c8.7-0.4,14.8-2.3,19.9-5.7
			c5.2,1.3,11.9,1.1,16.4-0.5c0.9,1.2,1.3,2.2,1.7,3.3l1,2.3c0,0,1.6,2.4,1.6,2.4c1.1,1.5,2.2,3,2.6,4.7c0.1,0.6,0.2,1.1,0.2,1.5
			c0,0.4,0,0.7-0.1,1.1c0,0.3,0,0.6,0,0.9c0,0.9,0.2,1.8,1.2,2.8c0.6,1.1,0.9,2.1,0.9,2.7C320.6,127.6,320.5,127.7,320.5,127.9z"/>
		<path fill="#FFFFFF" d="M291.2,127.5L291.2,127.5l-0.5,0.1c-0.3,0.1-0.7,0-1.2-0.2c-0.6-0.2-1.3-0.4-2-0.2l-1.8,0.8l-1.8,0.8
			c-1.4,0.4-2.9-0.5-3.5-2c-0.1-0.3-0.5-0.5-0.8-0.4c-0.3,0.1-0.5,0.5-0.4,0.8c0.8,2.1,2.9,3.3,4.9,2.7c0,0,2-0.9,2-0.9l1.6-0.8
			c0.4-0.1,0.8,0,1.2,0.2c0.6,0.2,1.3,0.4,2,0.2c0,0,0.1,0,0.1,0l1-0.6c0.1-0.1,0.4-0.4,0-0.8C292,127.2,291.2,127.5,291.2,127.5z"
			/>
	</g>
	<path fill="#FFFFFF" d="M278.7,30.3h-1.7v4.8h-1.1v-4.8h-1.7v-1h4.5V30.3z M286.4,35.1h-1.1v-4.6h0l-1.6,4.6h-1.1l-1.6-4.6h0v4.6
		h-1.1v-5.8h2l1.3,3.8h0l1.4-3.8h2V35.1z"/>
</g>
</svg>
