<?xml version="1.0" encoding="UTF-8"?>
<!-- Generator: Adobe Illustrator 18.0.0, SVG Export Plug-In . SVG Version: 6.00 Build 0)  -->
<!DOCTYPE svg PUBLIC "-//W3C//DTD SVG 1.1//EN" "http://www.w3.org/Graphics/SVG/1.1/DTD/svg11.dtd">
<svg version="1.1" id="STL_1_" xmlns="http://www.w3.org/2000/svg" xmlns:xlink="http://www.w3.org/1999/xlink" x="0px" y="0px" viewBox="0 0 591 168" enable-background="new 0 0 591 168" xml:space="preserve">
<g>
	<path fill="#FFFFFF" d="M581.4,95.1c-1,0-1.9,0.1-2.7,0.2c1-3.6-0.4-7.8-1.7-11.5c-0.4-1.2-0.8-2.3-1.1-3.3   c-1.1-4.3-1.7-7-0.3-10.8c0.9-2.4-2.8-4.4-6.1-5.9l-0.5-0.2l-0.4,0.2c-3.2,1.2-11.8,11.9-21.1,23.7c-2.9,3.7-5.7,7.3-6.3,7.7   c-0.3,0.2-0.5,0.4-0.6,0.4c-0.1-0.3-0.1-1.2,0.4-3.4l10.5-48.1l-13.1,5.1l-0.1,1.2c-1.2,10.4-4.5,38-13.6,43.7   c-0.1,0.1-0.2,0.1-0.4,0.2c-0.6,0.4-2,1.3-2.8,1.3c-0.1,0-0.1,0-0.1,0c0.2-2.8,5.3-24.8,6.4-29.5L528,65h-10.7l-0.4,1.5   c-1.1-0.9-2.7-1.3-4.6-1.3c-0.8,0-1.6,0.1-2.4,0.2c-14.8,2.8-17,21.3-17.7,27.4c-0.1,0.5-0.1,1.1-0.2,1.3c-2.5,3.1-4.5,3.4-5.2,3.4   c-0.5,0-1-0.2-1.3-0.5c-0.4-0.4-0.5-1-0.5-1.6c0.1-2.2,1.1-5.9,2.3-9.8c2.1-7.3,4.3-14.8,1.9-17.8c-1.4-1.7-3.3-2.6-5.6-2.6   c-2.9,0-6,1.4-8.3,3.1l0.7-3.2h-11.2l-0.2,0.8c-1.6,7.6-6.2,24.3-9.7,28.4c-1,1.2-2.9,1.8-4.2,1.8c-0.6,0-1-0.1-1.1-0.3   c0,0-0.1-0.1-0.1-0.3c0.2-2.4,5.6-21.9,7.6-29.3l0.4-1.3h-11.3l-0.2,0.8c0,0.2-4.7,21-8.4,27.4c-1.1,1.8-2.3,2.9-3.5,2.9   c-0.6,0-1.1-0.3-1.3-0.6c-0.4-0.5-0.7-1.2-0.6-1.9c0.4-5.9,11-47.3,11.1-47.7l0.5-1.9l-13,5.1L427,66.5c-0.6-0.4-1.5-0.8-2.8-1   c-0.8-0.1-1.5-0.2-2.3-0.2c-7,0-10.9,5.8-13.6,10.8c-2.4,4.4-4.9,12.1-5,17.9c-1.3,1.6-3.7,3.9-5.3,3.9c0,0-0.1,0-0.2,0   c-0.9-0.1-1.5-0.5-1.8-1.2c-2.6-5.1,5.8-22.7,9.2-29l0.8-1.5l-19.3,0l0.6-2.2h-9.4l-0.2,0.8c-1.9,8.4-6.5,24.3-11.1,30.8   c-0.8,1.2-1.8,1.9-2.6,1.9c-0.7,0-1-0.6-1.1-1.2c-0.1-1.7,3.8-18.8,6.4-29.8l0.3-1.2h-11.2l-0.7,2.8c-1.3-0.7-3.4-1.4-5.8-1.4   c-3.5,0-6.7,1.6-9.5,4.6c-7.1,8-9.7,17.4-7,25.7c-0.6,0.8-3.8,2.6-6.6,4l-1.6,0.7l1.4,1c3.3,2.2,4.5,5.1,4.5,5.1l0.3,0.7l0.8-0.1   c2.3-0.4,4.5-2.4,5.6-3.5c2,1.3,4.2,2,6.3,2c2.8,0,5.6-1.2,8-3.5c3.7,3.3,8.5,3.5,9.9,3.5c11,0,15.4-15.3,18.6-26.5   c0.6-1.9,1.1-3.8,1.6-5.3l7.6,0c-0.5,1.2-1.1,2.6-1.7,4.1c-1.3,3.2-2.8,6.8-4,10.3c-2,6-3.4,12.6,0.9,15.7c1.8,1.3,3.9,1.9,6.2,1.9   c4.5,0,9-2.4,12.1-4.8c2.2,3.3,5.9,4.7,8.8,4.7c0.1,0,0.2,0,0.4,0c3.3-0.1,6-0.9,8.4-2.6c1.6,1.9,3.6,2.8,5.9,2.8   c3.6,0,7.2-2.3,9.9-4.6c1.2,2.8,3.4,4.4,6.3,4.4c3.1,0,6.4-1.2,9.5-3.5l-0.9,3.5h11.7l4.4-16.2c3-12.1,6.2-13.4,7.5-13.4   c0.9,0,1.5,0.6,1.6,0.7c0.5,0.7-0.1,2.6-1.1,5.4c-0.5,1.5-1.1,3.3-1.7,5.5l-0.2,0.6c-1.2,4.1-3.1,10.9-0.4,14.8   c1.1,1.6,2.8,2.5,5.1,2.7c4.7,0.4,10.9-2.2,14.6-5.9c2.7,3.8,5.8,5.7,9.5,5.7c2.6,0,5.5-0.9,8.9-2.8c1.3,1.7,2.7,3.1,5.3,3.1   c0.4,0,0.7,0,1-0.1c3.2-0.1,6.3-2.5,8.7-5c1.6,3.2,4.2,5,7.4,5l0.1,0c5.3-0.1,9.8-4.4,13.2-8c3.6,4.4,7.8,8.3,14.3,8.3   c1,0,2.1-0.1,3.2-0.3c1.3-0.2,2.5-0.5,3.5-0.8c1.3-0.4,2.5-0.7,3.5-0.7c1.2,0,2.7,0.3,5.3,2.5l1.4,1.2l0.2-1.9c0,0,0.5-4.2,7.3-8.7   l1.4-1l-1.5-0.8C585.9,95.6,583.7,95.1,581.4,95.1z M568.2,86.2c1.3,4.2,2.4,7.6,0,10.5c-0.8,0.9-2.3,1.4-3.9,1.4   c-1.7,0-3.3-0.6-4.4-1.6c-5.2-4.9-5-5.1-2.4-8.6c1.3-1.7,2.5-3.3,3.6-4.9c1.8-2.5,3.5-4.8,5.2-6.7   C566.3,79.9,567.3,83.2,568.2,86.2z M515,75.5c-0.7,6.3-3.6,21.2-9.1,21.2c-0.5,0-0.9-0.2-1.3-0.7c-0.6-0.7-1.7-3.2,0-10.1   c1.8-7.3,4.5-10.8,8.2-10.8C513.5,75.1,514.2,75.3,515,75.5z M423.1,86.5c-0.6,2.4-1.2,4.8-1.8,7.4c-0.3,1.3-2.2,2.4-4.1,2.4   c-0.7,0-2-0.2-2.4-1.3c-1.3-3,0.1-11.1,3.5-16.3c1.2-1.8,3.1-4,5.5-4c0.3,0,0.7,0,1,0.1c0,0,0,0,0.1,0.1   C425.7,76.1,424.3,81.6,423.1,86.5z M356.2,75.2c-0.8,8.6-3.8,21.4-8.5,21.4c-0.5,0-0.9-0.2-1.3-0.7c-0.6-0.7-1.7-3.2,0-10.1   c1.2-5,3.7-10.9,8.2-10.9C355.1,75,355.6,75,356.2,75.2z"/>
	<path fill="#FFFFFF" d="M454.9,58.9c3.5,0,6.3-2.8,6.3-6.3s-2.8-6.3-6.3-6.3c-3.5,0-6.3,2.8-6.3,6.3S451.5,58.9,454.9,58.9z"/>
	<path fill="#FFFFFF" d="M371.8,112.2c-4.8,0-9.9,0.9-15.2,1.8c-5.4,1-11,1.9-16.5,1.9c0,0,0,0,0,0c-5.4,0-9.9-1-14-2.9   c-7.5-3.6-13-12.7-13.2-21.7c-0.5-21.8,12.1-45.5,23.6-52.1c2-1.1,4.9-1.8,8-1.8c3.3,0,6.4,0.8,8.7,2.1c-3.9,5-2.3,8.3-0.3,10.1   c1.2,1.1,2.7,1.7,4.3,1.7c2.4,0,4.8-1.3,6.1-3.4c3.1-5.2,0.4-11-2.9-14.3c-4.2-4.1-11.7-6.7-19.1-6.7c-11.3,0-18.8,6.2-26.6,15.5   c-11.5,13.8-24.7,51.3-7.7,70.9c2.6,3,12.2,12.6,28.7,12.6c1,0,2.1,0,3.2-0.1c5.1-0.4,9-1.2,12.4-2c3.1-0.7,5.7-1.2,8.3-1.2   c3.8,0,7.3,1.2,11.7,4.1l0.6,0.4l0.6-0.4c2.4-1.8,5.6-2.8,9.6-2.8c3.4,0,6.8,0.7,9.6,1.3l2.3,0.5l-1.2-2   C387.9,115.8,381.3,112.2,371.8,112.2z"/>
	<path fill="#FFFFFF" d="M48.4,67c-1.1-0.4-2.2-0.9-3.3-1.3c-11.9-4.7-20.4-8-19-17.8c1.1-7.3,8.7-11.3,15.4-11.3   c2.1,0,4.2,0.4,6,1.1c-1.2,1.7-1.7,3.9-1.3,6.2c0.5,2.8,2.1,5.2,4.4,6.2c1,0.5,2.1,0.7,3.3,0.7c3.5,0,7.5-2.2,8.1-6.3   c0.5-4-0.8-7.9-3.8-11.4C54.1,28.3,47.2,25.1,41,25l-0.3,0C25.1,25,11.1,36.5,8.9,51.2C7.4,60.8,12.3,68.9,23,74.6l0.2,0.1   c11,3.5,21.1,8.2,21,19.2c-0.1,9.1-6.7,18.8-16.5,18.8c0,0,0,0,0,0c-0.4,0-0.9,0-1.3-0.1c-6.5-0.6-11.7-3.1-13.8-6.8   c-1.6-2.7-1.6-5.9-0.2-9.8c3,3.2,6.2,4.8,9.4,4.8c6.3,0,10.2-6.2,10.4-6.5l0.7-1.2l-1.3-0.3c-10.3-2.5-11.1-9.8-11.2-10.1l-0.1-0.8   l-0.8-0.1c-0.5,0-1-0.1-1.5-0.1C6.9,81.8,0.5,91.1,0,99.9c-0.2,4.1,1.1,12.8,7.4,19.4c4.8,5,11.3,7.6,19.3,7.6h0.1   c9.9,0,19.3-4,26.3-11.1c7-7.2,10.8-16.6,10.6-26.6C63.5,79.6,55.5,69.8,48.4,67z M26.7,125.9L26.7,125.9L26.7,125.9L26.7,125.9z"/>
	<path fill="#FFFFFF" d="M88.5,93.7l-1.1,0.9c-1.9,1.6-3.4,2.7-5,2.4c0-1.6,1.1-7,1.9-11c0.7-3.5,1.4-6.8,1.7-9.1h8l2.2-11h-7.7   l3.6-20.7l-11.9,7l-2.5,13.5h-9.3L66.1,77h8.6c-0.3,2.7-0.8,5.9-1.3,9.3c-0.9,5.6-1.9,12-2.1,18.2c0,1.2,0.4,2.2,1.2,3.1   c1.2,1.3,3.3,2,5.6,2l0.3,0c3.7-0.1,7.1-1.9,9.2-4.9c2-2.9,2.5-6.5,1.5-9.6L88.5,93.7z"/>
	<path fill="#FFFFFF" d="M100.3,112.1c3.1,0,5.6-2.8,5.6-6.2c0-3.4-2.5-6.2-5.6-6.2c-3.1,0-5.6,2.8-5.6,6.2   C94.8,109.3,97.3,112.1,100.3,112.1z"/>
	<path fill="#FFFFFF" d="M235.9,56.1c3.1,0,5.7-2.6,5.7-5.7c0-3.2-2.5-5.7-5.7-5.7c-3.1,0-5.7,2.6-5.7,5.7   C230.2,53.5,232.7,56.1,235.9,56.1z"/>
	<path fill="#FFFFFF" d="M277.1,96.6c-0.7,0-1.2,0-1.7,0.1c0.5-6.4-1.3-9.5-3-12.3c-1.3-2.2-2.4-4-2.4-7.3c-0.1-3.5,0.1-5.5,0.7-9   l0.1-0.5l-0.3-0.4c-1.8-2-5.2-4.3-5.3-4.4l-0.5-0.3l-0.5,0.3c-10.1,5.5-18.7,18.2-24.4,26.7c-2.1,3.2-4.6,6.7-5.4,7.2   c-0.2,0-0.4-0.2-0.7-0.5c-2.4-3.7,1.9-20.1,5.3-30.3l0.4-1.3h-10.7l-0.1,0.9c-1.1,8.8-5.8,31.5-14,31.5c-0.1,0-0.3,0-0.4,0   c-0.5,0-0.8-0.3-1.1-0.7c-2.8-4.4,2.8-23.4,5.2-30.3l0.5-1.3h-10.9l-0.1,0.9c0,0.1-1,7.7-3.1,15.2c-2.6,9.4-5.9,14.6-9.2,14.6   c-0.2,0-0.3,0-0.5,0c-0.2,0-0.4-0.2-0.6-0.4c-1.5-2.2,0.6-10.7,1.9-15.8c0.7-2.6,1.2-4.7,1.2-5.8c0.2-3.5-1.5-7.8-6.8-8.2   c-1.6-0.1-4.3,1.3-7.4,3c-2.7,1.5-5.7,3.1-7.2,3.1c0,0,0,0-0.1,0c-3.6-5.3-8.3-7.9-14.3-8l-0.2,0c-7.9,0-17.6,11.1-18.2,25.3   c-0.6,15,3.1,21.2,12.8,21.7c7.1,0.3,13.3-4.3,17.6-12.8c3.2-6.5,3.4-11.6,3.5-17l0-0.4c1.6-1.6,6.2-3.1,7.8-3.6   c0.2,0,0.4-0.1,0.6,0.2c1.9,2.6-1.6,16.8-4.3,25.2l0,0.3c-0.2,4.6,3,6.1,4.8,6.3c0.5,0.2,1.2,0.3,2.1,0.3c3.7,0,10-2.1,12.9-5.2   c2.4,3.4,5.6,5.1,9.9,5.2c4.6,0.2,8.2-1.5,10.8-5.1c2.2,3.5,5.4,5.3,8.9,5.1c5.1-0.4,9-4.5,11.9-8.4c0.8,0.8,1.6,1.6,2.3,2.4   c3.4,3.7,6.4,6.9,12.2,7.1c4.6,0.2,8.1-1.6,10.9-3.3c1.1,0.1,5,0.6,7.7,3l1.2,1.1l0.4-1.6c1-4.2,6.4-8.8,6.4-8.8l0.9-0.8l-0.9-0.8   C282,97.4,279.7,96.6,277.1,96.6z M260.9,77.1l1.1,9.6c1.1,5.4,1.1,9.4-2.2,11.2c-0.9,0.5-1.9,0.7-3,0.7c-3.6,0-6.9-2.5-7.6-5.7   C253.9,84.1,258.6,79.2,260.9,77.1z M163.3,78.7l0.1,0.4l0.3,0.2c2.8,1.7,3.5,2.6,3.4,4.4c-0.4,4.6-2.2,15.7-8.9,18.2   c-0.4,0.1-0.7,0.2-1,0.2c-1.6,0-2.5-1.8-3-3.3c-2-6.3,0-19.4,6.2-23.7c1.1-0.8,2.1-1.3,3.1-1.3c0.6,0,1.3,0.2,2,0.6   C164,75.3,162.7,76.8,163.3,78.7z"/>
	<path fill="#FFFFFF" d="M130.8,115.2c-2.3,0-4.2,0.1-5.5,0.1c3.2-7.3,9.1-30.4,12.7-46c6.7-24.4,16.8-30.9,21.7-30.9l0.1,0   c1.4,0,2.6,1.4,3,2.8c-1.5,0.4-2.9,1.4-3.9,2.9c-1.4,2-1.8,4.4-1.1,6.5c1,3.1,3.4,5.1,6.5,5.2l0.2,0c2.3,0,4.7-1.4,6.6-4   c3-4,4.3-9.9,3-14.3c-1.9-6.4-7.3-10.7-13.6-10.7c-0.5,0-0.9,0-1.4,0.1c-15.2,1.5-28.5,16.1-35.8,39c-2.3,7.2-3.9,16-5.8,26.2   c-1.5,8-3,16.2-5.1,24.9c-3.8,0.9-22.6,6-21.2,15.5c0.3,2.6,2,4.1,4.7,4.1c0,0,0,0,0,0c6.8,0,19.5-9.3,21.4-10.7   c3.2-0.3,6.3-0.4,9.2-0.4c14.8,0,23.5,3.7,28.3,6.7c5.1,3.3,6.8,6.7,6.8,6.7l0.5,1l0.9-0.5c2.2-1.2,4.7-1.8,7.4-1.8   c6.9,0,13.1,4,13.1,4l2.2,1.4l-0.7-2.5C178.8,117.7,145,115.2,130.8,115.2z"/>
	<polygon fill="#FFFFFF" points="585,91.1 585.7,91.1 585.7,88.5 586.6,88.5 586.6,88 584.1,88 584.1,88.5 585,88.5  "/>
	<polygon fill="#FFFFFF" points="589.9,88 589.1,90 589.1,90 588.4,88 587.2,88 587.2,91.1 587.9,91.1 587.9,88.6 587.9,88.6    588.8,91.1 589.4,91.1 590.3,88.6 590.3,88.6 590.3,91.1 591,91.1 591,88  "/>
</g>
</svg>