<?xml version="1.0" encoding="utf-8"?>
<!-- Generator: Adobe Illustrator 18.0.0, SVG Export Plug-In . SVG Version: 6.00 Build 0)  -->
<!DOCTYPE svg PUBLIC "-//W3C//DTD SVG 1.1//EN" "http://www.w3.org/Graphics/SVG/1.1/DTD/svg11.dtd">
<svg version="1.1" id="CHC" xmlns="http://www.w3.org/2000/svg" xmlns:xlink="http://www.w3.org/1999/xlink" x="0px" y="0px"
	 viewBox="0 0 126 168" enable-background="new 0 0 126 168" xml:space="preserve">
<g>
	<g>
		<g>
			<g>
				<path fill="#FFFFFF" d="M0,84c0-34.8,28.2-63,63-63c34.8,0,63,28.2,63,63c0,34.8-28.2,63-63,63C28.2,147,0,118.8,0,84z"/>
			</g>
			<g>
				<g>
					<g>
						<g>
							<g>
								<path fill="#0E3386" d="M4.1,83.8c0-32.5,26.4-58.9,58.9-58.9c32.5,0,58.9,26.4,58.9,58.9c0,32.5-26.4,58.9-58.9,58.9
									C30.4,142.7,4.1,116.3,4.1,83.8z M63,127.3c24,0,43.5-19.5,43.5-43.5c0-24-19.5-43.5-43.5-43.5c-24,0-43.5,19.5-43.5,43.5
									C19.5,107.8,38.9,127.3,63,127.3z"/>
								<g>
									<path fill="#CC3433" d="M82.1,96.1c-4.1,6.3-11.1,10.5-19.2,10.5c-12.6,0-22.8-10.2-22.8-22.8C40.2,71.2,50.4,61,63,61
										c8.3,0,15.5,4.4,19.5,11l11.2-10.9c-7-9.4-18.1-15.5-30.7-15.5c-21.1,0-38.2,17.1-38.2,38.2c0,21.1,17.1,38.2,38.2,38.2
										c12.5,0,23.5-6,30.5-15.2L82.1,96.1z"/>
								</g>
								<path fill="#CC3433" d="M56.2,87.5V73.7h6.9v14c0,5-1.2,6.2-5.2,6.2c-3,0-4.5,0-7.1,0c-3.3,0-4.4-2.1-4.4-6.6V73.7h6.9v13.8
									C53.3,89.4,56.2,89.4,56.2,87.5"/>
								<g>
									<path fill="#CC3433" d="M65.6,93.9V73.7h10.8c4.1,0,5.8,1,5.8,5.7c0,2.5-0.5,3.8-1.9,4.5c1.9,1.1,1.9,3.1,1.9,4.8
										c0,4.5-2,5.2-5.8,5.2C71.4,93.9,65.6,93.9,65.6,93.9z"/>
								</g>
								<path fill="#FFFFFF" d="M75.7,79.2c0-0.8-0.8-0.8-2.9-0.8v2.8c1.2,0,2.9,0.1,2.9-0.9V79.2z"/>
								<path fill="#FFFFFF" d="M75.6,87.4c-0.4-1-0.6-0.8-2.9-0.8v2.8c1.5,0,2.9,0.1,2.9-0.9C75.6,88.2,75.7,87.6,75.6,87.4z"/>
								<g>
									<path fill="#CC3433" d="M95.9,93.9c3.7,0,5.6-1,5.6-4.3c0-0.4,0-4.1,0-4.5c0-2.4-1.7-3.9-4.1-3.9c-2.4,0-4.1,0-4.9,0
										c-1.3,0-1-1.9-1-2.5c0-0.9,2.8-1.2,2.8,0.3c0,0.4,0,0.7,0,0.9h7.3c0-4.7-0.9-6.2-5.6-6.2c-1.1,0-5.1,0-6.4,0
										c-3,0-4.7,1.2-4.8,4.7c-0.1,3.5,0,2,0,3.3c0,1.3-0.2,4.2,3.8,4.2c2.1,0,4.6,0,5,0c1.4,0,1.1,1.7,1.1,1.7v1.1
										c0,1.2-2.4,1.2-2.9,0.3c-0.4-0.6-0.2-1.7-0.2-1.7h-6.8c0,1.4-0.8,6.7,3.4,6.7C91.8,93.9,95.9,93.9,95.9,93.9z"/>
								</g>
							</g>
						</g>
					</g>
				</g>
			</g>
		</g>
	</g>
	<g>
		<path fill="#0E3386" d="M94.2,97.5H93v3.2h-0.8v-3.2H91v-0.7h3.1V97.5z M99.5,100.7h-0.8v-3.1h0l-1.1,3.1h-0.8l-1.1-3.1h0v3.1
			h-0.8v-3.9h1.4l0.9,2.5h0l0.9-2.5h1.4V100.7z"/>
	</g>
</g>
</svg>
