<?xml version="1.0" encoding="UTF-8"?>
<!-- Generator: Adobe Illustrator 18.0.0, SVG Export Plug-In . SVG Version: 6.00 Build 0)  -->
<!DOCTYPE svg PUBLIC "-//W3C//DTD SVG 1.1//EN" "http://www.w3.org/Graphics/SVG/1.1/DTD/svg11.dtd">
<svg version="1.1" id="ARI" xmlns="http://www.w3.org/2000/svg" xmlns:xlink="http://www.w3.org/1999/xlink" x="0px" y="0px" viewBox="0 0 155 168" enable-background="new 0 0 155 168" xml:space="preserve">
<path fill="#FFFFFF" d="M148.3,139.8h-1.5v4h-1v-4h-1.5v-0.9h3.9V139.8z M155,143.8h-1v-3.9h0l-1.4,3.9h-1l-1.4-3.9h0v3.9h-1v-4.8  h1.7l1.1,3.2h0l1.2-3.2h1.7V143.8z"/>
<path fill="#E3D4AD" d="M51.3,126l18.5-31c0.5,1.9,1.4,5.7,1.6,6.3c-0.9,1.6-15.2,26.4-15.2,26.4s21.1-17.4,22.1-18.2  c0.4,0.4,15.6,18.9,15.6,18.9s-7.2-24-7.7-25.6c0.4-0.6,2.8-4.4,4.3-6.8l6.5,30.2l-13.1,18H140L113.2,24l-37.3,0L0,144h59.8  L51.3,126z M70.4,93.8l11.8-19.8h3.5l4.3,19.8H70.4z"/>
<polygon points="81.4,28.7 109.2,28.7 133.8,139.3 93.8,139.3 102.8,127.2 89.9,69.8 79.3,69.8 45.1,126.1 51.5,139.2 11.9,139.2   8,141.6 55.8,141.6 48.2,126 80.7,71.9 87.7,71.9 100,126.6 89,141.6 136.9,141.6 111.3,26.3 79.8,26.3 "/>
<polygon points="40.1,119.1 44.2,116.5 36.8,98.9 60.3,84.2 52.2,69.8 74.9,58.8 67.6,45.9 85.1,38.1 78.7,28.7 77.2,26.6   4.3,141.6 "/>
<path fill="#A71930" d="M73.9,101.6c-0.7,1.2-9,15.5-9,15.5s11.8-9.8,13.5-11.1c1.2,1.4,9.5,11.5,9.5,11.5s-4.1-13.8-4.5-15.1  c0.6-1,3.8-6.1,3.8-6.1H72.6C72.6,96.3,73.7,100.6,73.9,101.6"/>
<polygon fill="#A71930" points="45.1,126.1 79.3,69.8 89.9,69.8 102.8,127.2 93.8,139.3 133.8,139.3 109.2,28.7 81.4,28.7   88.3,39.2 71,47 78.4,59.9 55.7,70.8 63.3,84.8 39.8,99.6 47.1,117.4 11.9,139.2 51.5,139.2 "/>
</svg>