<svg xmlns="http://www.w3.org/2000/svg" xmlns:xlink="http://www.w3.org/1999/xlink" version="1.1" id="LAD" x="0px" y="0px" viewBox="0 0 236.6 168" enable-background="new 0 0 236.6 168" xml:space="preserve">
<g>
	<path fill="none" d="M82.5 111c1.3 0.1 2.6-0.2 2.6-0.2c-0.2-5.9-7.4-6.5-6.4-1.9C78.9 109.8 80.4 110.8 82.5 111z"/>
	<path fill="none" d="M75.6 112.7c-2.8 4.8-3 15.8 1.1 16.6c5.1 1 8.8-8.6 8.5-13.3C82.3 116.4 77.4 116 75.6 112.7z"/>
	<path fill="none" d="M232.9 93c1.6 0 2.9-1.3 2.9-2.9c0-1.7-1.3-2.9-2.9-2.9c-1.6 0-2.9 1.3-2.9 2.9C230 91.7 231.3 93 232.9 93z M231.3 88.1h1.9c0.9 0 1.5 0.2 1.5 1.2c0 0.7-0.4 1.1-1.1 1.1l0.9 1.6h-0.9l-0.9-1.6h-0.7V92h-0.8V88.1z"/>
	<path fill="none" d="M10.2 160.4c0.8 1.9 7.4-3.6 9.2-6.8C14.7 153.8 9.4 158.4 10.2 160.4z"/>
	<path fill="none" d="M233.9 89.2c0-0.4-0.5-0.4-0.9-0.4h-0.9v0.9h1.1C233.7 89.7 233.9 89.6 233.9 89.2z"/>
	<path fill="none" d="M123.8 149.6c4.3-0.8 5.9-6.8 7.9-15.8c0 0-3.1 1.5-6.8 2.9C122 141 120.1 150.3 123.8 149.6z"/>
	<path fill="none" d="M106.6 96.3c-7.2-0.7-9.4 20.6-4.4 20.7c2.9 0.1 5-2.8 6.1-7c0.2-0.9 1.3-9.1 1.3-10 C109.8 97.4 108 96.4 106.6 96.3z"/>
	<path fill="none" d="M157.5 100.4c-4 0.1-6-2.7-7.3-4.8c-1.3 1.5-2.7 3.2-3.9 4.9l-0.4 0.6c-1.6 2.3-3 4.6-4.2 6.8 c-0.7 4.2-1.5 10.4-2 13.9c54.7-19.9 73.5-27.1 80.3-37.5c1.6-2.5 4.3-8.8 0.6-11.4c-2.5-1.7-6.5 0.7-7.6 1.8 c-3.4 3.6-6.9 7.1-12 6.3c-3.6-0.6-5.4-4.8-2.7-7.3c1.8-1.7 3.6 0.7 5.2-0.1c3.1-1.5 4.6-9-1.4-16c-1.8 6-8 33.6-18 30.7 c-10-2.9-2.5-20.1-1.5-23.3c-1 0-2.3-0.1-3.3-0.4C176.9 74.7 171 100.1 157.5 100.4z"/>
	<path fill="none" d="M133 124c0 0 1-4.3 1.2-5.8c-0.5 0.8-2.7 5.1-4 6.9C131.1 124.8 133 124 133 124z"/>
	<path fill="none" d="M160.4 57l5.9-32.3c0.2-0.8 1-1.4 1.8-1.2c0.8 0.1 1.4 1 1.2 1.8l-5.9 32.3c-0.1 0.7-0.8 1.3-1.5 1.3 c-0.1 0-0.2 0-0.3 0C160.8 58.7 160.3 57.9 160.4 57z M146.2 64.3l7.2-32.3c0.2-0.8 1-1.4 1.9-1.2c0.8 0.2 1.4 1 1.2 1.9L149.2 65 c-0.2 0.7-0.8 1.2-1.5 1.2c-0.1 0-0.2 0-0.3 0C146.5 66 146 65.1 146.2 64.3z M142.5 30.9c0.3-0.8 1.1-1.3 1.9-1 c0.8 0.3 1.3 1.1 1 1.9l-12.2 39.6c-0.2 0.7-0.8 1.1-1.5 1.1c-0.1 0-0.3 0-0.5-0.1c-0.8-0.3-1.3-1.1-1-1.9L142.5 30.9z M133.4 26.2 c0.3-0.8 1.3-1.1 2-0.8c0.8 0.3 1.1 1.3 0.8 2.1l-11.5 26.4c-0.3 0.6-0.8 0.9-1.4 0.9c-0.2 0-0.4 0-0.6-0.1c-0.8-0.3-1.1-1.3-0.8-2 L133.4 26.2z M110 41.9l16.1-29c0.4-0.8 1.4-1 2.1-0.6c0.7 0.4 1 1.4 0.6 2.1l-16.1 29c-0.3 0.5-0.8 0.8-1.4 0.8 c-0.3 0-0.5-0.1-0.8-0.2C109.9 43.6 109.6 42.7 110 41.9z M81.5 93l23.8-42.6c0.4-0.8 1.4-1 2.1-0.6c0.8 0.4 1 1.4 0.6 2.1 L84.2 94.5c-0.3 0.5-0.8 0.8-1.4 0.8c-0.3 0-0.5-0.1-0.8-0.2C81.4 94.7 81.1 93.7 81.5 93z M59.3 138.5 c-10.7 19.4-28.1 14.6-33.6 14.7C18.1 165.4 7 168.4 4.6 166.8c-3.2-2.1 0.5-15.4 16.8-17.8c4.4-6.3-2.1-44.9 20.2-56.2 c-3 4.5-6.3 7.4-8.7 37.5c-0.8 10.3-3.7 16.7-4.5 18.5c3.5 0.1 5 0.6 8.9-0.1c10.3-1.9 14.8-11.9 17-21.5 c2.9-12.8 2.5-29.3-7.4-34.9c0 0-8.1-7.3-24.5 1.6C6 102.8 4.5 115.4 7.3 119.7c4.8 7.3 13.2-0.7 13.2-0.7s-0.3 3.8-2.7 7.4 c-1.5 2.2-6.6 6.1-10.9 4.3c-6-2.5-7.4-7.7-6.6-15.4c2.6-23.9 40.3-40.6 57-24.2C68.8 102.4 66.6 125.3 59.3 138.5z M108.2 152.2 l-2.9 9.5c-0.2 0.7-0.8 1.1-1.5 1.1c-0.2 0-0.3 0-0.5-0.1c-0.8-0.3-1.3-1.1-1-1.9l2.9-9.5c0.2-0.8 1.1-1.3 1.9-1 C108 150.5 108.5 151.4 108.2 152.2z M232.9 86.3c2.1 0 3.7 1.7 3.7 3.8c0 2.1-1.6 3.7-3.7 3.7c-2.1 0-3.7-1.7-3.7-3.7 C229.2 88 230.8 86.3 232.9 86.3z M176.2 53.2c0.9-0.7 2.5-1.1 3.4 0c0.9 1.1 0.8 3.9 0.8 3.9c3.4 1.9 7.2-1.3 9.2 0.8 c3.5 3.6-2.2 10.7-3.2 14.7c-1.1 3.9-0.9 7.3 1.1 7c3.6-0.5 10.4-20.3 11.7-26.8c-3-13.8 7.6-15.8 6.8-9.1 c-0.4 3.3-3.5 4.6-2.4 8.5c4.7 5.6 9.3 8 9.3 17.1c2.3-2.2 11.5-3.6 13.9 3.3c6 17-20.5 30.3-38.9 38.2 c-19.9 8.5-38.9 15.9-49.6 20.5c-1.7 7.8-5.6 28.4-17.6 28.7c-6.9 0.1-7.7-12-3.7-20.2c-16.5 5.5-27.8 15.6-29.6 20.6 c0 0-7.9-2.4-17.2-0.5c11.4-17 39-27.2 53.1-32.4c0 0 7.6-12.2 11.7-17.2l0.5-3.5c-1.6 4.2-8.8 10.8-13.3 3.7 c-0.9 2.7-2.5 9.2-7.6 9.4c-2.2 0.1-4-1.5-4.7-3.3c-0.9 2.9-4.2 10-10.1 9.2c-5.5-0.8-7-10-6.4-14.9c0 0.2-1.3 2-2.8 3 c-0.1 16.1-10.1 26.5-17.8 22.7c-4.1-2.7-5.1-6.9-5.1-6.9c-2.9-15.2 6-31.3 16.9-28c3.3 1 4.8 3.9 5.5 7.2c1.2-0.6 2.5-1.6 3.5-2.6 c0.3-5.4 5-13.8 11-15.2c2-0.5 3.7-0.7 6.3 1.3c0.1 0 5-25 5-25c2.9 0 6.7-2.2 6.7-2.2c-1.9 9.8-7.7 37-7.1 46.2 c0.1 1.9 4.3 1 5.1-6.8c-0.6-25.2 15.4-30.1 18.8-24.9l0.5-3.2c3.5-0.4 6.7-2.5 6.7-2.5c-0.6 4.6-2.4 17.1-3.8 25.8 c2.8-3.9 5-6.6 6.3-8.1c-0.2-1-0.3-2-0.3-2.8c0.6-19.5 13.4-25.6 17.6-22.2c2.6 2.1 6.1 8-9.9 23.5c1.8 5.7 9.9 1.2 13.2-8.1 c3.3-9.1 4.1-11.8 5.2-18.6C173.5 60.6 173.6 55.2 176.2 53.2z"/>
	<path fill="none" d="M134.8 83.7c-8.2 1-10 22.5-4.4 21.5c2.9-0.6 4.7-4.7 5.7-8c1-3.1 1.4-6.9 1.6-8.6 C138 85.4 136.3 83.5 134.8 83.7z"/>
	<path fill="none" d="M162.4 71.5c-1.8-0.9-5.8 6.3-6.3 14.2C159.4 82.2 166.5 73.6 162.4 71.5z"/>
	<path fill="#FFFFFF" d="M0.2 115.3c-0.8 7.7 0.6 12.9 6.6 15.4c4.4 1.8 9.5-2.1 10.9-4.3c2.4-3.6 2.7-7.4 2.7-7.4 s-8.4 8.1-13.2 0.7c-2.8-4.3-1.3-16.9 15.1-25.8c16.4-8.9 24.5-1.6 24.5-1.6c9.9 5.6 10.3 22.1 7.4 34.9c-2.2 9.6-6.7 19.6-17 21.5 c-3.9 0.7-5.3 0.3-8.9 0.1c0.8-1.8 3.6-8.2 4.5-18.5c2.4-30.2 5.7-33 8.7-37.5c-22.3 11.3-15.8 49.9-20.2 56.2 c-16.3 2.4-20.1 15.8-16.8 17.8c2.5 1.6 13.5-1.4 21.1-13.6c5.5-0.1 23 4.7 33.6-14.7c7.2-13.2 9.5-36.1-2.1-47.4 C40.6 74.7 2.9 91.4 0.2 115.3z M10.2 160.4c-0.8-1.9 4.5-6.6 9.2-6.8C17.6 156.8 11 162.3 10.2 160.4z"/>
	<path fill="#FFFFFF" d="M174.9 63.4c-1 6.8-1.9 9.5-5.2 18.6c-3.4 9.4-11.4 13.8-13.2 8.1c16-15.4 12.5-21.4 9.9-23.5 c-4.1-3.4-16.9 2.7-17.6 22.2c0 0.8 0.1 1.8 0.3 2.8c-1.3 1.5-3.5 4.2-6.3 8.1c1.3-8.6 3.2-21.1 3.8-25.8c0 0-3.2 2.1-6.7 2.5 l-0.5 3.2c-3.4-5.2-19.4-0.3-18.8 24.9c-0.8 7.7-5 8.6-5.1 6.8c-0.5-9.2 5.2-36.3 7.1-46.2c0 0-3.8 2.1-6.7 2.2c0 0-4.9 25-5 25 c-2.6-2-4.3-1.8-6.3-1.3c-6 1.4-10.7 9.8-11 15.2c-1.1 1-2.3 2-3.5 2.6c-0.8-3.2-2.2-6.2-5.5-7.2c-10.9-3.3-19.8 12.8-16.9 28 c0 0 1.1 4.2 5.1 6.9c7.7 3.8 17.7-6.5 17.8-22.7c1.5-1 2.8-2.8 2.8-3c-0.7 4.9 0.8 14.1 6.4 14.9c5.9 0.8 9.2-6.3 10.1-9.2 c0.7 1.8 2.5 3.4 4.7 3.3c5-0.2 6.6-6.7 7.6-9.4c4.5 7.1 11.7 0.6 13.3-3.7l-0.5 3.5c-4.1 4.9-11.7 17.2-11.7 17.2 c-14.2 5.1-41.7 15.3-53.1 32.4c9.2-1.8 17.2 0.5 17.2 0.5c1.8-5 13.1-15 29.6-20.6c-4.1 8.2-3.3 20.3 3.7 20.2 c12-0.2 15.9-20.9 17.6-28.7c10.6-4.6 29.7-11.9 49.6-20.5c18.5-7.9 44.9-21.2 38.9-38.2c-2.4-6.9-11.6-5.5-13.9-3.3 c0-9.1-4.6-11.5-9.3-17.1c-1.1-3.9 2-5.2 2.4-8.5c0.9-6.8-9.8-4.8-6.8 9.1c-1.3 6.5-8.1 26.3-11.7 26.8c-2.1 0.3-2.2-3-1.1-7 c1.1-4 6.7-11.1 3.2-14.7c-2-2.1-5.8 1-9.2-0.8c0 0 0.1-2.9-0.8-3.9c-0.9-1.1-2.4-0.7-3.4 0C173.6 55.2 173.5 60.6 174.9 63.4z M85.1 110.8c0 0-1.3 0.4-2.6 0.2c-2.1-0.2-3.6-1.2-3.8-2.1C77.7 104.3 84.9 105 85.1 110.8z M76.7 129.3c-4.1-0.8-4-11.8-1.1-16.6 c1.8 3.4 6.7 3.7 9.7 3.3C85.5 120.7 81.7 130.3 76.7 129.3z M108.3 110c-1 4.2-3.1 7.1-6.1 7c-5-0.2-2.8-21.5 4.4-20.7 c1.4 0.1 3.2 1.1 3 3.7C109.5 100.9 108.5 109.1 108.3 110z M123.8 149.6c-3.6 0.6-1.8-8.6 1.1-13c3.7-1.4 6.8-2.9 6.8-2.9 C129.7 142.8 128.1 148.8 123.8 149.6z M133 124c0 0-1.9 0.8-2.8 1.1c1.2-1.8 3.5-6.1 4-6.9C134 119.7 133 124 133 124z M137.6 88.5c-0.2 1.8-0.6 5.6-1.6 8.6c-1 3.3-2.8 7.4-5.7 8c-5.5 1-3.7-20.5 4.4-21.5C136.3 83.5 138 85.4 137.6 88.5z M162.4 71.5c4.1 2.1-3 10.7-6.3 14.2C156.6 77.8 160.6 70.6 162.4 71.5z M179 64.8c1 0.2 2.4 0.4 3.3 0.4 c-1 3.2-8.5 20.4 1.5 23.3c10 2.9 16.2-24.7 18-30.7c6.1 7 4.5 14.4 1.4 16c-1.6 0.8-3.4-1.6-5.2 0.1c-2.6 2.5-0.9 6.7 2.7 7.3 c5.2 0.9 8.6-2.7 12-6.3c1.1-1.1 5.1-3.6 7.6-1.8c3.8 2.6 1.1 8.9-0.6 11.4c-6.9 10.4-25.6 17.6-80.3 37.5c0.5-3.5 1.3-9.7 2-13.9 c1.2-2.1 2.7-4.5 4.2-6.8l0.4-0.6c1.2-1.8 2.6-3.4 3.9-4.9c1.3 2.1 3.2 4.9 7.3 4.8C171 100.1 176.9 74.7 179 64.8z"/>
	<path fill="#FFFFFF" d="M162.7 20c4-2.4 7-6.2 8.5-10.8c1-3.1 1.2-6.2 0.7-9.2h-6.5C161 5.5 159.8 13.2 162.7 20z"/>
	<path fill="#FFFFFF" d="M135.8 13.4c2.4 3.9 6.1 6.9 10.7 8.4c2 0.6 4 1 6 1c2.6 0 5.1-0.5 7.4-1.4c-3.1-7.1-2.3-15.1 1.7-21.4H146 c-0.1 0.3-0.2 0.6-0.3 0.9C144 6.2 140.5 10.6 135.8 13.4z"/>
	<path fill="#FFFFFF" d="M134.4 10.7c4-2.5 6.9-6.2 8.4-10.7h-9.7C132.5 3.7 133 7.4 134.4 10.7z"/>
	<path fill="#EF3E42" d="M145.5 24.8c2.3 0.7 4.6 1.1 7 1.1c9.9 0 18.6-6.4 21.7-15.8c1.1-3.3 1.3-6.8 0.9-10.1h-3.2 c0.5 3 0.3 6.1-0.7 9.2c-1.5 4.6-4.6 8.4-8.5 10.8c-2.9-6.8-1.7-14.4 2.7-20h-3.8c-4 6.2-4.8 14.2-1.7 21.4 c-2.3 0.9-4.8 1.4-7.4 1.4c-2 0-4.1-0.3-6-1c-4.6-1.5-8.3-4.6-10.7-8.4c4.7-2.8 8.2-7.2 9.9-12.5c0.1-0.3 0.2-0.6 0.3-0.9h-3.2 c-1.5 4.5-4.4 8.2-8.4 10.7c-1.4-3.3-1.9-7-1.3-10.7h-3.2C128.4 10.7 134.8 21.4 145.5 24.8z"/>
	<path fill="#EF3E42" d="M47.6 157.4c-0.8-0.4-1.7-0.2-2.1 0.6l-5.6 10h3.6l4.7-8.5C48.6 158.8 48.3 157.8 47.6 157.4z"/>
	<path fill="#EF3E42" d="M82.1 95.1c0.2 0.1 0.5 0.2 0.8 0.2c0.5 0 1.1-0.3 1.4-0.8L108 51.9c0.4-0.7 0.1-1.7-0.6-2.1 c-0.7-0.4-1.7-0.1-2.1 0.6L81.5 93C81.1 93.7 81.4 94.7 82.1 95.1z"/>
	<path fill="#EF3E42" d="M110.6 44c0.2 0.1 0.5 0.2 0.8 0.2c0.5 0 1.1-0.3 1.4-0.8l16.1-29c0.4-0.7 0.1-1.7-0.6-2.1 c-0.7-0.4-1.7-0.1-2.1 0.6l-16.1 29C109.6 42.7 109.9 43.6 110.6 44z"/>
	<path fill="#EF3E42" d="M74.4 165c-0.8-0.3-1.7 0-2 0.8l-1 2.2h3.4l0.4-0.9C75.5 166.3 75.1 165.3 74.4 165z"/>
	<path fill="#EF3E42" d="M122.6 54.6c0.2 0.1 0.4 0.1 0.6 0.1c0.6 0 1.2-0.3 1.4-0.9l11.5-26.4c0.3-0.8 0-1.7-0.8-2.1 c-0.8-0.3-1.7 0-2 0.8l-11.5 26.4C121.5 53.3 121.9 54.3 122.6 54.6z"/>
	<path fill="#EF3E42" d="M107.2 150.3c-0.8-0.3-1.7 0.2-1.9 1l-2.9 9.5c-0.3 0.8 0.2 1.7 1 1.9c0.2 0 0.3 0.1 0.5 0.1 c0.7 0 1.3-0.4 1.5-1.1l2.9-9.5C108.5 151.4 108 150.5 107.2 150.3z"/>
	<path fill="#EF3E42" d="M131.2 72.5c0.2 0.1 0.3 0.1 0.5 0.1c0.7 0 1.3-0.4 1.5-1.1l12.2-39.6c0.3-0.8-0.2-1.7-1-1.9 c-0.8-0.2-1.7 0.2-1.9 1l-12.2 39.6C130 71.4 130.4 72.2 131.2 72.5z"/>
	<path fill="#EF3E42" d="M125.2 165.2c-0.8-0.2-1.7 0.3-1.9 1.2L123 168h3.2l0.2-1C126.6 166.2 126.1 165.4 125.2 165.2z"/>
	<path fill="#EF3E42" d="M149.2 137.4c0.2-0.8-0.4-1.7-1.2-1.8c-0.8-0.1-1.7 0.4-1.8 1.2l-5.8 30c-0.1 0.4 0 0.9 0.3 1.2h2.5 c0.1-0.2 0.3-0.4 0.3-0.6L149.2 137.4z"/>
	<path fill="#EF3E42" d="M147.4 66.2c0.1 0 0.2 0 0.3 0c0.7 0 1.4-0.5 1.5-1.2l7.2-32.3c0.2-0.8-0.3-1.7-1.2-1.9 c-0.8-0.2-1.7 0.3-1.9 1.2l-7.2 32.3C146 65.1 146.5 66 147.4 66.2z"/>
	<path fill="#EF3E42" d="M161.7 58.8c0.1 0 0.2 0 0.3 0c0.7 0 1.4-0.5 1.5-1.3l5.9-32.3c0.2-0.8-0.4-1.7-1.2-1.8 c-0.8-0.2-1.7 0.4-1.8 1.2L160.4 57C160.3 57.9 160.8 58.7 161.7 58.8z"/>
	<path fill="#FFFFFF" d="M232.1 90.4h0.7l0.9 1.6h0.9l-0.9-1.6c0.7-0.1 1.1-0.4 1.1-1.1c0-1-0.6-1.2-1.5-1.2h-1.9V92h0.8V90.4z M232.1 88.8h0.9c0.4 0 0.9 0 0.9 0.4c0 0.4-0.3 0.5-0.7 0.5h-1.1V88.8z"/>
	<path fill="#FFFFFF" d="M232.9 93.8c2.1 0 3.7-1.7 3.7-3.7c0-2.1-1.6-3.8-3.7-3.8c-2.1 0-3.7 1.7-3.7 3.8 C229.2 92.1 230.8 93.8 232.9 93.8z M232.9 87.1c1.6 0 2.9 1.3 2.9 2.9c0 1.7-1.3 2.9-2.9 2.9c-1.6 0-2.9-1.3-2.9-2.9 C230 88.4 231.3 87.1 232.9 87.1z"/>
</g>
</svg>
