<?xml version="1.0" encoding="utf-8"?>
<!-- Generator: Adobe Illustrator 18.0.0, SVG Export Plug-In . SVG Version: 6.00 Build 0)  -->
<!DOCTYPE svg PUBLIC "-//W3C//DTD SVG 1.1//EN" "http://www.w3.org/Graphics/SVG/1.1/DTD/svg11.dtd">
<svg version="1.1" id="SF" xmlns="http://www.w3.org/2000/svg" xmlns:xlink="http://www.w3.org/1999/xlink" x="0px" y="0px"
	 viewBox="0 0 86.1 168" enable-background="new 0 0 86.1 168" xml:space="preserve">
<g>
	<g>
		<g>
			<path fill="#FD5A1E" d="M36.1,77.4v12.1c0,0,15.4,1,20.1-1.9c-0.8,2.7-0.6,11.4,0,12.9c-5.9-3-20.1-1.8-20.1-1.8v12.2h22.7
				l4.8-5.6V84.4l-5.6-6.5C54.7,77.5,42.8,77.4,36.1,77.4z M0.9,34.2c4.7-2.2,9.7-7,11.5-10.2c4.6,2.1,46.4,1.8,51.3,0
				c2.9,4.3,6.1,6.6,10.5,8.1c-0.4,4.1-0.3,5.5,1.1,8.8H63.7l-4.8-5.4h-41l-5.4,4.7V62l5.4,5.2l6.8,0.3c0-8.1,0.1-9.6-5.9-11.2
				c2-4,2.4-4.4,2.9-9.4c5.1,1.7,57.7,0.8,60-0.5c-0.4,5.1,2.5,14.9,4.5,18.6H74.6c-0.6-4-3.1-7.1-7.1-7.8H36.1v10.4
				c0,0,24.4,0.7,27.6-0.4C65.3,71.2,71,77.3,75.2,79c-1.4,8.5-1.1,23,0,31.8c-4.5,2.2-9.2,6.9-11.5,11.5
				c-5.7-1.6-27.6-0.8-27.6-0.8v6.5c1.1,4.5,3.5,5.5,7.7,5.9c0,0-3.4,6.3-3.5,10H20.6c-0.1-3.6-3.5-10-3.5-10
				c3.8-0.2,6.9-2.4,7.5-5.9v-6.5c0,0-6.9-0.3-12.1,0.8c-1.6-3.5-7.3-9.9-11.5-11.5c1-2.5,0.5-18.5-0.9-21.8h12.4l0,16.2l4.8,5.6
				h7.3V77.4c0,0-6.4-0.3-12.1,0.1c-1.7-3.2-6.6-8.4-11.5-10.8C2.4,60.8,2.6,39.8,0.9,34.2L0.9,34.2z"/>
		</g>
	</g>
	<g>
		<g>
			<path fill="#FD5A1E" d="M48.7,139.2h-1.4v3.8h-0.9v-3.8H45v-0.8h3.7V139.2z M55.1,143h-0.9v-3.7h0l-1.3,3.7h-0.9l-1.3-3.7h0v3.7
				h-0.9v-4.6h1.6l1.1,3h0l1.1-3h1.6V143z"/>
		</g>
	</g>
</g>
</svg>
