<?xml version="1.0" encoding="utf-8"?>
<!-- Generator: Adobe Illustrator 18.0.0, SVG Export Plug-In . SVG Version: 6.00 Build 0)  -->
<!DOCTYPE svg PUBLIC "-//W3C//DTD SVG 1.1//EN" "http://www.w3.org/Graphics/SVG/1.1/DTD/svg11.dtd">
<svg version="1.1" id="CLE" xmlns="http://www.w3.org/2000/svg" xmlns:xlink="http://www.w3.org/1999/xlink" x="0px" y="0px"
	 viewBox="0 0 355.6 168" enable-background="new 0 0 355.6 168" xml:space="preserve">
<path fill="#FFFFFF" d="M76.1,93.1l14.8,25.2l-22.5-8.7c0,0-11.7,23.1-36.9,23.6c-13.3,0.3-31-9.7-31.5-26.5
	c-0.5-17,10.7-24.7,20.3-25.2c18.7-0.9,14,16.3,14,16.3s-1.5-1.2-5.7-1c-3.5,0.1-6.8,3.1-6.6,8.5c0.1,4.3,4.8,7.8,10.5,7.6
	c10.4-0.5,17.1-11.6,17.1-11.6s-14.9-8.9-15.3-23.8c-0.4-16.9,12.6-31.8,30.8-41.8C88.5,24.1,113.7,24,113.7,24s-10.1,3.3-17.9,17.5
	c-5.3,9.6-9.4,23.1-13.5,36.5C80.6,83.2,76.1,93.1,76.1,93.1 M66.7,58.2c-5.4,3.5-8.4,7.9-9.5,12.1c-1.3,5.2,0.2,10,1.9,11.9
	C60.9,77.6,64.4,61.6,66.7,58.2"/>
<path fill="#FFFFFF" d="M162.5,62.1c0,0-3.2,8.9-3.4,9.6c-1.1,3.2-3.9,6.9-6.1,6.1c-2.9-1.1,1.8-11.5,4-13.6
	C158.7,62.5,162.5,62.1,162.5,62.1 M312.9,74.9c0,0,1-1.8,2.3-3.8c1.1-1.6,2.1-3,2.1-3s0.7,1.9,1.5,5.9c0.7,3.9,0.5,5.7-2.2,5.7
	c-3.1,0-2.2-5.1-1.2-5.4C315.3,74.3,312.9,74.9,312.9,74.9 M248,74.4c0,0-2.7,1.9-3.3,1.9c-0.8,0-0.5-0.6,0.1-2.3
	c1.3-3.7,10.8-30.6,10.8-30.6s-19.7,0-31.6,2.8c-9.5,2.2-21.2,14.5-22.3,29.3c0,0.1-2.2,1.9-3.3,2c-1.5,0.1-0.9-1.2-0.2-3.1
	c0.4-1.1,10.9-31,10.9-31l-3.2,0.7l0.1-0.2c3.9-3.3,6.1-7.3,4.5-12.2c-1.5-4.6-7.8-7.1-13.2-4.7c-6,2.7-9,8.6-7.3,13.8
	c1,3.3,3.6,4.8,6.5,5.5v0.2l-7.2,1.9l-9.8,27.3c0-0.1-1.8,1.2-2.6,1.2c-0.8-0.1-0.9-0.5-0.5-1.8c0.4-1.4,7.2-20.7,7.4-21.5
	c5.7-16.2,5.6-26.8,5.6-26.8l-19.4,5.2c0,0,0,4.4-0.7,8.9c-0.5,3.1-0.9,3.8-0.9,3.9c-22.8-1-34,18.9-34,31.5c0,0-3.1,1.3-5.1,2.2
	c-1.4,0.5-1.5,0-1.7-0.2c-2.7-2.2,17-20.8,11.1-31.4c-4.8-8.6-23.7,2.1-23.7,2.1l2.8-5.7l-20.6,5c0,0-2.9,5.2-7.9,19.7
	c-4.3,12.5-7.5,25.8-7.5,25.8h19.1c0,0,1-11.4,6.1-20.7c2.1-3.8,4.3-6.4,6.1-7.8c3-2.4,4.6-1.6,1.8,1.9c-4.4,5.5-14.9,16.4-5.2,25.1
	c9.6,8.7,27.7-3,27.7-3s2.8,6.1,10.3,6.1c6.6,0,10-3.6,10-3.6s2.3,3.6,8.1,3.6c6.3,0,13.2-4.4,13.2-4.4s1.4,4.5,8.6,4.5
	c7.7,0.1,16.7-5.6,16.7-5.6s3.6,5.5,9.3,5.6c7.5,0,12.2-3.7,12.2-3.7s2,3.7,6.6,3.7c5.8,0,11.2-3.6,11.2-3.6
	c-0.3,1.3-0.5,2.1-0.5,2.1h19c0,0,1-11.5,6-20.8c2.3-4.2,3.8-5.9,5.8-7.7c2.5-2.3,4.5-1.5,2.2,1.5c-4.2,5.3-15.6,16.7-5.5,25.5
	c10,8.7,27.9-3.4,27.9-3.4s4.5,7.7,16.6,7.7c10.3,0,15-6.4,15-6.4s4.4,1.1,4.4,4.4c0,2.7-1.4,4.7-8.7,4.6l-240.1,0
	c0,0,15.4,3.6,39,18.8c25.7,16.6,34.6,25.9,34.6,25.9s9.2-17.9,33.2-19.6c34.9-2.5,88-4.2,135.8-8.2c6.9-0.6,21.8-4.1,21.8-19.9
	c0-13.7-12.8-18.7-12.8-18.7s1.7-4.9-1.3-13.4c-3.5-10-6-10.8-5.9-15.4c0-2.7,3.9-7.4,3.9-7.4l-23,5.7c0,0-4.7,5.8-8,12
	c-3.5,6.8-7.9,13.8-8.9,15.5c-1.3,2.1-2.7,3.8-4.7,3.6c-1.4-0.1-0.6-1.3,0.7-3.5c3.8-6.3,14.4-19.6,9.8-27.9c-4.7-8.6-23.6,2-23.6,2
	l2.8-5.6l-20.3,5c0,0-2.6,4.1-7.6,18.5C249.5,69.5,248.8,71.7,248,74.4 M230.6,62.1c0,0-3.6,10.1-3.9,10.8c-0.9,2.2-3.6,5.7-5.7,5
	c-3-1,1.8-11.5,4-13.6C226.8,62.5,230.6,62.1,230.6,62.1"/>
<path fill="#E31937" d="M66.7,38.1c17.2-8.7,36.6-10.5,36.6-10.5s-5.4,4.9-10.4,13.2C89.3,47,85.1,60,79.5,77.1
	C78.1,81.5,73,93.2,73,93.2l11.4,19.5l-17.2-6.5c0,0-10.9,23.6-35.8,24.2c-12.4,0.3-28.1-9.4-28.5-23.8
	c-0.5-15.1,8.8-21.8,17.6-22.2c13.1-0.6,11.5,9.7,11.5,9.7s-0.9-0.5-3.5-0.4c-3,0.1-9.4,2.9-9.4,11.4c0,5.7,5.8,10.8,13.5,10.5
	c12.6-0.3,20.8-15.3,20.8-15.3s-16-8.2-16.4-23.4C36.6,61.6,50.4,46.4,66.7,38.1 M73.9,51.9c-12.3,4.4-18.5,11.7-20,18.8
	c-1.5,7,1.4,13.6,6.4,16.8C63.9,78.6,66.4,59.4,73.9,51.9"/>
<path fill="#E31937" d="M154.7,62.3c-2.8,2.9-9.1,16.2-3.1,18.2c4,1.4,7.9-1.9,10.1-8.1c0.3-0.8,4.7-13.2,4.7-13.2
	S158.3,58.6,154.7,62.3 M311.8,77.6c0,0-0.5,5,5,5c6,0,5.6-6.3,4.2-11.9c-1.2-4.9-3.3-9.3-3.3-9.3s-1.9,3.7-4.5,7.8
	c-2.7,4.3-5.9,9.4-5.9,9.4L311.8,77.6z M172,40.3c0.5-3.3,0.6-6.1,0.6-6.1l13.5-3.7c0,0-0.3,8.4-5.6,23.2c0,0-5.6,16.6-7,20.5
	c-1.6,4.6,0,5.7,2.6,5.6c3,0,5.7-2.9,5.7-2.9l9.4-26.3l13.4-3.3c0,0-9.4,26.5-9.9,27.9c-1.5,4.3,0.5,5.5,3.4,5.1
	c3.2-0.4,5.9-3.3,6-3.3c1.2-14.9,12.5-26.4,20.5-28.2c10.3-2.4,26.8-2.6,26.8-2.6s-6.5,18.6-9.7,27.6c-1.2,3.4-0.6,5.9,2.6,5.4
	c1.2,0,5.9-3,5.9-3c1-3.1,2.6-8.5,3.9-12.1c3.7-10.6,5.8-13.5,5.8-13.5l13.6-3.4c-1.2,2.8-3.3,7.5-3.3,7.5s22-14.2,26.3-6.6
	c3.5,6.3-5,17.9-9.6,25c-3.2,4.8-1.7,7.8,1.7,7.7c3.5,0,5.5-2.1,7.4-5.2c0.8-1.4,5.7-9.6,9.1-15.7c3.4-6.1,7-10.5,7-10.5l15.1-3.6
	c0,0-0.7,2-0.7,3c0,4.2,3.2,7.4,6.2,16.4c2.9,6.9,0.9,13.8,0.9,13.8s13.1,4.9,13.1,17.3c0,11.7-10,16.1-20.1,16.9
	c-46.5,4-101.6,5.7-135.4,8.2c-22.5,1.7-32.9,17.9-32.9,17.9s-7.9-6.9-27.5-20.4c-19.6-13.5-30.1-17.1-30.1-17.1l224.7-0.1
	c8.7,0.1,11.3-2.8,11.2-7.4c0-6.3-7.9-7.5-7.9-7.5s-4.2,6.6-14.3,6.7c-10.7,0.1-15.5-7-15.3-9.1c0,0-17.9,13.2-26.8,5.8
	c-8.4-7,0.9-15.8,5.4-22c5-6.8-0.2-10.2-6.6-5c-2.1,1.7-4.2,4.3-6,7.9c-4.1,8-5.9,19.7-5.9,19.7l-13.1,0c0,0,0.7-3,1.2-4.8
	c0,0-9.8,6.4-15.4,6.4c-4.8,0-5.5-5.4-5.5-5.4s-5.6,5.4-12.7,5.4c-6.9,0-8.8-7-8.8-7s-9.2,6.9-17.9,6.9c-6.9,0-7-5.6-7-5.6
	s-9,5.7-14.5,5.7c-6.7,0-7.1-5.2-7.1-5.2s-5.9,5.2-11.1,5.2c-7.9,0-9.2-7.1-9.2-7.1s-18.2,12.2-26.7,5c-7.6-6.4-0.9-14,5.2-21.8
	c4.8-6.2,0.6-10.5-5.9-5.6c-2.3,1.7-4.7,4.5-6.7,8.3c-4.1,8-6,19.6-6,19.6l-13.2,0c0,0,2.9-11.7,7.7-25.5
	c3.7-10.6,6.1-14.7,6.1-14.7l13.9-3.4c-1.2,2.8-3.3,7.5-3.3,7.5s22.1-14.2,26.3-6.6c5.4,9.8-16.9,27.8-10.8,32.6
	c1.2,1,3.5,1,5.1,0.3c2.7-1.2,7.1-3.1,7.1-3.1c-1.1-8.3,6.1-32.3,33.1-30.7C171,45.2,171.9,41,172,40.3 M222.9,62.3
	c-2.8,2.9-9.1,16.2-3.1,18.2c4,1.4,8.3-3.1,9.2-5.6c0.3-0.8,5.6-15.7,5.6-15.7S226.5,58.6,222.9,62.3"/>
<path fill="#E31937" d="M192.4,39.9c-1.2-3.7,1.2-8.2,5.4-10.2c4.2-1.9,8.6-0.5,9.8,3.2c1.2,3.7-1.2,8.2-5.4,10.2
	S193.6,43.5,192.4,39.9"/>
<path fill="#FFFFFF" d="M346.8,70.7h-1.9V76h-1.3v-5.3h-1.9v-1.2h5.2V70.7z M355.6,76h-1.3v-5.1h0l-1.9,5.1h-1.3l-1.8-5.1h0V76h-1.3
	v-6.5h2.3l1.5,4.2h0l1.6-4.2h2.3V76z"/>
</svg>
