<?xml version="1.0" encoding="utf-8"?>
<!-- Generator: Adobe Illustrator 18.0.0, SVG Export Plug-In . SVG Version: 6.00 Build 0)  -->
<!DOCTYPE svg PUBLIC "-//W3C//DTD SVG 1.1//EN" "http://www.w3.org/Graphics/SVG/1.1/DTD/svg11.dtd">
<svg version="1.1" id="SEA" xmlns="http://www.w3.org/2000/svg" xmlns:xlink="http://www.w3.org/1999/xlink" x="0px" y="0px"
	 viewBox="0 0 144 168" enable-background="new 0 0 144 168" xml:space="preserve">
<g>
	<defs>
		<rect id="SVGID_1_" x="0" y="12" width="144" height="144"/>
	</defs>
	<clipPath id="SVGID_2_">
		<use xlink:href="#SVGID_1_"  overflow="visible"/>
	</clipPath>
	<path clip-path="url(#SVGID_2_)" fill="#C4CED4" d="M0,84c0,39.7,32.3,72,72,72c39.7,0,72-32.3,72-72c0-39.7-32.3-72-72-72
		C32.3,12,0,44.3,0,84"/>
	<path clip-path="url(#SVGID_2_)" fill="#FFFFFF" d="M3.6,84c0-37.7,30.7-68.4,68.4-68.4c37.7,0,68.4,30.7,68.4,68.4
		c0,37.7-30.7,68.4-68.4,68.4C34.3,152.4,3.6,121.7,3.6,84"/>
	<path clip-path="url(#SVGID_2_)" fill="#005C5C" d="M72,146.7c-34.5,0-62.6-28.1-62.6-62.7c0-34.6,28.1-62.7,62.6-62.7
		c34.5,0,62.6,28.1,62.6,62.7C134.6,118.6,106.5,146.7,72,146.7 M72,19.3c-35.7,0-64.7,29-64.7,64.7s29,64.7,64.7,64.7
		c35.7,0,64.7-29,64.7-64.7S107.7,19.3,72,19.3"/>
	<path clip-path="url(#SVGID_2_)" fill="#C4CED4" d="M62.2,64.2c-3.2-1.9-14.5-8-14.5-8l9.7,11.2C58.9,66.1,60.5,65,62.2,64.2"/>
	<path clip-path="url(#SVGID_2_)" fill="#C4CED4" d="M86.4,67.2c1.4,1.2,2.7,2.7,3.8,4.2c1.6-3.8,5.7-14.1,6.1-15.2L86.4,67.2z"/>
	<path clip-path="url(#SVGID_2_)" fill="#C4CED4" d="M53.8,96.4c-1.5,3.7-5.4,13.4-6,15l9.8-10.8C56.1,99.5,54.8,98,53.8,96.4"/>
	<path clip-path="url(#SVGID_2_)" fill="#C4CED4" d="M47.8,111.7c0,0,0.1-0.1,0.2-0.2C47.9,111.6,47.8,111.6,47.8,111.7
		C47.8,111.7,47.7,111.7,47.8,111.7"/>
	<path clip-path="url(#SVGID_2_)" fill="#C4CED4" d="M82,103.7c3.1,1.9,14.2,8.2,14.2,8.2l-9.4-11.4C85.3,101.7,83.7,102.8,82,103.7
		"/>
	<path clip-path="url(#SVGID_2_)" fill="#D50032" d="M58.1,69.4c0.2,0,0.6-1.5,0.6-1.5c0-0.1-0.2-0.2-0.3-0.3
		c-0.1,0.1-0.2,0.2-0.3,0.3l-0.3,1l-0.2-0.2c0,0-0.2,0-0.5,0.1c-0.3,0.3-0.5,0.5-0.8,0.8c0.4-0.1,1.4-0.4,1.6-0.4
		C57.9,69.3,58.1,69.4,58.1,69.4"/>
	<path clip-path="url(#SVGID_2_)" fill="#D50032" d="M59.6,70.4c0.2-0.1,0.6-1.6,0.6-1.6c0-0.1-0.5-0.4-0.5-0.4l-0.1-0.1l0,0.1
		l-0.4,1.3l-0.4-0.2c-0.1,0-1.8,0.5-1.8,0.5c0,0.2,0.4,0.5,0.4,0.5c0.1,0,1.6-0.5,1.8-0.5C59.3,70.3,59.6,70.4,59.6,70.4"/>
	<path clip-path="url(#SVGID_2_)" fill="#D50032" d="M59.2,71.8c0.1,0,1.6-0.6,1.7-0.6c0.2,0.1,0.4,0.2,0.4,0.2
		c0.1-0.1,0.4-1.6,0.4-1.6c-0.1-0.1-0.5-0.3-0.5-0.3l-0.1-0.1l0,0.1l-0.2,1.4l-0.4-0.2c-0.1,0-1.7,0.6-1.7,0.6
		C58.7,71.5,59.2,71.8,59.2,71.8"/>
	<path clip-path="url(#SVGID_2_)" fill="#D50032" d="M60.7,72.4L60.7,72.4c0.1,0.2,0.5,0.3,0.5,0.3c0.1,0,1.6-0.6,1.7-0.7
		c0.2,0.1,0.4,0.2,0.4,0.2c0.1-0.1,0.3-1.6,0.3-1.6c-0.1-0.1-0.5-0.3-0.5-0.3l-0.1-0.1l0,0.1l-0.1,1.4l-0.4-0.2
		C62.3,71.6,60.7,72.3,60.7,72.4C60.7,72.4,60.7,72.4,60.7,72.4"/>
	<path clip-path="url(#SVGID_2_)" fill="#D50032" d="M62.7,73.3C62.7,73.3,62.7,73.3,62.7,73.3L62.7,73.3c0.2,0.2,0.6,0.3,0.6,0.3
		c0.1,0,1.4-0.8,1.5-0.9c0.2,0.1,0.5,0.2,0.5,0.2c0.1-0.1,0-1.6,0-1.6c-0.1-0.1-0.6-0.2-0.6-0.2l-0.1,0l0,0.1l0.2,1.3l-0.5-0.1
		C64.2,72.4,62.7,73.3,62.7,73.3"/>
	<polygon clip-path="url(#SVGID_2_)" fill="#D50032" points="69.9,73.6 69.9,73.6 69.9,73.6 	"/>
	<polygon clip-path="url(#SVGID_2_)" fill="#D50032" points="72.1,73.7 72.1,73.7 72.1,73.7 	"/>
	<path clip-path="url(#SVGID_2_)" fill="#D50032" d="M78.7,73.2c0-0.1,0-0.2,0-0.3c0.2,0,0.5-0.1,0.5-0.1c0,0,0-0.1,0-0.1l0,0l0,0
		c-0.1-0.2-0.5-0.5-0.7-0.7C78.5,72.4,78.6,72.8,78.7,73.2"/>
	<path clip-path="url(#SVGID_2_)" fill="#D50032" d="M80.4,72.2c-0.1,0.1-0.3,1.4-0.3,1.4c0.1,0.1,0.7-0.1,0.7-0.1
		c0.1-0.1,0.2-1.2,0.3-1.3c0.2,0,0.4-0.1,0.4-0.1c0,0,0-0.1-0.1-0.1l0,0l0,0c-0.3-0.3-1.4-1-1.4-1c-0.1,0-0.6,0.2-0.6,0.2l-0.2,0.1
		l1.5,1L80.4,72.2z"/>
	<path clip-path="url(#SVGID_2_)" fill="#D50032" d="M82.1,71.5c-0.1,0.1,0,1.4,0,1.4c0.2,0.1,0.6-0.2,0.6-0.2c0-0.1,0-1.1,0-1.3
		c0.2-0.1,0.4-0.2,0.4-0.2c0,0,0-0.1-0.1-0.1l0,0l0,0c-0.3-0.3-1.5-0.9-1.5-0.9c-0.1,0-0.5,0.2-0.5,0.2l-0.2,0.1l1.5,0.9L82.1,71.5z
		"/>
	<path clip-path="url(#SVGID_2_)" fill="#D50032" d="M83.7,70.7c-0.1,0.1,0.1,1.4,0.1,1.4c0.2,0.1,0.6-0.2,0.6-0.2
		c0-0.1-0.1-1.1-0.1-1.3c0.2-0.1,0.4-0.2,0.4-0.2c0,0,0-0.1-0.1-0.1l0,0l0,0c-0.3-0.3-1.5-0.9-1.5-0.9c-0.1,0-0.5,0.2-0.5,0.2
		l-0.2,0.1l1.6,0.8L83.7,70.7z"/>
	<path clip-path="url(#SVGID_2_)" fill="#D50032" d="M85.2,69.7c0,0.1,0.4,1.3,0.4,1.3c0.2,0,0.5-0.3,0.5-0.3c0-0.1-0.3-1-0.4-1.3
		c0.1-0.1,0.3-0.2,0.3-0.2c0-0.2-1.6-0.8-1.6-0.8c-0.1,0-0.4,0.3-0.4,0.3l-0.1,0.1l1.6,0.6L85.2,69.7z M85.7,70.9L85.7,70.9
		L85.7,70.9L85.7,70.9z"/>
	<path clip-path="url(#SVGID_2_)" fill="#D50032" d="M86.9,69.9c0.2,0,0.5-0.3,0.5-0.3c0,0,0-0.2-0.1-0.4c-0.2-0.2-0.5-0.5-0.7-0.7
		l-0.1,0.1C86.5,68.7,86.9,69.9,86.9,69.9"/>
	<path clip-path="url(#SVGID_2_)" fill="#D50032" d="M85.2,67.8l1.1,0.4c-0.3-0.2-0.5-0.5-0.8-0.7c-0.1,0.1-0.2,0.2-0.2,0.2
		L85.2,67.8z"/>
	<path clip-path="url(#SVGID_2_)" fill="#D50032" d="M86,98.5c-0.2,0.1-0.6,1.5-0.6,1.5c0,0.1,0.1,0.2,0.2,0.3
		c0.1-0.1,0.3-0.2,0.4-0.4l0.2-0.8l0.2,0.2c0,0,0.1,0,0.3-0.1c0.3-0.3,0.5-0.5,0.8-0.8c-0.5,0.1-1.2,0.3-1.4,0.4
		C86.2,98.7,86,98.5,86,98.5"/>
	<path clip-path="url(#SVGID_2_)" fill="#D50032" d="M86.7,97.3c-0.1,0-1.6,0.4-1.8,0.5c-0.1-0.1-0.4-0.3-0.4-0.3
		c-0.2,0.1-0.6,1.6-0.6,1.6c0,0.1,0.5,0.4,0.5,0.4l0.1,0.1l0.4-1.5l0.4,0.2c0.1,0,1.8-0.5,1.8-0.5C87.1,97.6,86.7,97.3,86.7,97.3"/>
	<path clip-path="url(#SVGID_2_)" fill="#D50032" d="M84.9,96.2c-0.1,0-1.6,0.6-1.7,0.6c-0.2-0.1-0.4-0.2-0.4-0.2
		c-0.1,0.1-0.4,1.6-0.4,1.6c0.1,0.1,0.5,0.3,0.5,0.3l0.1,0.1l0.2-1.5l0.4,0.2c0.1,0,1.7-0.6,1.7-0.6C85.4,96.5,84.9,96.2,84.9,96.2"
		/>
	<path clip-path="url(#SVGID_2_)" fill="#D50032" d="M83.4,95.6L83.4,95.6L83.4,95.6c-0.1-0.2-0.5-0.3-0.5-0.3
		c-0.1,0-1.6,0.6-1.7,0.7c-0.2-0.1-0.5-0.2-0.5-0.2c-0.1,0.1-0.3,1.6-0.3,1.6c0.1,0.1,0.6,0.3,0.6,0.3l0.1,0.1l0.1-1.5l0.4,0.2
		C81.9,96.3,83.5,95.7,83.4,95.6C83.5,95.6,83.4,95.6,83.4,95.6"/>
	<path clip-path="url(#SVGID_2_)" fill="#D50032" d="M81.4,94.7C81.4,94.7,81.4,94.7,81.4,94.7L81.4,94.7L81.4,94.7
		c-0.2-0.2-0.6-0.3-0.6-0.3c-0.1,0-1.5,0.8-1.5,0.8c-0.2-0.1-0.5-0.2-0.5-0.2c-0.1,0.1,0,1.6,0,1.6c0.1,0.1,0.6,0.2,0.6,0.2l0.1,0
		l-0.2-1.5l0.5,0.1C80,95.6,81.4,94.7,81.4,94.7"/>
	<path clip-path="url(#SVGID_2_)" fill="#D50032" d="M78.9,93.9L78.9,93.9C78.9,93.9,78.9,93.9,78.9,93.9c-0.1,0-0.1,0.1-0.1,0.2
		C78.9,94.1,79,94,78.9,93.9C79,94,78.9,94,78.9,93.9L78.9,93.9z"/>
	<path clip-path="url(#SVGID_2_)" fill="#D50032" d="M63.8,95.8c0.1-0.1,0.3-1.4,0.3-1.4c-0.1-0.1-0.7,0.1-0.7,0.1
		c-0.1,0.1-0.2,1.1-0.3,1.3C63,95.9,62.7,96,62.7,96c0,0,0.1,0.1,0.1,0.1c0.3,0.3,1.4,1,1.4,1c0.1,0,0.6-0.2,0.6-0.2l0.2-0.1l-1.5-1
		L63.8,95.8z"/>
	<path clip-path="url(#SVGID_2_)" fill="#D50032" d="M62.1,96.5c0.1-0.1,0-1.4,0-1.4c-0.2-0.1-0.6,0.2-0.6,0.2c-0.1,0.1,0,1.1,0,1.3
		c-0.2,0.1-0.4,0.2-0.4,0.2c0,0,0.1,0.1,0.1,0.1c0.3,0.3,1.4,1,1.4,1c0.1,0,0.6-0.2,0.6-0.2l0.2-0.1l-1.5-0.9L62.1,96.5z"/>
	<path clip-path="url(#SVGID_2_)" fill="#D50032" d="M60.5,97.3c0-0.1-0.1-1.4-0.1-1.4c-0.2-0.1-0.6,0.2-0.6,0.2
		c0,0.1,0.1,1.1,0.1,1.3c-0.2,0.1-0.4,0.2-0.4,0.2c0,0,0,0.1,0.1,0.1l0,0l0,0c0.3,0.3,1.5,0.9,1.5,0.9c0.1,0,0.5-0.2,0.5-0.2
		l0.2-0.1l-1.6-0.8L60.5,97.3z"/>
	<path clip-path="url(#SVGID_2_)" fill="#D50032" d="M58.9,98.3c0-0.1-0.4-1.3-0.4-1.3c-0.2,0-0.5,0.3-0.5,0.3c0,0.1,0.3,1,0.4,1.3
		c-0.1,0.1-0.3,0.3-0.3,0.3c0,0.2,1.6,0.8,1.6,0.8c0.1,0,0.4-0.3,0.4-0.3l0.1-0.1l-1.6-0.6L58.9,98.3z"/>
	<path clip-path="url(#SVGID_2_)" fill="#D50032" d="M57.2,98.1c-0.2,0-0.5,0.3-0.5,0.3c0,0,0.1,0.3,0.2,0.6
		c0.2,0.2,0.4,0.4,0.6,0.6l0.2-0.1C57.6,99.3,57.2,98.1,57.2,98.1"/>
	<path clip-path="url(#SVGID_2_)" fill="#D50032" d="M59,100.2l-1.3-0.5c0.3,0.3,0.6,0.5,0.9,0.8c0.1-0.1,0.2-0.2,0.2-0.2L59,100.2z
		"/>
	<path clip-path="url(#SVGID_2_)" fill="#D50032" d="M65.4,95.1c-0.2,0-0.5,0.1-0.5,0.1c0,0,0,0.1,0,0.1l0,0l0,0
		c0.1,0.1,0.4,0.4,0.6,0.6C65.5,95.6,65.4,95.4,65.4,95.1"/>
	<path clip-path="url(#SVGID_2_)" fill="#C4CED4" d="M135,84c0,0-0.1,0-0.1,0C134.9,84,134.9,84,135,84C134.9,84,135,84,135,84"/>
	<path clip-path="url(#SVGID_2_)" fill="#0C2C56" d="M110.8,87.3c-0.1,0.6-0.1,1.2-0.2,1.8c0,0,0,0,0,0c-0.1,0.6-0.2,1.2-0.3,1.8
		c0,0,0,0,0,0.1c-0.1,0.6-0.2,1.2-0.4,1.7c0,0,0,0,0,0c-1.7,7.6-5.7,14.4-11.2,19.6c0,0,0,0,0,0c-0.4,0.4-0.8,0.8-1.3,1.2
		c0,0,0,0,0,0c-0.4,0.4-0.9,0.7-1.3,1.1c0,0,0,0,0,0c-6.4,5.1-14.5,8.1-23.2,8.3c-0.5,2.2-0.8,3.6-0.9,3.6c0,0-0.4-1.4-0.9-3.6
		c-8.7-0.2-16.8-3.3-23.2-8.3c0,0,0,0,0,0c-0.5-0.4-0.9-0.7-1.3-1.1c0,0,0,0,0,0c-0.4-0.4-0.9-0.8-1.3-1.2
		c-5.5-5.2-9.5-12-11.3-19.6c0,0,0,0,0,0c-0.1-0.6-0.3-1.2-0.4-1.7c0,0,0,0,0,0c-0.1-0.6-0.2-1.2-0.3-1.8c0,0,0,0,0,0
		c-0.1-0.6-0.1-1.2-0.2-1.8v0c-11.9-1.5-22.7-3-23.8-3.2c0,34.5,28.1,62.7,62.6,62.7c34.5,0,62.6-28.1,62.6-62.6
		C132.6,84.4,122.2,85.8,110.8,87.3"/>
	<path clip-path="url(#SVGID_2_)" fill="#0C2C56" d="M33.2,80.7c0-0.6,0.1-1.2,0.2-1.8c0,0,0,0,0-0.1c0.1-0.6,0.2-1.2,0.3-1.7
		c0,0,0-0.1,0-0.1c0.1-0.6,0.2-1.1,0.3-1.7c0,0,0,0,0-0.1c0.1-0.6,0.3-1.1,0.4-1.7c0,0,0,0,0,0c1.9-6.9,5.7-13.1,10.8-17.8
		c0,0,0,0,0,0c0.4-0.4,0.8-0.8,1.3-1.2c0,0,0,0,0,0c0.4-0.4,0.9-0.7,1.3-1.1c0,0,0,0,0,0c0.4-0.3,0.9-0.7,1.4-1c0,0,0,0,0,0
		c6.2-4.4,13.7-7.1,21.8-7.3h0c0.5-2.3,0.8-3.7,0.9-3.6c0.1,0,0.4,1.4,0.9,3.7c8.7,0.2,16.7,3.3,23.2,8.3c0,0,0,0,0,0
		c0.5,0.4,0.9,0.7,1.3,1.1c0,0,0,0,0,0c0.4,0.4,0.9,0.8,1.3,1.1c0,0,0,0,0,0c5.1,4.8,8.9,10.9,10.8,17.8c0,0,0,0,0,0
		c0.2,0.6,0.3,1.1,0.4,1.7c0,0,0,0,0,0.1c0.1,0.6,0.2,1.1,0.4,1.7c0,0,0,0.1,0,0.1c0.1,0.6,0.2,1.2,0.3,1.7c0,0,0,0,0,0.1
		c0.1,0.6,0.1,1.2,0.2,1.8v0c11.3,1.5,21.8,2.9,23.8,3.2c0-34.5-28.1-62.6-62.6-62.6C37.5,21.3,9.4,49.4,9.4,84
		C10.5,83.7,21.3,82.2,33.2,80.7"/>
	<polygon clip-path="url(#SVGID_2_)" fill="#FFFFFF" points="96.6,120 97.5,121.6 95.2,123 97,126.1 99.4,124.8 100.3,126.4 
		97.9,127.8 100.4,132.1 102.8,130.7 103.7,132.3 99.3,134.9 92.2,122.6 	"/>
	<path clip-path="url(#SVGID_2_)" fill="#FFFFFF" d="M117.8,98.3l-0.9,2.2l-1.9-0.8c-0.3-0.1-0.5-0.1-0.6,0c0,0-0.5,1.3-0.5,1.4
		c-0.1,0.3,0.1,0.4,0.4,0.5l2,0.8c0.4,0.2,0.6,0.2,1.1-0.2l1.7-1.9c0.9-0.7,1.7-1,2.6-0.6l2.7,1.1c2.2,0.9,2.5,1.3,1.7,3.4
		c0,0.1-0.5,1.4-0.5,1.5c-0.9,2.3-1.5,2.4-3.7,1.5l-2.1-0.8l0.9-2.3l2.4,1c0.4,0.1,0.6,0.1,0.7-0.1c0-0.1,0.5-1.4,0.5-1.4
		c0-0.1-0.2-0.3-0.5-0.4l-2.8-1.1c-0.4-0.2-1,1-1.5,1.4l-1.4,1.1c-0.8,0.6-1.5,0.6-2.5,0.2l-1.9-0.8c-2.2-0.9-2.5-1.4-1.6-3.7
		c0-0.1,0.5-1.4,0.5-1.5c0.9-2.1,1.5-2.2,3.6-1.3L117.8,98.3z"/>
	<polygon clip-path="url(#SVGID_2_)" fill="#FFFFFF" points="68.1,127.3 66.5,141.5 64.1,141.2 65.7,127 	"/>
	<polygon clip-path="url(#SVGID_2_)" fill="#FFFFFF" points="31.9,100.7 26.5,105.2 26.5,105.3 33.3,103.7 34.7,106.6 21.8,112.6 
		20.9,110.6 28.5,107.1 28.3,106.8 20.1,108.9 19.5,107.8 26.4,102.6 26.3,102.4 18.8,106.1 17.8,104.1 30.7,98.1 	"/>
	<path clip-path="url(#SVGID_2_)" fill="#FFFFFF" d="M54.9,124.1c2.1,1,2.1,1.7,1.2,3.7l-0.8,1.7c-0.5,1.2-0.9,1.8-2,1.8
		c0.7,0.7,0.6,1.4,0.1,2.5l-2,4.4l-2.2-1l2.2-4.8c0.1-0.3,0.1-0.5,0-0.6c-0.1-0.1-1.4-0.8-1.7-0.9l-2.5,5.4l-2.2-1l6-12.9
		L54.9,124.1z M50.6,128.9c0.2,0.1,1.5,0.7,1.6,0.7c0.2,0,0.4-0.1,0.6-0.5l1.1-2.5c0.2-0.5,0.3-0.7,0.1-0.9
		c-0.1-0.1-1.4-0.7-1.6-0.8L50.6,128.9z"/>
	<polygon clip-path="url(#SVGID_2_)" fill="#FFFFFF" points="79.5,126.8 83,133.3 83.1,133.3 81.7,126.3 83.8,125.9 86.5,139.9 
		84.4,140.3 80.8,133.6 80.7,133.6 82.2,140.8 80.1,141.2 77.3,127.2 	"/>
	<path clip-path="url(#SVGID_2_)" fill="#FFFFFF" d="M105,112.1c1.5-1.7,2.5-1.8,4.2-0.4l1.4,1.2c1,0.8,1.4,1.4,1.1,2.4
		c0.9-0.4,1.5-0.2,2.4,0.6l3.7,3.2l-1.6,1.8l-4-3.5c-0.2-0.2-0.4-0.3-0.6-0.2c-0.1,0.1-1.1,1.1-1.3,1.3l4.5,3.9l-1.6,1.8l-10.8-9.3
		L105,112.1z M108.8,117.2c0.1-0.1,1.1-1.2,1.1-1.3c0.1-0.2,0-0.4-0.3-0.7l-2.1-1.8c-0.4-0.4-0.6-0.5-0.9-0.3
		c-0.1,0.1-1,1.1-1.1,1.2L108.8,117.2z"/>
	<polygon clip-path="url(#SVGID_2_)" fill="#FFFFFF" points="75.5,26.6 75.5,28.5 73.6,28.5 73.6,40.8 71.1,40.8 71.2,28.5 
		69.2,28.5 69.2,26.6 	"/>
	<path clip-path="url(#SVGID_2_)" fill="#FFFFFF" d="M25.3,59l-1,2.2l-2-0.9c-0.3-0.1-0.5-0.2-0.6,0c0,0-0.5,1.2-0.6,1.3
		c-0.1,0.3,0,0.4,0.4,0.6l2,0.9c0.4,0.2,0.7-0.1,1.2-0.5l1.7-1.8c0.9-0.7,1.6-0.5,2.4-0.2l2.7,1.2c2.1,1,2.4,1.4,1.5,3.5
		c0,0.1-0.5,1.3-0.6,1.4c-1,2.2-1.5,2.4-3.7,1.4l-2.3-1l1-2.2l2.6,1.2c0.4,0.2,0.6,0.2,0.7-0.1c0-0.1,0.5-1.3,0.5-1.3
		c0-0.1-0.2-0.3-0.4-0.4l-2.7-1.2c-0.4-0.2-0.9,0.6-1.4,0.9l-1.5,1.1c-0.9,0.6-1.7,0.8-2.6,0.4l-1.9-0.8c-2.2-1-2.4-1.5-1.4-3.7
		c0-0.1,0.5-1.3,0.6-1.4c1-2.1,1.5-2.1,3.6-1.2L25.3,59z"/>
	<polygon clip-path="url(#SVGID_2_)" fill="#FFFFFF" points="34.6,40.4 35.9,41.7 33.9,43.6 36.4,46.2 38.4,44.3 39.7,45.7 
		37.7,47.6 41.2,51.2 43.2,49.3 44.5,50.6 40.8,54.2 30.9,44 	"/>
	<path clip-path="url(#SVGID_2_)" fill="#FFFFFF" d="M53.4,29.6l6.9,12.6L58,43.1l-1.4-2.7l-2,0.8l0.8,2.9L53.2,45l-3.7-13.9
		L53.4,29.6z M54.1,39.4l1.6-0.6l-3-5.8l-0.3,0.2L54.1,39.4z"/>
	<polygon clip-path="url(#SVGID_2_)" fill="#FFFFFF" points="96.1,31.7 95.4,33.5 93.7,32.8 89.2,44.3 86.9,43.4 91.4,31.9 
		89.6,31.2 90.3,29.4 	"/>
	<polygon clip-path="url(#SVGID_2_)" fill="#FFFFFF" points="111.4,42.1 103.2,51.3 105.2,53.1 103.9,54.5 100.1,51 109.6,40.4 	"/>
	<polygon clip-path="url(#SVGID_2_)" fill="#FFFFFF" points="125.1,61.3 123.4,62.2 122.2,59.7 119,61.4 120.2,63.8 118.5,64.6 
		117.3,62.2 112.8,64.4 114.1,66.8 112.4,67.7 110,63.1 122.8,56.7 	"/>
	<path clip-path="url(#SVGID_2_)" fill="#005C5C" d="M72,41.4c0,0-0.4,1.4-0.9,3.6h0c-8.1,0.2-15.6,2.9-21.8,7.3c0,0,0,0,0,0
		c-0.5,0.3-0.9,0.7-1.4,1c0,0,0,0,0,0c-0.4,0.4-0.9,0.7-1.3,1.1c0,0,0,0,0,0c-0.4,0.4-0.9,0.8-1.3,1.1c0,0,0,0,0,0
		c-5.1,4.8-8.9,10.9-10.8,17.8c0,0,0,0,0,0c-0.2,0.6-0.3,1.1-0.4,1.7c0,0,0,0.1,0,0.1c-0.1,0.6-0.2,1.1-0.3,1.7c0,0,0,0.1,0,0.1
		c-0.1,0.6-0.2,1.2-0.3,1.7c0,0,0,0,0,0.1c-0.1,0.6-0.1,1.2-0.2,1.8c0.7-0.1,1.4-0.2,2.1-0.3c0.9-9.6,5.6-18.2,12.4-24.2
		c-0.1,0.2,4.4,11.3,6.1,15.3c-1.4,2.1-2.5,4.5-3.2,7c0.3,0,0.6-0.1,0.9-0.1c0.9-3.3,2.6-6.2,4.8-8.7c0.3-0.3,0.5-0.6,0.8-0.8
		c0.3-0.3,0.7-0.6,1-0.9c0.1-0.1,0.2-0.2,0.3-0.3c2.5-2.1,5.6-3.7,8.9-4.4c-1.3,6.3-2.4,11.9-2.5,13.5c0,0,0.1,0,0.1,0
		c1.8,1.7,6.6,6.6,7.1,7.3L72,41.4z M67.5,62.4c-1.8,0.4-3.6,1-5.2,1.8c-1.7,0.9-3.4,1.9-4.8,3.2l-9.7-11.2c6.2-5.4,14.2-8.8,23-9.1
		C69.8,51.2,68.6,57,67.5,62.4"/>
	<path clip-path="url(#SVGID_2_)" fill="#005C5C" d="M33.2,87.3c0,0.6,0.1,1.2,0.2,1.8c0,0,0,0,0,0c0.1,0.6,0.2,1.2,0.3,1.8
		c0,0,0,0,0,0c0.1,0.6,0.2,1.2,0.4,1.7c0,0,0,0,0,0c1.7,7.6,5.7,14.4,11.3,19.6h0c0.4,0.4,0.8,0.8,1.3,1.2c0,0,0,0,0,0
		c0.4,0.4,0.9,0.7,1.3,1.1c0,0,0,0,0,0c6.4,5.1,14.5,8.1,23.2,8.3c-0.1-0.6-0.3-1.3-0.4-2c-8.8-0.3-16.9-3.7-23.1-9.2
		c0,0,0.1,0,0.1-0.1c0.1,0,0.1-0.1,0.2-0.1c1.9-1,10.8-5.8,14.1-7.8c1.7,0.8,3.5,1.5,5.3,1.9c-0.1-0.3-0.1-0.6-0.2-0.8
		c-3.2-0.7-6.2-2.2-8.7-4.2c-0.3-0.3-0.6-0.5-0.9-0.8c-0.1-0.1-0.1-0.1-0.2-0.2c-0.2-0.2-0.4-0.4-0.6-0.6c-2.5-2.6-4.4-5.7-5.4-9.3
		c6.8,0.9,12,1.5,13.3,1.6c0,0,0.1,0,0.1,0c1.8-1.7,6.6-6.6,7.1-7.3L9.3,84c0,0,0,0,0.1,0C10.4,84.2,21.3,85.7,33.2,87.3L33.2,87.3z
		 M50.6,89.5c0.6,2.5,1.7,4.9,3.2,6.9c1.1,1.6,2.4,3,3.8,4.3l-9.8,10.8l-0.2,0.2c-6.8-6-11.4-14.6-12.4-24.2
		C40.5,88.2,45.9,88.9,50.6,89.5"/>
	<path clip-path="url(#SVGID_2_)" fill="#C4CED4" d="M72,84L72,84C72,84,72,84,72,84C72,84,72,84,72,84c0.6-0.8,5.3-5.6,7.1-7.3
		c0,0,0.1,0,0.2,0c-0.2-1.6-1.2-7.2-2.5-13.5c-0.1-0.3-0.1-0.6-0.2-0.8c-1.1-5.4-2.3-11.2-3.2-15.3c-0.2-0.7-0.3-1.4-0.5-2.1
		c-0.5-2.3-0.9-3.7-0.9-3.7L72,84c-0.6,0.7-5.3,5.6-7.1,7.2c0,0-0.1,0-0.1,0c0.2,1.6,1.2,7.2,2.5,13.5c0.1,0.3,0.1,0.6,0.2,0.8
		c1.1,5.4,2.3,11.2,3.2,15.3c0.2,0.7,0.3,1.4,0.4,2c0.5,2.2,0.8,3.6,0.9,3.6L72,84z"/>
	<path clip-path="url(#SVGID_2_)" fill="#C4CED4" d="M72,84c-0.6-0.7-5.3-5.6-7.1-7.3c0,0-0.1,0-0.1,0c-1.3,0.1-6.5,0.8-13.3,1.6
		c-0.3,0-0.6,0.1-0.9,0.1c-4.7,0.6-10.1,1.3-15.3,2c-0.7,0.1-1.4,0.2-2.1,0.3c-11.9,1.5-22.7,3-23.8,3.3c-0.1,0-0.1,0-0.1,0L72,84z"
		/>
	<path clip-path="url(#SVGID_2_)" fill="#C4CED4" d="M72,84c0.6,0.7,5.3,5.6,7.1,7.2c0,0,0.1,0,0.1,0c1.3-0.1,6.5-0.8,13.3-1.6
		c0.3,0,0.6-0.1,0.9-0.1c4.7-0.6,10-1.3,15.3-2c0.7-0.1,1.4-0.2,2.1-0.3c11.3-1.5,21.8-2.9,23.8-3.2c0.1,0,0.2,0,0.3-0.1L72,84z"/>
	<path clip-path="url(#SVGID_2_)" fill="#005C5C" d="M110.8,80.7c-0.1-0.6-0.1-1.2-0.2-1.8c0,0,0,0,0-0.1c-0.1-0.6-0.2-1.2-0.3-1.7
		c0,0,0-0.1,0-0.1c-0.1-0.6-0.2-1.1-0.4-1.7c0,0,0,0,0-0.1c-0.1-0.6-0.3-1.1-0.4-1.7c0,0,0,0,0,0c-1.9-6.9-5.7-13-10.8-17.8
		c0,0,0,0,0,0c-0.4-0.4-0.8-0.8-1.3-1.1c0,0,0,0,0,0c-0.4-0.4-0.9-0.7-1.3-1.1c0,0,0,0,0,0c-6.4-5-14.4-8.1-23.2-8.3
		c0.1,0.6,0.3,1.3,0.5,2c8.8,0.3,16.8,3.7,22.9,9.1c0,0-11,5.9-14.5,8c-1.6-0.8-3.4-1.4-5.2-1.8c0.1,0.3,0.1,0.6,0.2,0.8
		c3.3,0.8,6.2,2.3,8.8,4.3c0.3,0.2,0.5,0.5,0.8,0.7c0.1,0.1,0.2,0.2,0.3,0.3c0.2,0.2,0.5,0.5,0.7,0.7c2.4,2.5,4.2,5.6,5.2,9.1
		c-6.7-0.8-11.9-1.5-13.3-1.6c-0.1,0-0.1,0-0.2,0c-1.8,1.7-6.4,6.5-7.1,7.2c0,0,0,0,0,0c0,0,0,0,0,0h0l0,42.6c0,0,0.4-1.4,0.9-3.6
		c8.7-0.2,16.8-3.3,23.2-8.3c0,0,0,0,0,0c0.5-0.4,0.9-0.7,1.3-1.1c0,0,0,0,0,0c0.4-0.4,0.9-0.8,1.3-1.2c0,0,0,0,0,0
		c5.5-5.2,9.5-12,11.2-19.6c0,0,0,0,0,0c0.1-0.6,0.2-1.2,0.4-1.7c0,0,0,0,0-0.1c0.1-0.6,0.2-1.2,0.3-1.8c0,0,0,0,0,0
		c0.1-0.6,0.1-1.2,0.2-1.8c-0.7,0.1-1.4,0.2-2.1,0.3c-1.7,18.3-16.9,32.7-35.4,33.4c0.9-4.1,2.1-9.9,3.2-15.3c1.9-0.4,3.7-1,5.4-1.9
		c1.7-0.9,3.3-2,4.8-3.2l9.4,11.4c0.1-0.1-4.2-11.7-5.8-15.6c1.4-2.1,2.4-4.3,3.1-6.8c-0.3,0-0.6,0.1-0.9,0.1
		c-0.9,3.3-2.6,6.3-4.9,8.8c-0.3,0.3-0.5,0.6-0.8,0.8c-0.2,0.2-0.5,0.5-0.7,0.7c-0.1,0.1-0.3,0.2-0.4,0.4c-2.6,2.2-5.6,3.7-9,4.5
		c1.3-6.3,2.4-12,2.5-13.5c0,0-0.1,0-0.1,0c-1.8-1.7-6.5-6.5-7.1-7.2l62.9,0h0.1c0,0,0,0,0,0c0,0,0,0-0.1,0c-0.1,0-0.1,0-0.2,0
		C132.6,83.6,122.2,82.2,110.8,80.7L110.8,80.7z M93.4,78.4c-0.7-2.5-1.8-4.9-3.2-7c-1.1-1.6-2.4-3-3.8-4.2l9.8-10.9l0.1-0.1
		c6.9,6,11.5,14.6,12.4,24.2C103.5,79.7,98.1,79,93.4,78.4"/>
	<path clip-path="url(#SVGID_2_)" fill="#FFFFFF" d="M129.5,143.1h-2.4v6.5h-1.6v-6.5H123v-1.4h6.4V143.1z M140.4,149.7h-1.6v-6.3h0
		l-2.3,6.3h-1.6l-2.2-6.3h0v6.3h-1.6v-8h2.8l1.9,5.2h0l1.9-5.2h2.8V149.7z"/>
	<path clip-path="url(#SVGID_2_)" fill="#FFFFFF" d="M35.5,121.2l1.2,1.2l4-5.1l-0.2-0.2L35.5,121.2z M43.9,116.6L35.3,128l-1.6-1.7
		l1.9-2.4l-1.5-1.5l-2.3,1.9l-1.6-1.7l11-8.9L43.9,116.6z"/>
</g>
</svg>
