<?xml version="1.0" encoding="utf-8"?>
<!-- Generator: Adobe Illustrator 17.1.0, SVG Export Plug-In . SVG Version: 6.00 Build 0)  -->
<!DOCTYPE svg PUBLIC "-//W3C//DTD SVG 1.1//EN" "http://www.w3.org/Graphics/SVG/1.1/DTD/svg11.dtd">
<svg version="1.1" id="Layer_2" xmlns="http://www.w3.org/2000/svg" xmlns:xlink="http://www.w3.org/1999/xlink" x="0px" y="0px"
	 viewBox="0 0 197 56" enable-background="new 0 0 197 56" xml:space="preserve">
<g>
	<g>
		<path fill="#FFFFFF" d="M102.346,43.395c1.676,0.245,3.076,0.028,4.205-0.688C105.422,43.423,104.023,43.638,102.346,43.395"/>
		<path fill="#FFFFFF" d="M74.126,27.308c-4.41-2.29-3.261-7.977,9.043-13.744c4.589-2.197,7.707-3.823,7.707-3.823l-1.15,0.445
			c0.006-0.002,0.007-0.004,0.007-0.004s-5.108,1.962-6.124,2.361c-0.015,0.007,0,0-0.005,0.001
			c-0.485,0.122-1.166,0.245-1.652,0.225c-0.387-0.01-1.044-0.094-1.788-0.409c-0.222-0.094-1.509-0.631-2.601-1.145l-0.901-0.456
			c0.095,0.318-0.114,2.261-1.352,3.974c-1.358,1.868-6.036,6.002-4.618,9.893C71.596,27.103,74.133,27.299,74.126,27.308"/>
		<path fill="#FFFFFF" d="M11.904,22.949l-0.024,0.063c0.008-0.02,0.016-0.042,0.024-0.062V22.949z"/>
		<path fill="#FFFFFF" d="M58.707,25.388c0,0.329-0.037,0.623-0.1,0.892C58.674,26.063,58.707,25.788,58.707,25.388"/>
		<path fill="#FFFFFF" d="M58.174,23.592c0.181,0.25,0.315,0.528,0.405,0.835C58.489,24.12,58.355,23.841,58.174,23.592"/>
		<path fill="#231F20" d="M58.562,26.286c0.027-0.087,0.049-0.184,0.064-0.293c0-0.029,0-0.058,0-0.085
			C58.611,26.039,58.59,26.167,58.562,26.286"/>
		<path fill="#FFFFFF" d="M49.678,37.273c0.994-0.03,1.99-0.05,2.982-0.056v-0.005c-0.995,0.01-1.988,0.03-2.982,0.056V37.273z"/>
		<path fill="#FFFFFF" d="M58.577,36.869c0.044,0.137,0.086,0.272,0.13,0.41c1.059,0.031,2.125,0.078,3.188,0.13
			c0,0-0.001-0.001-0.002-0.002c-1.06-0.056-2.128-0.096-3.186-0.131C58.663,37.139,58.621,37.005,58.577,36.869"/>
		<path fill="#FFFFFF" d="M62.75,37.084l-0.037-0.158l-0.027-0.029c-0.329-1.05-0.665-2.236-0.989-3.384
			c-0.349-1.238-0.709-2.513-1.071-3.651c1.307-1.108,1.968-2.625,1.968-4.519c0-0.04-0.002-0.079-0.007-0.126
			c0.003-0.037,0.005-0.073,0.005-0.109c0-1.077-0.25-2.096-0.743-3.026c-0.494-0.95-1.189-1.722-2.079-2.3
			c-0.894-0.571-1.995-0.873-3.264-0.895c-0.831-0.014-1.661-0.021-2.492-0.021c-0.324,0-0.645,0.003-0.968,0.004
			c-1.163,0.006-2.332,0.027-3.482,0.059l-0.923,0.024v18.318l-0.005,0.5l-0.263-0.73l-0.2-0.57
			c-0.098-0.277-0.195-0.552-0.293-0.819c-1.866-5.265-3.734-10.5-5.596-15.697l-0.243-0.673l-0.126,0.009l-0.005-0.01l-0.63,0.044
			c-1.008,0.072-2.038,0.152-3.15,0.251l-0.616,0.056l-0.199,0.589c-1.789,5.285-3.611,10.71-5.568,16.58
			c-0.004,0.005-0.006,0.014-0.008,0.021c-2.371-6.768-4.774-13.596-7.154-20.324l-0.759-2.14c0,0-5.453,11.366-6.546,13.675
			c-1.585-3.025-5.742-10.909-5.742-10.909l-0.721,2.041c-2.996,8.499-5.995,17.136-8.915,25.665l-0.615,1.801l1.797-0.573
			c0.532-0.17,1.068-0.335,1.604-0.498c0,0,0.81-0.252,0.974-0.301c0.831-0.251,1.663-0.494,2.496-0.731l0.472-0.134l0.164-0.47
			c1.135-3.255,2.272-6.502,3.411-9.736c1.329,2.522,2.651,5.046,3.948,7.529l0.881,1.688l0.813-1.722
			c1.042-2.209,2.086-4.403,3.129-6.592c0.503-1.052,1.006-2.103,1.508-3.151c0.523,1.486,3.059,8.672,3.059,8.672l0.779-0.128
			c0.832-0.136,8.111-1.221,9.184-1.339l0.599-0.065l0.195-0.574c0.316-0.935,0.634-1.756,0.97-2.626
			c0.095-0.243,0.19-0.489,0.287-0.742c1.65-0.159,3.112-0.288,4.57-0.382c0.164,0.419,0.316,0.819,0.467,1.221
			c0.221,0.588,0.937,2.526,0.937,2.526l0.766-0.05c1.045-0.053,2.125-0.096,3.21-0.127c0,0,4.14-0.148,5.111-0.153l0.944-0.009
			v-6.352c0.52,0,1.173,0.001,1.788,0.005c0,0,0.448,0.005,0.509,0.005c0.293,0.916,0.586,1.815,0.878,2.716l0.916,2.846
			l0.265,0.833l0.67,0.021c0.991,0.028,2.027,0.072,3.167,0.129l0.383,0.022l1.289,0.072L62.75,37.084z M29.567,37.845
			c-0.858,0.123-1.718,0.256-2.572,0.389c-1.366-3.883-2.73-7.749-4.09-11.591c-1.936,4.018-3.867,8.065-5.793,12.146
			c-1.706-3.27-3.411-6.511-5.108-9.72c-1.586,4.502-3.168,9.027-4.747,13.571c-0.838,0.239-1.673,0.488-2.507,0.743l-1.906,1.764
			l8.912-25.659l0.815,1.55l-0.001,0.002l4.797,9.127l6.361-13.326v0.001l0.009-0.018l7.723,21.95L29.567,37.845z M39.982,24.327
			c0.675,1.962,1.351,3.931,2.024,5.903c-0.124,0.007-0.248,0.016-0.371,0.025c-0.055,0.003-0.11,0.008-0.166,0.012
			c-0.496-1.453-0.992-2.904-1.489-4.354c-0.557,1.533-1.115,3.067-1.672,4.605c-0.071,0.007-0.139,0.012-0.208,0.02
			c-0.108,0.008-0.216,0.021-0.328,0.028C38.505,28.48,39.246,26.401,39.982,24.327 M40.686,29.881
			c-0.502,0.037-0.999,0.077-1.493,0.116c0.264-0.724,0.788-2.172,0.788-2.172C40.018,27.93,40.686,29.881,40.686,29.881
			 M44.293,37.495c-0.544-1.331-0.912-2.414-1.454-3.741c-1.987,0.117-3.911,0.294-5.911,0.487c-0.524,1.396-1,2.549-1.479,3.955
			c-1.067,0.116-2.137,0.243-3.207,0.384c0.166-0.488,0.326-0.98,0.491-1.467c0.906-0.116,1.813-0.221,2.716-0.323
			c0.386-1.225,0.887-2.434,1.308-3.656c2.193-0.219,3.97-0.422,6.148-0.549c0.437,1.168,0.95,2.337,1.395,3.505
			c0.906-0.044,1.821-0.084,2.732-0.112c0.169,0.462,0.33,0.928,0.494,1.391C46.45,37.398,45.363,37.442,44.293,37.495
			 M52.66,22.822v-0.002c0.336-0.003,0.671-0.005,1.007-0.006c0.416-0.002,0.83-0.001,1.244,0.002
			c0.632,0.005,1.261,0.012,1.892,0.027c0.526,0.014,0.96,0.23,1.304,0.661c0.022,0.028,0.044,0.058,0.066,0.088
			c0.181,0.249,0.314,0.528,0.405,0.835c0.084,0.293,0.127,0.612,0.127,0.961c0,0.4-0.031,0.674-0.098,0.892
			c-0.001,0.013-0.002,0.027-0.007,0.04c0.001-0.008,0.002-0.017,0.003-0.024c0.013-0.106,0.021-0.207,0.022-0.303
			c-0.015,0.109-0.037,0.206-0.064,0.293c0.028-0.119,0.049-0.247,0.064-0.378c-0.015-0.532-0.226-0.913-0.384-1.134
			c-0.35-0.493-0.879-0.71-1.439-0.725c-1.38-0.032-2.759-0.041-4.143-0.026V22.822z M53.566,26.468v-1.492
			c0.127-0.001,1.081,0.002,1.081,0.002c0.682,0.004,1.365,0.013,2.044,0.028c0.312,0.009,0.545,0.119,0.695,0.328
			c0.157,0.22,0.223,0.461,0.2,0.738c-0.019,0.042-0.047,0.087-0.093,0.145c-0.056,0.077-0.138,0.146-0.242,0.205
			c-0.143,0.045-0.301,0.068-0.51,0.068h-0.002c-0.694-0.013-1.388-0.02-2.079-0.023l-0.623-0.001
			C53.881,26.467,53.722,26.467,53.566,26.468 M52.66,37.212v0.005c-0.992,0.005-1.988,0.026-2.982,0.056v-0.005v-1.403
			c0.994-0.027,1.987-0.05,2.982-0.056V37.212z M61.895,37.41c-1.063-0.053-2.129-0.099-3.19-0.13
			c-0.042-0.137-0.084-0.273-0.128-0.41c-0.645-2.031-1.288-3.956-1.93-5.998c-1.328-0.021-3.987-0.014-3.987-0.014v-0.135v-0.716
			c0,0,2.753-0.012,4.32,0.02c0.647,1.993,1.257,3.852,1.904,5.854c0.855,0.027,1.703,0.058,2.554,0.101
			c0.134,0.413,0.265,0.824,0.397,1.239c0.02,0.062,0.038,0.124,0.059,0.187h-0.002c0.001,0.001,0.001,0.002,0.001,0.002"/>
		<path fill="#FFFFFF" d="M74.245,33.324c-2.238-0.306-3.712-0.465-5.455-0.619V19.625l-0.857-0.083
			c-1.005-0.096-2.017-0.184-3.006-0.255l-1.018-0.073v0.014l-0.043-0.002v19.286l1.759,0.133c3.328,0.249,5.955,0.446,8.295,0.721
			l0.064,0.008l0.044,0.002l1.037,0.148v-6.088L74.245,33.324z M74.16,38.419v0.001c-0.013-0.002-0.027-0.004-0.043-0.006
			c-2.465-0.291-5.222-0.492-8.715-0.753c-0.164-0.012-0.33-0.023-0.502-0.037l0,0v-1.402c3.754,0.28,5.743,0.397,9.261,0.793
			V38.419z"/>
		<path fill="#FFFFFF" d="M64.9,37.624c0.172,0.013,0.338,0.026,0.502,0.037C65.236,37.649,65.068,37.635,64.9,37.624L64.9,37.624z"
			/>
		<path fill="#FFFFFF" d="M74.16,38.42v-0.001c-0.013-0.002-0.028-0.005-0.043-0.005C74.133,38.417,74.147,38.418,74.16,38.42"/>
		<path fill="#FFFFFF" d="M76.881,20.485l-0.868-0.124c2.751-2.566,7.168-4.84,8.89-5.678l-0.444-0.21l-0.67-0.318l-0.317-0.151
			c-1.678,0.848-4.233,2.277-6.076,3.558c-7.182,4.995-5.29,8.076-2.932,9.229c0.484,0.236,0.951,0.491,1.438,0.643
			c0.057,0.018,0.112,0.033,0.167,0.051c0.013,0.001,0.024,0.005,0.033,0.01c-0.006-0.005-0.008-0.005-0.015-0.009
			c-0.005-0.002-0.015-0.008-0.02-0.01c-0.009-0.003-0.019-0.008-0.027-0.011c-1.524-0.703-2.12-2.039-2.227-2.309
			c-0.047-0.152-0.086-0.328-0.113-0.529c-0.178-1.304,0.7-2.693,2.051-4.016v6.243c0.543,0.466,1.312,0.889,2.393,1.297
			c-0.184,0.011-0.366,0.006-0.549,0c-0.736-0.032-1.425-0.192-1.844-0.254v11.751l0.812,0.116c0.958,0.139,1.939,0.293,2.914,0.456
			l1.217,0.179V21.093l-0.794-0.133C78.894,20.793,77.889,20.635,76.881,20.485 M79.79,39.286L79.79,39.286
			c-1.001-0.166-2-0.322-3.005-0.467v-0.005v-1.403c1.006,0.145,2.004,0.303,3.005,0.473V39.286z"/>
		<path fill="#FFFFFF" d="M76.784,38.819c1.006,0.145,2.004,0.301,3.005,0.469v-0.001c-1.001-0.166-2-0.323-3.005-0.472V38.819z"/>
		<path fill="#FFFFFF" d="M94.949,42.55v-0.001c-0.33-0.091-0.661-0.177-0.993-0.263C94.288,42.372,94.619,42.46,94.949,42.55"/>
		<path fill="#FFFFFF" d="M82.972,39.829c0.985,0.18,1.963,0.371,2.945,0.573c-0.983-0.205-1.965-0.395-2.945-0.578V39.829z"/>
		<path fill="#FFFFFF" d="M106.472,44.089c1.136-0.68,1.739-1.906,1.804-3.703C108.212,42.184,107.608,43.409,106.472,44.089"/>
		<path fill="#FFFFFF" d="M102.343,37.033c1.163,0.366,1.975,0.796,2.449,1.26c0.055,0.053,0.103,0.106,0.149,0.159
			c-0.055-0.064-0.106-0.117-0.149-0.159C104.318,37.826,103.505,37.399,102.343,37.033"/>
		<path fill="#FFFFFF" d="M102.259,44.688c1.668,0.279,3.071,0.093,4.213-0.598C105.329,44.78,103.927,44.966,102.259,44.688"/>
		<path fill="#FFFFFF" d="M109.179,39.717l-0.002-0.078l-0.002-0.001c-0.085-1.586-0.61-2.993-1.56-4.175
			c-1.101-1.377-2.672-2.361-4.665-2.925c-0.924-0.264-1.323-0.488-1.492-0.627c-0.117-0.095-0.189-0.201-0.189-0.395
			c0.006-0.119,0.041-0.177,0.088-0.242c0.026-0.028,0.049-0.049,0.067-0.061c0.005-0.002,0.129-0.081,0.508-0.081
			c0.048,0,0.098,0.002,0.141,0.005c0.142,0.008,0.301,0.026,0.471,0.054c0.956,0.226,1.74,0.703,2.395,1.458l0.672,0.728
			l0.006-0.006l0.024,0.028l0.712-0.687c0.702-0.679,1.403-1.357,2.108-2.026l0.705-0.55l-0.76-0.95
			c-0.152-0.187-1.149-1.209-1.149-1.209c-1.248-1.118-2.69-1.841-4.324-2.153c-0.402-0.061-0.795-0.092-1.167-0.092
			c-0.058,0-0.119,0.001-0.171,0.003c-1.346,0.024-2.473,0.461-3.35,1.296c-0.921,0.885-1.487,2.05-1.679,3.461h-0.004l-0.024,0.23
			c-0.02,0.188-0.037,0.378-0.041,0.553c-0.011,0.182-0.012,0.363-0.006,0.544c0.048,1.254,0.471,2.423,1.264,3.474
			c0.886,1.174,2.266,2.043,4.219,2.658c1.237,0.387,1.808,0.774,2.068,1.03c0.054,0.054,0.106,0.114,0.155,0.181
			c0.016,0.023,0.034,0.044,0.034,0.044l0.037,0.063c0.114,0.215,0.149,0.479,0.099,0.788c-0.022,0.051-0.073,0.116-0.216,0.182
			c-0.162,0.073-0.363,0.117-0.585,0.134c-0.062,0.002-0.122,0.005-0.185,0.005c-0.214,0-0.45-0.021-0.699-0.063
			c-1.216-0.302-2.374-1.046-3.44-2.211l-0.691-0.709l-0.007,0.008l-0.023-0.024l-1.401,1.421l-0.002-0.005l-0.93,0.945
			c-0.112,0.115-0.222,0.227-0.334,0.339V24.431l-0.702-0.191c-1.017-0.274-1.994-0.528-2.909-0.753l-1.218-0.28v6.925l-4.544-7.964
			l-0.422-0.084c0,0-1.971-0.402-2.961-0.584l-0.635-0.11l-0.526-0.1v19.338l0.779,0.144c0.925,0.167,1.882,0.355,2.924,0.57
			l0.877,0.172l0.305,0.064v-7.54c0.424,0.738,0.844,1.459,1.257,2.167l0.157,0.27c1.151,1.988,2.19,3.802,3.252,5.855l0.198,0.379
			l0.413,0.106c0.841,0.214,1.68,0.434,2.521,0.659l1.236,0.319v-1.855c1.792,2.046,3.857,3.295,6.163,3.695
			c0.467,0.079,0.929,0.123,1.367,0.135c0.08,0.002,0.243,0.002,0.243,0.002c1.241,0,2.347-0.288,3.283-0.856
			c1.429-0.853,2.193-2.365,2.269-4.491C109.189,40.189,109.188,39.954,109.179,39.717 M85.917,40.403
			c-0.983-0.202-1.962-0.394-2.945-0.573v-0.004V38.42c0.98,0.181,1.963,0.373,2.945,0.575V40.403z M94.949,42.549v0.002
			c-0.331-0.091-0.661-0.179-0.993-0.265c-0.514-0.135-1.027-0.267-1.542-0.4c-0.095-0.186-0.188-0.367-0.282-0.549
			c-2.065-3.981-4.138-7.097-6.216-11.071v-0.23v-1.175c2.173,4.159,4.34,7.37,6.498,11.621c0.846,0.216,1.693,0.435,2.534,0.664
			V42.549z M107.229,29.225c0.029,0.031,0.058,0.065,0.086,0.098c0.032,0.035,0.064,0.07,0.094,0.102
			c0.066,0.074,0.13,0.148,0.194,0.222c0.011,0.013,0.022,0.028,0.032,0.04c0.079,0.094,0.156,0.186,0.231,0.282
			c-0.001,0.001-0.001,0.002-0.001,0.002v0.002c-0.708,0.674-1.416,1.358-2.125,2.045c-0.789-0.91-1.764-1.503-2.93-1.771
			c-0.865-0.141-1.484-0.084-1.858,0.163c-0.045,0.028-0.087,0.06-0.127,0.091c-0.017,0.014-0.033,0.03-0.048,0.045
			c-0.014,0.013-0.03,0.027-0.044,0.041c-0.059,0.06-0.113,0.128-0.159,0.195v-0.001c0.082-0.297,0.87-1.422,2.26-1.189
			c0.974,0.129,1.864,0.441,2.745,1.274c0.552-0.547,1.1-1.095,1.646-1.639C107.227,29.227,107.229,29.226,107.229,29.225
			 M102.343,37.033c-1.722-0.54-2.975-1.299-3.747-2.323c-0.722-0.957-1.081-2.011-1.072-3.156c0.001-0.076,0.002-0.152,0.007-0.229
			c0.002-0.093,0.008-0.181,0.014-0.27c0.001-0.009,0.001-0.019,0.002-0.028c0.006-0.077,0.013-0.151,0.021-0.226
			c0.002-0.021,0.005-0.043,0.007-0.065c0.005-0.042,0.01-0.086,0.015-0.128c0,0.002,0.001,0.006,0.002,0.009
			c0.08,0.967,0.21,2.101,0.77,2.972c0.716,1.119,1.853,1.742,3.569,2.339c1.136,0.393,2.115,0.841,2.63,1.23
			c1.379,1.044,1.374,2.375,0.795,3.254c0.008-0.038,0.014-0.074,0.022-0.112c0.181-0.939-0.17-1.536-0.438-1.849
			c-0.045-0.055-0.094-0.106-0.149-0.159C104.318,37.83,103.505,37.401,102.343,37.033 M106.472,44.089
			c-1.143,0.692-2.545,0.878-4.213,0.598c-2.196-0.38-4.153-1.596-5.879-3.691c0,0,0,0,0.002-0.001h-0.002
			c0.226-0.234,0.452-0.464,0.68-0.694c0.001,0,0.002,0,0.004,0.001c1.564,1.664,3.2,2.766,5.13,3.103
			c1.665,0.277,3.073,0.091,4.212-0.6c0.981-0.584,1.679-1.695,1.866-3.107c0-0.002,0.002-0.007,0.002-0.012
			c0.002,0.027,0.002,0.055,0.004,0.081v0.012c0.008,0.199,0.009,0.401,0,0.607C108.212,42.184,107.608,43.409,106.472,44.089"/>
		<path fill="#FFFFFF" d="M98.595,34.708c-0.722-0.958-1.081-2.009-1.072-3.154c-0.009,1.145,0.35,2.2,1.072,3.156
			c0.772,1.024,2.025,1.784,3.747,2.323C100.621,36.493,99.367,35.732,98.595,34.708"/>
		<path fill="#FFFFFF" d="M100.953,30.406c-0.046,0.03-0.087,0.063-0.127,0.095c0.04-0.03,0.08-0.063,0.127-0.093
			c0.374-0.244,0.993-0.301,1.858-0.16C101.946,30.104,101.328,30.162,100.953,30.406"/>
		<path fill="#FFFFFF" d="M102.811,30.248c1.166,0.267,2.14,0.86,2.93,1.771c0.709-0.687,1.417-1.371,2.126-2.045l-0.001-0.002
			c-0.709,0.677-1.421,1.358-2.125,2.044C104.952,31.106,103.977,30.515,102.811,30.248"/>
		<path fill="#FFFFFF" d="M96.382,40.996c-0.002,0-0.002,0-0.002,0c1.726,2.095,3.683,3.311,5.879,3.692
			C100.064,44.304,98.107,43.088,96.382,40.996"/>
		<path fill="#FFFFFF" d="M29.397,37.367L29.397,37.367c-0.681,0.099-1.365,0.2-2.046,0.306
			C28.033,37.566,28.718,37.466,29.397,37.367"/>
		<path fill="#FFFFFF" d="M23.407,20.442l-6.12,12.823L11.904,22.95c-0.008,0.02-0.016,0.042-0.024,0.063L4.937,42.85
			c0.323-0.1,0.649-0.199,0.978-0.297c0.008-0.002,0.017-0.005,0.027-0.007c0.337-0.102,0.679-0.202,1.017-0.302
			c1.674-4.842,3.358-9.662,5.045-14.457c1.709,3.237,3.426,6.5,5.151,9.801c1.949-4.122,3.898-8.213,5.855-12.268
			c1.444,4.091,2.89,8.209,4.341,12.353c0.681-0.107,1.367-0.209,2.046-0.306L23.41,20.421L23.407,20.442z"/>
	</g>
	<polyline fill="#FFFFFF" points="108.431,44.283 108.828,44.283 108.828,45.36 109.096,45.36 109.096,44.283 109.492,44.283 
		109.492,44.049 108.431,44.049 108.431,44.283 	"/>
	<polyline fill="#FFFFFF" points="110.828,44.049 110.508,44.904 110.503,44.904 110.198,44.049 109.731,44.049 109.731,45.36 
		110,45.36 110,44.317 110.009,44.317 110.374,45.36 110.632,45.36 111.012,44.317 111.022,44.317 111.022,45.36 111.289,45.36 
		111.289,44.049 110.828,44.049 	"/>
</g>
</svg>
