<?xml version="1.0" encoding="utf-8"?>
<!-- Generator: Adobe Illustrator 18.0.0, SVG Export Plug-In . SVG Version: 6.00 Build 0)  -->
<!DOCTYPE svg PUBLIC "-//W3C//DTD SVG 1.1//EN" "http://www.w3.org/Graphics/SVG/1.1/DTD/svg11.dtd">
<svg version="1.1" id="NYM" xmlns="http://www.w3.org/2000/svg" xmlns:xlink="http://www.w3.org/1999/xlink" x="0px" y="0px"
	 viewBox="0 0 229.5 168" enable-background="new 0 0 229.5 168" xml:space="preserve">
<g>
	<path fill="#FFFFFF" d="M219.5,74.9c-1.6-4.7-3.3-10-3.1-14.7c0-0.1,0-0.1,0-0.2l0.1-2.2l-2-0.8l-8-3l-0.8-0.3l-1.7-0.7l-0.5,1
		l-0.7,1.5c-2.3,5-7.7,14.2-12.1,21.1c-9.3,14.9-12.9,18.7-14.1,19.6c-0.3,0.2-0.4,0.3-0.5,0.3c-0.7,0.1-1.5-0.1-2.1-0.6
		c-0.5-0.4-0.8-1.1-0.8-1.8c0.3-3.2,9-33.5,11.3-41.2l25.5-4.2l2.5-9.2l1.2-4.3l-21.2,3.4l-4.3,0.7l4.2-15.6L173,26.9
		c0,0-3.3,11.4-4.6,15.8l-11.5,1.9l-4.2,13.7l4.4-0.8l7.5-1.3c-0.4,1.4-0.8,2.8-1.2,4.3c-3.4,12.1-7.6,26.1-8.9,28.4
		c-1,1.8-5.1,6.5-10.2,10.7c-5.7,4.7-12.5,8.8-17.6,7.7c-0.2,0-0.3-0.1-0.5-0.1c5.7-3.1,18.4-11,20.6-21c1-4.8,0.2-8.5-1.5-11.3
		c-2.2-3.8-6-5.7-8.4-6.3c-11.9-1.6-19.3,6.5-21.9,10c-5.4,6.2-10.2,16.8-11.4,25c-0.1,0.7-0.2,1.5-0.2,2.3
		c-17.7,11.9-16.1,5.1-15.4-3.4c0.9-10.5,6.8-32.8,16.5-63c0.3-0.8,1.9-6,1.9-6l-21.2,3.5L84.7,39C83.6,43.5,72.5,68.4,64,87.4
		c1.5-13.6,3.9-32.1,6.9-43.6l1.1-4.3L49.7,43l-0.5,2.1c-0.7,2.5-1.9,7.2-7.7,23.7c-1.8,5.1-9.6,27.7-10.1,29
		c-4.6,11.8-9.9,25-14.8,25.5c-1,0.1-1.7-0.2-2-0.9c-0.6-1.1-0.2-4.4,2.7-9.9l3.1-5.8L7.5,110l-0.6,1c-6.7,10.9-8.6,20.7-5.2,26.9
		c2.1,3.9,6,6.1,10.7,6c0.1,0,0.3,0,0.4,0c7.9-0.3,15.8-6.4,21.3-16.3c2.3-4.2,6-13.2,9.3-21.6c-0.6,9.9-1.6,20.4-4.8,29.3l-1.6,4.3
		l16.2-1.4l15.1-30.8c-1.6,11.2-0.2,18,4.2,21.4c2.3,1.7,5.1,2.6,8.4,2.4c6.8-0.2,14.2-4.5,19.3-8l8-5.7c3.2,3.5,7.4,5.7,12.3,6.4
		c0.9,0.1,1.9,0.2,3,0.2c7.5,0,18.2-3.6,31.4-17.5c0.7,1.6,1.7,3.1,2.6,4.1c0.4,0.5,0.9,0.9,1.4,1.3c2.3,1.8,5.2,2.7,8.6,2.8
		c8.8,0.3,19-5.4,22.7-12.6c4,4.2,10.3,6,15.4,5.6c4.2-0.3,11.9-2.3,15.9-11.6C224.5,89.7,222,82.1,219.5,74.9z M131.9,84.4
		c1.8,1.3-2.8,7.3-7.4,8.7C125.3,88.2,130.4,83.4,131.9,84.4z M200.5,94.2c-2.2-0.9-1.2-4.5,4.2-7.7l-4.9-2.4
		c1.3-2.1,2.5-4.4,3.6-7.2C205.5,82.2,206.6,96.8,200.5,94.2z"/>
	<g>
		<path fill="#FF5910" d="M216.7,75.9c-1.8-5.3-3.6-10.8-3.2-16l-8-3c-2.5,5.6-8.5,15.5-12.2,21.5c-12.9,20.6-15.2,21-16.7,21.3
			c-1.6,0.3-3.3-0.2-4.5-1.2c-1.2-1-1.9-2.6-1.8-4.2c0.1-3.1,11.9-43.6,11.9-43.6l25.5-4.2l2-7.3l-25.5,4.1l4.2-15.6l-13.1,1.9
			c0,0-4.6,15.8-4.6,15.8l-11.5,1.9l-2.2,7.4l11.7-1.9c0,0-9.2,33.4-11.6,37.8c-2,3.7-19.2,22.6-31,19.9c-4.9-1.1-3.8-4.3-3.8-4.3
			s19.2-9,21.6-20.3c2.1-10-6.1-13.9-8.3-14.1c-9.2-1.1-16.5,6.6-18.3,9c-5.4,6.2-10.1,17-10.9,24.4c0,0.7,0,1.5,0.1,2.4
			c-23.8,15.9-22,4.8-21.3-5.1c1.6-18.1,16.4-62.8,17.1-65.1l-14.6,2.4c-1.9,7.6-28.2,65-28.2,65s3.4-41.2,8.7-61.7L52,45.6
			c-0.6,2.4-1.8,7-7.8,24.2C42.4,75,34.1,98.9,34.1,98.9c-6.6,16.6-11,26.8-17.2,27.4c-3.1,0.3-4.5-1.6-4.9-2.4
			c-1.7-3,0.4-8.4,2.7-12.7l-5.3,1.4c-6.1,9.8-8,18.7-5.2,24c1.6,2.9,4.5,4.5,8.1,4.5c5.5,0,13.3-4,19.2-14.8
			c4.8-8.7,16-39.2,16-39.2c-1.4,12.9-0.5,33.5-6.2,49.3l9.9-0.9l26.9-55.1c-8.5,25.8-10.1,41.5-4,46.1c5.4,4.1,14.7,1,24.3-5.6
			l10.2-7.3c7,10.2,24.6,14.2,48.1-13.4c-0.3,3.2,0.7,5.4,0.7,5.4c1.7,4.1,5.1,6.2,10,6.4c7.7,0.2,16.9-4.8,20.1-11.1l2.6-4.1
			c2.4,5.6,9.4,8.6,15.2,8.1c3.6-0.3,10-2,13.4-9.8C221.3,89.6,219,82.9,216.7,75.9z M133.8,82.1c3.3,2.2,1.5,6.5-2.3,10
			c-2.8,2.6-6.8,4.8-10.5,6.1C120.1,90.2,128,78.4,133.8,82.1z M205.4,96.4c-0.8,0.7-3.1,2.3-6.4,0.5c-1.7-0.9-2.7-2.6-2.7-4.5
			c0-1.2,0.3-3.3,2.4-5.4l-3.2-1.7c1.4-2.3,7.9-13.9,8.7-16.2l1.9,6.6C207.8,80,209.7,92.4,205.4,96.4z"/>
		<polygon fill="#FFFFFF" points="227.9,102.7 226.8,105.7 226.8,105.7 225.7,102.7 224.1,102.7 224.1,107.3 225,107.3 225,103.6 
			225,103.6 226.3,107.3 227.2,107.3 228.5,103.6 228.5,103.6 228.5,107.3 229.5,107.3 229.5,102.7 		"/>
		<polygon fill="#FFFFFF" points="219.6,103.5 220.9,103.5 220.9,107.3 221.9,107.3 221.9,103.5 223.2,103.5 223.2,102.7 
			219.6,102.7 		"/>
	</g>
</g>
</svg>
