<?xml version="1.0" encoding="utf-8"?>
<!-- Generator: Adobe Illustrator 18.0.0, SVG Export Plug-In . SVG Version: 6.00 Build 0)  -->
<!DOCTYPE svg PUBLIC "-//W3C//DTD SVG 1.1//EN" "http://www.w3.org/Graphics/SVG/1.1/DTD/svg11.dtd">
<svg version="1.1" id="WAS" xmlns="http://www.w3.org/2000/svg" xmlns:xlink="http://www.w3.org/1999/xlink" x="0px" y="0px"
	 viewBox="0 0 120.2 168" enable-background="new 0 0 120.2 168" xml:space="preserve">
<g>
	<g>
		<path fill="#FFFFFF" d="M109.4,27.3c-11.1-8.9-21.3,2.2-21.3,8.6c11.2,2.4,21.1,13.5,16.7,42.6c-3.6,23.7-17.6,38.5-26.4,38.8
			c7.3-10,12.2-21.3,14.9-32.3c8-32.9-4.8-43.6-14.9-44c-12.3-0.6-24.7,16.2-28.1,36c-2.7,15.7-2.4,31.7,7.2,43.5
			c-8.4,10.7-28.7,14-25.1-11.7c3-21.5,13.7-45.2,19.6-56.8l0.2-0.3c3.2-6.5,5.7-11.1,6.8-12.9l-2.4,0C33.2,39,14.9,44.3,6.3,56
			c-8,10.9-8.2,22.5-1.6,29.3l1,1c1.9,1.9,4.5,3,7,3h0c2.3,0,4.6-0.9,6.3-2.6c1.7-1.7,2.6-4.1,2.6-6.4c0-2.5-1-5.1-2.9-7
			c-1-1-2.2-1.8-3.5-2.3l0-0.1c0.2-0.4,0.4-0.8,0.6-1.2c1.5-2.7,4.2-5.2,7.8-7c2.8-1.4,6-2.3,9.6-2.7l-0.6,1.2
			c-4.9,9.1-12,26.3-14.3,35.3c-7,28.1,4.3,44.6,16.6,46.9c14.8,2.8,26.2-4.4,32.2-13.7c7.2,4.5,26.1,7.2,40.3-18.2
			C123.8,82.4,124.4,39.4,109.4,27.3z M67.5,110.7c-2.8-6.8-4.1-14.9-4.1-22.5c0-9.2,1.8-17.8,5-22.8c2.1-3.3,4.6-4.9,7.4-4.7
			c1,0.1,2.1,0.4,2.9,2.3c0.7,1.6,0.9,3.6,0.9,6C79.8,81,72.6,101.5,67.5,110.7z"/>
	</g>
	<g>
		<path fill="#FFFFFF" d="M107.3,118.6c0-1.6,1.2-2.5,2.6-2.5c1.4,0,2.6,0.9,2.6,2.5c0,1.6-1.2,2.5-2.6,2.5
			C108.5,121.1,107.3,120.2,107.3,118.6z M109.9,116.5c-1.1,0-1.9,0.8-1.9,2c0,1.2,0.9,2,1.9,2c1.1,0,1.9-0.8,1.9-2
			C111.8,117.3,111,116.5,109.9,116.5z M109.5,120h-0.6v-2.8h1c0.7,0,1.1,0.2,1.1,0.8c0,0.5-0.3,0.7-0.8,0.7l0.7,1.2h-0.6l-0.7-1.2
			h-0.3V120z M109.5,118.3h0.5c0.3,0,0.5-0.2,0.5-0.4c0-0.3-0.2-0.3-0.5-0.3h-0.5V118.3z"/>
	</g>
</g>
</svg>
