<?xml version="1.0" encoding="utf-8"?>
<!-- Generator: Adobe Illustrator 18.0.0, SVG Export Plug-In . SVG Version: 6.00 Build 0)  -->
<!DOCTYPE svg PUBLIC "-//W3C//DTD SVG 1.1//EN" "http://www.w3.org/Graphics/SVG/1.1/DTD/svg11.dtd">
<svg version="1.1" id="BAL" xmlns="http://www.w3.org/2000/svg" xmlns:xlink="http://www.w3.org/1999/xlink" x="0px" y="0px"
	 viewBox="0 0 126.8 168" enable-background="new 0 0 126.8 168" xml:space="preserve">
<g>
	<path fill="#DF4601" d="M53.8,143.2c-14.1,0-27.3-5.1-36.2-14.1c-8-8-12.2-18.8-12.3-31.2l-4,0.7l-0.2-0.7
		c-0.1-0.5-2.9-12.7,10.5-23.5C8,66,4.6,50.6,18.6,38.7c1.5-1.5,2.5-2.1,3.2-2.7c0.4-0.3,0.7-0.5,1-0.7c0.8-2.2,2.4-4.2,3.2-5
		c4.4-4.6,10-5.3,10.2-5.4c0.8-0.1,1.6-0.2,2.4-0.2c4.3,0,6.8,1.8,7.9,2.6c0.1,0.1,0.1,0.1,0.2,0.1c0.5,0.1,1.1,0.2,1.9,0.2
		c0.8,0,1.9,0.1,3.3,0.2c7.9,1,14.6,4.7,20,10.8c1.8-0.2,9-1.2,12.6-2c1.8-0.4,3.7-0.8,5.5-1.2c8.8-1.9,17.1-3.7,23.1-3.7
		c0.9,0,1.7,0,2.4,0.1l0.1,0c4.3,0.8,7.6,3.1,9,6.5c3,7.2,1.1,12.8-6.5,18.9c-9.1,7.3-22.1,11.1-29.5,12.8c0.1,0.6,0.3,1.7,0.8,3.5
		c1.8-0.2,3.7-0.2,5.5-0.2c14.8,0,24.3,5.4,24.9,10.7c0.1,1.8-1.2,3.9-4.3,4.8c-13.3,3.5-16,10-19.5,25.2c-2.1,9-7.4,16.5-15.6,21.7
		C73.1,140.6,63.6,143.2,53.8,143.2"/>
	<path fill="#FFFFFF" d="M38.6,25.5c4.4,0,6.9,2.1,7.8,2.7c1.2,0.4,2.5,0.1,5.4,0.5c5,0.7,12.9,2.8,19.8,10.9c0,0,8.9-1.2,13.1-2
		c10.6-2.2,21.3-4.8,28.4-4.8c0.8,0,1.6,0,2.3,0.1c4.5,0.8,7.3,3.3,8.4,6.1c3.1,7.4,0.6,12.5-6.2,18c-8.5,6.8-20.9,10.8-29.8,12.9
		c0,0,0.1,1.4,1.1,4.9c2.1-0.2,4.1-0.3,6-0.3c14.4,0,23.6,5.2,24.1,10c0.1,1.4-1,3.2-3.8,4c-13.7,3.6-16.6,10.5-20.1,25.8
		c-4.3,18.8-22.5,28.4-41.4,28.4c-23.5,0-47.9-14.8-47.8-45.4l-4.2,0.7c0,0-3-12.4,10.7-23.1c-2.5-5.6-8.7-22.4,6.5-35.3
		c2.4-2.3,3.3-2.6,4.4-3.5c0.7-2.1,2.2-4.1,3.1-4.9c4.3-4.4,9.7-5.1,9.7-5.1C37.1,25.6,37.9,25.5,38.6,25.5 M38.6,24
		c-0.8,0-1.7,0.1-2.5,0.2c-0.5,0.1-6.1,0.9-10.6,5.6c-0.8,0.8-2.4,2.8-3.3,5.1c-0.2,0.2-0.5,0.4-0.8,0.6c-0.8,0.5-1.7,1.2-3.3,2.7
		C11.2,44,7.7,51.2,7.7,59.7c0,4.6,1,9.5,3,14.5C3.9,79.8,1.4,85.7,0.5,89.9c-1,4.7-0.2,8.1-0.2,8.2l0.3,1.4l1.4-0.2l2.5-0.4
		c0.3,12.2,4.6,22.8,12.6,30.8c9.1,9.1,22.5,14.3,36.7,14.3c9.9,0,19.5-2.6,27-7.4c8.3-5.3,13.8-13,15.9-22.2
		c3.5-15.2,6-21.3,18.9-24.6l0,0l0,0c3.6-1,5.1-3.5,4.9-5.6l0,0l0,0c-0.3-3-3.2-5.9-7.8-8c-3.3-1.5-9.2-3.3-17.9-3.3
		c-1.6,0-3.2,0.1-4.9,0.2c-0.2-0.9-0.4-1.5-0.5-2.1c7.6-1.8,20.1-5.7,29-12.8c7.9-6.3,9.9-12.2,6.7-19.8c-1.5-3.6-5-6.2-9.6-7
		l-0.1,0l-0.1,0c-0.8-0.1-1.6-0.1-2.5-0.1c-6.1,0-14.4,1.8-23.2,3.7c-1.8,0.4-3.7,0.8-5.5,1.2c-3.4,0.7-9.9,1.6-12.1,1.9
		C66.8,31.8,60,28.2,52,27.1c-1.4-0.2-2.5-0.2-3.4-0.2c-0.7,0-1.2,0-1.6-0.1c0,0-0.1,0-0.1-0.1C45.8,25.9,43.1,24,38.6,24"/>
	<path d="M101.3,84.3c-14.8,8.2-13.8,18.8-30.4,23.2c-18.8,4.9-34-7.7-23-10.2c2.6-0.5,2.9-2.1,0.1-1.6c-6.6,0.4-15.1,3.8-7.1,17
		c0,0,1.1,0.5,1.6,0c0,0-3-6.7-0.7-8.6C52.4,114.2,76,116,90.8,96.3c5-6.6,10.8-10.4,16.4-12.7c-9-2.2-19.2-2.4-24.8-0.7
		c-0.7-8.9-1.2-11.4-2.9-15.2c-0.8-1.7-0.9-2.7,3-3.8c2.4-0.7,12.4-3,21-6.9c6.1-2.8,10.3-5.9,11.4-7c0.9-0.8,4.1-4.4,2.9-7.3
		c-1.2-2.9-4.1-3.1-7.6-2.8c-3,0.3-4.4,0.4-23.1,4.5c-9.8,2-15.4,2.1-18.9,3.2c0,0-4.6-11.2-19.9-11.7c-2,0-5.2-0.4-6.8-2
		c-1.7-1.3-4.7-1.1-7.2,0.3c-1.9,1-3.5,2.6-3.8,4.1c-0.7,2.6-1.6,2.4-5.2,5.4c-4.5,3.7-14.8,11.9-3.4,32.8c-10.4,6-11.9,13-11.9,13
		l4.8-0.3c-0.7,1.3-1.3,5.6-1.3,7.5c-0.1,10.9,3.2,19.9,9.9,26.7c7.3,7.4,18.4,11.7,30.2,11.7h0c8.3,0,16.3-2.2,22.5-6.1
		c2.8-1.8,5.3-4,7.2-6.5c-23.8,14.8-45.6,2.2-50-10.4c-4.3-12.3,3.4-21.8,13.2-19.5c13.7,3.3,20.9,1.4,23-5.2c1.7,0.6,5.6,0.5,8-0.7
		C81.1,85.1,89.4,82.1,101.3,84.3"/>
	<path fill="#DF4601" d="M33.2,40.3l7.5-2.8C40.7,37.5,35.1,33.2,33.2,40.3"/>
	<path fill="#DF4601" d="M50.8,60.4c0,0,11.5-8.9,24.4-10.4c12-1.5,31.1-5.7,31.1-5.7S97,49.9,87.7,56.4c-10.1,6-17.5,8.5-29.2,8.2
		C50.9,63.6,45.9,63.6,50.8,60.4"/>
	<path fill="#DF4601" d="M94.6,56.1c0,0,18.8-13.1,19.4-12.1C115.7,46.3,106.3,52.2,94.6,56.1"/>
	<path fill="#FFFFFF" d="M20.4,73.7c0,0,7.8-0.9,15.9-4.7l-14.5,7.6L20.4,73.7z"/>
	<path fill="#FFFFFF" d="M64.1,79.3c1.7,5.3,0.5,10.5-2.7,11.5c-3.2,1.1-7.3-2.4-9-7.7c-1.7-5.3-0.5-10.5,2.7-11.5
		C58.4,70.5,62.4,74,64.1,79.3"/>
	<path d="M58.4,81.7c1.4,2.4,1.1,5.2-0.5,6.1c-1.6,0.9-4-0.4-5.4-2.8c-1.4-2.4-1.1-5.2,0.5-6.1C54.6,78,57,79.2,58.4,81.7"/>
	<path fill="#FFFFFF" d="M77.6,74.2c1.4,5.4-0.1,10.5-3.4,11.4c-3.3,0.9-7.1-2.8-8.6-8.2C64.3,72,65.8,66.9,69.1,66
		C72.4,65.1,76.2,68.8,77.6,74.2"/>
	<path d="M71.3,76.9c1.1,2.3,0.8,4.8-0.8,5.6c-1.5,0.7-3.7-0.5-4.8-2.9c-1.1-2.3-0.8-4.8,0.8-5.6C68,73.3,70.2,74.6,71.3,76.9"/>
	<path fill-rule="evenodd" clip-rule="evenodd" fill="#DF4601" d="M50.5,46c1.5,0.9,2.9,0.9,4.6,0c0.3,1.1,0.6,2.6,0.6,3.8
		c0,1-0.1,2.3-0.6,3.1c-0.3,0.5-0.6,0.7-1.1,0.8c-1.6,0.3-3-2.1-3.5-3.9C50.2,48.6,50.2,47.2,50.5,46 M54.9,45.3
		c-0.9,0.4-1.6,0.4-2.3,0.1c-0.8-0.3-1.5-1-1.9-1.8c-0.3-0.7-0.3-1.5,0.1-2.1C51,41.2,51.5,41,52,41C53.2,41,54.3,43.3,54.9,45.3
		 M57.2,43.3c-0.2,0.4-0.4,0.8-0.7,1.1c-1.2-3.3-2.9-5-4.6-4.9c-1,0.1-1.9,0.5-2.4,1.3c-0.6,0.8-0.8,2-0.4,3
		c-0.9,2.2-0.8,4.8-0.2,6.8c0.7,2.1,1.7,3.6,3.1,4.3c0.8,0.5,1.8,0.5,2.5,0.3c1-0.3,1.7-1,2.2-2.1c1.1-2.3,0.9-5.7,0.1-8
		c0.4-0.3,0.9-1,1.1-1.6L57.2,43.3z"/>
	<path fill="#DF4601" d="M59.1,45c0-0.2,0-0.3,0.1-0.6c0,0-0.1,0-0.1,0c-0.1,0-0.2,0.2-0.3,0.4c-0.2,0.4-0.3,1-0.1,1.3
		c0,0.1,0.2,0.1,0.5,0c0.1,0,0.2-0.1,0.2-0.2c0.2-0.2,0.2-0.6,0.1-0.8C59.4,45,59.3,45,59.1,45"/>
	<path fill="#DF4601" d="M62.2,46.8l-0.7-0.6L61.3,46c-0.2-0.1-0.3-0.3-0.3-0.5l0-0.1l-0.1,0L60.1,46c-0.1,0.3-0.2,0.9-0.2,1.4
		L59.8,49c-0.1,1-0.3,1.8-0.8,2.1l0,0l-0.2,0.9l0.1,0c0.6-0.3,1-0.9,1.3-1.9l0.1-0.9l0.1-0.8l0-0.2l0.1-0.8c0-0.2,0.1-0.4,0.1-0.6
		c0,0,0,0,0-0.1c0,0,0.1,0.1,0.1,0.1c0.2,0.3,0.8,0.8,1.1,1c0,0,0,0,0.1,0.1c0,0-0.1,0-0.1,0c-1,0.4-1.2,1.1-1,1.4
		c0.1,0.2,0.3,0.4,0.4,0.5c0.2,0.1,0.5,0.1,0.8-0.1c0.6-0.3,1-1,0.8-1.7l0-0.1l-0.1-0.3C62.6,47.3,62.5,47.1,62.2,46.8 M62.1,48.8
		c-0.1,0.2-0.2,0.3-0.4,0.4c-0.2,0.1-0.4,0-0.5-0.1C61,49,61,48.8,61.1,48.6c0.1-0.2,0.4-0.4,0.9-0.6c0,0,0.1,0,0.1,0
		c0,0,0,0.1,0.1,0.1C62.2,48.4,62.2,48.7,62.1,48.8"/>
	<path fill="#FFFFFF" d="M89,137h-1.4v3.8h-0.9V137h-1.4v-0.8H89V137z M95.4,140.8h-0.9v-3.7h0l-1.4,3.7h-0.9l-1.3-3.7h0v3.7h-0.9
		v-4.7h1.6l1.1,3h0l1.1-3h1.6V140.8z"/>
</g>
</svg>
