<?xml version="1.0" encoding="utf-8"?>
<!-- Generator: Adobe Illustrator 18.0.0, SVG Export Plug-In . SVG Version: 6.00 Build 0)  -->
<!DOCTYPE svg PUBLIC "-//W3C//DTD SVG 1.1//EN" "http://www.w3.org/Graphics/SVG/1.1/DTD/svg11.dtd">
<svg version="1.1" id="SD" xmlns="http://www.w3.org/2000/svg" xmlns:xlink="http://www.w3.org/1999/xlink" x="0px" y="0px"
	 viewBox="0 0 96.8 168" enable-background="new 0 0 96.8 168" xml:space="preserve">
<g>
	<path fill="#FFFFFF" d="M63.4,48.1c0,0-41.5,0-41.8,0c-0.3,0-0.3,0.6,0,0.6c0.3,0,5.6,0.5,5.6,5.4l0,14.2c-6.3,0-10.2,0-10.9,0
		c-2.4,0-2.9-2-2.9-3.2c0-0.1-0.1-12.1,0-19.6c0.1-6.1,3.4-9.2,9.1-9.2L49.4,36c1.6,0,3,0.7,3,2.7c0,2-2.1,2.5-2.5,2.7
		c-0.2,0.1-0.2,0.3,0,0.3h15.7l-0.2-5.1c-0.1-3.7-2.4-12.6-14.1-12.6L19.8,24l0,0C8.4,24,0.4,32.2,0.4,43.1l0,0.2
		c0,6.5-0.2,15.7-0.2,21.6c0,7.2,6.2,14.7,15,14.7h34.9c2.4,0,3.1,2.2,3.1,3c0,0.3,0.1,11.1,0.1,19l-0.1,0.1c0,5-3.3,8.9-8.5,8.9
		h-5.2l0.1-26.1l-12.4-0.1v26.3c-6.3,0-10.6,0.1-11.1,0.1c-2.6,0-3.1-2.2-3.1-3.2c0-0.6,0-8.8,0.1-11.8c0-3.4,4.9-4.4,4.9-4.4l0-0.4
		H0.1c0,0,0,12.2-0.1,18.2c0,6.4,5.4,13.7,13.1,13.7h13.9L27,135.6c0,4.9-3.2,7.3-5.9,8.1c-0.1,0-0.1,0.3,0,0.3h42.1v0
		c17.3,0,27-8.5,27-25.5v-45C90.2,56.2,80.5,48.1,63.4,48.1 M78.2,72.3c-0.1,12.5,0.1,37.2,0.1,48.2c0,7.9-6.3,12.1-14.2,12.1
		c-8.8,0-24.4,0-24.4,0l0.1-9.9h6.3c11.5,0,19-8.3,19-19.2l0,0c0.6-11.8,0.3-20.4,0.3-21.7c0-4.7-3.8-13.7-15-13.7H40l0-9.6h24.6
		C72.9,58.6,78.2,64.5,78.2,72.3L78.2,72.3z"/>
	<polygon fill="#FFFFFF" points="89.5,143.1 89.5,139.5 90.8,139.5 90.8,138.7 87.3,138.7 87.3,139.5 88.6,139.5 88.6,143.1 	"/>
	<polygon fill="#FFFFFF" points="96.8,143.1 96.8,138.7 95.3,138.7 94.2,141.6 94.2,141.6 93.2,138.7 91.6,138.7 91.6,143.1 
		92.5,143.1 92.5,139.6 92.5,139.6 93.8,143.1 94.6,143.1 95.9,139.6 95.9,139.6 95.9,143.1 	"/>
</g>
</svg>
