<?xml version="1.0" encoding="utf-8"?>
<!-- Generator: Adobe Illustrator 18.0.0, SVG Export Plug-In . SVG Version: 6.00 Build 0)  -->
<!DOCTYPE svg PUBLIC "-//W3C//DTD SVG 1.1//EN" "http://www.w3.org/Graphics/SVG/1.1/DTD/svg11.dtd">
<svg version="1.1" id="PHI" xmlns="http://www.w3.org/2000/svg" xmlns:xlink="http://www.w3.org/1999/xlink" x="0px" y="0px"
	 viewBox="0 0 278.8 168" enable-background="new 0 0 278.8 168" xml:space="preserve">
<g>
	<g>
		<path fill="#FFFFFF" d="M244.1,121.4l-213.9,0l-0.2,0c-4.4,0.5-7.4,3.8-7.4,8c0,0.1,0,0.2,0,0.4c0.2,4.3,3.5,7.7,7.7,7.8
			c0,0,200.4,0,203.6,0c3.3,4.3,7.6,6.7,12.2,6.4c4.6-0.3,8.5-3.1,10.4-7.3l0.1-0.3l0.1-0.3c1.3-5.4-0.2-8.7-1.7-10.5
			C251.8,121.6,246.3,121.3,244.1,121.4z"/>
		<path fill="#FFFFFF" d="M253.2,74.7c0,0-1.1-0.8-1.7-1.3c-0.4-0.6-2.8-4.6-2.8-4.6l-12.2,8.7l0.1,1.9c0,0.7,0.1,1.5,0.1,2.2
			c0,9.3-4,14.4-7.4,17.1c-0.4,0.3-0.8,0.5-1.1,0.7c5-5.4,6.5-10.4,6.5-14.2c0-2.2-0.5-4-0.9-5.2c-2.6-7-10.3-11.3-18.3-10.1
			c-2.9,0.4-10.2,2.3-15.1,11.3c-1.1-4.5-3.4-14.1-3.5-14.5c0.4-0.4,9.8-9.8,9.8-9.8c0.1-0.1,0.1-0.2,0.1-0.3c0-0.1,0-0.1,0-0.2
			c-0.1-0.2-0.3-0.3-0.5-0.3c0,0-12,0.1-12.6,0.1c-0.2-0.6-5.3-14.9-5.3-14.9c-0.1-0.2-0.2-0.3-0.4-0.3c-0.2,0-0.4,0.1-0.5,0.3
			c0,0-5.7,14.3-6,14.9c-0.2,0-2.1,0-4.4,0c-0.5-2.1-1.3-4-2.2-5.7c-2.3-3.8-5.7-6.1-9.4-6.2c-2.4,0-7.3-0.1-10.7,3.5
			c-1.1,1.2-1.9,2.6-2.5,4.3c-0.4-0.9-0.8-1.7-1.3-2.5c-2.4-3.6-6.1-5.5-10.7-5.3c-3.9,0.1-6.8,1.2-8.9,3.5
			c-1.9,2.1-3.1,4.9-3.4,8.6c-2.4-0.1-4.4-0.3-4.6-0.3c-0.2-0.6-6-14.8-6-14.8c-0.1-0.2-0.3-0.3-0.5-0.3c-0.2,0-0.4,0.1-0.5,0.3
			c0,0-5.3,14.2-5.5,14.8c-0.6,0-12.6,0-12.6,0c-0.2,0-0.4,0.1-0.4,0.3c0,0.1,0,0.1,0,0.2c0,0.1,0,0.2,0.1,0.3c0,0,9.8,11.6,10.2,12
			c-0.1,0.3-2.2,7.3-3.7,12.2c-1.2-5.7-3.8-9.5-7.7-11.3c-3.8-1.8-7.9-1.2-11-0.1c0-6.4,0-19.1,0-19.1c0-0.4,0.1-0.7,0.1-1.1
			c0-3.6-1.5-6.6-4.2-8.3c-3.1-1.9-7.3-1.8-10.5,0.2c-0.2,0.1-0.4,0.3-0.7,0.5c-2-6.1-6.6-10.9-13.5-14.1c-15-6.9-36.3-3.8-47.3,7
			C2.5,41.7-1,50.2,0.3,57.4c0.8,4.4,3.3,7.8,7,9.5c5,2.2,8.8,1.3,11.1,0.1c2.1-1.1,3.7-2.8,5-4.6c0,15.4,0,31.7,0,33.1
			c-4.1,4.7-6.4,9.5-6.4,13.9c0,1.3,0.2,2.5,0.6,3.6c1.2,3.6,4.2,6,8.2,6.7c4.6,0.8,9.6-0.7,13.4-3.9c3.7-3.2,5.8-7.5,5.8-12.2
			c0,0,0-21,0-24.9c8.6-3.2,16.9-7.2,21.9-14c0,17.6,0,45.2,0,45.3c0,0.3-0.1,0.6-0.1,1c0,2.9,1.3,5.3,3.6,6.9
			c3.1,2.1,7.6,2.2,10.9,0.4c2.9-1.6,4.5-4.4,4.5-7.6c0-0.2,0-0.4,0-0.5c0,0,0-20.7,0-21c0.3-0.2,0.8-0.5,1.1-0.4
			c0.1,0,0.2,0.3,0.4,0.7c0,0.9,0,19.4,0,19.4c0.1,5.3,3.1,9.1,8.4,10.5c4.7,1.2,11.2,0.2,15.3-2.7c3.1,2.4,6.5,3.6,10,3.6
			c4.4-0.1,8.1-2.1,10.4-3.7c8.2,6.5,17.8,2.9,23.4-1.2c9.4,7.6,20.1,4.5,26.2,0.7c7.2,6,15.9,4.8,21.6,1.6c0.9-0.5,1.6-1,2.2-1.5
			c9.2,4.8,17.8,5.8,25.4,2.7c3.3-1.4,6.2-3.4,8.7-5.8c0,0,0.1,0.1,0.1,0.1c9.1,8.1,16.3,7.8,20.7,6.1c6.6-2.5,10.9-9.6,11.6-15.1
			c0.2-1.3,0.3-2.5,0.3-3.7C271.5,87.9,261.8,80.9,253.2,74.7z M45.8,59.4c0-3,0-13.7,0-15.9c4.6,0,6.7,2,7.2,6.7
			c0,0.3,0.1,0.7,0.1,1C53,55.1,50.3,58.1,45.8,59.4z M151.7,96.5c-0.5,2.7-1.5,4.5-2.6,4.9c-0.7,0.2-1.7-0.1-2.7-0.8
			c-0.5-0.9-0.9-1.8-0.9-3.7c0-1.1,0.2-2.7,0.6-4.8c2.5-5.6,4.3-10.8,5.7-15.7C151.7,86.4,151.7,96.1,151.7,96.5z M188.7,75.3
			c0.1,0,0.3,0.2,0.6,0.5c-0.3-0.1-0.7-0.2-1-0.2C188.5,75.5,188.7,75.4,188.7,75.3z M177.7,97.7c-0.3,2-1.5,3.5-3.3,4.2
			c-1.4,0.5-2.9,0.3-3.8-0.5c-1-0.9-1.5-2.5-1.5-4.5c0-1.4,0.2-3,0.7-4.8c4.6-9,7.2-17.7,7.8-25.3c0.8,0.7,1.3,1.2,1.4,1.3
			c-0.2,0.6-5.1,16-5.1,16c0,0,0,0.1,0,0.1c0,0.2,0.1,0.3,0.2,0.4c0.2,0.1,0.4,0.1,0.6,0c0,0,1.4-0.9,3.2-2.2
			c-0.2,0.7-0.3,1.5-0.3,2.3c0,0.2,0,0.3,0,0.5C177.7,85.2,177.7,97,177.7,97.7z M195.5,101.6C195.5,101.6,195.5,101.6,195.5,101.6
			c-0.1-1.7-0.1-16.6-0.1-16.6l0-0.1c-0.2-2.5-1-4.5-2-6c2.2,1.7,4.6,3.5,5.8,4.4c-1.7,3.8-3,8.7-3.4,15l0,0.3l0,0.3
			c0,0.3,0,0.6,0,0.8C195.9,100.9,195.7,101.4,195.5,101.6z M253.5,103.4c-0.3,0-1.7-0.3-4-2.6c0,0-1.2-1.2-1.4-1.4
			c1-2.2,1.8-4.2,2.4-5.8c2.1,1.5,3.2,3.8,3.6,5.9c0.1,0.5,0.1,1,0.1,1.5C254.2,102.3,253.8,103.2,253.5,103.4z"/>
		<g>
			<path fill="#284898" d="M187.8,49.6c-0.1,0-0.2,0.1-0.3,0.2c0,0-3.4,9.5-3.5,9.9c-0.4,0-7.7,0-7.7,0c-0.1,0-0.2,0.1-0.3,0.2
				c0,0,0,0.1,0,0.1c0,0.1,0,0.2,0.1,0.2c0,0,6.5,5.7,6.7,5.9c-0.1,0.3-2.9,9.5-2.9,9.5c0,0,0,0.1,0,0.1c0,0.1,0,0.2,0.1,0.2
				c0.1,0.1,0.2,0.1,0.3,0c0,0,7.1-5.5,7.4-5.7c0.3,0.2,7.4,5.7,7.4,5.7c0.1,0.1,0.2,0.1,0.3,0c0.1-0.1,0.1-0.1,0.1-0.2
				c0,0,0-0.1,0-0.1c0,0-2.9-9.2-3-9.5c0.3-0.2,6.7-5.9,6.7-5.9c0.1-0.1,0.1-0.1,0.1-0.2c0,0,0-0.1,0-0.1c0-0.1-0.1-0.2-0.2-0.2
				c0,0-7.4,0-7.7,0c-0.1-0.4-3.4-9.9-3.4-9.9C188,49.7,187.9,49.6,187.8,49.6L187.8,49.6z"/>
			<path fill="#284898" d="M117,49.6c-0.1,0-0.2,0.1-0.3,0.2c0,0-3.4,9.5-3.5,9.9c-0.4,0-7.7,0-7.7,0c-0.1,0-0.2,0.1-0.3,0.2
				c0,0,0,0.1,0,0.1c0,0.1,0,0.2,0.1,0.2c0,0,6.5,5.7,6.8,5.9c-0.1,0.3-2.9,9.5-2.9,9.5c0,0,0,0.1,0,0.1c0,0.1,0,0.2,0.1,0.2
				c0.1,0.1,0.2,0.1,0.3,0c0,0,7.1-5.5,7.4-5.7c0.3,0.2,7.4,5.7,7.4,5.7c0.1,0.1,0.2,0.1,0.3,0c0.1-0.1,0.1-0.1,0.1-0.2
				c0,0,0-0.1,0-0.1c0,0-2.9-9.2-3-9.5c0.3-0.2,6.7-5.9,6.7-5.9c0.1-0.1,0.1-0.1,0.1-0.2c0,0,0-0.1,0-0.1c0-0.1-0.1-0.2-0.2-0.2
				c0,0-7.4,0-7.7,0c-0.1-0.4-3.4-9.9-3.4-9.9C117.2,49.7,117.1,49.6,117,49.6L117,49.6z"/>
		</g>
		<g>
			<path fill="#E81828" d="M251.4,77.1l-2.2-1.6c0,0-1.2-2-1.2-2l-0.2-0.3l-8.1,5.8l0,0.2c0.9,15.1-7,21.5-11.9,24
				c-4.6,2.4-9,2.5-10.2,1.6c-0.2-0.1-0.2-0.3-0.2-0.4c0,0,0-0.1,0-0.1c9.1-5.9,14.2-12.8,14.2-19.1c0-1.4-0.2-2.8-0.7-4.1
				c-2.1-5.7-8.4-9.1-15-8.2c-3.6,0.5-15.4,3.9-17,25.7c0.4,4-1.2,5.8-2.7,6.2c-1.5,0.4-3.1-0.6-3.8-2.4l0-17.1
				c-0.5-5.3-3.4-6.9-6-6.7c-3,0.2-6,3-5.7,6.7v13.7c-0.4,3-2.2,5.3-4.9,6.3c-2.5,0.9-5.2,0.4-7-1.3c-1.6-1.4-3.9-5-1.7-12.9
				c9.7-18.8,9-32.5,5.1-39c-1.7-2.9-4.2-4.6-6.8-4.7c-3.1,0-6.2,0.2-8.3,2.5c-1.9,2-2.6,5.3-2.3,9.8v37.3c-1,5.1-3.1,6.8-4.7,7.4
				c-1.9,0.7-4.1,0-6.1-1.7c0,0-0.3-0.5-0.3-0.5c-0.7-1.3-1.3-2.5-1.3-5.1c0-1.4,0.2-3.2,0.6-5.7c5.2-11.6,7.9-22,7.9-29.7
				c0-4.3-0.8-7.8-2.5-10.2c-1.8-2.7-4.6-4.1-8.1-4c-3,0.1-5.3,0.9-6.8,2.6c-2,2.1-2.9,5.6-2.7,10.6V100c0,2.1-0.8,3.6-2.2,4.4
				c-1.4,0.8-3.1,0.7-4.4-0.2c-1.3-0.8-2-2.3-1.8-4V85.5c0.1-3.1-1-5.5-3.1-6.7c-1.7-1-3.8-0.9-5.5,0.1c-2,1.3-3.1,3.7-2.9,6.7v15.8
				c-0.1,2.6-2.3,3.6-4.1,3.6c-2.2,0.1-4.6-1.2-4.8-3.7V84.4c-0.8-6.2-2.9-10.2-6.4-11.9c-5.1-2.4-11.2,0.8-12.7,1.7
				c0-1,0-23.8,0-23.8c0-0.4,0.1-0.8,0.1-1.1c0-2.5-1-4.5-2.8-5.6c-2.1-1.3-5.1-1.2-7.3,0.2c-1.9,1.2-3,3.2-3,5.6
				c0,0.3,0,0.6,0.1,0.9V110c0,0.3-0.1,0.7-0.1,1c0,1.8,0.8,3.4,2.3,4.4c2.1,1.5,5.4,1.5,7.7,0.2c2-1.1,3-3,2.9-5.4V88.9
				c-0.2-1.3,1.2-2.8,3.1-3.2c0.8-0.2,3.6-0.5,4.4,3.2l0,19.8c0.1,3.8,2.2,6.5,6.2,7.6c5.2,1.4,12.1-0.5,14.4-3.9
				c3.1,3.1,6.5,4.7,10.1,4.6c5.5-0.1,9.6-3.8,10.5-4.7c9.7,10.2,21.9,0.2,23.4-1.1c11.3,11.5,24.8,2,26.4,0.8
				c6.3,6.7,14.4,5.9,19.9,2.8c1.4-0.8,2.7-1.8,3.1-2.7c9.2,5.4,17.6,6.7,24.9,3.7c13.5-5.5,19-23.9,19.7-26.6
				c5.6,1.5,8.1,6.5,8.5,10.3c0.1,0.4,0.1,0.8,0.1,1.2c0,2.5-0.9,4.5-2.4,5.3c-1.9,0.9-4.5-0.3-7.5-3.3l-0.1-0.1l-0.2,0.1
				c-2.4,0.9-6.1,7.3-6.2,7.6l-0.1,0.2l0.2,0.2c8,7.1,14,6.9,17.6,5.6c5.8-2.2,9.2-8.7,9.7-12.6c0.2-1.2,0.2-2.3,0.2-3.3
				C268.4,89.5,260.2,83.5,251.4,77.1z M139.6,79.6l-0.4,0.1V56.2l0.2-0.1c0.5-0.2,0.9-0.2,1.4,0.1c1.8,1.1,2.5,6.4,2.6,8.4
				C142.7,74.4,141.5,79.3,139.6,79.6z M163.4,79.6l-0.4,0.1V56.2l0.2-0.1c0.5-0.2,0.9-0.2,1.3,0.1c1.7,1,2.4,5.7,2.6,8.3l-0.1,0.8
				C166.6,71.7,165.8,79.2,163.4,79.6z M209.6,95.6c-0.3-0.2-0.5-0.5-0.6-0.9c-0.3-1.7,0.8-5.4,3.3-8.4l0,0c1.1-2,3.5-3.7,5.9-4.4
				c1.4-0.3,2.6-0.3,3.4,0.2c0.2,0.2,0.4,0.7,0.5,1.3c0.2,2.1-0.6,5.5-2.7,7.9c-2.2,2.6-6,4.7-8.3,4.8
				C210.4,96.2,209.9,96,209.6,95.6z"/>
			<g>
				<g>
					<path fill="#E81828" d="M55.7,30.4c-13.8-6.3-33.9-3.4-44,6.4c-6.4,6.3-9.6,13.8-8.5,20c0.6,3.4,2.5,6,5.3,7.3
						c3.3,1.5,6.2,1.5,8.6,0.2c5-2.7,6.2-10.1,6.3-10.4l0.1-0.4l-0.4,0c-1.3,0-2.9-0.2-3.2-1.7c0-0.2-0.1-0.3-0.1-0.5
						c0-2.5,3.1-6.5,7.4-8.4c0,1,0,53.4,0,53.6c-4.4,4.7-6.8,9.5-6.8,13.3c0,0.9,0.1,1.7,0.4,2.5c0.8,2.3,2.7,3.8,5.4,4.3
						c3.7,0.6,8-0.6,11.2-3.3c3-2.6,4.7-6,4.7-9.8c0,0,0-26.5,0-26.9c16.1-5.8,25.6-12,26.4-26.1c0-0.5,0-1,0-1.5
						C68.6,40.9,64,34.2,55.7,30.4z M44.5,63l-1.8,0.3V40.6l1.4-0.1c7.1-0.5,11.1,2.7,11.9,9.3C56.7,56.4,52.2,61.6,44.5,63z"/>
				</g>
			</g>
			<path fill="#E81828" d="M30.4,124.7c-6.5,0.8-5.5,9.4,0.1,9.6h205c5.9,9.5,15.2,7.3,18,1.1c2.3-9.5-5.7-10.7-9.3-10.6H30.4z"/>
		</g>
	</g>
	<g>
		<path fill="#E81828" d="M270.6,74.7h-1.8v4.9h-1.2v-4.9h-1.8v-1.1h4.8V74.7z M278.8,79.6h-1.2v-4.7h0l-1.7,4.7h-1.2l-1.7-4.7h0
			v4.7h-1.2v-5.9h2.1l1.4,3.9h0l1.4-3.9h2.1V79.6z"/>
	</g>
</g>
</svg>
