<?xml version="1.0" encoding="utf-8"?>
<!-- Generator: Adobe Illustrator 17.1.0, SVG Export Plug-In . SVG Version: 6.00 Build 0)  -->
<!DOCTYPE svg PUBLIC "-//W3C//DTD SVG 1.1//EN" "http://www.w3.org/Graphics/SVG/1.1/DTD/svg11.dtd">
<svg version="1.1" id="Layer_1" xmlns="http://www.w3.org/2000/svg" xmlns:xlink="http://www.w3.org/1999/xlink" x="0px" y="0px"
	 viewBox="0 0 591 168" style="enable-background:new 0 0 591 168;" xml:space="preserve">
<path style="fill:#FDB827;" d="M80.005,63.828c0-6.112,0.858-12.749,4.695-19.342C74.579,41.975,66.774,32.435,64.249,24
	c-4.199,4.102-8.314,5.056-14.824,5.056L5.92,28.995L0,43.802c3.578,1.542,5.92,4.936,5.92,9.008v67.832
	c0,4.072-2.343,7.464-5.92,9.005L5.92,144h16.613l5.926-14.353c-3.579-1.479-5.926-4.996-5.926-9.005v-26.74l26.892,0.013
	c6.511,0,10.626,1.605,14.824,5.706c2.739-8.436,10.979-14.724,21.1-17.233C81.512,75.793,80.005,69.94,80.005,63.828
	 M57.046,79.183H22.615V43.294h34.431c5.452,0,8.867,3.434,8.867,7.99v20.503C65.912,76.569,63.213,79.183,57.046,79.183"/>
<polygon style="fill:#FDB827;" points="29.762,143.623 29.762,139.961 31.107,139.961 31.107,139.163 27.506,139.163 
	27.506,139.961 28.851,139.961 28.851,143.623 "/>
<polygon style="fill:#FDB827;" points="37.209,143.623 37.209,139.163 35.641,139.163 34.561,142.078 34.539,142.078 
	33.502,139.163 31.926,139.163 31.926,143.623 32.836,143.623 32.836,140.076 32.854,140.076 34.103,143.623 34.984,143.623 
	36.277,140.076 36.298,140.076 36.298,143.623 "/>
</svg>
