<?xml version="1.0" encoding="utf-8"?>
<!-- Generator: Adobe Illustrator 18.0.0, SVG Export Plug-In . SVG Version: 6.00 Build 0)  -->
<!DOCTYPE svg PUBLIC "-//W3C//DTD SVG 1.1//EN" "http://www.w3.org/Graphics/SVG/1.1/DTD/svg11.dtd">
<svg version="1.1" id="TEX" xmlns="http://www.w3.org/2000/svg" xmlns:xlink="http://www.w3.org/1999/xlink" x="0px" y="0px"
	 viewBox="0 0 126 168" enable-background="new 0 0 126 168" xml:space="preserve">
<g>
	<g>
		<g>
			<g>
				<path fill="#FFFFFF" d="M63,21C28.3,21,0,49.3,0,84s28.3,63,63,63c34.7,0,63-28.3,63-63S97.7,21,63,21z"/>
				<path fill="#FFFFFF" d="M121.1,84c0-0.4,0-0.7,0-1.1h-18.1c-0.3-9.8-4.1-19.5-11.6-27c-15.6-15.6-40.8-15.5-56.3,0
					C27.5,63.4,23.7,73.2,23.4,83L4.9,83c0,0.3,0,0.7,0,1c0,0.1,0,0.2,0,0.3c0,0.3,0,0.5,0,0.8h18.5c0.2,9.9,4.1,19.6,11.6,27.2
					c15.6,15.5,40.8,15.5,56.3,0c7.5-7.5,11.4-17.4,11.6-27.3h18.1c0-0.3,0-0.5,0-0.8C121.1,84.1,121.1,84.1,121.1,84z"/>
				<g>
					<path fill="#C0111F" d="M63,25.9C31.3,25.9,5.5,51.4,4.9,83l0,0l18.5,0c0.3-9.8,4.1-19.6,11.6-27.1c15.6-15.5,40.8-15.6,56.3,0
						c7.5,7.5,11.3,17.2,11.6,27h18.1c0,0.4,0,0.7,0,1.1l0,0C121.1,52,95,25.9,63,25.9z"/>
					<path fill="#003278" d="M63,23.1C29.4,23.1,2.1,50.4,2.1,84c0,33.6,27.2,60.9,60.9,60.9c33.6,0,60.9-27.3,60.9-60.9
						C123.9,50.4,96.6,23.1,63,23.1z M47.4,120.6c0.4,0,0.7,0,1.1-0.1c0.4,0.5,0.8,0.7,1.2,1C48.9,121.2,48.2,120.9,47.4,120.6z
						 M121.1,84.2c0,0.3,0,0.5,0,0.8H103c-0.2,9.9-4.1,19.7-11.6,27.3C80.4,123.2,64.7,126.4,51,122l0.3-0.4c-0.9-0.2-2-1-2.6-1.6
						c-1.4,0.4-2.2-0.3-3.2-0.6l-0.1,0.3c-3.7-1.9-7.2-4.3-10.3-7.4c-1.5-1.5-2.8-3.1-3.9-4.7c0.4,0.2,0.8,0.5,1.2,0.6l-0.4-0.6
						c0,0-1-0.7-1.8-1.3c-0.7-1-1.3-2-1.8-3c1.2,1.1,2,1.3,2.9,1.7l-0.3-1.3c-0.8-0.2-2.3-0.9-3.4-2c-2.6-5.2-3.9-10.9-4.1-16.6H4.9
						c0-0.3,0-0.5,0-0.8c0-0.1,0-0.2,0-0.3c0,0,0,0,0,0c0-0.3,0-0.7,0-1C5.5,51.4,31.3,25.9,63,25.9c32,0,58.1,26.1,58.1,58.1l0,0
						C121.1,84.1,121.1,84.1,121.1,84.2z"/>
				</g>
				<g>
					<path fill="#FFFFFF" d="M20.9,102.1c0.7-0.3,1.2-0.7,1.4-1.5c0.4-1,0.3-2.4-0.2-3.7l-1.4-3.8l-0.2,0.2c0,0-0.8,0.7-0.8,0.7
						c0,0-0.9,0.3-0.9,0.3S17,95.1,17,95.1c0,0-1.1-0.5-1.1-0.5l-0.2-0.1c0,0-0.6,1.2-0.6,1.4C14.9,95.9,12,97,12,97
						c0,0-1-0.1-1-0.1l-0.3,0l1.3,3.5c0,0,1-1,1-1c0,0,2.5-0.9,3.2-1.2c0,0.1,0.2,0.5,0.2,0.7c-0.1,0.2-3.6,3.9-3.6,3.9l1,2.8
						c0,0,0.9-1.3,0.9-1.4c0.1-0.1,2.9-3,3.1-3.3C18.7,102,19.9,102.5,20.9,102.1z M20.9,98.6c-0.1,0.4-0.5,0.7-0.9,0.9
						c-0.5,0.2-1,0.1-1.4-0.1l0,0c-0.3-0.2-0.6-0.4-0.7-0.8c0,0-0.2-0.6-0.3-0.9c0.3-0.1,2.8-0.9,3.1-1c0.1,0.2,0.3,0.8,0.3,0.8
						c0.1,0.2,0.1,0.5,0.1,0.7C21,98.3,21,98.4,20.9,98.6z"/>
					<path fill="#FFFFFF" d="M30.1,111.9c0,0-4.1,1.4-4.1,1.4c0,0-1.2-0.3-1.2-0.3l-0.2,0c0,0-0.5,1-0.6,1.2c-0.2,0-3.4,1.2-3.4,1.2
						s0,0,0,0c-0.1,0-0.4,0-1.1,0.1c0,0-0.5,0.1-0.5,0.1l2.1,2.4c0,0,0.5-1,0.5-1.2c0.1,0,1.3-0.5,1.5-0.6c0.2,0.2,2.1,2.4,2.2,2.5
						c-0.1,0.2-0.7,1.3-0.8,1.4c-0.1,0-1.2,0.4-1.2,0.4l2.7,3.1c0,0,0.4-1.6,0.4-1.6c0,0,0.7-1.1,0.7-1.1s1.1-1.9,1.1-1.9
						c0,0,1.1-0.4,1.1-0.4l0.1-0.1c0,0-0.2-1.5-0.2-1.5c0,0,1.9-3.9,1.9-3.9l0.1-0.1l-1.1-1.2L30.1,111.9z M27.8,114.5
						c-0.4,0.6-1.3,2.3-1.5,2.7c-0.3-0.3-1.2-1.3-1.4-1.6C25.2,115.5,27.1,114.8,27.8,114.5z"/>
					<path fill="#FFFFFF" d="M46.8,125.5c0,0-1.4,2.8-1.4,2.8s-0.4,0.8-0.7,1.4c-0.2-1-1.3-7.3-1.3-7.3l-2.7-1.3l0,0.3
						c0,0,0.1,1.3,0.1,1.3c0,0-0.7,1.4-0.7,1.4s-0.5,0.9-0.5,1c-0.1,0.1-1.3,0.5-1.3,0.5s0.4,1.4,0.4,1.4c0,0-1,1.9-1,1.9
						s-0.5,1.1-0.5,1.1c0,0-0.9,0.6-0.9,0.6l-0.3,0.2l3.1,1.5c0,0-0.2-1.5-0.2-1.5c0,0,1.9-3.9,2.6-5.2c0.2,1,1.5,8.8,1.5,8.8
						l1.3,0.6c0,0,2-4.2,2-4.2c0,0,1.1-0.4,1.1-0.4l0.1-0.1c0,0-0.3-1.3-0.3-1.3c0,0,0.8-1.6,0.8-1.6s0.5-1,0.5-1.1
						c0,0,0.8-0.6,0.8-0.6l0.2-0.2l-3-1.5C46.7,123.9,46.8,125.5,46.8,125.5z"/>
					<path fill="#FFFFFF" d="M65.9,134c0,0,0,1,0,1l0,1.9c-0.2,0.1-0.5,0.3-1.2,0.3c-1.9,0-3-1.7-3.2-3.3c0,0,0.8-0.8,0.8-0.8
						l0.1-0.1c0,0-0.8-0.9-0.9-1c0,0,0.1-0.3,0.1-0.3c0.4-1.3,1.4-2.7,3.2-2.7c1.3,0,2.2,0.3,2.7,0.9c0,0,0.2,0.2,0.2,0.2l0.3,0.4
						l0.1-2l-0.1-0.1c-0.9-0.6-1.7-0.8-3.1-0.9c-2.7,0-5.2,1.6-6,4c0,0-0.1,0.5-0.1,0.5c0,0-0.8,0.8-0.8,0.8l-0.1,0.1l0.9,1.1
						c0.5,2.7,3.1,4.7,6,4.8c2.1,0,2.7-0.3,3.4-0.6l0.4-0.2c0,0,0-3.8,0-3.8c0,0,0.5-0.9,0.5-0.9l0.2-0.3l-3.9,0
						C65.2,132.7,65.9,134,65.9,134z"/>
					<path fill="#FFFFFF" d="M87.4,131.1c0,0-1.6,0.7-1.6,0.7s-0.6,0.3-0.9,0.4c-0.1-0.2-1.2-2.9-1.3-3.2c0.3-0.1,1.8-0.8,1.8-0.8
						c0,0,1.1-0.1,1.1-0.1l0.3,0l-0.9-2.3l-1,0.9c0,0-1.7,0.7-1.7,0.7s0,0,0,0c-0.1-0.3-1-2.3-1.1-2.6c0.3-0.1,2.5-1.1,2.6-1.1
						c0.1,0,1.9,0.1,1.9,0.1l-0.9-2.2l-0.3,0.1l-6.9,3l1.2,0.9c0,0.1,1.1,2.7,1.2,2.9c-0.1,0.1-0.6,1.3-0.6,1.3s1.2,0.4,1.4,0.5
						c0.1,0.1,1.2,3,1.2,3c0,0-0.1,1.1-0.1,1.1l0,0.3l7.1-3.1l-0.9-2.1C88.7,129.6,87.4,131.1,87.4,131.1z"/>
					<path fill="#FFFFFF" d="M101.3,114.7c0.2-0.4,0.3-0.9,0.3-1.3c0-0.8-0.3-1.6-0.8-2c-0.6-0.5-1.2-0.7-2-0.6
						c-1,0.1-2.2,0.9-3.1,2l-2.6,3.1c0,0,1.3,0.4,1.4,0.4l0,0c0,0,2.2,1.9,2.2,2c0,0,0,0,0,0.1c0,0.3,0.1,1.2,0.1,1.2l0,0.2
						c0,0,1.3-0.1,1.5-0.1c0.1,0.1,2.5,2.2,2.5,2.2c0,0,0.4,0.9,0.4,0.9l0.1,0.3l2.4-2.8l-1.4-0.4c0,0-2-1.8-2.6-2.2
						c0.1-0.1,0.4-0.4,0.5-0.5c0.2,0,5.2,1.2,5.2,1.2l2-2.3c0,0-1.6-0.1-1.6-0.1C105.7,115.8,101.7,114.8,101.3,114.7z M99.5,114.9
						c0,0.4-0.1,0.7-0.4,1c0,0-0.4,0.5-0.6,0.7c-0.3-0.2-2.2-2-2.4-2.2c0.2-0.2,0.5-0.6,0.5-0.6c0.3-0.4,0.6-0.6,1-0.6
						c0.4-0.1,0.8,0.1,1.2,0.4C99.3,113.9,99.5,114.4,99.5,114.9C99.5,114.9,99.5,114.9,99.5,114.9z"/>
					<path fill="#FFFFFF" d="M114.7,97.9c-0.4-0.9-1.2-1.6-2.1-1.8c-0.4-0.1-1-0.1-1.3,0l0,0c-0.6,0.1-1,0.5-1.2,0.7
						c0,0-0.7,0.7-0.7,0.7c0,0-0.2,0.3-0.3,0.4c-0.1,0-1,0-1,0s-0.3,1.2-0.3,1.3c0,0-0.1,0.1-0.1,0.1c-0.8,0.8-1.3,0.8-1.5,0.7
						c-0.5-0.2-1.3-0.9-0.9-2c0.3-0.9,0.7-1.4,1.3-1.7l0.1-0.1l0-0.2l-0.4-1L106,95c-0.7,0.4-1.4,1.3-1.8,2.6
						c-0.6,1.8-0.2,4,1.6,4.7c0.3,0.1,0.7,0.2,1.1,0.2c0.5-0.1,1-0.4,1.5-0.7c0,0,0.3-0.3,0.3-0.3c0,0,0.1-0.1,0.1-0.1
						c0,0,0.8,0.1,0.8,0.1h0.1c0,0,0.4-1.4,0.4-1.4c0,0,1-1.1,1-1.1c0.4-0.3,0.9-0.6,1.2-0.5c0.6,0.2,0.9,0.5,1.2,0.9
						c0.3,0.6,0.3,1.3,0.1,2c-0.5,1.3-1.4,1.7-2.1,1.8l-0.2,0l0,0.2l0.4,1l0.2,0c0.8-0.1,2.2-1,2.8-2.9
						C115.2,100.1,115.2,98.9,114.7,97.9z"/>
					<path fill="#FFFFFF" d="M30.2,54.6c0,0-2.5-2.2-2.6-2.2c0,0,0,0,0,0c0-0.2-0.2-1.1-0.2-1.1l0-0.2c0,0-1.1,0.1-1.3,0.1
						c-0.1-0.1-1.9-1.6-2.1-1.8c0.2-0.2,1.1-1.3,1.1-1.3c0,0,1.4-0.6,1.4-0.6l0.3-0.1L24.8,46l-0.1,0.1l-5.6,6.7l1.8,1.5l0.4-1.7
						c0,0,0.8-1,1.1-1.3c0.3,0.2,2,1.7,2.1,1.8c0,0.1,0.2,1.3,0.2,1.3s1.2-0.1,1.3-0.1c0.1,0.1,2.6,2.2,2.6,2.2c0,0,0.4,1,0.4,1
						l0.1,0.3l2.4-2.9C31.5,54.8,30.2,54.6,30.2,54.6L30.2,54.6z"/>
					<path fill="#FFFFFF" d="M38.2,41c-0.1,0.1-0.5,1.3-0.5,1.3s1.2,0.4,1.4,0.4c0.1,0.1,1.5,3,1.5,3c0,0,0,1,0,1V47l6.7-3.5l-1-2
						c0,0-1.1,1.5-1.1,1.5c0,0-2.2,1.1-2.6,1.4c-0.2-0.3-1.5-2.9-1.6-3.2c0.3-0.1,1.8-1,1.8-1c0,0,1-0.1,1-0.1l0.3,0l-1-2
						c0,0-0.9,0.9-0.9,0.9c0,0-1.4,0.7-1.8,0.9c-0.1-0.3-1.2-2.3-1.3-2.5c0.3-0.2,2.7-1.4,2.7-1.4c0,0,1.5,0,1.5,0l0.3,0l-1.1-2.1
						l-0.2,0.1l-6.6,3.5l1.2,0.7C36.7,38.2,38,40.7,38.2,41z"/>
					<path fill="#FFFFFF" d="M79.7,42.7c0.1-0.1,1.1-1.1,1.2-1.2c0.2,0.1,3,1.4,3.2,1.5c0,0.2-0.2,1.6-0.2,1.7
						c-0.1,0.1-0.9,0.8-0.9,0.8l3.5,1.6l-0.3-1.5c0,0,0.5-3.4,0.5-3.4c0,0,1-0.8,1-0.8l0.1-0.1c0,0-1-1.2-1-1.2c0,0,0.2-4.5,0.2-4.5
						l0-0.1l-1.4-0.7l-0.1,0.1c0,0-3.4,3.1-3.4,3.1c0,0-1.3,0.2-1.3,0.2l-0.2,0c0,0,0,1.1,0,1.3c-0.1,0.1-2.7,2.4-2.7,2.4
						c0,0-0.9,0.6-0.9,0.6L77,42.7l2.7,1.3C79.7,43.9,79.7,42.9,79.7,42.7z M82.1,40.4c0.3-0.3,2.1-1.9,2.6-2.4
						c-0.1,0.7-0.4,3.1-0.4,3.5C83.9,41.3,82.5,40.6,82.1,40.4z"/>
					<path fill="#FFFFFF" d="M98.2,57.6c0.8,0.3,1.7,0.2,2.6-0.3c0.4-0.2,0.7-0.6,0.9-0.9c0.3-0.5,0.4-1.1,0.4-1.3l0-0.9
						c0,0,0-0.4,0-0.5c0.1-0.1,0.7-0.7,0.7-0.7s-0.6-1.1-0.7-1.1c0,0,0,0,0-0.1c0-0.1,0-0.2,0-0.2c0-0.8,0.2-1.4,0.6-1.6
						c0.5-0.2,1.7-0.2,2.2,0.9c0.4,0.9,0.5,1.5,0.3,2.2l0,0.2l1,0.4l0.1-0.2c0.3-1-0.2-2.4-0.5-3.1c-0.8-1.6-2.6-3-4.4-2.2
						c-0.3,0.1-0.6,0.3-0.9,0.7c-0.3,0.4-0.5,1-0.5,1.5l0,0.4c0,0,0,0.2,0,0.2c0,0-0.6,0.5-0.6,0.5l-0.1,0.1c0,0,0.7,1.3,0.7,1.3
						c0,0,0,0,0,0c0,0.2,0.1,1.4,0.1,1.4c0,0.5-0.3,1.1-0.6,1.3c-0.4,0.3-0.9,0.3-1.4,0.2c-0.5-0.1-1.2-0.5-1.7-1.5
						c-0.6-1.3-0.2-2.3,0.2-2.9l0.1-0.2l-1-0.4l-0.1,0.1c-0.6,0.7-0.8,2.4,0.1,4C96.1,56.3,97.1,57.3,98.2,57.6z"/>
					<path fill="#FFFFFF" d="M60.4,39.9c0.1-0.1,1.9-2.4,2.2-2.8c0.3,0.4,1.9,2.9,1.9,2.9c0,0,0,0,0,0c0,0.1,0.1,0.8,0.1,0.8l0,0.2
						l3.7,0l-1.3-1.3c0,0-2.1-3.1-2.4-3.6c0.1-0.2,0.5-0.7,0.5-0.7s-0.5-0.5-0.6-0.7c0.2-0.2,2.5-3.3,2.5-3.3L68,30l-3.3,0l0.1,0.3
						c0,0,0.3,0.6,0.3,0.8c-0.1,0.2-1.7,2.3-2,2.7c-0.3-0.4-1.8-2.7-1.8-2.8c0,0,0,0,0,0c0-0.1-0.1-0.8-0.1-0.8l0-0.2l-3.5,0
						l1.1,1.3c0,0,1.9,2.9,2.2,3.4c-0.1,0.2-0.5,0.8-0.5,0.8s0.6,0.5,0.7,0.7c-0.2,0.3-2.7,3.5-2.7,3.5c0,0-1,0.9-1,0.9l-0.4,0.3
						l3.3,0C60.6,40.9,60.4,40,60.4,39.9z"/>
				</g>
				<polygon fill="#FFFFFF" points="109.7,64.6 111.1,69 115.7,69 112,71.7 113.4,76.1 109.7,73.4 105.9,76.1 107.4,71.7 103.6,69 
					108.2,69 				"/>
				<polygon fill="#FFFFFF" points="15.9,64.6 17.4,69 22,69 18.3,71.7 19.7,76.1 15.9,73.4 12.2,76.1 13.6,71.7 9.9,69 14.5,69 
									"/>
			</g>
		</g>
		<path fill="#003278" d="M99.6,139.1h-1.3v3.4h-0.9v-3.4h-1.3v-0.7h3.4V139.1z M105.3,142.5h-0.8v-3.3h0l-1.2,3.3h-0.8l-1.2-3.3h0
			v3.3h-0.9v-4.2h1.5l1,2.7h0l1-2.7h1.5V142.5z"/>
	</g>
	<g>
		<path fill="#003278" d="M60.3,45.2c0,0-0.6-0.5-1-0.7c-0.3,0-0.6,0.1-0.9,0.1c0.3,0.1,1.2,0.5,1.4,0.7L60.3,45.2z"/>
		<path fill="#003278" d="M58.5,45.7c0,0-0.6-0.5-1.5-1c-0.4,0.1-0.7,0.1-1.1,0.2c0.7,0.2,1.3,0.6,1.9,0.9L58.5,45.7z"/>
		<path fill="#003278" d="M55,46.7l1.1-0.3c0,0-1.4-0.7-1.9-0.7c-0.3-0.1-0.4-0.2-0.6-0.3c-0.5,0.1-0.9,0.2-1.4,0.4
			c0.3,0.1,0.9,0.2,1.2,0.4C54.1,46.1,54.6,46.5,55,46.7z"/>
		<path fill="#003278" d="M52.3,47.9l1.1-0.4c-0.1-0.2-1.5-0.8-2.3-0.8c-0.3-0.2-0.6-0.3-0.8-0.3c-0.4,0.1-0.8,0.3-1.2,0.4
			c0.1,0,0.9,0.2,1.2,0.5C51.1,47.2,51.8,47.6,52.3,47.9z"/>
		<path fill="#003278" d="M47.4,48.4c0.8-0.1,1.7,0.4,2.2,0.7l1.1-0.3c-0.6-0.5-1.7-1-2.4-1c-0.3-0.4-0.8-0.2-1.2-0.2l-1.4,0.6
			C45.9,48.3,47.2,48,47.4,48.4z"/>
		<path fill="#003278" d="M46.8,50.9l1-0.8c-0.8-0.4-2-0.6-2.6-0.6c-0.3-0.1-0.3-0.2-0.6-0.3L43.2,50c0.2,0,1.3,0,1.5,0.4
			C45.5,50.3,46.3,50.6,46.8,50.9z"/>
		<path fill="#003278" d="M41.1,53.1c0.9-0.2,2.3-0.5,3.6-0.2l1-0.9c-1.5-0.3-3.1-0.2-3.9,0c-0.2-0.3-0.6-0.6-0.6-0.6l-1,0.8
			C40.6,52.3,40.8,52.7,41.1,53.1z"/>
		<path fill="#003278" d="M38.4,56.1c0.8-0.4,2.5-0.7,4.2-0.4l0.9-1.1c-2.6-0.2-3.6,0.1-4.5,0.5c-0.3-0.5-0.7-0.7-0.7-0.7l-0.8,0.7
			C38,55.2,38.1,55.7,38.4,56.1z"/>
		<path fill="#003278" d="M36.6,58.3c-0.3-0.5-0.8-0.9-0.8-0.9l-0.6,1c0.6,0.3,0.5,0.7,0.8,1.1c0.8-0.4,2.3-1.1,4.1-0.9l0.9-1.1
			C38.3,57.4,36.8,57.7,36.6,58.3z"/>
		<path fill="#003278" d="M34.7,61.7c-0.3-0.7-1-1.4-1-1.4l-0.5,1.1c0.4,0.3,0.7,1.1,1,1.5c0.8-0.4,1.8-1.1,3.5-0.9l0.8-1.3
			C36.3,60.6,34.9,61.1,34.7,61.7z"/>
		<path fill="#003278" d="M33.1,65c-0.3-0.9-1.1-1.6-1.1-1.6l-0.5,1.2c0.6,0.3,0.7,1.1,1,1.5c0.8-0.4,1.9-1.1,3.6-0.9l0.7-1.3
			C34.8,63.9,33.3,64.4,33.1,65z"/>
		<path fill="#003278" d="M31.6,68.9c-0.4-0.8-1.2-1.7-1.2-1.7l-0.4,1.3c0.6,0.3,0.8,1.1,1.1,1.5c0.8-0.4,1.7-1,3.4-0.8l0.5-1.2
			C32.4,68.1,31.8,68.3,31.6,68.9z"/>
		<path fill="#003278" d="M30,72.5c-0.3-0.5-1.2-1.6-1.2-1.6l-0.3,1.3c0.6,0.3,0.8,1.1,1.1,1.5c0.8-0.4,2-1.1,3.8-0.9l0.4-1.3
			C31.3,71.6,30.2,71.9,30,72.5z"/>
		<path fill="#003278" d="M29.1,76.8c-0.3-0.5-1.5-2.1-1.5-2.1L27.3,76c0.6,0.5,1,1.5,1.3,1.9c0.8-0.4,2-1.5,3.7-1.2l0.3-1.1
			C30.1,75.7,29.7,76,29.1,76.8z"/>
		<path fill="#003278" d="M28,82.3c0.3-0.7,1.6-1.3,3.3-1.1l0.2-1.2c-2,0.1-3,0.5-3.2,1c-0.3-0.5-1.8-2-1.8-2l-0.2,1.3
			C27.3,81.1,27.7,81.9,28,82.3z"/>
		<path fill="#003278" d="M27.4,86.8c0.1-0.1,0.1-0.3,0.3-0.5c0.3-0.4,1.2-0.9,3.1-0.8l0.1-1.2c-2.2,0-2.9,0.6-3.1,0.8
			c-0.2,0.1-0.2,0.4-0.3,0.6c-0.3-0.9-1.8-2.3-1.8-2.3l-0.1,1.3C26.2,84.9,27.2,86.5,27.4,86.8z"/>
		<path fill="#003278" d="M30.6,94.2l0-1.3c-1.6-0.7-2.5-0.6-3.1-0.3c-0.3-0.5-1.9-1.1-1.9-1.1l0.1,1.3c0.7,0.2,1.5,0.6,1.8,1
			C28.1,93.4,29.2,93.4,30.6,94.2z"/>
		<path fill="#003278" d="M27.3,90.4c0.4-0.6,0.8-0.9,3.3-0.4l0-1.2c-3-0.1-3,0.1-3.1,0.5c-0.3-0.5-2-2-2-2l0,1.4
			C26.1,89.1,27,90,27.3,90.4z"/>
		<path fill="#003278" d="M27.6,97.3c0.1-0.4,0.6-0.2,1.2,0.1c0.6,0.3,1,0.5,1.6,0.9l0-1.3c-1.4-0.9-2.7-1.6-2.9-1
			c-0.3-0.5-1.7-1.1-1.7-1.1l0.3,1.4C26.9,96.5,27.4,96.9,27.6,97.3z"/>
		<path fill="#003278" d="M28,100.4c0.7-0.1,1.2,0.2,2.6,1.2l-0.1-1.2c-1.4-1.2-2.1-1.1-2.6-1.1c-0.3-0.5-1.4-1.1-1.4-1.1l0.2,1.3
			C27.2,99.7,27.7,100,28,100.4z"/>
		<path fill="#003278" d="M86.6,89.6c-0.5-0.3-1.2-0.8-2.6-2.3l-1,0.6c0.5,0.4,2.6,2.8,3.6,2.5c0,0-0.5,3.1-0.4,4.6l1.1-0.7
			c0-0.8,0-4.3,0.2-5.2C87.6,89.1,86.9,89.8,86.6,89.6z"/>
		<path fill="#003278" d="M89.6,87.5c-1.1-1.6-1.8-2.3-2.4-2.7l-0.8,0.6c0.3,0.1,1.2,1,2.4,2.8L89.6,87.5c0.1,2.1,0.2,4,0,5l0.9-0.7
			c0.2-1.5,0.1-3.2-0.1-4.8L89.6,87.5z"/>
		<path fill="#003278" d="M49.7,118c-1.4,0.4-2.8-0.3-3.8-0.6l-0.3,0.8c1.4,0.7,2.7,0.6,3.8,0.4c0.6,0.8,1,1.2,2.3,1.7l0.4-0.6
			C50.8,119.5,50.3,118.9,49.7,118z"/>
		<path fill="#003278" d="M50.7,115.7c-1.4,0.4-3-0.2-4-0.5l-0.4,0.9c1.5,0.5,2.9,0.6,3.9,0.4c0.5,0.9,1.1,1.7,2.3,2.1l0.5-0.8
			C52,117.5,51,116.9,50.7,115.7z"/>
		<path fill="#003278" d="M52.3,112.6l-0.1,0.2c-1.4,0.4-3.2,0.1-4.2-0.2l-0.5,0.9c1.4,0.4,2.6,0.5,4.1,0.3l0.1-0.1
			c0.6,1,0.7,1.6,2.2,2.5l0.7-0.8C53.6,115,52.5,113.6,52.3,112.6z"/>
		<path fill="#003278" d="M53.7,110.8l-0.1,0.1c-1.4,0.3-3-0.5-4-0.7l-0.6,0.9c1.4,0.7,2.7,0.8,4,0.8l0.1-0.1c0.5,1.1,1,2.3,2.2,2.8
			l0.7-0.8C55.1,113.3,53.9,111.7,53.7,110.8z"/>
		<path fill="#003278" d="M51.1,108.2c0.1,0.1,0.3,0.1,0.4,0.2v-0.6L51.1,108.2z"/>
		<path fill="#003278" d="M74.9,101.5c-0.7-0.8-0.7-3.1-0.6-4.3l-0.3,0.2c-1.4-0.2-2.9-1.6-3.6-2.6l-0.1,0c0-2.9,0-6,0-7.3
			c0-2.6,3.6-3.6,3.6-3.6s-1-0.4-1.9-1.1l-1.5,0.4c0,0-3.2,0.9-3.2,3.1v12.9c0,0.9,0.4,1.5,2.1,1.5h0.9c0-0.1,0-0.2,0-0.3
			c0,0,0-1.7,0-3.9c0.9,0.8,1.9,1.5,2.6,1.5l0.3-0.2c0,1.6-0.1,2.5,0.3,3.6l-0.8-0.7v7.8h-21l3.3,3.1h1.4c0.2,0.3,0.5,0.6,0.8,0.7
			l0.7-0.7h17.4v-8.6l-1.3-1.2L74.9,101.5z"/>
		<path fill="#003278" d="M79,94.8L78.7,95c-1.4-0.2-2.9-1.6-3.6-2.6L73.8,93c1.2,1.2,2.7,2.6,3.8,2.7l0.3-0.2
			c0,1.8-0.2,2.8,0.5,4.2l1.3-0.5C78.9,98.3,79,96,79,94.8z"/>
		<path fill="#003278" d="M83.9,92.4L83.9,92.4c-0.5,0.1-1.1-0.1-1.6-0.5c-0.5-0.4-2.3-2.5-2.3-2.5l-1.4,0.8c0.8,0.9,3.5,3,4.1,3
			l0.1-0.1c0,1.8-0.2,2.8,0.5,4.1l1.3-0.5C83.8,95.9,83.8,93.6,83.9,92.4z"/>
		<path fill="#003278" d="M92.1,85.5c-0.5-0.9-1.6-2.2-2.4-2.7l-0.7,0.7c0.7,0.4,2.3,1.9,2.7,3l0.5-0.5c0.1,1.8,0.1,3.8-0.1,4.7
			l0.9-0.7c0.1-1.6,0.1-3.4-0.2-4.8L92.1,85.5z"/>
		<path fill="#003278" d="M94.4,83.8c0.2,0.6,0.4,1.3,0.2,4.9l0.9-0.8c0-2.7-0.1-3.4-0.4-4.8L94.4,83.8z"/>
		<path fill="#003278" d="M96.6,81.5c0.4,1.4,0.7,3.7,0.4,5l0.8-1.1c0.1-1.5-0.3-3.4-0.6-4.7L96.6,81.5z"/>
		<path fill="#003278" d="M98.3,79L98,79.5c0.9,1.1,1.2,2.4,1.3,4.1l0.6-1C99.9,80.9,98.7,78.6,98.3,79z"/>
		<path fill="#003278" d="M99.4,77.2l-0.2,0.2L99.4,77.2c-0.5-0.9-1.1-2-2-2.6l-0.5,0.6c0.7,0.5,1.5,1.5,2,2.7l0.2-0.4
			c0.4,0.3,1.1,0.9,1.6,3.6l0.4-1C100.7,77.6,99.5,76.6,99.4,77.2z"/>
		<path fill="#003278" d="M100.3,75.1l-0.1,0.2c-0.5-0.9-0.8-1.6-1.8-2.5l-0.4,0.6c1,0.9,1.4,1.4,1.9,2.6l0.2-0.5l0,0.1
			c0.5,0.5,1.2,1.2,1.5,3.2l0.3-1.1C101.9,76.2,100.5,74.7,100.3,75.1z"/>
		<path fill="#003278" d="M91.8,80.7L91,81.4c0.7,0.4,2.3,1.9,2.7,3l0.6-0.6C93.9,82.8,92.7,81.4,91.8,80.7z"/>
		<path fill="#003278" d="M94,78.6l-0.7,0.6c0.5,0.3,2.3,1.8,2.7,2.9l0.5-0.7C96.1,80.4,94.9,79.2,94,78.6z"/>
		<path fill="#003278" d="M97.6,80l0.4-0.7c-0.5-0.9-1.2-2.1-2.1-2.8l-0.6,0.7C96,77.7,97.1,78.9,97.6,80z"/>
		<path fill="#003278" d="M100.7,74l0.3-0.6c-0.5-1-0.7-1.2-1.7-2.3L99,71.7C99.8,72.4,100.3,72.9,100.7,74z"/>
		<path fill="#003278" d="M100.9,73.7c0.3,0.2,0.6,0.6,1,1.1c-0.1-0.4-0.2-0.8-0.3-1.3l-0.4-0.4L100.9,73.7z"/>
		<path fill="#003278" d="M100.6,70.3c-0.1-0.2-0.4-0.4-0.7-0.7l-0.2,0.5c0.5,0.6,1.1,1.2,1.5,2.2C101,71.6,100.8,71,100.6,70.3z"/>
		<polygon fill="#003278" points="77.2,77.4 80.4,80.4 85.6,80.4 85.6,63.3 82.7,60.6 82.7,77.4 		"/>
		<path fill="#003278" d="M67.2,78.8c0,2,3.3,3.3,3.3,3.3l1.3,0.5C71,82,70.2,81.2,70.2,80c0-2.4,0-10.9,0-10.9l0.5,0
			c2,0.2,3.5,0.7,4.5,1.5c-1.7-1.7-4.3-2.6-8-2.6C67.2,69.1,67.2,78.8,67.2,78.8z"/>
		<path fill="#003278" d="M56.8,68c-6.7,0-9.4,2.3-9.4,8.1l0,1.3h-6.6l3,2.8h6.3l0-1.1c0-5.9,0.6-9.6,6.8-10.2
			C56.9,68.5,56.9,68.1,56.8,68C56.9,68,56.8,68,56.8,68z"/>
		<path fill="#C0111F" d="M66.1,99.2V86.3c0-2,1.7-3.1,2.9-3.7c-1.2-0.7-2.9-1.9-2.9-3.8V66.9l0.6,0c0,0,0.5,0,0.5,0
			c7,0,11.1,3.2,11.1,8.7c0,0,0,0.3,0,0.6c0.7,0,2.7,0,3.4,0c0-1,0-13.8,0-14.7c-1,0-38.8,0-39.8,0c0,1,0,13.8,0,14.7
			c0.8,0,3.8,0,4.6,0c0-0.3,0.1-0.6,0.1-0.6L46.3,76c0-6.3,3.2-9.1,10.5-9.1H58v11.9c0,2-1.5,3.2-2.5,3.8c1.1,0.5,2.5,1.6,2.5,3.7
			v12.7c0,1.7-1.1,2.6-3,2.6c0,0-1.6,0-2.4,0c0,0.8,0,4.9,0,5.7c1,0,18,0,19,0c0-0.8,0-4.9,0-5.7c-0.7,0-2.2,0-2.2,0
			C67.2,101.7,66.1,100.8,66.1,99.2z"/>
	</g>
</g>
</svg>
