<?xml version="1.0" encoding="utf-8"?>
<!-- Generator: Adobe Illustrator 17.1.0, SVG Export Plug-In . SVG Version: 6.00 Build 0)  -->
<!DOCTYPE svg PUBLIC "-//W3C//DTD SVG 1.1//EN" "http://www.w3.org/Graphics/SVG/1.1/DTD/svg11.dtd" [
	<!ENTITY ns_extend "http://ns.adobe.com/Extensibility/1.0/">
	<!ENTITY ns_ai "http://ns.adobe.com/AdobeIllustrator/10.0/">
	<!ENTITY ns_graphs "http://ns.adobe.com/Graphs/1.0/">
	<!ENTITY ns_vars "http://ns.adobe.com/Variables/1.0/">
	<!ENTITY ns_imrep "http://ns.adobe.com/ImageReplacement/1.0/">
	<!ENTITY ns_sfw "http://ns.adobe.com/SaveForWeb/1.0/">
	<!ENTITY ns_custom "http://ns.adobe.com/GenericCustomNamespace/1.0/">
	<!ENTITY ns_adobe_xpath "http://ns.adobe.com/XPath/1.0/">
]>
<svg version="1.1" id="Layer_33" xmlns:x="&ns_extend;" xmlns:i="&ns_ai;" xmlns:graph="&ns_graphs;"
	 xmlns="http://www.w3.org/2000/svg" xmlns:xlink="http://www.w3.org/1999/xlink" x="0px" y="0px" viewBox="0 0 248.4289551 168"
	 enable-background="new 0 0 248.4289551 168" xml:space="preserve">
<metadata>
	<sfw  xmlns="&ns_sfw;">
		<slices></slices>
		<sliceSourceBounds  height="120" width="248.4289551" x="317" y="336" bottomLeftOrigin="true"></sliceSourceBounds>
		<optimizationSettings>
			<targetSettings  targetSettingsID="0" fileFormat="PNG24Format">
				<PNG24Format  transparency="true" noMatteColor="false" matteColor="#FFFFFF" interlaced="false" filtered="false">
					</PNG24Format>
			</targetSettings>
		</optimizationSettings>
	</sfw>
</metadata>
<g>
	<g>
		<path fill="#8FBCE6" d="M128.5688171,59.837841c-0.7236023-1.2182541-1.2211533-2.0576286-1.3849716-2.3291206
			c-1.0741119-0.2118721-4.4660568-0.8790283-6.8770905-1.3537102v2.0605202
			C120.3067551,58.2155304,125.8214493,59.2980347,128.5688171,59.837841z"/>
		<path fill="#8FBCE6" d="M142.6847839,116.6206894h-6.4220886h-29.9402161v2.5664673h32.498291h6.4275818h15.9727325
			c1.9053802-0.7913284,3.8385468-1.639389,5.8003693-2.5664673H142.6847839z"/>
		<path fill="#8FBCE6" d="M151.8794098,56.9943848c1.973114,3.779213,6.3398895,12.1344681,8.917923,17.0780945
			c0.4124603-0.7065201,0.8619537-1.4897461,1.3369293-2.3207245c-2.5016327-4.9181595-5.4015198-10.6192513-6.8119659-13.3949776
			c1.7748413-0.4295273,5.5937195-1.3566055,5.5937195-1.3566055V49.764183h-2.5664673v5.8536263
			C158.3495483,55.6178093,154.0305328,56.5364914,151.8794098,56.9943848z"/>
		<path fill="#8FBCE6" d="M166.1762848,56.1550102v2.0605202c0,0,1.562973,0.3079643,3.3493958,0.658474
			c0.3901672-0.6868401,0.7519684-1.3143425,1.0599213-1.8541489
			C169.3899384,56.7851181,167.6347656,56.4403954,166.1762848,56.1550102z"/>
		<path fill="#8FBCE6" d="M175.1645508,116.6206894l2.5919189,3.0836945l-1.718399,1.7212982
			c-3.0810852,3.0923691-32.8163757,23.7488174-65.5577927,19.639061
			c-14.3900681-1.8032074-27.1534882-8.0247192-38.1487274-18.5507736
			c11.4814987,11.9903336,24.9910889,19.0170517,40.3603363,20.9421158
			c33.0453262,4.1436157,62.2891464-16.6427765,65.5650253-19.9273376l1.7383728-1.7383728l-2.2414093-2.6032181h4.3161163
			v-8.5361557c0,0-1.0657196-0.1641159-2.563858-0.395668v6.3653564H175.1645508z"/>
		<path fill="#8FBCE6" d="M184.5458679,60.4598465c-4.4657745,7.4791183-15.806015,26.4762039-16.3883667,27.4487228
			c0,1.2182465,0,14.9211884,0,18.420517c0.6332855,0.0989838,1.5432892,0.2402344,2.5667419,0.3956604
			c0-5.3702621,0-16.3487091,0-17.400238c0.4521179-0.75457,7.3601685-12.3237686,12.5072784-20.9476166
			C183.2315216,65.5050659,183.6867981,62.8595886,184.5458679,60.4598465z"/>
		<path fill="#8FBCE6" d="M213.6481476,97.3717957c-2.2188416-1.7948151-5.0877686-3.0527191-8.1291962-4.3838501
			c0,0-4.6637421-2.1427231-4.6495667-2.1369324c-4.2880402-2.1085739-7.6770935-4.2596893-10.3196716-6.5604401
			c2.8489532,3.3068466,7.0550842,6.252182,12.8806458,9.1240005l4.6495514,2.1340408
			c2.6145172,1.1505203,5.0822754,2.2613907,7.1370087,3.6915131
			C214.8522186,98.5362091,214.321106,97.9003143,213.6481476,97.3717957z"/>
		<path fill="#8FBCE6" d="M199.1197357,105.2407913c-1.7299957-2.3288269-2.9056854-5.4608536-3.5276947-9.4432602
			l-0.3502197-2.2472076h-2.1540222C194.0035858,99.0818024,195.9992828,102.9600067,199.1197357,105.2407913z"/>
		<path fill="#8FBCE6" d="M224.0951843,71.6330872c0.0283661,0.1441422,0.0622253,0.271492,0.0905914,0.4185257l0.4211426,2.147934
			h9.788269l-0.8535614-21.8434334l-1.7073975-0.5965347c-0.2712097-0.0932007-0.5256195-0.1725044-0.7971191-0.2657051
			l0.7916107,20.1392136H224.0951843z"/>
		<path fill="#8FBCE6" d="M210.7031097,56.1208572c-4.0081635,0-8.2678528,1.9192734-8.2678528,5.4695396
			c0,2.2414207,0.8029022,3.6831169,2.9085846,5.15839c-0.4636841-0.8251877-0.6952362-1.7409744-0.6952362-2.8237686
			c0-3.5528717,4.2593994-5.4663582,8.2646637-5.4663582c5.1387024,0,8.7963562,2.1424332,11.0319824,12.4621162
			l-0.2795868-1.4359131C221.9131012,60.4966049,217.6733856,56.1208572,210.7031097,56.1208572z"/>
		<path fill="#8FBCE6" d="M232.4307556,83.4650879c2.2697906,3.3664703,3.3919525,7.4594421,3.3919525,12.3972778
			c0,13.7145233-10.5121613,22.2393875-27.437439,22.2393875c-7.7957611,0-14.6896362-1.4555893-21.0494995-4.3951416
			l0.0367584,1.3511047l1.43013,0.7094193c6.7555084,3.3381042,13.6467896,4.8926849,21.6853943,4.8926849
			c16.9255676,0,27.4374237-8.5164719,27.4374237-22.2335968C237.9254761,92.1511765,236.1109924,87.2526932,232.4307556,83.4650879
			z"/>
		<path fill="#8FBCE6" d="M138.9168549,107.2619476c-3.078186-7.8351288-15.0401535-38.2885208-20.1999893-51.418087
			c-0.0083923-0.0026016-0.0196838-0.005497-0.0269165-0.005497l-0.9467621-2.3629875v-0.1102753
			c-0.8891602-2.2639961-1.4133301-3.6009178-1.4133301-3.6009178h-2.4790497
			c4.3630066,11.09972,21.4677353,54.6456299,22.2648544,56.663887
			C136.7035065,106.6034775,137.7918091,106.925621,138.9168549,107.2619476z"/>
		<path fill="#8FBCE6" d="M94.2360535,101.6343765c2.3925095,0,11.499733,0,15.7976227,0
			c-0.3322754-0.961235-0.6387939-1.8402634-0.8903198-2.563858c-2.8208771,0-14.3591003,0-17.1246948,0
			c-0.6092758,1.6422806-1.5476379,4.1748734-2.346199,6.328598c1.3539963,1.4726715,2.8110352,2.9820938,4.3826981,4.4999161
			c-0.71521-0.7432785-1.4006042-1.4810638-2.0663147-2.201767
			C92.824173,105.4445572,93.7668762,102.8977814,94.2360535,101.6343765z"/>
		<path fill="#8FBCE6" d="M95.7695084,88.6689224c1.1968307-0.0028915,2.3644333-0.0086823,3.5274048-0.0112839
			c0.2431259-0.652977,0.4396591-1.1731033,0.4396591-1.1731033s-0.294075,0-0.3519592,0
			c0.935463-2.5100174,1.8599396-4.9974594,3.1684952-8.5080795c-0.4746857-1.4385147-0.9693375-2.9508362-1.4880142-4.533783
			C98.7727356,80.5961609,95.7750092,88.6547394,95.7695084,88.6689224z"/>
		<path fill="#8FBCE6" d="M82.0098343,62.8708763l-4.0944138,0.4069557
			c-2.0492325,3.4370956-4.8617172,6.4050064-8.3213882,8.7057648l2.0619659,2.88311
			C76.3240814,71.8958969,79.8685608,67.7580643,82.0098343,62.8708763z"/>
		<path fill="#8FBCE6" d="M40.8153381,37.1605301c0.5102806-0.0283623,1.0205612-0.0567284,1.4911919-0.0567284
			c4.5803833,0,8.1841965,1.0034866,10.8609352,2.9991722c-2.7218933-3.7253761-7.1737633-5.5627403-13.4247932-5.5627403
			c-0.4677315,0-0.9806213,0.0283661-1.4894562,0.0593376c0,0.9948044,0,4.6724243,0,9.9946404l2.5621223,1.6309929
			C40.8153381,41.4031372,40.8153381,38.0931053,40.8153381,37.1605301z"/>
		<path fill="#8FBCE6" d="M43.5120468,79.2847137c0,0-0.517231-0.9638367-0.5441475-1.0092773l-0.0480461-0.08741
			c-1.2168045-0.4098511-3.8611259-1.3001633-4.6666374-1.5716553c0,13.2933807,0,26.0411758,0,27.6521912
			c0.6162186,0.1102753,1.5207176,0.2686005,2.5621223,0.4524002c0-4.4547729,0-14.8198929,0-25.5436325
			c0.5528297,0.1864014,1.974556,0.6668701,3.2040939,1.0796127l-0.3617973-0.6697693L43.5120468,79.2847137z"/>
		<path fill="#8FBCE6" d="M2.5621228,116.6261902v2.5667496h50.9572983v-10.1190948c0,0-1.0529785-0.1866913-2.5635643-0.4524002
			v8.0047455H2.5621228z"/>
		<path fill="#8FBCE6" d="M79.9111099,59.1455002l3.2547455,0.5426979c0.7800446-2.6231918,1.1997299-5.4102058,1.1997299-8.3101006
			c0-8.4203796-2.9326019-14.0140877-7.4082108-17.7252846c2.994545,3.5925255,4.8460922,8.4881058,4.8460922,15.1614265
			C81.8034668,52.4718895,81.1406479,55.9486389,79.9111099,59.1455002z"/>
		<path fill="#8FBCE6" d="M39.2268906,66.3589172l1.5884476-0.6784515c0-6.300518,0-12.1260719,0-16.8688278L38.2532158,46.16008
			c0,5.9216461,0,13.5561943,0,21.6882935c0.0523911,0,1.6197052,0.0225754,2.5621223,0.0338593
			c0-0.5568771,0-1.1079712,0-1.6590652L39.2268906,66.3589172z"/>
		<path fill="#8FBCE6" d="M78.7168808,91.2183075c-0.0439911-0.0677261-5.7479782-8.4484558-5.7479782-8.4484558
			s-2.4860001-3.663147-4.252449-6.266655c0.0975418-0.0451508,0.4083939-0.1809006,0.4083939-0.1809006
			c0.3759842-0.1892929,0.7348938-0.3956604,1.0981369-0.5991364l-2.9551773-2.3488083
			c-0.2358932,0.1299591-0.4648438,0.2657089-0.705368,0.3872757c0,0-0.3123016,0.1354523-0.4069519,0.1780014
			c1.7681885,2.6061172,4.2553482,6.2776566,4.2553482,6.2776566s5.6984863,8.3723297,5.7421875,8.4374542
			c0.0651245,0.0848083,0.4636841,0.6104279,0.4636841,0.6104279c0.8732376,1.164711,1.7609482,2.3404083,2.6611099,3.5164032
			l0.217659-0.5343018c-0.0833588-0.1073837-0.1696167-0.2234497-0.2500763-0.3308334
			C79.2453995,91.9164352,78.783165,91.3031158,78.7168808,91.2183075z"/>
		<path fill="#8FBCE6" d="M12.4482241,36.3295517c-1.9745579-0.3759842-6.8559575-1.3030586-9.8861008-1.882515v2.9930954
			c0,0,5.9401698,1.1308403,9.8861008,1.882515C12.4482241,37.7964325,12.4482241,36.7477913,12.4482241,36.3295517z"/>
		<path fill="#FFFFFF" d="M235.8227081,95.8623657c0-4.9378357-1.1221619-9.0308075-3.3919525-12.3972778
			c-0.8338776-1.2350388-1.8061066-2.3771667-2.9537201-3.4200211c-4.3248138-3.9939728-9.3332825-6.1873474-13.7567902-8.1208038
			l-2.7050934-1.204071c-0.0083923,0-0.4804688-0.2205505-0.4804688-0.2205505
			c-3.2845612-1.5065384-5.6078949-2.6399841-7.1908417-3.7508545c-2.1056824-1.4752731-2.9085846-2.9169693-2.9085846-5.15839
			c0-3.5502663,4.2596893-5.4695396,8.2678528-5.4695396c6.9702759,0,11.2099915,4.3757477,12.9625549,13.364006
			l0.2795868,1.4359131l0.1328583,0.7123108h0.0170746h7.7335358l-0.7916107-20.1392136l-0.0619354-1.6987228l-1.7074127-0.5965347
			c-7.043808-2.4674721-12.6797638-3.5670547-18.2821655-3.5670547c-4.2596893,0-8.1208038,0.5427017-11.5124664,1.5716591
			h-35.8607025v8.448452c0,0,1.1363373,0.2234497,2.563858,0.5033379c1.4584808,0.2853851,3.2136536,0.6301079,4.409317,0.8648453
			c-0.3079529,0.5398064-0.669754,1.1673088-1.0599213,1.8541489c-2.0408325,3.5531616-5.0510101,8.8018608-7.3914185,12.8777504
			c-0.4749756,0.8309784-0.924469,1.6142044-1.3369293,2.3207245c-2.5780334-4.9436264-6.944809-13.2988815-8.917923-17.0780945
			c2.151123-0.4578934,6.4701385-1.3765755,6.4701385-1.3765755V49.764183v-2.5609627H117.743187v6.1618805v0.1102753
			l-0.0214157,2.21595c0.0072327,0,0.986702,0.1499329,0.9950943,0.1525345
			c0.435318,0.0876999,0.972229,0.1921883,1.5898895,0.3111496c2.4110336,0.4746819,5.8029785,1.1418381,6.8770905,1.3537102
			c0.1638184,0.271492,0.6613693,1.1108665,1.3849716,2.3291206c4.1832581,7.040905,16.0858917,27.0727348,16.6795349,28.0678291
			c0,1.2211456,0,15.1191711,0,18.5140076c-1.2691956,0.2457352-3.5757446,0.6952362-5.5288849,1.0796127
			c-0.2683105-0.0790176-0.5340118-0.1583252-0.8026123-0.2373428c-1.1250458-0.3363266-2.2133484-0.6584702-2.8011932-0.8338776
			c-0.7971191-2.0182571-17.9018478-45.564167-22.2648544-56.663887c-0.637352-1.6280975-1.0060959-2.5609627-1.0060959-2.5609627
			H98.0051422l-5.7534866,14.0028l2.432457,0.4069519l-2.7120514,0.2686005l-12.4765854,30.365696l-0.217659,0.5343018
			c-0.9001617-1.1759949-1.7878723-2.3516922-2.6611099-3.5164032c0,0-0.3985596-0.5256195-0.4636841-0.6104279
			c-0.0437012-0.0651245-5.7421875-8.4374542-5.7421875-8.4374542s-2.4871597-3.6715393-4.2553482-6.2776566
			c0.0946503-0.0425491,0.4069519-0.1780014,0.4069519-0.1780014c0.2405243-0.1215668,0.4694748-0.2573166,0.705368-0.3872757
			l-2.2839661-1.8147812c-0.8251953,0.3872681-1.6153641,0.7322769-2.3459129,1.0205612l-0.4509468,0.2457352
			c4.4929733,6.5378647,8.3242874,12.3634109,11.8079834,17.3805618c1.9021988,2.5213089,3.8993301,5.1670761,5.9937134,7.8351288
			l19.7988281-48.181282h11.2467575l23.0802078,58.7469864l5.4721527,1.6226044l8.3158875-1.6226044V87.1762848
			l-19.0370178-32.0502319l-8.4640884-1.6590691v-3.6067085h35.2910843v3.6067085l-7.789978,1.6590691l12.7929382,24.4779129
			l14.0424652-24.4779129l-8.4629364-1.6590691v-3.6067085h26.8241119h6.7951813
			c3.205246-1.020565,6.9080505-1.5716553,11.0913239-1.5716553c5.7717133,0,11.3457489,1.2946625,17.400238,3.4174118
			l0.6813507,17.2728882h-2.789917c-2.0182648-10.3422546-7.4055939-15.5119362-15.5741577-15.5119362
			c-5.9642029,0-10.9275055,3.227829-10.9275055,8.1234131c0,6.0967598,4.7146759,8.1320992,12.120285,11.5437202
			c4.8107758,2.2217407,10.8849487,4.3415985,15.7918243,8.8724823c3.7479553,3.4174194,5.4779358,7.9425201,5.4779358,13.8557663
			c0,11.8178253-8.7170563,19.5768356-24.7803802,19.5768356c-7.688385,0-14.6135101-1.475563-20.961792-4.6130905
			l-0.4749756-17.1825867h3.459671c1.7241974,11.0858307,7.5922852,16.7191925,17.2138519,16.7191925
			c6.8232422,0,10.862381-3.6038132,10.862381-8.5928879c0-2.5861435-1.1531372-4.8955765-3.1685028-6.4643402
			c-3.663147-2.9592361-8.4597473-4.4347992-13.273407-6.8374329
			c-10.8652802-5.3534775-16.1568146-10.8962479-16.1568146-20.0460129c0-5.9835892,2.1794739-10.876564,6.2073212-14.3446312
			l-7.456543,1.0486412l-19.1357269,32.0502319v21.4309769l11.3512421,1.755455v3.6009216h-36.8242493h-1.1108704h-32.4956741
			v-3.6009216l8.8487473-1.755455l-4.2356644-12.1938019H90.1700058l-3.5444717,9.5567169
			c0.1496353,0.178009,0.296669,0.3560181,0.4422607,0.5256271c16.9550858,18.6413574,39.8899918,33.4751434,85.024353,10.6024628
			l2.0634155,2.4506836c-5.5682526,5.5853195-74.3865814,50.7254639-116.0331802-19.5936127
			c-0.6387939-0.961235-1.2535667-1.9389572-1.8555984-2.9227676l-0.2628136,1.701622l-0.2882805-2.6286926
			c-3.5826836-6.0064545-6.6157227-12.3182678-9.7489052-17.8355637c0,0-0.1823502-0.4523926-0.6810532-1.297554
			c-0.2049217-0.3644104-0.3832169-0.6839523-0.5583305-0.9806213l-6.2212143-2.0946808l0.0043411-0.7374878v-2.6486664
			c0.8732414,0.0283661,2.5268097,0.0367584,2.9988861,0.0367584c3.4582253,0,6.3737488-0.5114365,8.7905693-1.5178223
			l-0.0014458,0.0028992c0,0,1.0712166-0.3534088,2.3134918-1.2014618l0.0014458,0.0057831l0.0043411-0.0028915l0.0167885-0.0196838
			c0.5866928-0.4043427,1.2014656-0.9186783,1.7667389-1.5545807l1.8839645,15.5093384l2.8336143-17.2193451l5.6275749,4.0813904
			l-3.6518593-5.8536301l14.6401482-1.5039291l-14.6288605-3.2362251l2.1551666-5.5230865l-4.2750244,2.8518486
			c0.0691757-1.0089874,0.0790176-1.9898987,0.0691757-2.8038025h0.0014496c0,0,0-0.0028954,0-0.0057907
			c0-0.0509415-0.0043449-0.0989876-0.0043449-0.1525345c-0.0040512-0.2121582-0.0083923-0.4211349-0.0141792-0.6049271
			l0.0057869-0.096096c-0.0028954,0-0.0057869,0.0083961-0.0098419,0.0083961
			c-0.0057869-0.1244583-0.0098381-0.2431297-0.0156288-0.3447227c-0.37743-12.7903404-6.8316422-19.4865265-19.2758141-19.4865265
			c-1.3001633,0-2.7189941,0.1273537-4.1494064,0.2544174v10.7636833l2.6599503,1.6958275c0-5.322216,0-8.999836,0-9.9946404
			c0.5088348-0.0309715,1.0217247-0.0593376,1.4894562-0.0593376c6.25103,0,10.7028999,1.8373642,13.4247932,5.5627403
			c1.882515,2.5693588,2.9340477,6.0458183,3.1713905,10.4441414l1.2677422,2.3317261l-0.0043411,0.0312614
			c-4.5549088,4.2229233-5.284008,9.3049049-5.2446442,12.3179703l-0.7531242,0.0651245
			c-2.3687744,1.7325897-5.6926994,2.5948257-10.0950737,2.5948257c0,0-0.2911797-0.0028915-0.6940765-0.0057907
			c-0.9424171-0.0112839-2.5097313-0.0338593-2.5621223-0.0338593c0-8.1320992,0-15.7666473,0-21.6882935l-2.6599503-2.7502556
			v63.088871l12.7026405,2.2414246v5.2293015H2.6556118v-5.2293015l12.449379-2.2414246V34.1274948l-12.449379-2.365881v-5.104557
			H35.600502h10.3549919h0.0083961c22.5545883,0,33.182518,6.3427792,33.182518,22.1571827
			c0,3.4796448-0.6387939,6.8206482-1.8854065,9.8872604l2.6501083,0.4440002
			c1.229538-3.1968613,1.8923569-6.6736107,1.8923569-10.3312607c0-6.6733208-1.8515472-11.5689011-4.8460922-15.1614265
			C69.9755173,25.2717972,56.7333603,24,45.9638901,24H0.0000029v9.9636726c0,0,1.0584807,0.1976852,2.56212,0.4833641
			c3.0301437,0.5794563,7.9115434,1.5065308,9.8861008,1.882515c0,0.4182396,0,1.4668808,0,2.9930954
			c0,12.9938126,0,61.336319,0,64.9543076c-2.970809,0.5343094-12.4482212,2.2472153-12.4482212,2.2472153v10.1020203h2.56212
			h48.393734v-8.0047455v-2.1085663c0,0-6.1196251-1.0825043-10.1405182-1.7919159
			c-1.0414047-0.1837997-1.9459038-0.3421249-2.5621223-0.4524002c0-1.6110153,0-14.3588104,0-27.6521912
			c0.8055115,0.271492,3.4498329,1.1618042,4.6666374,1.5716553l0.0480461,0.08741
			c0.0269165,0.0454407,0.5441475,1.0092773,0.5441475,1.0092773l0.1455879,0.3024597l0.3617973,0.6697693l3.5685043,6.6113739
			c2.5366478,4.8107834,5.1583939,9.7798767,8.2718964,14.4832764c4.945076,8.3355713,10.4426956,15.3990555,16.4717178,21.1623764
			c10.9952393,10.5260544,23.7586594,16.7475662,38.1487274,18.5507736
			c32.7414169,4.1097565,62.4767075-16.5466919,65.5577927-19.639061l1.718399-1.7212982l-2.5919189-3.0836945h4.3415833v-6.3653564
			v-2.1707993c0,0-5.1499939-0.8000107-8.7818909-1.359787c-1.0234528-0.155426-1.9334564-0.2966766-2.5667419-0.3956604
			c0-3.4993286,0-17.2022705,0-18.420517c0.5823517-0.9725189,11.9225922-19.9696045,16.3883667-27.4487228
			c-0.8590698,2.3997421-1.3143463,5.0452194-1.3143463,7.9170456c0,0.014183-0.0055084,0.0312576-0.0055084,0.0451508
			c0,6.4249802,2.2356415,11.4334412,7.3237,15.8685303c2.6425781,2.3007507,6.0316315,4.4518661,10.3196716,6.5604401
			c-0.0141754-0.0057907,4.6495667,2.1369324,4.6495667,2.1369324c3.0414276,1.331131,5.9103546,2.589035,8.1291962,4.3838501
			c0.6729584,0.5285187,1.204071,1.1644135,1.5687714,1.8683319c0.4043427,0.7687531,0.6133118,1.6225967,0.6133118,2.5297012
			c0,3.6605453-3.1488037,5.9358292-8.2082062,5.9358292c-3.4313202,0-6.2524872-0.8280869-8.5022888-2.4648666
			c-3.1204529-2.2807846-5.1161499-6.158989-6.0319366-11.6904678c-0.0167847-0.1073837-0.0396423-0.2063675-0.056427-0.3166428
			l-0.3505249-2.2472153h-8.4626312l0.5933533,21.5131836l1.4333038,0.7065201
			c0.358902,0.178009,0.7290955,0.3334351,1.0908966,0.5004425c6.3598633,2.9395523,13.2537384,4.3951416,21.0494995,4.3951416
			C225.3105469,118.1017532,235.8227081,109.576889,235.8227081,95.8623657z M119.6213608,124.7779694
			c-10.8426971-2.5551758-19.1444092-8.6886902-25.5662003-14.8789368
			c-1.5716629-1.5178223-3.0287018-3.0272446-4.3826981-4.4999161c0.7985611-2.1537247,1.7369232-4.6863174,2.346199-6.328598
			c2.7655945,0,14.3038177,0,17.1246948,0c0.2515259,0.7235947,0.5580444,1.602623,0.8903198,2.563858
			c0.5343018,1.5374985,1.1418381,3.2842712,1.7241898,4.9575195c-2.6217422,0.5201263-7.9963531,1.5887375-7.9963531,1.5887375
			v8.4400558h2.5609665h29.9402161h6.4220886h24.3366699c-1.9618225,0.9270782-3.894989,1.7751389-5.8003693,2.5664673
			C145.3641205,125.7759552,131.6837616,127.6217117,119.6213608,124.7779694z"/>
		<path fill="#FFFFFF" d="M101.2274704,66.3956757l-7.8875198,21.1820602l-1.4034882,3.7566376l17.4456863-0.0454407
			L101.2274704,66.3956757z M102.5531082,78.9764557c1.267746,3.8695221,2.3502502,7.1766586,3.1658859,9.6669998
			c-2.1453247,0.0028915-4.2625732,0.0083923-6.422081,0.014183c-1.1629715,0.0026016-2.330574,0.0083923-3.5274048,0.0112839
			c0.0055008-0.014183,3.0032272-8.0727615,5.2955856-14.2262497
			C101.5837708,76.0256195,102.0784225,77.537941,102.5531082,78.9764557z"/>
		<path fill="#FFFFFF" d="M77.9154205,63.277832l-3.3479462,0.3308296
			c-1.7045135,2.3910561-3.8865967,4.4941292-6.5152893,6.2183189l1.5418472,2.1566162
			C73.0537033,69.6828384,75.866188,66.7149277,77.9154205,63.277832z"/>
		<path fill="#092C5C" d="M60.7073669,68.1592331l-4.4405823,28.8733368
			c0.6020317,0.9838104,1.2168045,1.9615326,1.8555984,2.9227676
			c41.6465988,70.3190765,110.4649277,25.1789322,116.0331802,19.5936127l-2.0634155-2.4506836
			c-45.1343613,22.8726807-68.0692673,8.0388947-85.024353-10.6024628
			c-0.1455917-0.1696091-0.2926254-0.3476181-0.4422607-0.5256271l3.5444717-9.5567169h20.8642578l4.2356644,12.1938019
			l-8.8487473,1.755455v3.6009216h32.4956741h1.1108704h36.8242493v-3.6009216l-11.3512421-1.755455V87.1762848
			l19.1357269-32.0502319l7.456543-1.0486412c-4.0278473,3.4680672-6.2073212,8.361042-6.2073212,14.3446312
			c0,9.149765,5.2915344,14.6925354,16.1568146,20.0460129c4.8136597,2.4026337,9.61026,3.8781967,13.273407,6.8374329
			c2.0153656,1.5687637,3.1685028,3.8781967,3.1685028,6.4643402c0,4.9890747-4.0391388,8.5928879-10.862381,8.5928879
			c-9.6215668,0-15.4896545-5.6333618-17.2138519-16.7191925h-3.459671l0.4749756,17.1825867
			c6.3482819,3.1375275,13.273407,4.6130905,20.961792,4.6130905c16.063324,0,24.7803802-7.7590103,24.7803802-19.5768356
			c0-5.9132462-1.7299805-10.4383469-5.4779358-13.8557663c-4.9068756-4.5308838-10.9810486-6.6507416-15.7918243-8.8724823
			c-7.4056091-3.4116211-12.120285-5.4469604-12.120285-11.5437202c0-4.8955841,4.9633026-8.1234131,10.9275055-8.1234131
			c8.1685638,0,13.5558929,5.1696815,15.5741577,15.5119362h2.789917l-0.6813507-17.2728882
			c-6.0544891-2.1227493-11.6285248-3.4174118-17.400238-3.4174118c-4.1832733,0-7.8860779,0.5510902-11.0913239,1.5716553
			h-6.7951813h-26.8241119v3.6067085l8.4629364,1.6590691l-14.0424652,24.4779129l-12.7929382-24.4779129l7.789978-1.6590691
			v-3.6067085h-35.2910843v3.6067085l8.4640884,1.6590691l19.0370178,32.0502319v21.4309769l-8.3158875,1.6226044
			l-5.4721527-1.6226044l-23.0802078-58.7469864H99.7875061L79.988678,98.0415573
			c-2.0943832-2.6680527-4.0915146-5.3138199-5.9937134-7.8351288c-3.483696-5.0171509-7.3150101-10.8426971-11.8079834-17.3805618
			l0.4509468-0.2457352c0.7305489-0.2882843,1.5207176-0.6332932,2.3459129-1.0205612L60.7073669,68.1592331z
			 M109.3821487,91.2889328l-17.4456863,0.0454407l1.4034882-3.7566376l7.8875198-21.1820602L109.3821487,91.2889328z"/>
		<path fill="#092C5C" d="M74.5674744,63.6086617l-10.2392197,1.0202751l3.7239304,5.1980438
			C70.6808777,68.1027908,72.8629608,65.9997177,74.5674744,63.6086617z"/>
		<path fill="#092C5C" d="M70.2640839,40.7869225l-5.6038361,15.8117981l12.6007538,2.1027794
			c1.2466125-3.0666122,1.8854065-6.4076157,1.8854065-9.8872604c0-15.8144035-10.6279297-22.1571827-33.182518-22.1571827
			h-0.0083961H35.600502H2.6556118v5.104557l12.449379,2.365881v72.3712006l-12.449379,2.2414246v5.2293015h45.6402931v-5.2293015
			l-12.7026405-2.2414246v-63.088871l-1.2859802-1.3340263l1.2859802,0.8225861V32.1347008
			c1.4304123-0.1270638,2.8492432-0.2544174,4.1494064-0.2544174c12.4441719,0,18.8983841,6.6961861,19.2758141,19.4865265
			c0.0057907,0.101593,0.0098419,0.2202644,0.0156288,0.3447227c0.004055,0,0.0069466-0.0083961,0.0098419-0.0083961
			l-0.0057869,0.096096c0.0057869,0.1837921,0.010128,0.3927689,0.0141792,0.6049271
			c0,0.0535469,0.0043449,0.101593,0.0043449,0.1525345c0,0.0028954,0,0.0028954,0,0.0028954L70.2640839,40.7869225z"/>
		<path fill="#092C5C" d="M52.6178169,67.8341904l-0.0043411,0.0028915L52.61203,67.8312988
			c-1.2422752,0.848053-2.3134918,1.2014618-2.3134918,1.2014618l0.0014458-0.0028992
			c-2.4168205,1.0063858-5.3323441,1.5178223-8.7905693,1.5178223c-0.4720764,0-2.1256447-0.0083923-2.9988861-0.0367584v2.6486664
			l-0.0043411,0.7374878l6.2212143,2.0946808c0.1751137,0.296669,0.3534088,0.6162109,0.5583305,0.9806213
			c0.498703,0.8451614,0.6810532,1.297554,0.6810532,1.297554c3.1331825,5.5172958,6.1662216,11.8291092,9.7489052,17.8355637
			L52.6178169,67.8341904z"/>
		<path fill="#F5D130" d="M79.9111099,59.1455002l-2.6501083-0.4440002l-12.6007538-2.1027794l5.6038361-15.8117981
			L59.056694,52.5624847h-0.0014496c0.0098419,0.8139038,0,1.7948151-0.0691757,2.8038025l4.2750244-2.8518486l-2.1551666,5.5230865
			l14.6288605,3.2362251l-14.6401482,1.5039291l3.6518593,5.8536301l-5.6275749-4.0813904l-2.8336143,17.2193451
			l-1.8839645-15.5093384c-0.5652733,0.6359024-1.1800461,1.150238-1.7667389,1.5545807l-0.0167885,0.0196838l3.0978737,28.2713089
			l0.2882805,2.6286926l0.2628136-1.701622l4.4405823-28.8733368l4.276474,3.4003372l2.2839661,1.8147812l2.9551773,2.3488083
			l4.7485504,3.7763138l-3.3155365-4.6327667l-2.0619659-2.88311l-1.5418472-2.1566162l-3.7239304-5.1980438l10.2392197-1.0202751
			l3.3479462-0.3308296l4.0944138-0.4069557l9.9622269-0.9893036l2.7120514-0.2686005l-2.432457-0.4069519l-9.0858002-1.5178223
			L79.9111099,59.1455002z"/>
		<path fill="#F5D130" d="M34.3072853,42.075798l1.2859802,1.3340263l2.6599503,2.7502556l2.5621223,2.6515579L52.336483,60.7310524
			l-11.5211449,4.9494133l-1.5884476,0.6784515l1.5884476-0.1357498l10.7891502-0.9299698l0.7531242-0.0651245
			c-0.0393639-3.0130653,0.6897354-8.095047,5.2446442-12.3179703l0.0043411-0.0312614l-1.2677422-2.3317261l-3.3381081-6.1505928
			l2.3305664,11.08004l-14.515976-9.251358l-2.5621223-1.6309929l-2.6599503-1.6958275L34.3072853,42.075798z"/>
	</g>
	<g>
		<polygon fill="#FFFFFF" points="237.973526,109.0229034 239.4181213,109.0229034 239.4181213,112.9688339 
			240.4045258,112.9688339 240.4045258,109.0229034 241.8517303,109.0229034 241.8517303,108.169342 237.973526,108.169342 		"/>
		<polygon fill="#FFFFFF" points="246.7331238,108.169342 245.5771027,111.3068695 245.5432434,111.3068695 244.432373,108.169342 
			242.7278595,108.169342 242.7278595,112.9688339 243.71138,112.9688339 243.71138,109.1386795 243.7342529,109.1386795 
			245.0824585,112.9688339 246.0237122,112.9688339 247.4170837,109.1386795 247.4396515,109.1386795 247.4396515,112.9688339 
			248.4289551,112.9688339 248.4289551,108.169342 		"/>
	</g>
</g>
</svg>
