<?xml version="1.0" encoding="utf-8"?>
<!-- Generator: Adobe Illustrator 18.0.0, SVG Export Plug-In . SVG Version: 6.00 Build 0)  -->
<!DOCTYPE svg PUBLIC "-//W3C//DTD SVG 1.1//EN" "http://www.w3.org/Graphics/SVG/1.1/DTD/svg11.dtd">
<svg version="1.1" id="CIN" xmlns="http://www.w3.org/2000/svg" xmlns:xlink="http://www.w3.org/1999/xlink" x="0px" y="0px"
	 viewBox="0 0 175.5 168" enable-background="new 0 0 175.5 168" xml:space="preserve">
<g>
	<defs>
		<rect id="SVGID_1_" y="24" width="175.5" height="120"/>
	</defs>
	<clipPath id="SVGID_2_">
		<use xlink:href="#SVGID_1_"  overflow="visible"/>
	</clipPath>
	<path clip-path="url(#SVGID_2_)" fill="#C6011F" d="M98.7,144c48.9,0,76.9-31.9,76.9-60.9c0-34.7-38.7-59.1-80.1-59.1v0
		c-33.2,0-56.2,19.6-68.8,34.5C9.5,79,0,81.6,0,81.6c13.3,11.7,19.6,17.6,25.8,24.3C43.2,124.7,57.6,144,98.7,144"/>
	<path clip-path="url(#SVGID_2_)" d="M97.8,135.8c-35.5,0-49.5-15.2-65.9-32.7c-6.7-7.2-11-13.6-21.9-21.7l2.2,5.2
		c10.5,8.6,14.8,14.8,21.6,22C50.3,126,64,139.7,99.5,139.7c31.1,0,55.2-15.4,66.5-34.3l-1.7-4C153,120.4,128.9,135.8,97.8,135.8"/>
	<path clip-path="url(#SVGID_2_)" d="M98.7,46.9C64,46.9,50.4,69.9,50.4,81c0,6.4,1.9,12,5,16.8c-2.1-3.9-2.6-9.8-2.6-13.6
		c0-11.1,13.1-33.3,47.1-33.3c20.4,0,35.8,9.4,41,17.6h25.7c-0.5-0.9-1.6-4-1.6-4h-24.6C135.3,56.3,119.1,46.9,98.7,46.9"/>
	<path clip-path="url(#SVGID_2_)" fill="#FFFFFF" d="M31.9,103.1c16.4,17.5,30.4,32.7,65.9,32.7c31.1,0,55.2-15.4,66.5-34.3H140
		c-11.4,8.6-25.3,15.6-43,15.6c-16.3,0-33.4-6.8-41.6-19.3c-3.2-4.8-5-10.4-5-16.8c0-11.1,13.6-34.1,48.4-34.1
		c20.4,0,36.6,9.4,41.7,17.6H165c-11.4-22.5-40.8-36-70.2-36c-28.9,0-50.9,16.7-63.6,31.7C14.4,80,10,81.4,10,81.4
		C20.9,89.5,25.2,95.9,31.9,103.1"/>
	<polygon clip-path="url(#SVGID_2_)" points="113.2,78.7 107.7,78.7 107.7,76.1 99.6,76.1 99.6,81.4 102.3,81.4 102.3,78.8 
		107.6,78.8 110.4,81.4 115.9,81.4 115.9,74.2 113.2,71.5 	"/>
	<polygon clip-path="url(#SVGID_2_)" points="90.5,95.8 93.1,98.5 93.2,98.5 115.9,98.5 115.9,91.4 113.2,88.7 113.2,95.8 	"/>
	<polygon clip-path="url(#SVGID_2_)" points="99.6,86 99.6,91.3 102.3,91.3 102.3,88.7 109,88.7 109,84.1 106.3,81.4 106.3,86 	"/>
	<polygon clip-path="url(#SVGID_2_)" points="90.5,76.1 93.1,78.8 93.2,78.8 94.1,78.8 94.1,76.1 	"/>
	<polygon clip-path="url(#SVGID_2_)" points="59.3,76.1 62,78.8 62.9,78.8 62.9,76.1 	"/>
	<polygon clip-path="url(#SVGID_2_)" points="59.3,95.8 62,98.5 74.7,98.5 74.7,94 72,91.3 72,95.8 	"/>
	<polygon clip-path="url(#SVGID_2_)" points="78.8,84.8 81.7,91.3 83.2,91.3 81.5,87.5 85.6,84.1 85.6,78.8 82.9,76.1 82.9,81.4 	
		"/>
	<polygon clip-path="url(#SVGID_2_)" points="68.4,86 68.4,91.3 71.1,91.3 71.1,88.6 74.7,88.6 73.5,86 	"/>
	<polygon clip-path="url(#SVGID_2_)" points="84.7,95.8 77.8,95.8 80.4,98.5 87.4,98.5 87.4,94 84.7,91.3 	"/>
	<polygon clip-path="url(#SVGID_2_)" points="77.4,78.8 77.4,77.3 76,76.1 68.4,76.1 68.4,81.5 71.1,81.5 71.1,78.8 	"/>
	<polygon clip-path="url(#SVGID_2_)" fill="#FFFFFF" points="99.6,76.1 107.7,76.1 107.7,78.7 113.2,78.7 113.2,71.5 90.5,71.5 
		90.5,71.5 90.5,76.1 90.5,76.1 94.1,76.1 94.1,78.8 94.1,91.3 90.5,91.3 90.5,91.3 90.5,91.3 90.5,95.8 90.5,95.8 113.2,95.8 
		113.2,88.7 107.7,88.7 107.7,91.3 102.3,91.3 99.6,91.3 99.6,86 106.3,86 106.3,81.4 102.3,81.4 99.6,81.4 	"/>
	<path clip-path="url(#SVGID_2_)" fill="#FFFFFF" d="M84.7,91.3h-1.5h-1.5l-2.8-6.6l4-3.3v-5.3l-5.5-4.6H59.3v4.6h3.6v2.7v12.5h-3.6
		v4.5H72v-4.5h-1h-2.7V86h5.2l1.2,2.7l3.1,7.2h6.9V91.3z M71.1,81.5h-2.7v-5.3H76l1.4,1.2v1.5v1.6l-1.3,1.1H71.1z"/>
	<polygon clip-path="url(#SVGID_2_)" points="119,76.1 121.6,78.8 121.6,78.8 122.6,78.8 122.6,76.1 	"/>
	<polygon clip-path="url(#SVGID_2_)" points="136.2,78.8 136.2,77.3 134.8,76.1 128,76.1 128,91.3 130.7,91.3 130.7,78.8 	"/>
	<polygon clip-path="url(#SVGID_2_)" points="141.6,91.3 136.2,95.8 119,95.8 121.6,98.5 121.6,98.5 137.1,98.5 144.3,92.6 
		144.3,78.8 141.6,76.1 	"/>
	<polygon clip-path="url(#SVGID_2_)" points="159.6,86 152.7,86 147.3,81.4 155.9,88.7 161,88.7 161,87.2 	"/>
	<polygon clip-path="url(#SVGID_2_)" points="169.1,88.7 166.4,86 166.4,91.2 161,95.9 154.1,95.9 154.1,95.9 152.7,94.6 
		152.7,95.9 147.3,95.9 149.9,98.6 155.4,98.6 155.4,97.3 156.8,98.5 156.8,98.5 162.1,98.5 169.1,92.7 	"/>
	<polygon clip-path="url(#SVGID_2_)" points="161,78.7 161,77.3 159.6,76.1 154.2,76.1 152.8,77.3 152.8,80.3 154.2,81.4 
		155.5,81.4 155.5,80 156.9,78.8 160.9,78.8 163.7,81.4 169.1,81.4 169.1,74.2 166.4,71.5 166.4,78.7 	"/>
	<polygon clip-path="url(#SVGID_2_)" points="154,91.3 155.5,91.3 152.7,88.7 152.7,90.2 	"/>
	<path clip-path="url(#SVGID_2_)" fill="#FFFFFF" d="M141.6,91.3V76.1l-5.5-4.6H119h0v4.6h0h3.6v2.7v12.5H119v0h0v4.5h0h17.2
		L141.6,91.3z M130.7,91.3H128V76.1h6.8l1.4,1.2v1.5v11.4l-1.3,1.1H130.7z"/>
	<polygon clip-path="url(#SVGID_2_)" fill="#FFFFFF" points="152.7,94.6 154.1,95.9 154.1,95.9 161,95.9 166.4,91.2 166.4,86 
		160.9,81.4 155.5,81.4 154.2,81.4 152.8,80.3 152.8,77.3 154.2,76.1 159.6,76.1 161,77.3 161,78.7 166.4,78.7 166.4,71.5 161,71.5 
		161,72.7 159.6,71.5 152.8,71.5 147.3,76.1 147.3,81.4 152.7,86 159.6,86 161,87.2 161,88.7 161,90.2 159.7,91.3 155.5,91.3 
		154,91.3 152.7,90.2 152.7,88.7 147.3,88.7 147.3,95.9 152.7,95.9 	"/>
	<path clip-path="url(#SVGID_2_)" fill="#FFFFFF" d="M161,128h-1.7v4.7h-1.2V128h-1.7v-1h4.7V128z M168.9,132.8h-1.2v-4.6h0
		l-1.7,4.6h-1.1l-1.6-4.6h0v4.6h-1.2V127h2l1.3,3.8h0l1.4-3.8h2V132.8z"/>
</g>
</svg>
