<?xml version="1.0" encoding="utf-8"?>
<!-- Generator: Adobe Illustrator 18.0.0, SVG Export Plug-In . SVG Version: 6.00 Build 0)  -->
<!DOCTYPE svg PUBLIC "-//W3C//DTD SVG 1.1//EN" "http://www.w3.org/Graphics/SVG/1.1/DTD/svg11.dtd">
<svg version="1.1" id="STL" xmlns="http://www.w3.org/2000/svg" xmlns:xlink="http://www.w3.org/1999/xlink" x="0px" y="0px"
	 viewBox="0 0 122.7 168" enable-background="new 0 0 122.7 168" xml:space="preserve">
<g>
	<defs>
		<rect id="SVGID_1_" x="0" y="24" width="122.7" height="120"/>
	</defs>
	<clipPath id="SVGID_2_">
		<use xlink:href="#SVGID_1_"  overflow="visible"/>
	</clipPath>
	<path clip-path="url(#SVGID_2_)" fill="#FFFFFF" d="M110.5,95c-4.4-3.1-9.6-3.8-14.7-4.4c-9.7-1.3-17.3-2.3-18.5-18.1
		c-1.6-23.1-2.2-28.4-8-32.6C69.2,38.2,68,29,68,29c-0.4-3.1-3.2-5.3-6.4-4.9l-17.7,2.2c-1.5,0.2-2.9,1-3.8,2.2
		c-0.6,0.8-1,1.7-1.1,2.7c-2.5-0.2-4.9,1.3-5.7,3.8c0,0-3.1,8.6-3.6,10.2c-3.5,1.6-6.4,6.6-9.5,16.7l-1.8,5.8
		c-3.5,11.5-6.2,20.5-11.4,26.1C2.4,98.6,0,103.8,0,108.5c0,1.4,0.2,2.8,0.7,4.2c1.3,4,5.3,9.2,16.8,11.3c6.3,1.1,13.6,5.6,20.7,10
		c4.9,3,10.1,6.2,14.8,8.2c3,1.3,8.2,3.5,22.7-0.1c0.7-0.2,2.3-0.8,2.9-3.3c0.1-0.5,0.2-1.1,0.2-1.8c0-4.9-3.4-13.3-12.6-21.2
		c6.6,0.7,13.9,2.2,19.3,4.1c9,3.2,25.9,5.3,35.6-1.7c0.8-0.5,1.7-1.7,1.7-3.8C122.7,109.9,119,101.1,110.5,95"/>
	<path clip-path="url(#SVGID_2_)" fill="#BD3039" d="M109.3,96.8c-11.6-8.3-32.2,2.4-34-24.2c-1.7-24.2-2.3-27.9-7.9-31.5l-1.5-11.8
		c-0.2-1.9-2-3.3-4-3.1l-17.7,2.2c-1.7,0.2-3,1.6-3.1,3.3c0.6,0.2,1.7,0.6,3.1,1.1l-0.1-1.1c0-0.3,0.2-0.6,0.5-0.6
		c0.3,0,0.6,0.2,0.6,0.5l0.2,1.7c0.8,0.3,1.6,0.6,2.4,0.9l-0.3-2.6c-0.1-0.4,0.2-0.8,0.6-0.8c0.4,0,0.7,0.2,0.8,0.6l0.4,3.4
		c0.7,0.3,1.4,0.5,2.1,0.7l-0.5-4.2c-0.1-0.5,0.3-0.9,0.8-1c0.5-0.1,0.9,0.3,1,0.8l0.6,5.1c0.7,0.2,1.3,0.5,1.9,0.7l-0.7-5.9
		c-0.1-0.5,0.3-0.9,0.8-1c0.5-0.1,0.9,0.3,1,0.8l0.8,6.8c0.3,0.1,0.4,0.1,0.4,0.1c0.6,0.2,1.2,0.6,1.7,1l-1-8.3
		c0-0.4,0.2-0.8,0.6-0.8c0.4,0,0.8,0.2,0.8,0.6L60.9,41c0.2,0.6,0.3,1.2,0.3,1.8c0,0.6-0.1,1.3-0.3,1.9c0,0-3.1,8.7-3.7,10.3
		c0.7,1.4,1,2.8,1,4.2c0,4.4-2.6,9.1-4.9,13.4c-1,1.8-2,3.6-2.7,5.2c-3.6,8.9-5.4,14.4-5.4,18.1c0,2,0.5,3.5,1.5,4.7
		c0-2.4,0.5-4.2,0.7-5.1c2.3,0.7,9.3,2.9,12.7,3.7c0,0-0.3,7.1,0.6,12.2c0.4,0.3,0.7,0.6,1,0.8c0.5,0.3,0.9,0.6,1.3,1
		c7.8,0.4,17.1,2.4,23.1,4.5c9.3,3.3,25.1,4.8,33.6-1.5C122.2,114.8,119.1,103.8,109.3,96.8 M63.9,42.4c-0.3,0-0.6-0.2-0.6-0.5
		l-1.5-12.4c0-0.3,0.2-0.6,0.5-0.6c0.3,0,0.6,0.2,0.6,0.5l1.5,12.4C64.4,42.1,64.2,42.3,63.9,42.4 M117.4,114.1c-3,2-7,3-11.2,3.3
		c-0.9,0-1.5-0.3-1.7-1l-3.1-8.4c-0.3-0.7-0.3-1.3,0.6-1.8c0,0,6.3-2.7,7-3.1c0.7-0.4,1.6-1.1,2.4-0.2
		C115.7,107.3,117.5,112.2,117.4,114.1C117.5,114.1,117.4,114.1,117.4,114.1"/>
	<path clip-path="url(#SVGID_2_)" fill="#BD3039" d="M60.6,114.3c-0.9-0.7-5.9-5-13-9.8c-7.1-4.8-5.5-12,0.9-27.5
		c3.1-7,10.2-15.8,6.2-21.7l4-11.2c0.7-1.8-0.3-3.9-2.1-4.5l-16.8-6c-1.8-0.7-3.9,0.3-4.5,2.1l-4,11.2c-3.1,0.7-5.9,5.2-9.1,15.6
		c-4.4,14.2-7.3,25.8-13.7,32.7c-9.2,9.8-10.2,23,9.4,26.6c11.2,1.9,24.5,13.6,35.8,18.3c2.7,1.1,7.1,3.4,21.5-0.2
		C78.2,139.3,77,125.7,60.6,114.3 M16.7,118.4c-6.1-1.4-9.9-3.9-11.1-7.4c-1.2-3.5,0.4-8.2,4.2-12.6c4.3,1.7,7.9,3.7,10.6,5.4
		C18.5,107.8,17.2,112.8,16.7,118.4 M55.7,42c0.3,0.1,0.4,0.4,0.3,0.7l-4.2,11.8c-0.1,0.3-0.4,0.4-0.7,0.3c-0.3-0.1-0.4-0.4-0.3-0.7
		L55,42.3C55.1,42.1,55.4,41.9,55.7,42 M52.4,40.8c0.4,0.1,0.6,0.5,0.4,0.9l-4.1,11.5c-0.1,0.4-0.5,0.6-0.9,0.4
		c-0.4-0.1-0.6-0.5-0.4-0.9l4.1-11.5C51.6,40.9,52,40.7,52.4,40.8 M49,39.6c0.5,0.2,0.7,0.7,0.5,1.1l-4,11.2
		c-0.2,0.5-0.7,0.7-1.1,0.5c-0.5-0.2-0.7-0.7-0.5-1.1l4-11.2C48.1,39.7,48.6,39.4,49,39.6 M34.4,48.8c-0.3-0.1-0.4-0.4-0.3-0.7
		l4.2-11.8c0.1-0.3,0.4-0.4,0.7-0.3c0.3,0.1,0.4,0.4,0.3,0.7l-4.2,11.8C35,48.8,34.7,48.9,34.4,48.8 M37.7,50
		c-0.4-0.1-0.6-0.5-0.4-0.9l4.1-11.5c0.1-0.4,0.5-0.6,0.9-0.4c0.4,0.1,0.6,0.5,0.4,0.9l-4.1,11.5C38.5,50,38.1,50.2,37.7,50
		 M41.1,51.2c-0.5-0.2-0.7-0.7-0.5-1.1l4-11.2c0.2-0.5,0.7-0.7,1.1-0.5c0.5,0.2,0.7,0.7,0.5,1.1l-4,11.2
		C42.1,51.2,41.6,51.4,41.1,51.2 M73.4,137.1c-5.3,1.3-9,1.7-11.7,1.6c-1,0.1-1.7-0.3-1.9-1.5l-1-8.8c0-0.9,0.3-1.6,1.4-1.7
		c2.6,0,5.7-0.2,6.7-0.6c1.4-0.5,1.8-0.3,2-0.1c3.5,4.7,4.6,8.8,4.6,10.7C73.4,137,73.4,137,73.4,137.1"/>
	<polygon clip-path="url(#SVGID_2_)" fill="#FFFFFF" points="105.2,123.7 105.7,123.7 105.7,125.2 106,125.2 106,123.7 106.6,123.7 
		106.6,123.4 105.2,123.4 	"/>
	<polygon clip-path="url(#SVGID_2_)" fill="#FFFFFF" points="107.9,124.7 107.4,123.4 106.9,123.4 106.9,125.2 107.3,125.2 
		107.3,123.8 107.8,125.2 108,125.2 108.5,123.8 108.5,125.2 108.9,125.2 108.9,123.4 108.4,123.4 	"/>
</g>
</svg>
