<svg xmlns="http://www.w3.org/2000/svg" xmlns:xlink="http://www.w3.org/1999/xlink" version="1.1" id="COL" x="0px" y="0px" viewBox="0 0 202.8 168" enable-background="new 0 0 202.8 168" xml:space="preserve">
<g>
	<g>
		<path fill="#FFFFFF" d="M192.1 86.8c-7-43.2-46.5-75.8-92-75.8C55.4 11 15 44.3 8.1 86.9c-0.5 0-8.1 0-8.1 0v56.7c0 0 7.3 0 8 0 c0 0.6 0 5.1 0 5.1h184.5c0 0 0-4.6 0-5.1c0.6 0 7.7 0 7.7 0V86.8C200.1 86.8 192.6 86.8 192.1 86.8z"/>
		<g>
			<g>
				<g>
					<path d="M43.2 133.4c0 0-9.7 0-10.4 0c-0.2 0-8.9-14.7-8.9-14.7h-2.4v7.4c0 4.1 1.3 4.6 4.7 4.6v2.6H9.5v-2.6 c3.7 0 4.6-0.8 4.6-4.9v-19.4c0-4.2-0.8-5-4.6-5v-2.6c2.7-0.2 4.5-0.4 8.1-0.6c2.8-0.2 5.5-0.3 7.1-0.3 c7.1 0 14.2 2.5 14.2 10.2c0 7.1-6.6 8.6-7.6 9.1c2.8 0.6 6.3 10.4 8.2 12.2c1.8 1.6 3.8 1.3 3.8 1.3V133.4z"/>
					<path fill="#FFFFFF" d="M21.5 116c6.4 0.1 8.7-2.4 8.7-8.1c0-4.4-2.3-7.3-6.6-7.3h-2.2V116z"/>
					<path d="M98.5 123.8c-0.3 2.8-1.2 6.4-2.4 9.7l-0.1 0.3c-0.4-0.1-0.7-0.2-1.1-0.3c-0.3-0.1-0.8-0.1-1.2-0.1 c-1.1 0-2.2 0.1-3.4 0.3c-1.2 0.1-2.4 0.3-3.8 0.3c-5.2 0-8.8-2.2-11-5.2c-2.2-3-3.2-6.8-3.2-10.2c0-4.9 1.6-8.9 4.3-11.9 c2.7-2.9 6.5-4.6 11.1-4.6c4.2 0 6.5 1.5 7.4 1.5c0.4 0 0.5-0.2 0.7-0.7h1.4l0.4 10.2h-1.8c-0.4-2.5-1.4-4.5-2.8-5.9 c-1.4-1.4-3.1-2.2-5-2.2c-5.2 0-8.7 5.3-8.7 12.9c0 7.9 3.7 13.3 9.2 13.3c3.7 0 6.5-2.5 8.3-7.5H98.5z"/>
					<path d="M129 133.4h-14.5v-2.3c2.1 0 2.7-0.4 2.7-1.4c0-0.8-2-4-5.1-7.9c-1.4-1.8-2.2-2.5-2.8-2.5v7.1c0 3.5 0.4 4.7 3.6 4.7 v2.3H99v-2.3c3.1 0 3.6-1.1 3.6-4.8v-17c0-3-0.9-4-3.6-4v-2.3h13.8v2.3c-2.8 0-3.6 0.8-3.6 4.6v7.4l8.5-10.3 c0 0 0.7-1.7-1.5-1.7v-2.3h11.2v2.3c-2.4 0-4.3 0.7-6.1 2c-1.4 1-3.7 3.9-6.4 7.1c0.5 0.5 2.2 2.9 2.6 3.5 c2.4 3 5 8.2 7.1 10.7c1.4 1.8 2 2.2 4.4 2.4V133.4z"/>
					<path d="M130.1 133.4v-2.3c2.8 0 3.4-1.3 3.4-4.4V110c0-3.4-0.5-4.7-3.4-4.7v-2.3h13.4v2.3c-3.1 0-3.5 1.3-3.5 4.7v16.4 c0 3 0.2 4.7 3.5 4.7v2.3H130.1z"/>
					<path d="M168 103.1l0.4 7.3h-1.8c-0.4-3.3-0.9-4.2-2.8-4.2H156v10.6h3.4c2.8 0 3.5-0.7 3.5-3.7h1.8v10.2h-1.8 c0-2.7-0.6-3.5-3.5-3.5H156v7.8c0 2.6 0.2 2.8 2.3 2.8h4.5c3.4 0 4.3-1.9 4.9-5.1h1.8l-0.5 8.1h-23.8v-2.3c3.5 0 4.2-1 4.2-4.5 v-16.8c0-4.1-1.1-4.5-3.9-4.5v-2.3H168z"/>
					<path d="M172.3 122.9c1.2 5.3 4.2 8.4 7.9 8.4c2.7 0 4.6-2.1 4.6-4.9c0-7.3-14.1-8-14.1-18.8c0-3.9 2.2-9.6 9.5-9.6 c3.3 0 5.6 1.1 6.9 1.1c0.5 0 0.8-0.2 1-0.7h1.5l0.8 9.9H188c-1.2-4.8-4.3-7.3-7.5-7.3c-2.3 0-3.9 1.4-3.9 3.5 c0 5.8 14.8 7.4 14.8 19.3c0 6.3-4.2 10.5-10.4 10.5c-3.2 0-6.4-1.2-7.1-1.2c-0.7 0-1 0.5-1.1 0.8h-1.4l-1.2-11H172.3z"/>
					<path fill="#C4CED4" d="M15.9 100.9l-0.1 30h4l0.1-30.1C19.7 100.6 15.9 100.9 15.9 100.9z"/>
					<path fill="#C4CED4" d="M29.6 100.9l-0.1 0.2c0 0 2.5 1.7 2.5 7.2c0 5.5-2.6 7.1-2.6 7.1l0.1 0.2c0.1 0 7.2-1.6 7.2-7.4 C36.7 101.6 29.6 100.9 29.6 100.9z"/>
					<path d="M55 134.1c-11 0-14.3-9-14.3-15.7c0-8.2 4.7-16.1 15.4-16.1c10.8 0 14.1 9 14.1 15.6C70.1 124.4 66.8 134.1 55 134.1z M54.8 104.6c-3.5 0-7.2 3.1-7.2 11.6c0 9.2 3.5 15.6 8.7 15.6c3.9 0 6.9-3.8 6.9-11.6C63.2 111 59.8 104.6 54.8 104.6z"/>
					<path fill="#C4CED4" d="M50.2 130.7c0 0-3.3-2.6-4-12.3c-0.8-9.4 3.2-12.9 3.2-13l-0.1-0.2c-0.1 0-7.1 3.5-7.1 13.1 c0 11.9 7.9 12.6 8 12.6l0.4 0L50.2 130.7z"/>
					<path fill="#C4CED4" d="M60.5 105.2l-0.1 0.2c0 0 3.4 2.6 4.1 12.3c0.8 9.4-2.7 12.9-2.7 13l0.1 0.2c0.1 0 6.7-3.5 6.7-13.1 C68.7 106.7 60.6 105.2 60.5 105.2z"/>
					<path fill="#C4CED4" d="M77.7 117.9c0-8.4 4.1-12.5 4.2-12.5l-0.1-0.2c-0.1 0-8 3.2-8 13.3c0 10.3 7.6 12.4 7.7 12.4l0.4 0.1 l-0.2-0.3C81.5 130.7 77.7 125.7 77.7 117.9z"/>
					<path fill="#C4CED4" d="M104.2 105.2l-0.1 25.5v0.1h3.5l0.1-25.5L104.2 105.2z"/>
					<path fill="#C4CED4" d="M111.1 118.6L111.1 118.6l0.3 0.4l1.7 1.7c3.1 3.9 5.7 8.3 5.7 9.1c0 0.4-0.1 0.6-0.3 0.8l-0.3 0.2 l6.4 0l-1.2-1.5l-3.2-4.9c-1.3-2.1-2.6-4.2-3.8-5.8l-2.4-2.9C113.7 115.8 111.1 118.6 111.1 118.6z"/>
					<path fill="#C4CED4" d="M134.9 130.8v0.1h3.5l0.1-25.5l-3.5-0.1L134.9 130.8z"/>
					<path fill="#C4CED4" d="M150.9 130.8v0.1h3.5l0.1-25.5l-3.5-0.1L150.9 130.8z"/>
					<path fill="#C4CED4" d="M189.4 120.8c-0.7-3.3-5-7.1-7.9-8.7c-8.2-4.7-7.2-9.1-7.2-9.2l-0.2-0.1c-0.1 0.1-4.9 6 2.1 12.1 l3.9 2.9c2.2 1.5 4.3 2.9 5.7 5.2c1.8 2.8 0 7.6-0.1 7.7l-0.2 0.4l0.4-0.3C186.1 130.9 190.6 127 189.4 120.8z"/>
					<path fill="#C4CED4" d="M38.5 130.7c0 0-1.1-0.9-2.7-4.1c-1.5-3.5-4.3-7.9-6.2-8.9l0 0l-0.1 0l-1.3 0.4l-2.5 0.5 c0 0 0.1 0.1 0.1 0.1c0 0-0.1 0-0.1 0c0.2 0.3 0.5 0.7 0.8 1.1c2.4 3.9 6.3 10.9 6.3 10.9c0.1 0.1 5.6 0.1 5.6 0.1l0.4 0 L38.5 130.7z M25.9 118.7C25.9 118.7 25.9 118.7 25.9 118.7C26 118.7 25.9 118.7 25.9 118.7C25.9 118.7 25.9 118.7 25.9 118.7z "/>
					<polygon points="12.2,139.4 12.2,144.7 187.9,144.7 187.9,139.4 195.9,139.4 195.9,136.7 4.3,136.7 4.3,139.4"/>
					<g>
						<path fill="#333366" d="M162.8 99.9l-12.9-17.5c-0.1 0-5.2 1.2-5.2 1.2c0 0 0 0 0 0c0-0.1-3.5-6.1-4.6-8c0 0-0.1 0.1-0.1 0.1 c0 0 0 0-0.1 0.1c-0.7 0.7-1.5 1.4-2.3 2l0.1-0.1l3.7 6.2l-5.9-4.8c-2.4 1.3-5.2 2.1-8.2 2.1c-9.5 0-17.2-7.7-17.2-17.2 c0-1.9 0.3-3.6 0.8-5.3l-2.4-1.9l-3.3 2.6l-1.5-7.4l-3.7 5.2l-2-3.3L82.7 67.3l-3.3-2.8l-8.1 10.3l-1.2-1.4L62.7 81l11.6-19.4 l9.7 2.7l16-21.2L111.6 57c0.5-1.1 1.1-2.2 1.8-3.2c0 0 0-0.1 0.1-0.1c0 0 0-0.1 0.1-0.1c-4.1-4.7-13.3-15.3-13.3-15.3 l-0.1-0.1l-0.1 0.1c0 0-17.2 22.2-17.2 22.2c0-0.1-9.9-2.9-9.9-2.9c-0.1 0.1-15.9 25.6-15.9 25.6c0-0.1-4.2-0.8-4.2-0.8 c-0.1 0.1-2.4 3.4-2.4 3.4c0-0.1-2.9-0.5-2.9-0.5c-0.1 0-1.6 2.9-3.2 6.1c-0.5 0.9-0.9 1.8-1.4 2.6c-1.6 3-2.9 5.6-2.9 5.6 l0.1 0l5 0.1l11.5 0.1c0.1 0 39.4-30.2 50.2-38.4c-4.6 4.1-43.1 38.4-43.1 38.4h3.1c0.1 0 31.6-22.9 40.3-29.2 c-3.7 3.2-33.3 29.2-33.3 29.2l3.1 0c0.1 0 26.6-17.7 34-22.6c-3.2 2.6-27.1 22.6-27.1 22.6l3.2 0c0.1 0 23.5-13.9 30.2-17.9 c-2.9 2.2-23.3 17.9-23.3 17.9H97c0 0 23.4-12.6 30.4-16.3c-3.2 2.2-23.6 16.3-23.6 16.3H162.8z M147.9 85.9l3.3 4l-7.1-3.3 L147.9 85.9z M51.1 89.7l2.9-4.4l3.5 0.6L51.1 89.7z"/>
						<g>
							<g>
								<path fill="#231F20" d="M189.2 91.5c-6.8-43-44.2-75.9-89.1-75.9c-44.9 0-82.2 32.9-89 75.9l-6.8 0v2.6H43 c0.5-0.9 0.9-1.8 1.4-2.6h-7.7c6.2-27.9 30.5-49.1 59.9-50.7l3.5-4.5l3.9 4.5c0 0 0 0 0.2 0c8.3 0.5 16.1 2.6 23.3 5.9 c0 0-0.1 0-0.1 0c-5.6 0-10.7 2.7-13.8 6.9c0 0 0 0.1-0.1 0.1c0 0 0 0.1-0.1 0.1c-0.7 1-1.3 2-1.8 3.2 c-0.2 0.5-0.4 1.1-0.6 1.6c-0.5 1.7-0.8 3.5-0.8 5.3c0 9.5 7.7 17.2 17.2 17.2c3 0 5.8-0.8 8.2-2.1c0.7-0.4 1.4-0.8 2.1-1.3 c0.8-0.6 1.6-1.3 2.3-2c0 0 0 0 0.1-0.1c0 0 0.1-0.1 0.1-0.1c2.8-3.1 4.5-7.1 4.5-11.6c0-2.5-0.5-4.9-1.5-7 c10.1 8.9 17.5 20.9 20.6 34.6h-7l1.9 2.6h37.4v-2.7L189.2 91.5z M126.3 48.7l0.7 0.5c-0.1 0.4-0.3 0.7-0.4 1.1l-1.3-1.3 l-0.4 1.1l1.2 1.2c-0.2 0.4-0.4 0.7-0.6 1l-1.1-1.5l-0.5 1l1 1.4c-0.2 0.3-0.5 0.6-0.7 0.9l-0.9-1.6l-0.7 0.9l0.8 1.5 c-0.3 0.3-0.5 0.6-0.8 0.8L122 54l-0.8 0.8l0.6 1.6c-0.3 0.2-0.6 0.5-0.9 0.7l-0.4-1.8l-0.9 0.7l0.4 1.7 c-0.3 0.2-0.7 0.4-1 0.5l-0.1-1.8l-1 0.6l0.1 1.7c-0.4 0.1-0.7 0.3-1.1 0.4l0.2-1.8l-1.1 0.4l-0.1 1.7 c-0.4 0.1-0.8 0.2-1.2 0.2l0.4-1.8l-1.1 0.2l-0.4 1.7c-0.3 0-0.6 0-0.8 0.1C114.3 53.7 119.7 49.1 126.3 48.7z M121.5 76.2 c0 0.4-0.1 0.8-0.1 1.2l-0.7 0.3c-5.1-2.5-8.6-7.7-8.6-13.8c0-1.1 0.1-2.2 0.4-3.3l0.6 1.5l1.1-0.1l-0.7-1.7 c0.4 0 0.8-0.1 1.2-0.2l1 1.6l1.1-0.3l-0.9-1.5c0.4-0.1 0.8-0.2 1.2-0.3l1.2 1.4l1-0.4l-1.2-1.4c0.4-0.2 0.8-0.3 1.1-0.5 l1.4 1.2l1-0.6l-1.3-1.2c0.4-0.2 0.7-0.4 1-0.7l1.5 1l0.9-0.7l-1.5-1c0.3-0.3 0.6-0.5 0.9-0.8l1.7 0.8l0.8-0.8l-1.6-0.8 c0.3-0.3 0.6-0.6 0.8-0.9l1.7 0.5L127 54l-1.7-0.5c0.2-0.3 0.5-0.7 0.7-1l1.8 0.3l0.5-1l-1.8-0.3c0.2-0.4 0.4-0.7 0.5-1.1 l1.8 0l0.4-1.1l-1.8 0c0.1-0.2 0.1-0.5 0.2-0.7c7.2 0.1 13.1 5.2 14.6 11.9l-0.4-0.1l0.1 1.8c-0.4-0.1-0.8-0.2-1.2-0.3 l-0.3-1.8l-1.1-0.1l0.3 1.8c-0.4 0-0.8-0.1-1.2-0.1l-0.6-1.7l-1.1 0l0.6 1.7c-0.4 0-0.8 0-1.2 0.1l-0.9-1.6l-1.1 0.2 l0.8 1.6c-0.4 0.1-0.8 0.2-1.2 0.2l-1.1-1.5l-1.1 0.3l1.1 1.5c-0.4 0.1-0.8 0.3-1.1 0.4l-1.3-1.3l-1 0.5l1.3 1.3 c-0.4 0.2-0.7 0.4-1.1 0.6l-1.5-1.1l-0.9 0.6l1.4 1.1c-0.3 0.2-0.7 0.5-1 0.7l-1.6-0.9l-0.8 0.7l1.6 0.9 c-0.3 0.3-0.6 0.6-0.9 0.9l-1.7-0.7l-0.7 0.9l1.7 0.6c-0.3 0.3-0.5 0.6-0.7 1l-1.8-0.4l-0.6 1l1.8 0.4 c-0.2 0.3-0.4 0.7-0.6 1.1l-1.8-0.1l-0.4 1l1.8 0.1c-0.2 0.4-0.3 0.8-0.4 1.1l-1.8 0.1l-0.3 1.1l1.8-0.1 c-0.1 0.4-0.2 0.8-0.3 1.2l-1.8 0.4l-0.1 1.1L121.5 76.2z M142.6 64.7c-0.4 8.1-7.1 14.5-15.3 14.5c-1.9 0-3.8-0.4-5.5-1 l0-0.2c0-0.2 0-0.4 0-0.6l1.7 0.8l0-1.1l-1.6-0.7c0-0.4 0.1-0.8 0.2-1.2l1.5 1l0.1-1.1l-1.5-0.9c0.1-0.4 0.2-0.8 0.3-1.1 l1.4 1.2l0.3-1.1l-1.3-1.1c0.2-0.4 0.3-0.7 0.5-1.1l1.2 1.4l0.5-1l-1.1-1.3c0.2-0.3 0.4-0.7 0.6-1l1 1.5l0.6-1l-0.9-1.4 c0.2-0.3 0.5-0.6 0.8-0.9l0.7 1.7l0.7-0.9l-0.7-1.6c0.3-0.3 0.6-0.5 0.9-0.8l0.5 1.7l0.9-0.7l-0.5-1.7 c0.3-0.2 0.7-0.4 1-0.6l0.2 1.8l1-0.6l-0.2-1.7c0.3-0.2 0.7-0.3 1.1-0.5l0 1.8l1-0.5l0-1.7c0.4-0.1 0.7-0.2 1.1-0.3 l-0.3 1.8l1.1-0.3l0.3-1.7c0.4-0.1 0.8-0.1 1.2-0.2l-0.5 1.7l1.1-0.2l0.5-1.6c0.1 0 0.2 0 0.3 0c0.3 0 0.6 0 0.9 0l-0.8 1.6 l1.1 0l0.7-1.6c0.4 0 0.8 0.1 1.2 0.2l-1 1.5l1.1 0.2l1-1.4c0.3 0.1 0.5 0.1 0.8 0.2c0 0.2 0 0.3 0 0.5l-0.9 1L142.6 64.7z"/>
							</g>
						</g>
					</g>
					<path fill="#C4CED4" d="M93.9 27.5c-0.4-2-1.5-3.7-3.1-4.8c-1.9-1.3-4.3-1.7-6.9-1.2c-2.8 0.5-5 1.9-6.4 4 c-1.2 1.8-1.6 3.8-1.2 6c0.4 1.9 1.5 3.6 3.1 4.7c1.9 1.3 4.4 1.7 7.1 1.2c2.7-0.5 4.9-1.9 6.2-3.8 C93.9 31.7 94.3 29.6 93.9 27.5z M90.3 29.1c0.5 2.8-0.1 6.2-3.5 6.9c-3.3 0.6-6.1-1.9-6.9-6.4c-0.7-3.5 0.8-6.1 3.7-6.7 c1.3-0.3 2.5 0 3.6 0.7C88.7 24.7 89.8 26.6 90.3 29.1z"/>
					<path fill="#C4CED4" d="M116.2 35.1l-1.6-2.7c-0.5-1-1-1.8-1.6-2.6c2.3-0.4 4-1.7 4.2-3.4c0-0.2 0-0.4 0-0.6 c0-0.9-0.3-1.7-0.8-2.4c-1-1.4-2.9-2.1-6.5-2.6l-3.9-0.4l-3.1-0.2c-0.1 0.1-0.3 1-0.3 1c0.1 0.1 0.6 0.2 0.6 0.2 c1.5 0.2 1.7 0.8 1.6 1.9l-1.3 9.4c-0.1 0.6-0.2 1-0.5 1.2c-0.3 0.2-0.8 0.3-1.6 0.2l-0.4 0c-0.1 0.1-0.3 1-0.3 1 c0.1 0.1 8.4 1.2 8.4 1.2c0.1-0.1 0.3-1 0.3-1c-0.1-0.1-0.8-0.2-0.8-0.2c-1.1-0.1-1.6-0.6-1.6-1.4c0-0.1 0-0.3 0-0.4 c0 0 0.5-3.6 0.5-3.6c0 0.1 1.7 0.3 1.7 0.3v0c0 0.1 3.3 6.8 3.3 6.8c0.1 0.1 5.4 0.9 5.4 0.9c0.1-0.1 0.3-1 0.3-1 C117.8 36.5 117 36.2 116.2 35.1z M113.4 25.4c0 0.2 0 0.4 0 0.6c-0.1 1-0.5 1.7-1.1 2.2c-0.8 0.6-2 0.8-3.8 0.5 c0 0-0.6-0.1-0.8-0.1c0-0.2 0.9-6.7 0.9-6.7c0 0.1 1.1 0.3 1.1 0.3C111.2 22.3 113.4 23 113.4 25.4z"/>
					<path fill="#C4CED4" d="M160.2 45l-2.4-2.3l-2.9-2.7l-0.1 0.1l-0.7 0.6c0.7 0.9 0.9 1.3 0.9 1.7c0 0.4-0.3 0.8-0.9 1.4 l-6.7 6.4c-0.9 0.8-1.4 0.7-2.6-0.4c-0.2 0-0.9 0.6-0.9 0.6c0 0.2 5.3 5.7 5.3 5.7c3.5 3.7 5.9 4.2 7.5 4.2c2 0 4-0.8 5.5-2.2 c1.4-1.4 2.2-3.1 2.3-5C164.7 50.5 163.6 48.5 160.2 45z M161.8 50.9C161.8 50.9 161.8 51 161.8 50.9c0 1.6-0.9 3.3-2.2 4.7 c-0.8 0.8-2.4 2.1-4.6 2c-1.6 0-3.2-0.8-4.7-2.3c-0.6-0.7-1-1-1-1.4c0-0.3 0.3-0.7 0.8-1.2c0 0 8-7.8 8-7.8 c0 0.1 1.2 1.2 1.2 1.2C161.1 47.8 161.8 49.3 161.8 50.9z"/>
					<path fill="#C4CED4" d="M177.5 68.5c-2.4-4.9-7.2-6.8-11.5-4.7c-3.4 1.7-5.6 6.1-3 11.3c2.6 5.4 7.7 6.4 11.4 4.6 C178.4 77.7 179.7 73.1 177.5 68.5z M176.3 72.2c-0.6 1.8-2.2 3.4-4.4 4.5c-2.5 1.2-6 1.5-7.6-1.6c-1.5-3 0.3-6.4 4.3-8.3 c1.7-0.8 3.4-1 4.8-0.6c1.1 0.4 2 1.2 2.6 2.4C176.6 69.8 176.7 71 176.3 72.2z"/>
					<path fill="#C4CED4" d="M36.1 66.9l-0.1-0.1l-0.5 1c1.5 1.9 1.9 4.1 1 6c-1.4 3-5.2 4.1-8.6 2.5c-3.3-1.6-4.7-4.8-3.2-7.8 c1-2 2.8-3 5.3-2.6c0.1-0.1 0.5-0.9 0.5-0.9c-0.1-0.2-4-1.8-4-1.8c-0.2 0.1-0.4 0.6-0.4 0.6c0.1 0.3 0.1 0.4 0 0.5l-0.5 0.5 c-0.6 0.6-1.6 1.6-2.4 3.2c-2.2 4.7-0.8 9.9 3.2 11.9c4 1.9 8.8-0.1 10.9-4.6l0.9-2.4l0.5-1.5l0.7-1.2 C38.5 68.9 37.1 67.6 36.1 66.9z"/>
					<path fill="#C4CED4" d="M50.1 45.3c-1.5-1.4-3.3-2.2-5.3-2.1c-2.2 0-4.5 1.1-6.3 3c-2 2-3 4.5-3 6.9c0 2.1 0.9 4 2.5 5.6 c2.8 2.6 7.7 3.1 11.7-1.1c1.9-2 2.9-4.3 2.9-6.7C52.6 48.7 51.7 46.8 50.1 45.3z M50.4 53.2c0 1.1-0.4 2.2-1.3 3.1 c-2.3 2.4-6.1 1.9-9.3-1.2c-2.6-2.5-2.9-5.5-0.8-7.6c2.6-2.7 6.5-1.3 9.1 1.2C49.6 50.1 50.4 51.7 50.4 53.2z"/>
					<path fill="#C4CED4" d="M71.6 36.7c-0.2-0.1-1 0.4-1 0.4c-0.1 0.1-0.2 0.6-0.2 0.6c-0.3 2.1-0.5 2.9-1.7 3.6L66 42.8L65.1 43 l-0.5-0.6l-4.7-8.7c-0.3-0.5-0.3-0.9-0.2-1.2c0.1-0.4 0.4-0.7 0.9-1l0.6-0.3c0-0.2-0.4-1-0.4-1c-0.2-0.1-7.3 3.9-7.3 3.9 c-0.1 0.2 0.4 1 0.4 1c0.2 0.1 0.6-0.2 0.6-0.2c0.6-0.3 1-0.4 1.4-0.3c0.3 0.1 0.6 0.4 0.9 0.9l4.6 8.4 c0.3 0.5 0.4 0.9 0.3 1.2c-0.1 0.4-0.5 0.7-1.1 1.1l-0.4 0.2c-0.1 0.2 0.4 1 0.4 1c0.2 0 11.5-6.1 11.5-6.1l0.1 0L71.6 36.7z"/>
				</g>
				<g>
					<path fill="#FFFFFF" d="M179.4 152h-1.8v5h-1.2v-5h-1.8v-1.1h4.9V152z M187.7 157h-1.2v-4.8h0l-1.8 4.8h-1.2l-1.7-4.8h0v4.8 h-1.2v-6.1h2.2l1.4 4h0l1.5-4h2.1V157z"/>
				</g>
			</g>
		</g>
	</g>
	<path fill="#C4CED4" d="M138.1 42.8l1-13.1c-0.1-0.1-3.3-1.7-3.3-1.7c-0.2 0.1-0.2 0.8-0.2 0.8c0 0-8.6 8.4-8.6 8.4 c-1.2 1.2-1.9 1.4-2.9 0.9l-0.3-0.2c-0.2 0.1-0.6 0.9-0.6 0.9c0.1 0.2 5.8 2.9 5.8 2.9c0.2-0.1 0.6-0.9 0.6-0.9 c-0.1-0.2-0.3-0.3-0.3-0.3c-1-0.5-1.5-0.9-1.5-1.2c0 0 0 0 0-0.1c0-0.3 0.2-0.6 0.6-1c0 0 1.9-1.8 2.1-2c0.2 0.1 4.6 2.2 4.6 2.3 c-0.1 0-0.3 2.9-0.3 2.9c0 0.7-0.2 1-0.4 1.2c-0.3 0.2-0.7 0.1-1.2-0.2l-0.8-0.4c-0.2 0.1-0.6 0.9-0.6 0.9c0.1 0.2 7.1 3.6 7.1 3.6 c0.2-0.1 0.6-0.9 0.6-0.9C138.3 45.1 138 44.5 138.1 42.8z M131.3 35.4C131.4 35.4 131.4 35.4 131.3 35.4L131.3 35.4L131.3 35.4z M131.5 35.2c0.6-0.4 3.1-2.9 3.9-3.7c0 0.6-0.4 5.3-0.4 5.6l-0.1 0C134.4 36.7 131.6 35.3 131.5 35.2L131.5 35.2z M135.1 37.1 l0 0.1l0 0C135.1 37.2 135.1 37.1 135.1 37.1z M136 28.3L136 28.3C135.9 28.2 135.9 28.2 136 28.3C135.9 28.2 136 28.3 136 28.3z"/>
</g>
</svg>
