<?xml version="1.0" encoding="utf-8"?>
<!-- Generator: Adobe Illustrator 18.0.0, SVG Export Plug-In . SVG Version: 6.00 Build 0)  -->
<!DOCTYPE svg PUBLIC "-//W3C//DTD SVG 1.1//EN" "http://www.w3.org/Graphics/SVG/1.1/DTD/svg11.dtd">
<svg version="1.1" id="KC" xmlns="http://www.w3.org/2000/svg" xmlns:xlink="http://www.w3.org/1999/xlink" x="0px" y="0px"
	 viewBox="0 0 128 168" enable-background="new 0 0 128 168" xml:space="preserve">
<g>
	<path fill="#FFFFFF" d="M11.2,39.6c0-8.5-5.1-11.2-9.7-11.1l-1.5,0V24h17.3H30l0,4.5c-4.3,0.4-8.7,3.3-8.7,11.1v26.3l2.1-1.3
		c4.3-6.8,15.7-24.7,18-29.8c2.9-6.3-1.5-6.3-5.8-6.3V24h26.6v4.4h-1.9c-2.9,0-6.5,0-11.3,6.5C43,43.3,30.9,63.6,30.9,63.6
		c18.6,1.5,25.6,29.8,30.4,33.6C58.5,77.1,72,51.9,91.8,52.8c2.2,0.1,4.9-0.2,11.3,1.7c6.3,1.9,6.9-1.5,7.7-5.4h4.7v33.3h-4.1
		c-0.3-5.8-2.9-24.8-19.6-25.4c-16.9-0.6-20.1,21.1-20.4,36c-0.8,54.8,33.6,53.1,39.9,35.4c0.9-2.6,0.5-3.3-0.5-3.8
		c-7.5-4,1.2-14.8,6-5.4c2.2,4.3-1.7,24.8-22.4,24.8C62.4,144,53,94.4,41.1,78.2c-9.3-12.6-16.9-6.9-19.7-3.8L21.2,83l0.1,15.4
		c0,8.5,5.1,11.2,9.7,11.1l1.5,0.1v4.4H16.3H0v-4.4l1.5-0.1c4.6,0.1,9.7-2.7,9.7-11.1V39.6"/>
	<path fill="#FFFFFF" d="M120.2,138.6h-1.7v4.7h-1.2v-4.7h-1.7v-1h4.6V138.6z M128,143.3h-1.2v-4.5h0l-1.6,4.5H124l-1.6-4.5h0v4.5
		h-1.2v-5.7h2l1.3,3.7h0l1.4-3.7h2V143.3z"/>
</g>
</svg>
