<?xml version="1.0" encoding="utf-8"?>
<!-- Generator: Adobe Illustrator 18.0.0, SVG Export Plug-In . SVG Version: 6.00 Build 0)  -->
<!DOCTYPE svg PUBLIC "-//W3C//DTD SVG 1.1//EN" "http://www.w3.org/Graphics/SVG/1.1/DTD/svg11.dtd">
<svg version="1.1" id="DET" xmlns="http://www.w3.org/2000/svg" xmlns:xlink="http://www.w3.org/1999/xlink" x="0px" y="0px"
	 viewBox="0 0 210.6 168" enable-background="new 0 0 210.6 168" xml:space="preserve">
<g>
	<path fill="#FFFFFF" d="M195.7,57.2c-0.4,0.6-0.9,1.3-2.5,3.5c-1.1-5-5.4-12.3-5.4-12.3c-0.3-0.7-1-1.2-0.3-2
		c0.7-1,3.3-3.3,3.9-3.7l-8.4-7.7c-6.7,1.7-10.8,9.2-13.6,17.1c-2.2,6.2-2.9,8.3-4,11.3c-2.3,7.7-3.5,9.8-3.5,9.8
		c-1.7,3.5-3.4,4-4.1,3.6c-0.6-0.5,0.5-2.8,1.1-4.1l7.8-14.8c1-2-0.6-4.2-2.6-5.7c-0.9-0.7-1.1-1.4-1.9-2.2
		c-1.5-2.3-3.1-2.7-5.6-1.3c-1.4,0.8-4,1.5-4,1.5c-3.1,1-2.1-0.7-3.3-1.7c-1.4-1.5-3.7-1.6-3.7-1.6c-5.3-0.6-8.2,4-8.2,4
		c-2.7,4.1-0.4,8.4-0.4,8.4c-1.2,4.5-1.6,6.1-2.3,8c-1.7,4.2-4.2,12.5-10.8,15.6c-3.8,1.7-4.7,1.1-4.7,1.1
		c7.2-3.4,10.7-8.8,10.7-8.8c1.8-2.5,6.1-9.9,3.8-16.3c-0.7-2.4-2.1-4.2-4.8-5.8c-3.2-1.8-6.7-1.3-9.4-0.6c0,0-5.4,1.6-8.8,6
		c0,0-2,2-4.1,6.2c0,0-4.2,8.1-3.9,16.8l-4,3l6.5-20.6c1.1-4.8-1.5-5.7-4.5-5.2l-7.7,1.5c-0.8,0.2-1.6,0.2-1.7,0.6
		c-0.9-0.6-3.4-0.8-4.8-0.5c-3.9,0.8-7.4,3.1-10.6,6.6c-8.6,9.2-9.4,23.7-9.4,23.7s0,3.3,0.1,4.7c-0.1,0.4-2,2.3-3.8,3.7
		c-2.3,1.9-2.4,2.1-1.2-1.6L70,68.3l-1.9,0.3c1-2,1.1-3.9,1.1-3.9c0.3-2.7,0-4.6-0.8-6.1c-1-1.8-4.9-5-10.1-1.9
		c-2.9,1.9-4.6,5.3-5.1,8.3c0,0-0.8,2.8,0.6,6.2l-1.7,0.4l-7.9,26.6c-2.5,8.5,0,16.6,8.3,18c4.9,1.1,10.8-1.8,14.8-6.2l3.3-3.5
		l0.7,0.6c-1.4,1.2-3.6,3.1-7.5,7c-6.2,7.4-8.4,12.4-8,18.3c0.4,4.2,3.1,11.5,12.7,11.6c2,0.1,6.6-0.8,10.5-5.1
		c5.1-6.6,4.6-6.7,11.8-29.9c0.2-0.6,0.4-1.4,0.8-2.2c3.1-4.3,10.9-11.9,13.9-14.4c0,0,5.9,9.5,19.2,4c3.6-1.7,5.3-2.9,8.5-5.9
		c3.1-3.2,5.1-4.9,8.2-10.7c0,0-0.4,10.3,10.4,11.6c0,0,7,1.3,14.1-6.6c2.2-2.2,5-7.6,7.4-12.5c1.6-3.5,3.1-6.7,3.8-8.7
		c1,3,0.4,6.5,0.4,6.5c-2.5,1.2-4.4,3.2-5.3,4.9c-3,6.4,2.6,12.2,9.9,11.4c6.2-0.5,8.6-5.1,10.2-9.5c5.8-4,8.5-11.9,8.5-11.9
		L195.7,57.2z M80.5,92.8c1.1-9.8,4.7-15,4.7-15C83,85.4,80.5,92.8,80.5,92.8z M121.4,63.7c0,0-1.2,6-4.7,10
		C116.7,73.7,118.1,66.6,121.4,63.7z"/>
	<g>
		<g>
			<g>
				<g>
					<path fill="#0C2C56" d="M210.6,81.9h-1.2v-4.4l-1.6,4.4h-0.7l-1.6-4.4v4.4h-1.2v-5.5h1.9l1.2,3.2l1.2-3.2h1.9V81.9z
						 M203.6,77.5h-1.7v4.4h-1.3v-4.4h-1.7v-1.1h4.7V77.5z"/>
				</g>
				<path fill="#0C2C56" d="M91.8,42l1-1.5V29.2l-1-1.5h5.5c1.5,0,3.3,0,4.6,0.7c1.6,0.8,1.9,2.2,1.9,3.5v6.3c0,1.4-0.6,2.5-1.8,3.1
					c-1.1,0.6-2.4,0.7-3.7,0.7H91.8z M96.9,39.4c2.8,0.2,2.8-0.8,2.7-2.7v-4.7c0-1.7-0.7-1.8-2.7-1.8V39.4z"/>
				<path fill="#0C2C56" d="M104.8,42l1-1.5V29.2l-1-1.5h10.5v2.9H110v2.6h5.2v2.9H110v3.1h5.6V42H104.8z"/>
				<path fill="#0C2C56" d="M133.5,40.1v0.7l0.9,1.3h-6l1-1.5V29.2l-1-1.5h7c3.4,0,5.1,1.1,5.1,3.9c0,1.5-0.4,2.6-2.2,3.3v0
					c1.2,0.2,2,0.9,2,1.8c0.1,1.1,0.1,3.6,0.4,4.5c0.1,0.2,0.2,0.4,0.4,0.5V42h-4.5c-0.1-0.3-0.2-0.5-0.2-0.8
					c-0.1-1.3,0-2.4-0.1-3.3c-0.1-0.9-0.4-1.4-1.4-1.5h-1.4V40.1z M133.5,33.8h1.4c1.2,0,1.5-0.9,1.5-1.8c0-1.7-0.9-1.8-2.9-1.7
					V33.8z"/>
				<path fill="#0C2C56" d="M153.4,37.4c0,3.2-1.4,4.9-5.6,4.9c-4.2,0-5.6-1.7-5.6-4.9v-5.8c0-2.7,2-4.3,5.6-4.3
					c3.6,0,5.6,1.5,5.6,4.3V37.4z M149.3,31.9c0-0.9-0.1-1.9-1.5-1.9c-1.3,0-1.5,1-1.5,1.9v5.9c0,0.8,0.2,2,1.5,2
					c1.3,0,1.4-1.2,1.4-2V31.9z"/>
				<path fill="#0C2C56" d="M161.4,27.7h10.7v4l-1.1-1.1h-2.3v9.9l1,1.5h-6.1l1-1.5v-9.9h-2.3l-0.9,1.1V27.7z"/>
				<path fill="#0C2C56" d="M116.9,27.7h10.7v4l-1.1-1.1h-2.3v9.9l1,1.5h-6.1l1-1.5v-9.9h-2.3l-0.9,1.1V27.7z"/>
				<path fill="#0C2C56" d="M154.3,42l1-1.5V29.2l-1-1.5h6.1l-1,1.5v11.3l1,1.5H154.3z"/>
			</g>
			<g>
				<g>
					<path fill="#FFFFFF" d="M36.9,53.8c-4,3.9-6.9,10.6-8.6,17.4c-1.2,3.5-5.1,16.8-7.1,24.4c-1.1,4.3-3.4,11.9-5.6,15.5
						c-1.1,1.7-2.3,1.5-3.2,0.8c-1-0.8-0.8-2.2-0.3-3c0.4-0.8,0.6-1,0.6-1c4.6-5.8-1-7.4-1-7.4c-2.4-0.8-4.6,0.1-7.2,2.9
						c-1.6,2-3.2,4-4,7.6c-1.4,6.4,1.1,11,4.9,13.6c5.9,3.9,14.2,3.4,21.4-1c0,0,4.2-1.9,8.3-8.5c3-4.8,7.6-22,7.6-22l7.9-29
						c0.7-3.7,1.7-4.8,2.4-6.5c2.1-4.7,3.6-3.7,8.8-4.5c7.4-1.3,14.4-4.3,17.7-6.4c8.1-5.3,8.4-12.4,8.7-15.5
						c0.3-2.7-0.1-3.4-0.1-3.4c-0.1-1.8-1.9-3.6-3.2-3.7c-3.5-0.5-5.3,3.2-5.3,3.2c-2.6,6.6-11.7,6.5-11.7,6.5
						c-5.9,0.6-15.9,0.2-19.9,0.3c-21.2,0.3-30.1,2.3-35.8,6c0,0-10.1,5.4-9,16.4c0.7,6.7,5.7,11.7,6.6,12.9c5,6.7,13.6,2.8,9.2-4
						c0,0-2.3-3.4,1.9-6.6C25.8,55.5,27.3,54.8,36.9,53.8z"/>
				</g>
				<path fill="#FF6600" d="M8,102.7c2.8-1.5,6,0.2,3.8,3.3c-1.3,1.4-1.9,2.8-1.9,4.2c-0.2,2.2,2.1,5.5,5.8,3.3
					c2.1-1.7,3.7-6.2,5.5-11.9c0,0,9.3-33.3,11.1-37.2c1.5-3.6,5.2-10,8.9-12.6c-6.9,0.1-13.6,1.3-17.5,3.2c0,0-2.3,0.9-4.6,2.8
					c-2.8,2.8-4.1,4.5-1.1,10.1c0.9,2.1-0.6,2.7-1.7,3c-2.2,0.4-3.3-0.5-4.3-1.6C4.6,62.1,1.2,52.6,9.1,44.5c0,0,4.5-6.1,20.3-7.7
					c5.2-0.6,14.2-1,16.6-1c7.4-0.3,15.2,0.6,24-0.5c3.3-0.4,8.8-2,10.8-6.9c1.6-3.3,4-3.2,5.1-1.4c0,0,0.9,1.7,0,6.5
					c0,0-0.8,5.2-3.5,8.3c-3.2,3.6-6,5.1-13,7.6c-6.3,2.2-11.9,2.6-11.9,2.6c-1.5,0.1-2.8-0.3-4.6,2.3c-1.2,1.7-2.8,4.3-4.1,9.6
					c0,0-7.2,28.3-12.3,43.4c-2.7,8.3-5.4,11-9.4,14.1c-5.3,3.8-11.9,5.3-16.8,3.7c-5.1-1.4-8-5-8.4-8.8
					C1.4,110.8,3.5,105.5,8,102.7z"/>
				<path fill="#FF6600" d="M195.8,60.4c-0.4,0.9-2.2,3.1-3.5,4.2c0.1-4.7-6.6-16.3-6.6-16.3c-0.9-1.5-0.6-1.5-0.4-2.1
					c0.2-0.6,1.3-1.7,3.4-3.5l-6.1-5.6c-6.5,1.8-10.2,12.1-10.2,12.1c-3,7.2-7,19.6-7,19.6c-1.8,7.3-6.3,11.5-8.6,10.3
					c-1.9-1.1-1-4.2,0.4-7c0,0,7-13.3,7.5-14.3c1-1.6-0.2-3.1-1.7-3.8c-0.6-0.5-1.7-1.8-2.6-3.1c-1.1-1.6-2.1-1.1-3.6-0.2
					c-2,1.2-3.7,1.5-7,1.8c-0.7,0-0.8-0.3-1.1-1.3c-0.9-2.6-5.2-3.9-9-0.5c-1.4,1-3.2,5.1-1,8.4c-2.3,10.4-5.8,17-8.7,21
					c-2.8,3.8-7.2,5.3-7.2,5.3c-1.5,0.4-5.9,1.7-6.5-1.7c0,0,15.2-5.8,16.1-20.7c-0.4-6.1-3.7-9.3-9.9-9.1
					c-11.5,1.2-16,14.8-16,14.8s-3.2,9-2.2,13.8l-9.2,7.3l8.2-26c0.7-2.4-0.1-3.4-2.7-3.1l-7,1.3c-1.9,0.3-1.7,1.1-1.7,1.1
					c-2.4-1.2-4.6-0.8-4.6-0.8c-11.3,1.7-16.9,17-16.9,17c-3.7,10-2.3,16.8-2.3,16.8c-2.2,3.2-7.2,6.7-7.2,6.7
					c-2.9,2-3.2,0.7-2.5-1.5L67.7,70l-3.2,0.7c0,0,2.2-1.2,3.1-6.3c0,0,1.2-4-1.9-6.3c0,0-3.2-2.7-7.1,0.7c0,0-4.5,4-3.5,9.7
					c0,0,0.1,2.6,2.2,3.8L53.7,73l-7.6,26c-0.8,3.5-1.1,6.1-0.3,9.2c0,0,1.7,6.5,9.4,6.4c0,0,5.6,0.2,11.6-6.6l4-4.3
					c0,0,0.9,2.1,3.8,3.1c0,0-8.1,6.1-12,11.8c-2,3-4.7,7.3-4.8,11.9h0c0,0-0.8,12.3,11.9,11.7c2.5-0.1,6.8-2,9.8-6.6
					c0,0,2.8-3.4,6.3-15.8l4.3-13.9c0,0,7.5-9.5,16-16.1c6.5,10.8,19.9,7,28.6-3.1c2.5-3.1,4.4-5.4,7.9-12.1c2-4.3,4.2-8.7,5.3-12.4
					c0,0,0.5,0.2,1,0l-3.7,8.4c0,0-2,5-1.7,9.6c0.3,5.6,5,10.5,12.7,9c3.4-0.9,8.1-4.1,10.8-8.3c2.6-4,7.8-14.6,10.9-22.5
					c3.1,7.3,1.8,12.9,1.8,12.9c-3.5,1.2-5.6,3.5-5.9,6.6c0.3,3.2,2.1,6.8,8.2,6.5c7.6,0.1,9.1-8.9,9.1-8.9
					c3.1-1.4,6.5-6.1,8.1-10.4L195.8,60.4z M69.4,131.3c-1.8,1.6-2.8,0.6-2.7-0.8c0.4-2.6,3.5-8.8,8.8-12.9
					C75.2,121.6,72.4,128.6,69.4,131.3z M87,77.2C86.1,80.9,83.6,89.4,82,93c-1.2,2.4-3.3,1.5-3.2-1.1c1.1-8.5,3-11.6,4.6-14.7
					C85.1,74.1,87.7,74.1,87,77.2z M116.6,68.2c0.7-1.7,1.6-3.2,2.7-4.8c2.1-3,4.1-2.5,3.6,1c-0.2,1.4-0.8,3-1.6,5
					c-1,2.4-2.2,4.7-6.2,7.2C114.9,72.4,115.7,70.4,116.6,68.2z"/>
				<path fill="#0C2C56" d="M182.9,47.5c2.5,4,8.6,15.1,7.2,21.4c2.3-1.2,4.3-3.3,5.4-4.9l1,1.8c-1.7,4.2-4.4,6.8-7.1,8.7
					c-1.8,4.8-3,8.6-9.3,8.1c-6.3-0.9-6-7.9,1.2-9.4c0.4-2.9,1.7-10.8-3.8-19.3c-1.4,3.5-8.3,19.6-11.9,25.3c-2.5,4-6.5,7.1-9.2,8
					c-3.5,1.1-8.4,0.3-10.4-4.2c-2.8-6.2,4.5-19.6,6.9-23.4c-2.6,1.2-5.3,1-6.5,0.5c-4,12.4-14.5,34.6-29.3,34
					c-4.5,0.1-8.2-2.1-10.2-7.5c-9.3,7.1-13,11.8-18.6,18L81,128.5c-3.7,9.7-9.2,11.9-13,11.8l0,0c-5.4-0.5-9.2-5.1-7.7-12.2
					c2.2-10.1,15.8-20.2,19.3-22.3l0.2-0.5c-6.1,0.8-7.6-3.1-8.4-5.1c-4.9,5.3-7.1,7.9-9.4,9.6c-9.5,6.9-17.3,0.1-13.7-10.6
					l7.1-24.3l9.3-2.1c0,0-8.6,27.8-8.6,30.5c0.1,2.7,2.9,3.1,4.3,2.2c0,0,5.2-2.6,9.8-8.7c-1.8-16.1,8.1-26.8,8.1-26.8
					c6.5-6.9,11.5-6.3,14.1-4.2l0,0l0.5-1.5l8.6-1.7L91.3,95.4l15.1-11.7c-0.2-1.5-0.3-2.6,0.2-6.2c2.4-16,10.9-21.3,16.3-21.6
					c6.4-0.4,9,4.7,6.6,11.9c-2.8,8.3-10.1,12.1-15.6,15c0.4,2.2,1.5,5.2,5,5.3c6,0.3,11.1-4.8,11.1-4.8c4.1-3.3,9.6-15.9,11.1-24.4
					c-0.3-0.3-0.6-0.8-0.9-1.6c-0.5-1.3-0.3-3.3,0.9-4.8c0.9-1.2,2.9-2,5-1.2c1.6,0.7,1.7,2,1.8,2.7c0.1,1.2,7.7,0.1,10-1.6
					c0.7-0.5,1.4-0.7,1.7,0.2c0.4,1,2,3.2,3.1,3.5c0.7,0.2,0.6,1.1,0.1,1.7c-0.5,0.6-7.2,13.1-8.1,16c-0.9,2.8-1.5,6.4,1.2,7.4
					c1.8,0.7,6.1-0.2,9-5c3.9-6.4,9.1-32.8,17.4-36.6l3.5,3.3c-1.2,0.9-2.2,2-2.8,3.1C182.5,46.7,182.3,46.8,182.9,47.5z M61.4,70.5
					c2.4-1.3,4.3-4.8,4.3-7.8c0-3-2-4.4-4.4-3.2c-2.4,1.3-4.3,4.8-4.3,7.8C57.1,70.4,59,71.8,61.4,70.5z M118.6,61.1
					c-2.6,2.4-6.9,9.7-5,18.6c10.1-4.3,11.2-14.3,11.2-14.3C125.9,58.6,121.5,58.3,118.6,61.1z M83.8,73.5
					c-3.1,2.9-6.1,9.6-7.1,18.8c-0.1,6,6,5.3,7.6,0.7L89,78.7C90.9,72.3,85.8,71.6,83.8,73.5z M68.9,121.5c-6,8-5.3,14.8-0.4,13.1
					c7-2.5,8.6-17.8,10.1-22.1C74.3,115.8,72.3,117,68.9,121.5z M84.2,27.9l-1,0.4c-2.1,5.9-7.4,8.3-12,9c-12.1,1.9-44.5-1.7-56.9,6
					C6.9,47.7,1.5,57,14.7,69.1l1.5-0.3C8,56.8,25.9,48.1,47.3,50c-6.8,3-12.2,11.9-13.9,17.3c-1.2,4-9.8,32.9-10.9,36.8
					c-3.6,12.1-7,12.9-10.8,11.9c-3.1-0.8-6.2-6.5-1.6-11.1l-0.1-0.7c-3.2,1-6.1,5.9-6.2,10.2c0,4.3,2.6,8.4,10.1,9.1
					c3.8,0.3,15.2-2,19.6-14.5c4.9-13.7,12.1-42.5,13.3-46.7c1.6-5.5,3.3-9,7.2-12.4c4.7,0.1,21.5-3,26.6-9.8
					C84.2,35.7,84.2,31.2,84.2,27.9z"/>
			</g>
		</g>
	</g>
</g>
</svg>
