<?xml version="1.0" encoding="utf-8"?>
<!-- Generator: Adobe Illustrator 18.0.0, SVG Export Plug-In . SVG Version: 6.00 Build 0)  -->
<!DOCTYPE svg PUBLIC "-//W3C//DTD SVG 1.1//EN" "http://www.w3.org/Graphics/SVG/1.1/DTD/svg11.dtd">
<svg version="1.1" id="MIN" xmlns="http://www.w3.org/2000/svg" xmlns:xlink="http://www.w3.org/1999/xlink" x="0px" y="0px"
	 viewBox="0 0 122.5 168" enable-background="new 0 0 122.5 168" xml:space="preserve">
<g>
	<path fill="#FFFFFF" d="M58.8,109.4c3.1,0.4,6.3,0.7,9.6,0.6c1.2,0,2.3-0.1,3.5-0.2l0.3-74.7c10.8,0.3,22.2,1.6,32.4,4.5
		c0.8,4.4,7.1,12.9,13.8,13.8c0,0-2.6-16-1.9-24.2c-14.7-4.1-62.3-9.2-102.2-0.5c0,0-0.1,20.4-2.9,24.5c0,0,13.1-3.4,16.1-15.1
		c0,0,14-2.5,32.1-3l-0.2,25.9l0,1L58.8,109.4z"/>
	<path fill="#FFFFFF" d="M58.6,126.1l0,5.4L51.1,144l30.1-0.6L71.8,132l0-5.6c-1.2,0.1-2.4,0.2-3.6,0.2
		C64.8,126.7,61.7,126.5,58.6,126.1z"/>
	<polygon fill="#FFFFFF" points="85,130.7 84.3,132.5 84.3,132.5 83.2,129.4 81.5,129.4 81.5,134.1 82.5,134.1 82.5,130.4 
		82.5,130.4 83.8,134.1 84.8,134.1 85,133.6 86.1,130.4 86.2,130.4 86.2,134.1 87.1,134.1 87.1,129.4 85.5,129.4 	"/>
	<polygon fill="#FFFFFF" points="79.2,134.1 79.2,130.2 80.7,130.2 80.7,129.4 76.9,129.4 76.9,130.2 78.3,130.2 78.3,134.1 	"/>
	<path fill="#D31145" d="M72.1,44.7L72,61.4c17.2,1,31,9.3,33.6,20.1l16.9-0.3C120,61.6,98.6,46.2,72.1,44.7z"/>
	<path fill="#D31145" d="M71.8,109.9c-1.2,0.1-2.3,0.2-3.5,0.2c-3.3,0.1-6.5-0.2-9.6-0.6c-16.5-2.4-28.8-11.7-29-23
		c-0.2-11.6,12.4-21.6,29.5-24.4l0-1L59.4,46c-13.9,1.9-27,9-35.7,18C16.5,72.7,4.8,84.2,0,86c0,0,18.1,14.9,21.7,20.7
		c7.7,9.7,20.4,17.5,36.9,19.4c3.1,0.4,6.2,0.5,9.5,0.5c1.2,0,2.4-0.1,3.6-0.2c24.9-1.7,45.1-15.5,49.9-33.2l-17.9,0.3
		C98.9,102.2,86.7,108.7,71.8,109.9z"/>
</g>
</svg>
