<?xml version="1.0" encoding="utf-8"?>
<!-- Generator: Adobe Illustrator 18.0.0, SVG Export Plug-In . SVG Version: 6.00 Build 0)  -->
<!DOCTYPE svg PUBLIC "-//W3C//DTD SVG 1.1//EN" "http://www.w3.org/Graphics/SVG/1.1/DTD/svg11.dtd">
<svg version="1.1" id="CWS" xmlns="http://www.w3.org/2000/svg" xmlns:xlink="http://www.w3.org/1999/xlink" x="0px" y="0px"
	 viewBox="0 0 85.7 168" enable-background="new 0 0 85.7 168" xml:space="preserve">
<g>
	<g>
		<g>
			<g>
				<g>
					<path fill="#C4CED4" d="M13,33.7c-2.9,3.1-5.8,9.4-6.2,13.5c-0.1,1.4-0.2,2.7-0.2,3.9c0,4.2,0.8,7.4,2.7,10.5
						c2.3,3.9,6.1,7.2,10.8,9.3c5,2.3,11.8,5.4,12.5,5.7c1.4,0.6,3.5,1.7,4,2.3c-0.7,0.5-6.2,4.5-6.6,4.8c-3.6-1.2-9.3-0.5-11-0.1
						c-4.8,1.1-9.2,3.3-12.3,6c-3.1,2.7-5.6,6-6.3,8.4c-0.7,2.2-0.6,3.6,0.2,4.3c0.8,0.6,2.1,0.4,4-0.8c2-1.3,6.2-3.9,11.4-4.7
						c3.9-0.6,7.8-0.1,10.7,0.6c0,0,2.2,0.7,4,1.9c0,0.6,0,6.2,0,6.7c-0.3,0.3-1.9,1.7-1.9,1.7c-0.3,0.3-0.4,0.6-0.4,0.9
						c0,0.2,0,0.4,0.1,0.5c0.1,0.4,0.5,0.6,0.5,0.6l19.7,12c0,0,4.7-3.6,5.5-4.2c0.3,0.5,0.7,1.2,0.9,1.6c-0.4,0.5-5.5,6.7-6.1,7.4
						c-0.7-0.6-4.4-3.9-4.4-3.9c-1.1-1-1.9-0.9-2.4-0.7c-0.7,0.3-1.2,1.2-1.2,2.4v11.2l6.6,6.3c1,1,1.9,1.2,2.5,1.2
						c0.6,0,1.2-0.4,1.7-0.9c0,0,7.6-9.7,9.6-12.3c0.7,1.2,7.3,11.2,7.3,11.2l0.2,0.4c0.3,0.7,0.8,1.8,1.8,2c0.6,0.2,1.3,0,2.1-0.6
						c2.1-1.6,7.1-5.4,7.7-6.1l0.2-0.2c0.5-0.5,0.9-0.9,0.9-1.4v-11.5c0-0.5-0.3-1.2-0.9-1.5c-0.4-0.2-1-0.2-1.9,0.6c0,0-4,3-5.3,4
						c-0.5-0.8-3.9-6.2-4.3-6.8c0.4-0.6,8.5-10.7,9.1-11.4c0.6,0.5,2.3,1.8,2.3,1.8c0.9,0.6,1.6,0.7,2.2,0.4c1-0.6,1-2.3,1-2.5v-8.9
						l-5.6-5.8c-0.4-0.5-1-0.8-1.6-0.7c-0.6,0.1-1.2,0.4-1.6,1c-0.3,0.5-4.6,5.9-7.6,9.6c-0.8-0.6-1.9-1.1-2.5-1.3
						c0-0.7,0-14.7,0-15.1c0.2-0.2,1.5-1.5,1.5-1.5c0.2-0.2,1.1-1.2,1.1-2.2c0-0.2,0-0.4-0.1-0.6c-0.3-0.9-1.3-1.3-3-1.3
						c0,0-0.5,0-1,0.1c1.2-2.7,1.6-5.7,1.6-7.8c0-0.1,0-0.3,0-0.4c0-3.8-0.9-7-2.5-9.4c-2-3-3.5-3.9-5.9-5.4L55.9,58
						c-2.8-1.8-17.7-9.6-18.3-9.9c0,0-5.7-2.8-5.7-2.8c-4.5-2.3-5.2-4.2-5.2-5.9c0-0.1,0-0.1,0-0.2c0-1.4,2-4,5.4-4
						c2.3,0,4.1,0.1,7.3,1.2c4.1,1.4,6.2,3.4,6.2,6.2c0,0-0.1,1-0.1,1l6.9,4.7l11.7-15l-8.3-5.5l-0.3,0.3c-1.8,1.8-1.9,1.8-3.8,1.4
						c-0.5-0.1-1.6-0.5-2.9-1.1C44.9,26.6,38.4,24,32.6,24C22.8,24,17.7,28.6,13,33.7z M30.5,84.6l7.4-5.4v-0.3
						c-0.1-1.3-3.6-2.9-4.9-3.4c-0.7-0.3-7.6-3.4-12.5-5.6c-4.5-2.1-8.1-5.2-10.4-8.9c-1.6-2.7-3-6.3-2.3-13.7
						c0.4-3.8,3.2-10,5.9-12.8c4.6-4.9,9.4-9.3,18.9-9.3c5.5,0,11.9,2.6,15.7,4.1c1.5,0.6,2.5,1,3.1,1.1c2.1,0.4,2.7,0.3,4.4-1.4
						c0.6,0.4,5.8,3.9,6.6,4.4c-0.7,0.8-9.8,12.5-10.3,13.3c-0.7-0.5-5.1-3.5-5.5-3.8c0-0.2,0-0.4,0-0.4c0-3.3-2.3-5.7-6.9-7.2
						c-3.3-1.1-5.3-1.2-7.7-1.2c-4.1,0-6.4,3.3-6.5,5c-0.1,2.8,1.7,5,5.8,7.1c0,0,5.7,2.8,5.7,2.8c0.1,0.1,15.5,8.1,18.2,9.9
						l0.6,0.4c2.4,1.5,3.7,2.3,5.6,5.1c1.6,2.4,2.4,5.4,2.3,9.2c0,2.2-0.4,5.4-1.8,8.2l-0.5,0.9l2.9-0.3c1,0,1.7,0.2,1.9,0.6
						c0.2,0.5-0.4,1.4-0.7,1.6l-1.9,1.9l0,0.2v16.1l0.4,0.1c0.9,0.3,2.4,0.9,2.8,1.5l0.4,0.6l0.4-0.6c0.8-1,7.6-9.5,8.1-10.2
						c0.2-0.3,0.5-0.4,0.8-0.5c0.3,0,0.5,0.1,0.7,0.3c0,0,4.5,4.7,5.3,5.5c0,0.4,0,8.5,0,8.5c0,0,0,0.1,0,0.1c0,0.5-0.1,1.2-0.4,1.4
						c-0.2,0.1-0.5,0-1-0.3c0,0-3.1-2.5-3.1-2.5l-10.2,12.9l5.3,8.5l6.3-4.8c0.4-0.4,0.6-0.4,0.7-0.4c0.1,0.1,0.2,0.3,0.2,0.5v11.5
						c0,0.1-0.2,0.4-0.5,0.7l-0.2,0.2c-0.6,0.6-5.4,4.4-7.6,6c-0.5,0.3-0.9,0.5-1.2,0.4c-0.5-0.1-0.8-0.9-1.1-1.4l-0.3-0.6
						l-8.1-12.5l-10.5,13.5c-0.2,0.2-0.5,0.5-0.9,0.5c-0.5,0-1.1-0.3-1.7-0.9c0,0-5.9-5.7-6.2-6c0-0.4,0-10.7,0-10.7
						c0-0.9,0.3-1.3,0.5-1.4c0.3-0.1,0.7,0.1,1.2,0.5c0,0,5.2,4.7,5.2,4.7l7.3-8.9l-2-3.3c0,0-5.3,4.1-5.9,4.5
						c-0.6-0.4-19-11.6-19.1-11.6c0,0,0-0.1,0-0.2c0-0.1,0-0.1,0-0.2l2.2-2l0-0.2v-7.5l-0.3-0.2c-1.5-1-2.7-1.7-4.8-2.2
						c-3.6-0.9-7.9-1.1-10.9-0.6c-5.4,0.9-9.8,3.5-11.8,4.8c-2,1.2-2.6,1-2.8,0.9c-0.3-0.2-0.4-1.2,0.2-3.1c0.7-2.2,3-5.3,6-7.9
						c3-2.6,7.2-4.7,11.8-5.8c1.8-0.4,7.5-1,10.7,0.2l0.3,0.1L30.5,84.6z"/>
				</g>
			</g>
		</g>
		<g>
			<path d="M82,141.8h-0.8v2.2h-0.6v-2.2h-0.8v-0.5H82V141.8z M85.7,144h-0.6v-2.2h0l-0.8,2.2h-0.5l-0.8-2.2h0v2.2h-0.6v-2.7h1
				l0.6,1.8h0l0.7-1.8h1V144z"/>
		</g>
	</g>
	<g>
		<path d="M81.9,108.3v-8.2l-5.1-4.6l-14.2,17.6l-2-3.2c1.7-1.3,4-3,4.2-3.1c0.4-0.2,1.4-0.8,1.9-0.8c0.5,0-0.7-2.1-4.1-2.1V85.9
			l1.9-2.2c0,0-2.4,0.4-3.5,0c-0.2-0.1-0.6-0.3-1.1-0.5c0.6-1,1.2-2.2,1.6-3.5c2.3-7.3,0.8-14.1-4.7-18.3c-3.9-2.9-19.8-11-19.8-11
			s-9.6-4.7-10.7-5.8c-0.7-0.7-2.3-1.9-2.3-5.5c0-2.2,2.4-4.6,3.5-5.1c1.7-0.8,2.2-1.2,5.6-1.2c1.9,0,3.7,0.4,3.9,0.5
			c2.1,0.2,7.1,1.9,9.6,5.3c1,1,1.2,3.9,1.2,3.9l4,2.6l8.7-11.4L56,30.5c-1.3,1.4-3.9,1.5-4.9,1c-1-0.5-9.8-3.7-11.1-4.1
			c-2.4-0.8-7.5-1.3-10.2-0.9c-2.8,0.4-7.3,1.3-10.9,5c-4.1,4.4-4.2,7.9-4.2,9.8c0,3,0.8,6.9,4.1,10.2c4.8,4.8,12.1,7.8,13.7,8.7
			c2.9,1.6,12.1,6.4,13.4,7.2c5.6,3.3,7.8,6.8,7.2,11.2c0,0.2-0.1,0.4-0.1,0.6c-2.5-1.5-5.9-3.6-7.3-5c0,0-0.8,0.9-1.4,1.4l-4.1,3.1
			c0.5-2,0.5-5.4,0.5-5.7c-0.1-0.4-0.4-3.7-3.3-5.7c-1.9-1.4-6.3-4-10-5.8c-1.6-0.8-6.8-3.9-9.3-6c0,0-4.3-4-5-6.5
			c-1.3-2.8-1.3-9.5-0.7-10.1c0,0-1.6,1.8-2.8,5.5c-0.6,1.8-0.9,4.1-0.9,5.7c0,2.7,0.5,7.3,3.4,11.3c1.3,1.7,3.3,3.7,5.4,5.1
			c2.6,1.7,5.2,2.7,5.4,2.9c0.7,0.5,7.5,3.4,8.1,3.7c0.6,0.3,3.7,1.7,4.4,2.1c2.3,1.2,3.5,2,4.3,4l-7,5.2c0,0,0.3,0.6,0.3,1.4
			c0,0,0,0.2,0,0.7C32,86.2,31,86,30.1,85.8C25.5,85,22.7,85.1,19,86c-4,1-8.3,2.6-12.3,6.6c-4.5,4.5-4.5,7.5-4.5,7.5l4.5-2.7
			c3.8-2.1,8.7-3.4,12.2-3.4c8.4,0,12.7,2.4,13.9,3.8c0,4.2,0,7.9,0,8.1c0,1.6-0.5,1.8-0.8,2.1c-0.1,0.1-0.3,0.1-0.7,0.5
			c0,0,0.6,0.2,0.8,0.4c0.4,0.3,16.4,9.9,16.4,9.9l6.2-4.5l3.1,4.9l-8.5,10.5l-5.8-5.3v9.9l6.7,6.1l11.8-14.8l9.7,15.4l7.8-6.2V125
			l-6.2,4.7l-6.3-10.1l11.5-14.4L81.9,108.3z M42.1,86.2l3.6-2.7c1,0.8,2.2,1.6,3.3,2.2c-0.1,0.1-0.1,0.1-0.1,0.1s-4.2,3.6-6.8,4
			V86.2z M48.5,109.5l-6.4-3.9V96c2.7-0.5,9.2-3.6,12.6-6.9c0,0.6,0,7.1,0,11.5l-3.9-6.2l-6,4.2v7.6l3.3-2.2l2.5,3.9L48.5,109.5z"/>
	</g>
</g>
</svg>
