<?xml version="1.0" encoding="UTF-8" standalone="no"?>
<!-- Created with Inkscape (http://www.inkscape.org/) -->

<svg
   xmlns:dc="http://purl.org/dc/elements/1.1/"
   xmlns:cc="http://creativecommons.org/ns#"
   xmlns:rdf="http://www.w3.org/1999/02/22-rdf-syntax-ns#"
   xmlns:svg="http://www.w3.org/2000/svg"
   xmlns="http://www.w3.org/2000/svg"
   version="1.1"
   width="414.53241"
   height="200"
   id="svg2"
   style="enable-background:new">
  <title
     id="title4260">Baltimore Ravens logo</title>
  <defs
     id="defs4" />
  <metadata
     id="metadata7">
    <rdf:RDF>
      <cc:Work
         rdf:about="">
        <dc:format>image/svg+xml</dc:format>
        <dc:type
           rdf:resource="http://purl.org/dc/dcmitype/StillImage" />
        <dc:title>Baltimore Ravens logo</dc:title>
        <dc:date>December 29, 2014</dc:date>
        <dc:creator>
          <cc:Agent>
            <dc:title>Wikipedia user: rtmorgan</dc:title>
          </cc:Agent>
        </dc:creator>
        <cc:license
           rdf:resource="https://en.wikipedia.org/wiki/Wikipedia:Non-free_content" />
        <dc:rights>
          <cc:Agent>
            <dc:title>Fair use</dc:title>
          </cc:Agent>
        </dc:rights>
      </cc:Work>
    </rdf:RDF>
  </metadata>
  <g
     transform="translate(-336.5,-715.375)"
     id="g3923"
     style="display:inline">
    <path
       d="m 524.90776,715.38257 c -42.93414,0.37245 -85.46634,14.50231 -122.52744,41.60708 -23.08474,15.887 -42.35799,40.80614 -65.88032,71.35115 0,0 23.276,-9.03906 38.58377,-15.27031 9.52168,-3.87599 50.89724,-16.41317 55.0922,-11.08565 3.72745,4.73378 -5.7692,18.43813 -8.41737,22.46878 -8.65944,13.18011 -22.68957,33.43928 -22.68957,33.43928 0,0 30.80599,-11.33123 45.83019,-14.82885 3.75331,-0.87381 23.10817,-6.28523 17.46829,2.51466 -4.82337,7.52587 -19.76219,27.72847 -19.76219,27.72847 0,0 26.92593,-10.46691 43.50751,-15.25115 17.64261,-5.09031 58.06595,-11.67559 47.68264,2.66824 -1.81412,2.50602 -10.79774,17.07473 -10.79774,17.07473 l 19.84856,-2.84096 c 0,0 -0.24978,14.10358 9.78047,26.45196 1.34737,1.65899 13.52333,13.965 13.52333,13.965 1.81009,-7.40414 4.74545,-19.51138 7.10244,-25.43456 3.63988,-9.14667 12.07422,-15.50064 12.07422,-15.50064 0,0 0.71545,2.71859 1.14236,7.25597 0,0 13.53429,-4.41901 20.6737,-7.71672 8.25784,-3.81433 14.14771,-9.32919 14.14771,-9.32919 8.95823,-0.58172 22.74083,-1.34873 35.04175,-0.50867 5.78699,0.39515 16.44431,1.61398 26.02027,1.75639 11.15048,0.16048 24.83157,-1.12409 27.26799,-1.45889 7.50445,-1.03126 12.17442,-3.12704 19.01288,-2.14993 4.54671,0.64961 8.30047,3.12495 14.23406,6.38266 2.92486,-5.45589 6.17269,-9.57332 7.87035,-18.99439 1.11589,-6.19212 -0.24493,-25.20021 -16.48978,-38.96765 -12.21502,-10.35333 -19.85748,-13.61954 -19.85748,-13.61954 2.71534,-1.25065 4.95574,-2.07412 8.02334,-2.90814 0,0 -9.69954,-4.21686 -15.72061,-6.54577 -4.02968,-1.55846 -15.32783,-5.56683 -15.32783,-5.56683 0,0 0.8225,-1.16316 1.40107,-1.69884 0.86249,-0.79898 1.48774,-1.52608 1.48774,-1.52608 0,0 -12.80473,-2.29563 -21.32696,-3.33046 -5.21178,-0.63293 -17.3822,-0.7487 -17.3822,-0.7487 -1.35708,-12.95307 -2.34342,-20.02729 -3.11916,-26.11602 -2.48186,3.45161 -4.24179,6.29864 -8.12005,10.8361 -8.09799,-11.64282 -13.41173,-15.95903 -25.6553,-30.18555 0,0 0.43116,4.43436 0.62432,6.61302 0.16041,1.81598 0.44141,5.37483 0.44141,5.37483 0,0 -13.60564,-10.72031 -40.58987,-18.96554 -17.88886,-4.80321 -36.09085,-7.09659 -54.2187,-6.93929 z m 129.61076,77.52259 14.02255,2.58187 19.08105,5.49958 20.47208,7.95678 12.60205,8.63811 7.39035,7.87033 6.15286,9.25235 1.38169,15.35677 -6.38257,-2.14996 -34.32251,3.99276 -40.62798,-3.22486 -29.72508,0.7678 -11.29672,2.91775 -31.25096,-23.34219 -56.13817,-1.07502 0.22072,-14.58882 47.9125,-19.04235 18.43822,-0.96936 44.85103,8.24461 4.92331,-7.41918 12.29558,-1.26697 z"
       id="white_outline"
       style="fill:#ffffff;fill-opacity:1;stroke:none" />
    <path
       d="m 526.38582,720.9206 c -0.92929,-0.003 -1.8542,10e-4 -2.78341,0.0104 -61.0532,0.90894 -120.60335,31.29269 -157.94383,79.37504 -4.24689,5.11627 -8.36541,10.33884 -12.49659,15.54868 23.84701,-9.42812 48.1289,-19.5173 74.06741,-20.61641 8.61808,-0.36513 11.45223,5.30434 9.53077,11.35438 -3.10901,9.78921 -10.34039,19.92127 -15.50071,28.61148 -2.69882,3.96508 -5.44725,7.89969 -8.14864,11.86309 18.5773,-5.4551 37.72786,-13.26832 52.29922,-11.76708 5.30469,0.54654 4.77218,8.58223 1.75643,13.01478 -3.05604,4.49183 -6.51035,8.66692 -9.25243,13.3412 22.40148,-8.14668 45.03087,-15.36796 69.20122,-14.83846 5.66549,0.12414 13.81056,1.70642 14.32974,7.88954 0.44839,5.33631 -4.03809,11.27385 -7.0641,15.28952 4.77767,0.17953 13.6752,-2.09855 13.67744,-1.61247 0.0714,16.24112 3.79643,25.38855 15.16376,36.20344 1.79264,-13.96794 10.6802,-34.37292 26.76882,-38.38219 0.61062,5.02873 0.27829,5.0317 0.99841,8.12943 9.92046,-3.19428 21.93478,-8.80621 28.23786,-14.93436 11.40385,-0.89497 20.26505,-1.37625 30.37715,-0.92138 22.67465,1.02007 45.37699,3.73863 67.59821,-1.09415 7.39862,-1.60904 15.19168,-1.63562 23.51512,3.61842 9.0241,-12.31615 3.71423,-31.45533 -5.22175,-41.09847 -8.83369,-10.65496 -29.52975,-21.32255 -36.76935,-23.7357 l 7.48617,-2.3707 c -9.69472,-4.42106 -25.45315,-8.96448 -25.45315,-8.96448 l 2.02503,-2.08278 c -8.14445,-2.2493 -27.65729,-2.772 -32.85401,-1.99631 0.31028,-3.10257 -0.39599,-15.09498 -1.09394,-17.2668 -1.31881,1.1635 -5.51887,7.56323 -5.51887,7.56323 -1.78413,-9.38516 -17.0655,-24.22524 -17.0655,-24.22524 0,0 0.50224,3.39904 0.55701,7.07369 -20.03524,-18.66969 -51.95598,-29.42691 -80.92983,-32.02835 -6.47574,-0.6187 -12.98864,-0.92687 -19.49366,-0.95015 z m 128.1327,71.98456 14.02255,2.58187 19.08105,5.49958 20.47208,7.95678 12.60205,8.63811 7.39035,7.87033 6.15286,9.25235 1.38169,15.35677 -6.38257,-2.14996 -34.32251,3.99276 -40.62798,-3.22486 -29.72508,0.7678 -11.29672,2.91775 -31.25096,-23.34219 -56.13817,-1.07502 0.22072,-14.58882 47.9125,-19.04235 18.43822,-0.96936 44.85103,8.24461 4.92331,-7.41918 12.29558,-1.26697 z"
       id="gold_outline"
       style="fill:#8e7636;fill-opacity:1;stroke:none;display:inline;enable-background:new" />
    <path
       d="m 654.51852,792.90516 14.02255,2.58187 19.08105,5.49958 20.47208,7.95678 12.60205,8.63811 7.39035,7.87033 6.15286,9.25235 1.38169,15.35677 -6.38257,-2.14996 -34.32251,3.99276 -40.62798,-3.22486 -29.72508,0.7678 -11.29672,2.91775 -31.25096,-23.34219 -56.13817,-1.07502 0.22072,-14.58882 47.9125,-19.04235 18.43822,-0.96936 44.85103,8.24461 4.92331,-7.41918 12.29558,-1.26697 z"
       id="white_beak"
       style="fill:#ffffff;fill-opacity:1;stroke:none;display:inline;enable-background:new" />
    <path
       d="m 528.34377,726.77529 c -24.74304,0.0617 -48.11248,4.87767 -66.95528,11.70949 -35.83838,12.99396 -61.73782,37.51124 -76.62999,56.15763 12.83894,-6.32542 56.88223,-17.44553 64.70936,-7.18886 8.92506,11.69523 -11.50738,39.31443 -15.66384,46.12772 11.25177,-3.3501 40.01339,-13.01149 47.95137,-5.43244 4.45814,4.25666 -2.38991,14.157 -2.38991,14.157 0,0 53.05082,-15.14848 65.76514,3.79117 5.22511,7.7837 -1.51656,18.61042 -1.51656,18.61042 l 13.93619,-2.8794 c 0,0 -2.22683,6.3159 -1.27636,16.22054 0.60375,6.29508 4.71223,13.39875 4.71223,13.39875 4.11527,-13.77087 11.97642,-25.79195 33.61221,-31.3181 l 1.47832,6.49783 c 7.99325,-2.03101 18.51959,-8.87881 21.29762,-12.89968 10.39351,-1.55125 25.95062,-2.58795 39.05415,-1.27648 15.75524,1.5768 26.79988,3.19955 52.76041,1.24771 17.09507,-1.28535 18.7597,-5.59275 27.6031,0.11512 5.37895,-10.45397 -0.48942,-25.60323 -12.89012,-36.62573 -15.18077,-13.49387 -23.50749,-16.21004 -41.4245,-22.0273 l 9.02194,-1.34372 c -4.80882,-2.32685 -15.83177,-4.96589 -21.06753,-5.54761 l 2.14049,-2.11152 c 0,0 -6.64409,-1.33052 -12.08392,-1.63162 -4.19965,-0.23256 -14.76197,0.0104 -14.76197,0.0104 0.46599,-3.25764 0.82934,-8.3812 0.44224,-11.9879 0,0 -3.74524,6.12303 -5.4905,7.13131 -0.10999,-4.52472 -2.47616,-14.07467 -9.0022,-20.49158 l 1.16078,10.58652 c 0,0 -11.07701,-18.78027 -37.9792,-30.17596 -21.78576,-9.22851 -44.68117,-12.87731 -66.51367,-12.82286 z m 122.201,69.31642 c 49.79551,4.11082 85.14421,30.34834 82.19665,50.43721 -4.52545,-11.39076 -44.92655,-19.90844 -66.74393,-23.10229 -26.28863,-3.84852 -60.34679,-10.19751 -60.22705,-3.8104 0.10929,5.8364 16.38389,13.26435 16.38389,13.26435 0,0 -4.16906,-4.4612 -1.4015,-6.51695 2.49382,-1.85195 35.04594,1.7613 45.94523,3.63766 28.30482,4.87257 47.72792,9.54716 57.27104,14.48326 -19.07715,3.81298 -40.89962,3.56305 -50.1012,2.2843 -19.49763,-2.70974 -40.79205,-2.58927 -45.30245,-1.03658 l -8.283,-6.77619 c 0,0 -1.88124,5.89165 -5.0964,9.37725 l -31.12591,-23.30386 -53.86393,-0.78702 0.096,-7.03529 44.30431,-19.0039 15.67348,-0.78703 c 0,0 4.1746,1.61055 16.61388,2.66821 21.09718,1.79381 48.83492,11.23918 48.83492,11.23918 l -13.06353,-9.46355 16.6718,1.50684 -8.78223,-7.2752 z"
       id="black_fill"
       style="fill:#000000;fill-opacity:1;stroke:none;display:inline;enable-background:new" />
    <path
       d="m 528.18066,735.29073 c -46.31659,0.86554 -83.84017,14.18709 -113.96608,41.17519 13.54661,-3.55175 38.84292,-8.05993 47.03953,1.34372 7.39949,8.48902 3.02028,27.40336 -7.39039,44.41929 l 11.27759,-1.55481 c 4.63863,-16.36628 11.42624,-36.16419 20.66439,-48.49854 6.98833,-9.3304 12.82315,-12.03611 19.78135,-14.2913 -15.43505,0.54295 -42.90605,3.67649 -67.416,8.40779 14.81463,-12.02229 42.67404,-19.91119 65.69796,-23.6877 34.28409,-5.62347 52.48812,0.65529 56.42636,4.85653 9.0816,9.68775 2.81654,22.72214 -22.98704,29.97442 18.30487,3.49033 16.4305,17.38933 12.78441,21.42262 l -4.36696,-5.61479 -40.02356,17.82336 3.15771,6.02754 c 0,0 -8.53892,5.25678 -14.40649,13.15875 18.81139,-3.08916 45.62257,-4.97872 57.30938,3.03297 9.99103,6.84917 4.6934,19.78136 4.6934,19.78136 l 19.7913,-5.25963 c -8.22258,10.16074 -15.96966,17.81085 -15.27982,28.1892 7.55383,-19.05747 31.3055,-15.88019 39.21683,-35.42606 0,0 5.20989,4.89865 1.45885,18.53359 6.88358,-2.26376 13.54267,-10.76888 13.54267,-10.76888 2.60945,-5.32707 -1.19011,-12.98597 -1.19011,-12.98597 0,0 -19.51585,-9.39892 -17.804,-15.69274 0.6746,-2.48025 5.10576,-3.14809 5.10576,-3.14809 0,0 -13.79001,-2.41055 -31.59647,-0.79663 -27.13856,2.45973 -36.43368,6.53623 -36.43368,6.53623 7.91138,-4.42113 37.27822,-19.62722 88.85817,-11.09526 -10.7038,-8.14409 -49.75612,-9.18521 -49.75612,-9.18521 0,0 16.41341,-3.42026 34.51419,-1.88119 0,0 -21.43615,-7.78744 -50.67703,-2.66823 0,0 7.61918,-10.68019 32.59448,-10.91288 -10.39354,-8.14413 -32.55625,-6.6514 -32.55625,-6.6514 0,0 20.40761,-10.21615 44.06433,-6.95851 0,0 -3.24155,-8.05365 -23.56322,-11.77669 34.20579,-1.55124 46.08973,16.77718 46.08973,16.77718 -8.53185,-3.18005 -13.7062,-3.08088 -13.7062,-3.08088 0,0 8.54921,3.03345 11.85342,10.3754 3.43628,7.63509 10.73511,13.10675 12.20877,11.59429 0.93042,-16.75362 -5.04558,-25.36845 -15.25163,-34.42785 -15.47061,-13.73316 -50.01295,-27.06256 -89.75953,-27.06619 z m -5.84516,25.16578 c 0,0 -6.54606,3.39336 -7.47682,14.3298 13.7287,0.11631 13.32864,-1.27694 14.80004,-7.20808 1.8794,-7.57563 -7.32322,-7.12172 -7.32322,-7.12172 z m -12.18945,26.68236 c -0.39285,0.006 -0.78788,0.0145 -1.18047,0.0383 0,0 -12.44734,10.00153 -7.79353,19.50302 12.25494,2.94741 16.25496,-2.08441 18.72559,-10.99928 1.82127,-6.57187 -3.85762,-8.62952 -9.75159,-8.54211 z"
       id="purple_fill"
       style="fill:#27328c;fill-opacity:1;stroke:none;display:inline;enable-background:new" />
    <path
       d="m 529.01568,740.366 c -7.13868,0.009 -15.50424,0.65469 -25.14667,2.23633 -23.02392,3.77654 -50.88333,11.6654 -65.69796,23.6877 24.50995,-4.73131 51.98095,-7.86485 67.416,-8.40777 -6.9582,2.25519 -12.79302,4.96086 -19.78135,14.2914 -9.23815,12.33423 -16.02576,32.13218 -20.66439,48.49838 0,0 16.38365,-2.46671 43.71862,-3.58001 1.75749,-1.17306 3.4648,-2.25609 5.13494,-3.27292 l 1.03658,-2.48587 26.15865,-11.67959 4.02701,0.66115 -0.0199,0.0104 c 2.54793,-0.67887 4.24682,-1.07669 4.89479,-1.46848 3.64593,-4.03328 5.52047,-17.93231 -12.78445,-21.42263 25.80359,-7.25228 32.06857,-20.28671 22.98699,-29.97439 -2.83026,-3.01962 -13.03633,-7.11696 -31.27964,-7.09287 z m -1.00781,16.25891 c 4.64681,0.0314 10.87586,1.18746 9.13724,7.77432 -1.56968,5.9471 -6.54107,11.23824 -22.28643,10.38504 3.50659,-6.98641 7.1858,-15.19621 10.43298,-18.06336 0.53326,-0.0388 1.14442,-0.0713 1.81401,-0.0863 0.29294,-0.007 0.59242,-0.012 0.9022,-0.0104 z m -12.40055,26.46157 c 6.01777,-0.0874 14.13436,0.84962 11.61352,9.72271 -1.7822,6.27321 -5.92117,15.14883 -26.04879,13.86903 0.55058,-1.77272 3.61148,-10.58945 9.58831,-23.41899 1.06756,-9.4e-4 2.84103,-0.14363 4.84696,-0.17275 z"
       id="B_white_outline"
       style="fill:#ffffff;fill-opacity:1;stroke:none;display:inline;enable-background:new" />
    <path
       d="m 526.69294,744.72348 c -19.09323,0.1156 -45.28255,4.02264 -73.65463,16.42209 37.27137,-7.81654 78.35618,-8.95781 83.33895,-6.54585 12.41198,6.00822 2.05186,18.84451 -6.52658,20.96196 33.87977,-5.64661 34.9374,-21.39918 26.20239,-26.44236 -3.95136,-2.28129 -14.50991,-4.48573 -29.36013,-4.39584 z m -9.06046,14.73284 c -27.30996,2.22605 -35.1345,25.01184 -46.52124,56.94464 17.66023,-1.61242 42.86445,-2.57223 42.86445,-2.57223 l 0.0197,-0.0104 c 14.24308,-8.6724 25.1838,-11.89015 31.20308,-13.49472 l 0.0199,-0.0104 c 0,0 18.39897,-24.5228 -36.42435,-22.29601 l 8.83948,-18.56245 z m -2.98498,20.80834 c 11.66722,-0.009 15.33374,2.09982 16.36453,8.33102 0.77729,4.69862 -1.91372,14.72905 -10.96088,19.20546 -7.27942,3.60184 -24.71471,2.90824 -24.71471,2.90824 0,0 4.98136,-15.75985 11.96867,-30.23358 2.74321,-0.1343 5.18185,-0.20948 7.34239,-0.21114 z"
       id="B_gold_fill"
       style="fill:#8e7636;fill-opacity:1;stroke:none;display:inline;enable-background:new" />
    <path
       d="m 614.44918,786.84216 c 0,4.58352 -4.25356,8.2992 -9.50103,8.2992 -5.24794,0 -9.50163,-3.71568 -9.50163,-8.2992 0,-4.58358 4.25369,-8.29925 9.50163,-8.29925 5.24747,0 9.50103,3.71567 9.50103,8.29925 z"
       id="eye_red"
       style="fill:#c90006;fill-opacity:1;stroke:none;display:inline;enable-background:new" />
    <path
       d="m 1226.0727,497.64197 a 36.112953,27.274118 0 1 1 -72.2259,0 36.112953,27.274118 0 1 1 72.2259,0 z"
       transform="matrix(0.14170037,0,0,0.18200557,439.74187,697.85918)"
       id="eye_black"
       style="fill:#000000;fill-opacity:1;stroke:none;display:inline;enable-background:new" />
    <path
       d="m 609.77291,781.76604 c -4.7993,-0.63071 -7.23878,1.7739 -8.06237,3.40043 -1.22188,2.41266 -0.54822,6.19756 1.37132,7.78806 -5.37482,-1.84688 -5.88699,-6.75984 -3.42868,-9.70363 2.07345,-2.48305 6.35556,-3.44221 10.11973,-1.48486 z"
       id="eye_white"
       style="fill:#ffffff;fill-opacity:1;stroke:none;display:inline;enable-background:new" />
  </g>
</svg>
