<?xml version="1.0" encoding="UTF-8" standalone="no"?>
<!-- Generator: Adobe Illustrator 12.0.0, SVG Export Plug-In . SVG Version: 6.00 Build 51448)  -->

<svg
   xmlns:dc="http://purl.org/dc/elements/1.1/"
   xmlns:cc="http://creativecommons.org/ns#"
   xmlns:rdf="http://www.w3.org/1999/02/22-rdf-syntax-ns#"
   xmlns:svg="http://www.w3.org/2000/svg"
   xmlns="http://www.w3.org/2000/svg"
   xmlns:sodipodi="http://sodipodi.sourceforge.net/DTD/sodipodi-0.dtd"
   xmlns:inkscape="http://www.inkscape.org/namespaces/inkscape"
   version="1.1"
   id="CLEVELAND_BROWNS"
   width="323.764"
   height="200"
   viewBox="0 0 323.764 200"
   overflow="visible"
   enable-background="new 0 0 323.764 200"
   xml:space="preserve"
   inkscape:version="0.48.2 r9819"
   sodipodi:docname="Cleveland_Browns_B_logo.svg"><metadata
   id="metadata3125"><rdf:RDF><cc:Work
       rdf:about=""><dc:format>image/svg+xml</dc:format><dc:type
         rdf:resource="http://purl.org/dc/dcmitype/StillImage" /><dc:title></dc:title></cc:Work></rdf:RDF></metadata><defs
   id="defs3123" /><sodipodi:namedview
   pagecolor="#ffffff"
   bordercolor="#666666"
   borderopacity="1"
   objecttolerance="10"
   gridtolerance="10"
   guidetolerance="10"
   inkscape:pageopacity="0"
   inkscape:pageshadow="2"
   inkscape:window-width="640"
   inkscape:window-height="480"
   id="namedview3121"
   showgrid="false"
   inkscape:zoom="0.90189148"
   inkscape:cx="161.882"
   inkscape:cy="144.35123"
   inkscape:window-x="0"
   inkscape:window-y="0"
   inkscape:window-maximized="0"
   inkscape:current-layer="CLEVELAND_BROWNS" />
<g
   id="g3107">
	<polygon
   fill="#30180D"
   points="123.229,67.583 123.229,129.025 61.524,129.025 36.737,98.963 62.315,67.583  "
   id="polygon3109" />
	<polygon
   fill="#30180D"
   points="205.054,103.74 205.054,128.941 269.011,128.941 291.547,97.561 266.76,67.5 205.054,67.5    205.054,91.229 199.015,97.268  "
   id="polygon3111" />
	<polygon
   fill="#F15722"
   points="205.054,103.74 205.054,109.996 282.431,110.254 291.547,97.561 283.927,88.34 205.054,88.34    205.054,91.229 199.015,97.268  "
   id="polygon3113" />
	<path
   fill="#30180D"
   d="M175.649,109.996h-27.431v28.874h27.431V109.996z M175.649,55.616h-27.431V84.49h27.431V55.616z    M185.574,36.014l13.537,13.489l0.181,38.195l-9.958,9.957l10.2,11.385v38.659l-15.057,13.583h-66.054v-22.341h8.933V59.285h-6.989   V36.08L185.574,36.014z"
   id="path3115" />
	<polygon
   fill="#F15722"
   points="123.229,87.439 46.34,87.182 36.737,98.963 45.091,109.096 123.229,109.096  "
   id="polygon3117" />
	<path
   fill="#30180D"
   d="M49.405,60.756C34.212,75.282,23.541,90.014,17.324,99.693c6.977,10.107,19.016,25.789,35.595,40.98   c35.214,32.266,73.676,47.465,114.319,45.175c41.147-2.317,78.072-19.314,109.748-50.515   c14.577-14.359,24.729-28.658,30.571-37.902c-5.757-9.361-15.874-23.857-30.635-38.145c-31.88-30.855-69.769-46.5-112.613-46.5   C121.362,12.786,82.702,28.926,49.405,60.756z M0,100.735C0,100.735,51.533,0,163.897,0C276.26,0,323.764,98.363,323.764,98.363   s-48.479,95.567-155.959,101.402C60.327,205.602,0,100.735,0,100.735z"
   id="path3119" />
</g>
</svg>